G04 #@! TF.FileFunction,Copper,L2,Bot,Signal*
%FSLAX46Y46*%
G04 Gerber Fmt 4.6, Leading zero omitted, Abs format (unit mm)*
G04 Created by KiCad (PCBNEW 4.0.7-e2-6376~61~ubuntu18.04.1) date Mon May 27 11:53:03 2019*
%MOMM*%
%LPD*%
G01*
G04 APERTURE LIST*
%ADD10C,0.100000*%
%ADD11R,1.700000X1.700000*%
%ADD12O,1.700000X1.700000*%
%ADD13C,1.574800*%
%ADD14C,1.600000*%
%ADD15R,1.600000X1.600000*%
%ADD16R,1.800000X1.800000*%
%ADD17C,1.800000*%
%ADD18O,1.600000X1.600000*%
%ADD19C,1.700000*%
%ADD20R,2.400000X1.600000*%
%ADD21O,2.400000X1.600000*%
%ADD22C,1.200000*%
%ADD23C,0.900000*%
%ADD24C,0.400000*%
%ADD25C,0.700000*%
%ADD26C,1.000000*%
%ADD27C,0.254000*%
G04 APERTURE END LIST*
D10*
D11*
X177820000Y-115780000D03*
D12*
X180360000Y-115780000D03*
X177820000Y-118320000D03*
X180360000Y-118320000D03*
X177820000Y-120860000D03*
X180360000Y-120860000D03*
X177820000Y-123400000D03*
X180360000Y-123400000D03*
D13*
X162580000Y-103080000D03*
X147340000Y-103080000D03*
X162580000Y-105620000D03*
X147340000Y-105620000D03*
X162580000Y-108160000D03*
X147340000Y-108160000D03*
X162580000Y-110700000D03*
X147340000Y-110700000D03*
X162580000Y-113240000D03*
X147340000Y-113240000D03*
X162580000Y-115780000D03*
X147340000Y-115780000D03*
X162580000Y-118320000D03*
X147340000Y-118320000D03*
X162580000Y-120860000D03*
X147340000Y-120860000D03*
X162580000Y-123400000D03*
X147340000Y-123400000D03*
X162580000Y-125940000D03*
X147340000Y-125940000D03*
X162580000Y-128480000D03*
X147340000Y-128480000D03*
X162580000Y-131020000D03*
X147340000Y-131020000D03*
X162580000Y-133560000D03*
X147340000Y-133560000D03*
X162580000Y-136100000D03*
X147340000Y-136100000D03*
X162580000Y-138640000D03*
X147340000Y-138640000D03*
D14*
X100350000Y-137878000D03*
X100350000Y-135378000D03*
X100350000Y-143720000D03*
X100350000Y-141220000D03*
D15*
X135910000Y-101810000D03*
D14*
X135910000Y-104310000D03*
X130830000Y-101810000D03*
X130830000Y-104310000D03*
D16*
X175260000Y-144272000D03*
D17*
X177800000Y-144272000D03*
D16*
X124226000Y-144228000D03*
D17*
X126766000Y-144228000D03*
D16*
X117368000Y-144228000D03*
D17*
X119908000Y-144228000D03*
D11*
X167660000Y-113240000D03*
D12*
X167660000Y-115780000D03*
D11*
X137180000Y-118320000D03*
D12*
X137180000Y-115780000D03*
X137180000Y-113240000D03*
X137180000Y-110700000D03*
D11*
X127020000Y-118320000D03*
D12*
X127020000Y-115780000D03*
X127020000Y-113240000D03*
X127020000Y-110700000D03*
D11*
X137180000Y-133560000D03*
D12*
X137180000Y-131020000D03*
X137180000Y-128480000D03*
X137180000Y-125940000D03*
D11*
X127020000Y-133560000D03*
D12*
X127020000Y-131020000D03*
X127020000Y-128480000D03*
X127020000Y-125940000D03*
D11*
X180360000Y-131020000D03*
D12*
X180360000Y-133560000D03*
X180360000Y-136100000D03*
X180360000Y-138640000D03*
D11*
X187980000Y-131020000D03*
D12*
X187980000Y-133560000D03*
X187980000Y-136100000D03*
X187980000Y-138640000D03*
D14*
X116860000Y-104350000D03*
D18*
X124480000Y-104350000D03*
D14*
X119400000Y-108160000D03*
D18*
X119400000Y-115780000D03*
D14*
X180340000Y-144272000D03*
D18*
X187960000Y-144272000D03*
D14*
X122956000Y-141180000D03*
D18*
X122956000Y-133560000D03*
D14*
X119908000Y-141180000D03*
D18*
X119908000Y-133560000D03*
D19*
X133220000Y-139220000D03*
X139720000Y-139220000D03*
X133220000Y-143720000D03*
X139720000Y-143720000D03*
D20*
X105430000Y-122892000D03*
D21*
X113050000Y-143212000D03*
X105430000Y-125432000D03*
X113050000Y-140672000D03*
X105430000Y-127972000D03*
X113050000Y-138132000D03*
X105430000Y-130512000D03*
X113050000Y-135592000D03*
X105430000Y-133052000D03*
X113050000Y-133052000D03*
X105430000Y-135592000D03*
X113050000Y-130512000D03*
X105430000Y-138132000D03*
X113050000Y-127972000D03*
X105430000Y-140672000D03*
X113050000Y-125432000D03*
X105430000Y-143212000D03*
X113050000Y-122892000D03*
D11*
X94000000Y-98000000D03*
D12*
X94000000Y-95460000D03*
X96540000Y-98000000D03*
X96540000Y-95460000D03*
X99080000Y-98000000D03*
X99080000Y-95460000D03*
X101620000Y-98000000D03*
X101620000Y-95460000D03*
X104160000Y-98000000D03*
X104160000Y-95460000D03*
X106700000Y-98000000D03*
X106700000Y-95460000D03*
X109240000Y-98000000D03*
X109240000Y-95460000D03*
X111780000Y-98000000D03*
X111780000Y-95460000D03*
X114320000Y-98000000D03*
X114320000Y-95460000D03*
X116860000Y-98000000D03*
X116860000Y-95460000D03*
X119400000Y-98000000D03*
X119400000Y-95460000D03*
X121940000Y-98000000D03*
X121940000Y-95460000D03*
X124480000Y-98000000D03*
X124480000Y-95460000D03*
X127020000Y-98000000D03*
X127020000Y-95460000D03*
X129560000Y-98000000D03*
X129560000Y-95460000D03*
X132100000Y-98000000D03*
X132100000Y-95460000D03*
D15*
X106700000Y-108160000D03*
D18*
X114320000Y-115780000D03*
X106700000Y-110700000D03*
X114320000Y-113240000D03*
X106700000Y-113240000D03*
X114320000Y-110700000D03*
X106700000Y-115780000D03*
X114320000Y-108160000D03*
D11*
X187980000Y-105620000D03*
D12*
X187980000Y-108160000D03*
D11*
X167660000Y-138640000D03*
D12*
X167660000Y-136100000D03*
X170200000Y-138640000D03*
X170200000Y-136100000D03*
X172740000Y-138640000D03*
X172740000Y-136100000D03*
D11*
X172740000Y-108160000D03*
D12*
X172740000Y-105620000D03*
X175280000Y-108160000D03*
X175280000Y-105620000D03*
X177820000Y-108160000D03*
X177820000Y-105620000D03*
D11*
X187980000Y-115780000D03*
D12*
X190520000Y-115780000D03*
X187980000Y-118320000D03*
X190520000Y-118320000D03*
X187980000Y-120860000D03*
X190520000Y-120860000D03*
X187980000Y-123400000D03*
X190520000Y-123400000D03*
D22*
X157246000Y-114002000D03*
X156738000Y-136608000D03*
X131846000Y-123908000D03*
X128544000Y-142704000D03*
D23*
X117602000Y-122174000D03*
X141986000Y-110998000D03*
D24*
X147340000Y-108160000D02*
X144824000Y-108160000D01*
X111208000Y-125432000D02*
X113050000Y-125432000D01*
X109982000Y-124206000D02*
X111208000Y-125432000D01*
X109982000Y-122682000D02*
X109982000Y-124206000D01*
X112014000Y-120650000D02*
X109982000Y-122682000D01*
X116078000Y-120650000D02*
X112014000Y-120650000D01*
X117602000Y-122174000D02*
X116078000Y-120650000D01*
X144824000Y-108160000D02*
X141986000Y-110998000D01*
X139720000Y-143720000D02*
X147848000Y-143720000D01*
X150388000Y-108160000D02*
X147340000Y-108160000D01*
X152674000Y-110446000D02*
X150388000Y-108160000D01*
X152674000Y-138894000D02*
X152674000Y-110446000D01*
X147848000Y-143720000D02*
X152674000Y-138894000D01*
D25*
X127020000Y-125940000D02*
X126956000Y-125940000D01*
X126956000Y-125940000D02*
X123952000Y-122936000D01*
X125012000Y-110700000D02*
X127020000Y-110700000D01*
X123952000Y-111760000D02*
X125012000Y-110700000D01*
X123952000Y-122936000D02*
X123952000Y-111760000D01*
X127020000Y-125940000D02*
X137180000Y-125940000D01*
D24*
X175260000Y-144272000D02*
X175260000Y-143256000D01*
X175260000Y-143256000D02*
X175280000Y-143256000D01*
X122956000Y-133560000D02*
X119908000Y-133560000D01*
X127020000Y-125940000D02*
X122956000Y-130004000D01*
X122956000Y-130004000D02*
X122956000Y-133560000D01*
X114320000Y-98000000D02*
X106954000Y-105366000D01*
X104922000Y-113240000D02*
X106700000Y-113240000D01*
X103398000Y-111716000D02*
X104922000Y-113240000D01*
X103398000Y-107144000D02*
X103398000Y-111716000D01*
X105176000Y-105366000D02*
X103398000Y-107144000D01*
X106954000Y-105366000D02*
X105176000Y-105366000D01*
D25*
X135910000Y-101810000D02*
X142768000Y-101810000D01*
X160294000Y-110700000D02*
X162580000Y-110700000D01*
X150388000Y-100794000D02*
X160294000Y-110700000D01*
X143784000Y-100794000D02*
X150388000Y-100794000D01*
X142768000Y-101810000D02*
X143784000Y-100794000D01*
X172740000Y-108160000D02*
X167914000Y-108160000D01*
X167914000Y-108160000D02*
X165374000Y-110700000D01*
X165374000Y-110700000D02*
X162580000Y-110700000D01*
X175280000Y-108160000D02*
X172740000Y-108160000D01*
D24*
X119400000Y-125940000D02*
X118638000Y-125940000D01*
X118638000Y-125940000D02*
X115590000Y-122892000D01*
X115590000Y-122892000D02*
X113050000Y-122892000D01*
X175280000Y-143720000D02*
X175280000Y-143256000D01*
X175280000Y-143256000D02*
X175280000Y-141180000D01*
X177820000Y-138640000D02*
X180360000Y-138640000D01*
X175280000Y-141180000D02*
X177820000Y-138640000D01*
D25*
X127020000Y-110700000D02*
X137180000Y-110700000D01*
X127020000Y-110700000D02*
X127020000Y-105620000D01*
X127020000Y-105620000D02*
X130830000Y-101810000D01*
D24*
X119400000Y-125940000D02*
X123210000Y-125940000D01*
X123210000Y-125940000D02*
X127020000Y-125940000D01*
D25*
X190520000Y-115780000D02*
X191790000Y-115780000D01*
X191790000Y-138640000D02*
X187980000Y-138640000D01*
X194330000Y-136100000D02*
X191790000Y-138640000D01*
X194330000Y-118320000D02*
X194330000Y-136100000D01*
X191790000Y-115780000D02*
X194330000Y-118320000D01*
X180360000Y-138640000D02*
X187980000Y-138640000D01*
X180360000Y-115780000D02*
X187980000Y-115780000D01*
X187980000Y-115780000D02*
X190520000Y-115780000D01*
X177820000Y-108160000D02*
X177820000Y-115780000D01*
X177820000Y-115780000D02*
X180360000Y-115780000D01*
X175280000Y-108160000D02*
X177820000Y-108160000D01*
X177820000Y-108160000D02*
X187980000Y-108160000D01*
D26*
X135910000Y-101810000D02*
X130830000Y-101810000D01*
X130830000Y-101810000D02*
X116860000Y-101810000D01*
X116860000Y-101810000D02*
X114320000Y-99270000D01*
X114320000Y-99270000D02*
X114320000Y-98000000D01*
X114320000Y-95460000D02*
X114320000Y-98000000D01*
D24*
X162580000Y-113240000D02*
X167660000Y-113240000D01*
X137180000Y-113240000D02*
X147340000Y-113240000D01*
X162580000Y-115780000D02*
X167660000Y-115780000D01*
X137180000Y-115780000D02*
X147340000Y-115780000D01*
X177820000Y-120860000D02*
X173248000Y-120860000D01*
X164358000Y-118320000D02*
X162580000Y-118320000D01*
X166136000Y-120098000D02*
X164358000Y-118320000D01*
X172486000Y-120098000D02*
X166136000Y-120098000D01*
X173248000Y-120860000D02*
X172486000Y-120098000D01*
X180360000Y-120860000D02*
X187980000Y-120860000D01*
X177820000Y-120860000D02*
X180360000Y-120860000D01*
X187980000Y-120860000D02*
X190520000Y-120860000D01*
X147340000Y-118320000D02*
X141752000Y-118320000D01*
X128036000Y-113240000D02*
X127020000Y-113240000D01*
X134894000Y-120098000D02*
X128036000Y-113240000D01*
X139974000Y-120098000D02*
X134894000Y-120098000D01*
X141752000Y-118320000D02*
X139974000Y-120098000D01*
X177820000Y-123400000D02*
X176296000Y-123400000D01*
X171978000Y-120860000D02*
X162580000Y-120860000D01*
X172740000Y-121622000D02*
X171978000Y-120860000D01*
X174518000Y-121622000D02*
X172740000Y-121622000D01*
X176296000Y-123400000D02*
X174518000Y-121622000D01*
X190520000Y-123400000D02*
X187980000Y-123400000D01*
X187980000Y-123400000D02*
X180360000Y-123400000D01*
X180360000Y-123400000D02*
X177820000Y-123400000D01*
X147340000Y-120860000D02*
X134640000Y-120860000D01*
X129560000Y-115780000D02*
X127020000Y-115780000D01*
X134640000Y-120860000D02*
X129560000Y-115780000D01*
X162580000Y-123400000D02*
X164358000Y-123400000D01*
X186710000Y-133560000D02*
X187980000Y-133560000D01*
X184932000Y-131782000D02*
X186710000Y-133560000D01*
X184932000Y-127972000D02*
X184932000Y-131782000D01*
X182900000Y-125940000D02*
X184932000Y-127972000D01*
X174010000Y-125940000D02*
X182900000Y-125940000D01*
X173248000Y-125178000D02*
X174010000Y-125940000D01*
X166136000Y-125178000D02*
X173248000Y-125178000D01*
X164358000Y-123400000D02*
X166136000Y-125178000D01*
X137180000Y-128480000D02*
X138450000Y-128480000D01*
X143530000Y-123400000D02*
X147340000Y-123400000D01*
X138450000Y-128480000D02*
X143530000Y-123400000D01*
X187980000Y-136100000D02*
X183916000Y-132036000D01*
X172486000Y-125940000D02*
X162580000Y-125940000D01*
X173248000Y-126702000D02*
X172486000Y-125940000D01*
X182392000Y-126702000D02*
X173248000Y-126702000D01*
X183916000Y-128226000D02*
X182392000Y-126702000D01*
X183916000Y-132036000D02*
X183916000Y-128226000D01*
X137180000Y-131020000D02*
X138450000Y-131020000D01*
X143530000Y-125940000D02*
X147340000Y-125940000D01*
X138450000Y-131020000D02*
X143530000Y-125940000D01*
X180360000Y-133560000D02*
X179090000Y-133560000D01*
X164358000Y-128480000D02*
X162580000Y-128480000D01*
X165882000Y-130004000D02*
X164358000Y-128480000D01*
X175534000Y-130004000D02*
X165882000Y-130004000D01*
X179090000Y-133560000D02*
X175534000Y-130004000D01*
X147340000Y-128480000D02*
X146070000Y-128480000D01*
X132100000Y-128480000D02*
X127020000Y-128480000D01*
X133370000Y-129750000D02*
X132100000Y-128480000D01*
X133370000Y-133560000D02*
X133370000Y-129750000D01*
X135275000Y-135465000D02*
X133370000Y-133560000D01*
X139085000Y-135465000D02*
X135275000Y-135465000D01*
X146070000Y-128480000D02*
X139085000Y-135465000D01*
X147340000Y-128480000D02*
X146705000Y-128480000D01*
X162580000Y-131020000D02*
X175280000Y-131020000D01*
X175280000Y-131020000D02*
X180360000Y-136100000D01*
X180360000Y-136100000D02*
X180360000Y-136100000D01*
X127020000Y-131020000D02*
X130830000Y-131020000D01*
X146070000Y-131020000D02*
X147340000Y-131020000D01*
X140736000Y-136354000D02*
X146070000Y-131020000D01*
X134259000Y-136354000D02*
X140736000Y-136354000D01*
X132100000Y-134195000D02*
X134259000Y-136354000D01*
X132100000Y-132290000D02*
X132100000Y-134195000D01*
X130830000Y-131020000D02*
X132100000Y-132290000D01*
X147340000Y-133560000D02*
X145816000Y-133560000D01*
X115082000Y-127972000D02*
X113050000Y-127972000D01*
X117114000Y-130004000D02*
X115082000Y-127972000D01*
X117114000Y-135338000D02*
X117114000Y-130004000D01*
X117876000Y-136100000D02*
X117114000Y-135338000D01*
X129306000Y-136100000D02*
X117876000Y-136100000D01*
X130576000Y-137370000D02*
X129306000Y-136100000D01*
X142006000Y-137370000D02*
X130576000Y-137370000D01*
X145816000Y-133560000D02*
X142006000Y-137370000D01*
D25*
X170200000Y-138640000D02*
X172740000Y-138640000D01*
X167660000Y-138640000D02*
X170200000Y-138640000D01*
X162580000Y-136100000D02*
X165120000Y-136100000D01*
X165120000Y-136100000D02*
X167660000Y-138640000D01*
D24*
X113050000Y-135592000D02*
X116860000Y-139402000D01*
X116860000Y-139402000D02*
X117876000Y-139402000D01*
X117876000Y-139402000D02*
X127528000Y-139402000D01*
X130576000Y-144482000D02*
X131719000Y-145625000D01*
X130576000Y-142450000D02*
X130576000Y-144482000D01*
X127528000Y-139402000D02*
X130576000Y-142450000D01*
X160040000Y-138640000D02*
X162580000Y-138640000D01*
X153055000Y-145625000D02*
X160040000Y-138640000D01*
X131719000Y-145625000D02*
X153055000Y-145625000D01*
X113050000Y-130512000D02*
X115082000Y-130512000D01*
X116098000Y-131528000D02*
X116098000Y-135592000D01*
X116098000Y-135592000D02*
X117622000Y-137116000D01*
X117622000Y-137116000D02*
X128671000Y-137116000D01*
X128671000Y-137116000D02*
X132481000Y-140926000D01*
X132481000Y-140926000D02*
X145054000Y-140926000D01*
X145054000Y-140926000D02*
X147340000Y-138640000D01*
X115082000Y-130512000D02*
X116098000Y-131528000D01*
X177800000Y-144272000D02*
X180340000Y-144272000D01*
X124226000Y-144228000D02*
X122448000Y-144228000D01*
X106954000Y-125432000D02*
X105430000Y-125432000D01*
X109240000Y-127718000D02*
X106954000Y-125432000D01*
X109240000Y-144736000D02*
X109240000Y-127718000D01*
X110510000Y-146006000D02*
X109240000Y-144736000D01*
X120670000Y-146006000D02*
X110510000Y-146006000D01*
X122448000Y-144228000D02*
X120670000Y-146006000D01*
X105430000Y-125432000D02*
X102636000Y-125432000D01*
X103906000Y-115780000D02*
X106700000Y-115780000D01*
X101112000Y-118574000D02*
X103906000Y-115780000D01*
X101112000Y-123908000D02*
X101112000Y-118574000D01*
X102636000Y-125432000D02*
X101112000Y-123908000D01*
X126766000Y-142196000D02*
X126766000Y-144228000D01*
X125750000Y-141180000D02*
X126766000Y-142196000D01*
X122956000Y-141180000D02*
X125750000Y-141180000D01*
X105430000Y-122892000D02*
X105430000Y-121622000D01*
X108732000Y-108160000D02*
X106700000Y-108160000D01*
X110256000Y-109684000D02*
X108732000Y-108160000D01*
X110256000Y-116796000D02*
X110256000Y-109684000D01*
X105430000Y-121622000D02*
X110256000Y-116796000D01*
X117368000Y-144228000D02*
X115844000Y-144228000D01*
X106700000Y-122892000D02*
X105430000Y-122892000D01*
X110256000Y-126448000D02*
X106700000Y-122892000D01*
X110256000Y-143720000D02*
X110256000Y-126448000D01*
X111526000Y-144990000D02*
X110256000Y-143720000D01*
X115082000Y-144990000D02*
X111526000Y-144990000D01*
X115844000Y-144228000D02*
X115082000Y-144990000D01*
X119908000Y-141180000D02*
X119908000Y-144228000D01*
X114320000Y-108160000D02*
X114320000Y-106890000D01*
X114320000Y-106890000D02*
X116860000Y-104350000D01*
X113050000Y-133052000D02*
X114574000Y-133052000D01*
X114574000Y-133052000D02*
X115336000Y-133814000D01*
X115336000Y-133814000D02*
X115336000Y-136862000D01*
X115336000Y-136862000D02*
X116606000Y-138132000D01*
X116606000Y-138132000D02*
X128290000Y-138132000D01*
X128290000Y-138132000D02*
X132100000Y-141942000D01*
X132100000Y-141942000D02*
X147848000Y-141942000D01*
X147848000Y-141942000D02*
X149626000Y-140164000D01*
X149626000Y-140164000D02*
X149626000Y-136862000D01*
X149626000Y-136862000D02*
X148864000Y-136100000D01*
X148864000Y-136100000D02*
X147340000Y-136100000D01*
X114320000Y-110700000D02*
X116860000Y-110700000D01*
X116860000Y-110700000D02*
X119400000Y-108160000D01*
X114320000Y-113240000D02*
X116860000Y-113240000D01*
X116860000Y-113240000D02*
X119400000Y-115780000D01*
X132100000Y-95460000D02*
X137180000Y-95460000D01*
X187980000Y-96730000D02*
X187980000Y-105620000D01*
X185440000Y-94190000D02*
X187980000Y-96730000D01*
X138450000Y-94190000D02*
X185440000Y-94190000D01*
X137180000Y-95460000D02*
X138450000Y-94190000D01*
X132100000Y-98000000D02*
X132100000Y-95460000D01*
D27*
G36*
X194253707Y-92973288D02*
X195316546Y-93683454D01*
X196026712Y-94746295D01*
X196290000Y-96069931D01*
X196290000Y-145930070D01*
X196255074Y-146105655D01*
X196195225Y-146195226D01*
X196105655Y-146255074D01*
X195930070Y-146290000D01*
X153533838Y-146290000D01*
X153645434Y-146215434D01*
X160385868Y-139475000D01*
X161403720Y-139475000D01*
X161773223Y-139845149D01*
X162295826Y-140062152D01*
X162861691Y-140062646D01*
X163384672Y-139846555D01*
X163785149Y-139446777D01*
X164002152Y-138924174D01*
X164002646Y-138358309D01*
X163786555Y-137835328D01*
X163386777Y-137434851D01*
X163230860Y-137370109D01*
X163384672Y-137306555D01*
X163606614Y-137085000D01*
X164712000Y-137085000D01*
X166162560Y-138535560D01*
X166162560Y-139490000D01*
X166206838Y-139725317D01*
X166345910Y-139941441D01*
X166558110Y-140086431D01*
X166810000Y-140137440D01*
X168510000Y-140137440D01*
X168745317Y-140093162D01*
X168961441Y-139954090D01*
X169106431Y-139741890D01*
X169120086Y-139674459D01*
X169149946Y-139719147D01*
X169631715Y-140041054D01*
X170200000Y-140154093D01*
X170768285Y-140041054D01*
X171250054Y-139719147D01*
X171312961Y-139625000D01*
X171627039Y-139625000D01*
X171689946Y-139719147D01*
X172171715Y-140041054D01*
X172740000Y-140154093D01*
X173308285Y-140041054D01*
X173790054Y-139719147D01*
X174111961Y-139237378D01*
X174225000Y-138669093D01*
X174225000Y-138610907D01*
X174111961Y-138042622D01*
X173790054Y-137560853D01*
X173506899Y-137371655D01*
X173506924Y-137371645D01*
X173935183Y-136981358D01*
X174181486Y-136456892D01*
X174060819Y-136227000D01*
X172867000Y-136227000D01*
X172867000Y-136247000D01*
X172613000Y-136247000D01*
X172613000Y-136227000D01*
X170327000Y-136227000D01*
X170327000Y-136247000D01*
X170073000Y-136247000D01*
X170073000Y-136227000D01*
X167787000Y-136227000D01*
X167787000Y-136247000D01*
X167533000Y-136247000D01*
X167533000Y-136227000D01*
X167513000Y-136227000D01*
X167513000Y-135973000D01*
X167533000Y-135973000D01*
X167533000Y-134779845D01*
X167787000Y-134779845D01*
X167787000Y-135973000D01*
X170073000Y-135973000D01*
X170073000Y-134779845D01*
X170327000Y-134779845D01*
X170327000Y-135973000D01*
X172613000Y-135973000D01*
X172613000Y-134779845D01*
X172867000Y-134779845D01*
X172867000Y-135973000D01*
X174060819Y-135973000D01*
X174181486Y-135743108D01*
X173935183Y-135218642D01*
X173506924Y-134828355D01*
X173096890Y-134658524D01*
X172867000Y-134779845D01*
X172613000Y-134779845D01*
X172383110Y-134658524D01*
X171973076Y-134828355D01*
X171544817Y-135218642D01*
X171470000Y-135377954D01*
X171395183Y-135218642D01*
X170966924Y-134828355D01*
X170556890Y-134658524D01*
X170327000Y-134779845D01*
X170073000Y-134779845D01*
X169843110Y-134658524D01*
X169433076Y-134828355D01*
X169004817Y-135218642D01*
X168930000Y-135377954D01*
X168855183Y-135218642D01*
X168426924Y-134828355D01*
X168016890Y-134658524D01*
X167787000Y-134779845D01*
X167533000Y-134779845D01*
X167303110Y-134658524D01*
X166893076Y-134828355D01*
X166464817Y-135218642D01*
X166218514Y-135743108D01*
X166287457Y-135874457D01*
X165816500Y-135403500D01*
X165496943Y-135189979D01*
X165120000Y-135115000D01*
X163606542Y-135115000D01*
X163386777Y-134894851D01*
X163230860Y-134830109D01*
X163384672Y-134766555D01*
X163785149Y-134366777D01*
X164002152Y-133844174D01*
X164002646Y-133278309D01*
X163786555Y-132755328D01*
X163386777Y-132354851D01*
X163230860Y-132290109D01*
X163384672Y-132226555D01*
X163756877Y-131855000D01*
X174934132Y-131855000D01*
X178901193Y-135822061D01*
X178845907Y-136100000D01*
X178958946Y-136668285D01*
X179280853Y-137150054D01*
X179610026Y-137370000D01*
X179280853Y-137589946D01*
X179137159Y-137805000D01*
X177820000Y-137805000D01*
X177500459Y-137868561D01*
X177239958Y-138042622D01*
X177229566Y-138049566D01*
X174689566Y-140589566D01*
X174508561Y-140860459D01*
X174445000Y-141180000D01*
X174445000Y-142724560D01*
X174360000Y-142724560D01*
X174124683Y-142768838D01*
X173908559Y-142907910D01*
X173763569Y-143120110D01*
X173712560Y-143372000D01*
X173712560Y-145172000D01*
X173756838Y-145407317D01*
X173895910Y-145623441D01*
X174108110Y-145768431D01*
X174360000Y-145819440D01*
X176160000Y-145819440D01*
X176395317Y-145775162D01*
X176611441Y-145636090D01*
X176756431Y-145423890D01*
X176760567Y-145403466D01*
X176929357Y-145572551D01*
X177493330Y-145806733D01*
X178103991Y-145807265D01*
X178668371Y-145574068D01*
X179100551Y-145142643D01*
X179115351Y-145107000D01*
X179145917Y-145107000D01*
X179526077Y-145487824D01*
X180053309Y-145706750D01*
X180624187Y-145707248D01*
X181151800Y-145489243D01*
X181555824Y-145085923D01*
X181748860Y-144621039D01*
X186568096Y-144621039D01*
X186728959Y-145009423D01*
X187104866Y-145424389D01*
X187610959Y-145663914D01*
X187833000Y-145542629D01*
X187833000Y-144399000D01*
X188087000Y-144399000D01*
X188087000Y-145542629D01*
X188309041Y-145663914D01*
X188815134Y-145424389D01*
X189191041Y-145009423D01*
X189351904Y-144621039D01*
X189229915Y-144399000D01*
X188087000Y-144399000D01*
X187833000Y-144399000D01*
X186690085Y-144399000D01*
X186568096Y-144621039D01*
X181748860Y-144621039D01*
X181774750Y-144558691D01*
X181775248Y-143987813D01*
X181748452Y-143922961D01*
X186568096Y-143922961D01*
X186690085Y-144145000D01*
X187833000Y-144145000D01*
X187833000Y-143001371D01*
X188087000Y-143001371D01*
X188087000Y-144145000D01*
X189229915Y-144145000D01*
X189351904Y-143922961D01*
X189191041Y-143534577D01*
X188815134Y-143119611D01*
X188309041Y-142880086D01*
X188087000Y-143001371D01*
X187833000Y-143001371D01*
X187610959Y-142880086D01*
X187104866Y-143119611D01*
X186728959Y-143534577D01*
X186568096Y-143922961D01*
X181748452Y-143922961D01*
X181557243Y-143460200D01*
X181153923Y-143056176D01*
X180626691Y-142837250D01*
X180055813Y-142836752D01*
X179528200Y-143054757D01*
X179145290Y-143437000D01*
X179115857Y-143437000D01*
X179102068Y-143403629D01*
X178670643Y-142971449D01*
X178106670Y-142737267D01*
X177496009Y-142736735D01*
X176931629Y-142969932D01*
X176763387Y-143137880D01*
X176763162Y-143136683D01*
X176624090Y-142920559D01*
X176411890Y-142775569D01*
X176160000Y-142724560D01*
X176115000Y-142724560D01*
X176115000Y-141525868D01*
X178165868Y-139475000D01*
X179137159Y-139475000D01*
X179280853Y-139690054D01*
X179762622Y-140011961D01*
X180330907Y-140125000D01*
X180389093Y-140125000D01*
X180957378Y-140011961D01*
X181439147Y-139690054D01*
X181482615Y-139625000D01*
X186857385Y-139625000D01*
X186900853Y-139690054D01*
X187382622Y-140011961D01*
X187950907Y-140125000D01*
X188009093Y-140125000D01*
X188577378Y-140011961D01*
X189059147Y-139690054D01*
X189102615Y-139625000D01*
X191790000Y-139625000D01*
X192166943Y-139550021D01*
X192486500Y-139336500D01*
X195026500Y-136796500D01*
X195240021Y-136476943D01*
X195251439Y-136419540D01*
X195315000Y-136100000D01*
X195315000Y-118320000D01*
X195240021Y-117943057D01*
X195026500Y-117623500D01*
X192486500Y-115083500D01*
X192166943Y-114869979D01*
X191790000Y-114795000D01*
X191642615Y-114795000D01*
X191599147Y-114729946D01*
X191117378Y-114408039D01*
X190549093Y-114295000D01*
X190490907Y-114295000D01*
X189922622Y-114408039D01*
X189440853Y-114729946D01*
X189440029Y-114731179D01*
X189433162Y-114694683D01*
X189294090Y-114478559D01*
X189081890Y-114333569D01*
X188830000Y-114282560D01*
X187130000Y-114282560D01*
X186894683Y-114326838D01*
X186678559Y-114465910D01*
X186533569Y-114678110D01*
X186509898Y-114795000D01*
X181482615Y-114795000D01*
X181439147Y-114729946D01*
X180957378Y-114408039D01*
X180389093Y-114295000D01*
X180330907Y-114295000D01*
X179762622Y-114408039D01*
X179280853Y-114729946D01*
X179280029Y-114731179D01*
X179273162Y-114694683D01*
X179134090Y-114478559D01*
X178921890Y-114333569D01*
X178805000Y-114309898D01*
X178805000Y-109282615D01*
X178870054Y-109239147D01*
X178932961Y-109145000D01*
X186857385Y-109145000D01*
X186900853Y-109210054D01*
X187382622Y-109531961D01*
X187950907Y-109645000D01*
X188009093Y-109645000D01*
X188577378Y-109531961D01*
X189059147Y-109210054D01*
X189381054Y-108728285D01*
X189494093Y-108160000D01*
X189381054Y-107591715D01*
X189059147Y-107109946D01*
X189017548Y-107082150D01*
X189065317Y-107073162D01*
X189281441Y-106934090D01*
X189426431Y-106721890D01*
X189477440Y-106470000D01*
X189477440Y-104770000D01*
X189433162Y-104534683D01*
X189294090Y-104318559D01*
X189081890Y-104173569D01*
X188830000Y-104122560D01*
X188815000Y-104122560D01*
X188815000Y-96730000D01*
X188751439Y-96410459D01*
X188570434Y-96139566D01*
X186030434Y-93599566D01*
X185884485Y-93502046D01*
X185759541Y-93418561D01*
X185440000Y-93355000D01*
X138450000Y-93355000D01*
X138130459Y-93418561D01*
X138005515Y-93502046D01*
X137859566Y-93599566D01*
X136834132Y-94625000D01*
X133313187Y-94625000D01*
X133150054Y-94380853D01*
X132668285Y-94058946D01*
X132100000Y-93945907D01*
X131531715Y-94058946D01*
X131049946Y-94380853D01*
X130830000Y-94710026D01*
X130610054Y-94380853D01*
X130128285Y-94058946D01*
X129560000Y-93945907D01*
X128991715Y-94058946D01*
X128509946Y-94380853D01*
X128290000Y-94710026D01*
X128070054Y-94380853D01*
X127588285Y-94058946D01*
X127020000Y-93945907D01*
X126451715Y-94058946D01*
X125969946Y-94380853D01*
X125750000Y-94710026D01*
X125530054Y-94380853D01*
X125048285Y-94058946D01*
X124480000Y-93945907D01*
X123911715Y-94058946D01*
X123429946Y-94380853D01*
X123210000Y-94710026D01*
X122990054Y-94380853D01*
X122508285Y-94058946D01*
X121940000Y-93945907D01*
X121371715Y-94058946D01*
X120889946Y-94380853D01*
X120670000Y-94710026D01*
X120450054Y-94380853D01*
X119968285Y-94058946D01*
X119400000Y-93945907D01*
X118831715Y-94058946D01*
X118349946Y-94380853D01*
X118121409Y-94722883D01*
X117890711Y-94390915D01*
X117453265Y-94098655D01*
X117233000Y-94187282D01*
X117233000Y-95087000D01*
X117253000Y-95087000D01*
X117253000Y-95833000D01*
X117233000Y-95833000D01*
X117233000Y-97627000D01*
X117253000Y-97627000D01*
X117253000Y-98373000D01*
X117233000Y-98373000D01*
X117233000Y-99272718D01*
X117453265Y-99361345D01*
X117890711Y-99069085D01*
X118121409Y-98737117D01*
X118349946Y-99079147D01*
X118831715Y-99401054D01*
X119400000Y-99514093D01*
X119968285Y-99401054D01*
X120450054Y-99079147D01*
X120670000Y-98749974D01*
X120889946Y-99079147D01*
X121371715Y-99401054D01*
X121940000Y-99514093D01*
X122508285Y-99401054D01*
X122990054Y-99079147D01*
X123210000Y-98749974D01*
X123429946Y-99079147D01*
X123911715Y-99401054D01*
X124480000Y-99514093D01*
X125048285Y-99401054D01*
X125530054Y-99079147D01*
X125750000Y-98749974D01*
X125969946Y-99079147D01*
X126451715Y-99401054D01*
X127020000Y-99514093D01*
X127588285Y-99401054D01*
X128070054Y-99079147D01*
X128290000Y-98749974D01*
X128509946Y-99079147D01*
X128991715Y-99401054D01*
X129560000Y-99514093D01*
X130128285Y-99401054D01*
X130610054Y-99079147D01*
X130830000Y-98749974D01*
X131049946Y-99079147D01*
X131531715Y-99401054D01*
X132100000Y-99514093D01*
X132668285Y-99401054D01*
X133150054Y-99079147D01*
X133471961Y-98597378D01*
X133585000Y-98029093D01*
X133585000Y-97970907D01*
X133471961Y-97402622D01*
X133150054Y-96920853D01*
X132935000Y-96777159D01*
X132935000Y-96682841D01*
X133150054Y-96539147D01*
X133313187Y-96295000D01*
X137180000Y-96295000D01*
X137499541Y-96231439D01*
X137770434Y-96050434D01*
X138795868Y-95025000D01*
X185094132Y-95025000D01*
X187145000Y-97075868D01*
X187145000Y-104122560D01*
X187130000Y-104122560D01*
X186894683Y-104166838D01*
X186678559Y-104305910D01*
X186533569Y-104518110D01*
X186482560Y-104770000D01*
X186482560Y-106470000D01*
X186526838Y-106705317D01*
X186665910Y-106921441D01*
X186878110Y-107066431D01*
X186945541Y-107080086D01*
X186900853Y-107109946D01*
X186857385Y-107175000D01*
X178932961Y-107175000D01*
X178870054Y-107080853D01*
X178586899Y-106891655D01*
X178586924Y-106891645D01*
X179015183Y-106501358D01*
X179261486Y-105976892D01*
X179140819Y-105747000D01*
X177947000Y-105747000D01*
X177947000Y-105767000D01*
X177693000Y-105767000D01*
X177693000Y-105747000D01*
X175407000Y-105747000D01*
X175407000Y-105767000D01*
X175153000Y-105767000D01*
X175153000Y-105747000D01*
X172867000Y-105747000D01*
X172867000Y-105767000D01*
X172613000Y-105767000D01*
X172613000Y-105747000D01*
X171419181Y-105747000D01*
X171298514Y-105976892D01*
X171544817Y-106501358D01*
X171750504Y-106688808D01*
X171654683Y-106706838D01*
X171438559Y-106845910D01*
X171293569Y-107058110D01*
X171269898Y-107175000D01*
X167914000Y-107175000D01*
X167537057Y-107249979D01*
X167217500Y-107463500D01*
X164966000Y-109715000D01*
X163606542Y-109715000D01*
X163386777Y-109494851D01*
X163230860Y-109430109D01*
X163384672Y-109366555D01*
X163785149Y-108966777D01*
X164002152Y-108444174D01*
X164002646Y-107878309D01*
X163786555Y-107355328D01*
X163386777Y-106954851D01*
X163246422Y-106896571D01*
X163326425Y-106863432D01*
X163399011Y-106618617D01*
X162580000Y-105799605D01*
X161760989Y-106618617D01*
X161833575Y-106863432D01*
X161919024Y-106894071D01*
X161775328Y-106953445D01*
X161374851Y-107353223D01*
X161157848Y-107875826D01*
X161157354Y-108441691D01*
X161373445Y-108964672D01*
X161773223Y-109365149D01*
X161929140Y-109429891D01*
X161775328Y-109493445D01*
X161553386Y-109715000D01*
X160702000Y-109715000D01*
X156393235Y-105406235D01*
X161145574Y-105406235D01*
X161172959Y-105971438D01*
X161336568Y-106366425D01*
X161581383Y-106439011D01*
X162400395Y-105620000D01*
X162759605Y-105620000D01*
X163578617Y-106439011D01*
X163823432Y-106366425D01*
X164014426Y-105833765D01*
X163987041Y-105268562D01*
X163984782Y-105263108D01*
X171298514Y-105263108D01*
X171419181Y-105493000D01*
X172613000Y-105493000D01*
X172613000Y-104299845D01*
X172867000Y-104299845D01*
X172867000Y-105493000D01*
X175153000Y-105493000D01*
X175153000Y-104299845D01*
X175407000Y-104299845D01*
X175407000Y-105493000D01*
X177693000Y-105493000D01*
X177693000Y-104299845D01*
X177947000Y-104299845D01*
X177947000Y-105493000D01*
X179140819Y-105493000D01*
X179261486Y-105263108D01*
X179015183Y-104738642D01*
X178586924Y-104348355D01*
X178176890Y-104178524D01*
X177947000Y-104299845D01*
X177693000Y-104299845D01*
X177463110Y-104178524D01*
X177053076Y-104348355D01*
X176624817Y-104738642D01*
X176550000Y-104897954D01*
X176475183Y-104738642D01*
X176046924Y-104348355D01*
X175636890Y-104178524D01*
X175407000Y-104299845D01*
X175153000Y-104299845D01*
X174923110Y-104178524D01*
X174513076Y-104348355D01*
X174084817Y-104738642D01*
X174010000Y-104897954D01*
X173935183Y-104738642D01*
X173506924Y-104348355D01*
X173096890Y-104178524D01*
X172867000Y-104299845D01*
X172613000Y-104299845D01*
X172383110Y-104178524D01*
X171973076Y-104348355D01*
X171544817Y-104738642D01*
X171298514Y-105263108D01*
X163984782Y-105263108D01*
X163823432Y-104873575D01*
X163578617Y-104800989D01*
X162759605Y-105620000D01*
X162400395Y-105620000D01*
X161581383Y-104800989D01*
X161336568Y-104873575D01*
X161145574Y-105406235D01*
X156393235Y-105406235D01*
X154348691Y-103361691D01*
X161157354Y-103361691D01*
X161373445Y-103884672D01*
X161773223Y-104285149D01*
X161913578Y-104343429D01*
X161833575Y-104376568D01*
X161760989Y-104621383D01*
X162580000Y-105440395D01*
X163399011Y-104621383D01*
X163326425Y-104376568D01*
X163240976Y-104345929D01*
X163384672Y-104286555D01*
X163785149Y-103886777D01*
X164002152Y-103364174D01*
X164002646Y-102798309D01*
X163786555Y-102275328D01*
X163386777Y-101874851D01*
X162864174Y-101657848D01*
X162298309Y-101657354D01*
X161775328Y-101873445D01*
X161374851Y-102273223D01*
X161157848Y-102795826D01*
X161157354Y-103361691D01*
X154348691Y-103361691D01*
X151084500Y-100097500D01*
X150764943Y-99883979D01*
X150388000Y-99809000D01*
X143784000Y-99809000D01*
X143407057Y-99883979D01*
X143087500Y-100097500D01*
X142360000Y-100825000D01*
X137322630Y-100825000D01*
X137313162Y-100774683D01*
X137174090Y-100558559D01*
X136961890Y-100413569D01*
X136710000Y-100362560D01*
X135110000Y-100362560D01*
X134874683Y-100406838D01*
X134658559Y-100545910D01*
X134570356Y-100675000D01*
X131724606Y-100675000D01*
X131643923Y-100594176D01*
X131116691Y-100375250D01*
X130545813Y-100374752D01*
X130018200Y-100592757D01*
X129935813Y-100675000D01*
X117330133Y-100675000D01*
X115515942Y-98860810D01*
X115598591Y-98737117D01*
X115829289Y-99069085D01*
X116266735Y-99361345D01*
X116487000Y-99272718D01*
X116487000Y-98373000D01*
X116467000Y-98373000D01*
X116467000Y-97627000D01*
X116487000Y-97627000D01*
X116487000Y-95833000D01*
X116467000Y-95833000D01*
X116467000Y-95087000D01*
X116487000Y-95087000D01*
X116487000Y-94187282D01*
X116266735Y-94098655D01*
X115829289Y-94390915D01*
X115598591Y-94722883D01*
X115370054Y-94380853D01*
X114888285Y-94058946D01*
X114320000Y-93945907D01*
X113751715Y-94058946D01*
X113269946Y-94380853D01*
X113050000Y-94710026D01*
X112830054Y-94380853D01*
X112348285Y-94058946D01*
X111780000Y-93945907D01*
X111211715Y-94058946D01*
X110729946Y-94380853D01*
X110510000Y-94710026D01*
X110290054Y-94380853D01*
X109808285Y-94058946D01*
X109240000Y-93945907D01*
X108671715Y-94058946D01*
X108189946Y-94380853D01*
X107970000Y-94710026D01*
X107750054Y-94380853D01*
X107268285Y-94058946D01*
X106700000Y-93945907D01*
X106131715Y-94058946D01*
X105649946Y-94380853D01*
X105430000Y-94710026D01*
X105210054Y-94380853D01*
X104728285Y-94058946D01*
X104160000Y-93945907D01*
X103591715Y-94058946D01*
X103109946Y-94380853D01*
X102890000Y-94710026D01*
X102670054Y-94380853D01*
X102188285Y-94058946D01*
X101620000Y-93945907D01*
X101051715Y-94058946D01*
X100569946Y-94380853D01*
X100350000Y-94710026D01*
X100130054Y-94380853D01*
X99648285Y-94058946D01*
X99080000Y-93945907D01*
X98511715Y-94058946D01*
X98029946Y-94380853D01*
X97810000Y-94710026D01*
X97590054Y-94380853D01*
X97108285Y-94058946D01*
X96540000Y-93945907D01*
X95971715Y-94058946D01*
X95489946Y-94380853D01*
X95270000Y-94710026D01*
X95050054Y-94380853D01*
X94568285Y-94058946D01*
X94000000Y-93945907D01*
X93431715Y-94058946D01*
X92949946Y-94380853D01*
X92628039Y-94862622D01*
X92515000Y-95430907D01*
X92515000Y-95489093D01*
X92628039Y-96057378D01*
X92949946Y-96539147D01*
X92951179Y-96539971D01*
X92914683Y-96546838D01*
X92698559Y-96685910D01*
X92553569Y-96898110D01*
X92502560Y-97150000D01*
X92502560Y-98850000D01*
X92546838Y-99085317D01*
X92685910Y-99301441D01*
X92898110Y-99446431D01*
X93150000Y-99497440D01*
X94850000Y-99497440D01*
X95085317Y-99453162D01*
X95301441Y-99314090D01*
X95446431Y-99101890D01*
X95460086Y-99034459D01*
X95489946Y-99079147D01*
X95971715Y-99401054D01*
X96540000Y-99514093D01*
X97108285Y-99401054D01*
X97590054Y-99079147D01*
X97810000Y-98749974D01*
X98029946Y-99079147D01*
X98511715Y-99401054D01*
X99080000Y-99514093D01*
X99648285Y-99401054D01*
X100130054Y-99079147D01*
X100350000Y-98749974D01*
X100569946Y-99079147D01*
X101051715Y-99401054D01*
X101620000Y-99514093D01*
X102188285Y-99401054D01*
X102670054Y-99079147D01*
X102890000Y-98749974D01*
X103109946Y-99079147D01*
X103591715Y-99401054D01*
X104160000Y-99514093D01*
X104728285Y-99401054D01*
X105210054Y-99079147D01*
X105430000Y-98749974D01*
X105649946Y-99079147D01*
X106131715Y-99401054D01*
X106700000Y-99514093D01*
X107268285Y-99401054D01*
X107750054Y-99079147D01*
X107970000Y-98749974D01*
X108189946Y-99079147D01*
X108671715Y-99401054D01*
X109240000Y-99514093D01*
X109808285Y-99401054D01*
X110290054Y-99079147D01*
X110510000Y-98749974D01*
X110729946Y-99079147D01*
X111211715Y-99401054D01*
X111650749Y-99488383D01*
X106608132Y-104531000D01*
X105176000Y-104531000D01*
X104856460Y-104594560D01*
X104585566Y-104775566D01*
X102807566Y-106553566D01*
X102626561Y-106824459D01*
X102563000Y-107144000D01*
X102563000Y-111716000D01*
X102626561Y-112035541D01*
X102807566Y-112306434D01*
X104331566Y-113830434D01*
X104602459Y-114011439D01*
X104922000Y-114075000D01*
X105537118Y-114075000D01*
X105657189Y-114254698D01*
X106039275Y-114510000D01*
X105657189Y-114765302D01*
X105537118Y-114945000D01*
X103906000Y-114945000D01*
X103586460Y-115008560D01*
X103315566Y-115189566D01*
X100521566Y-117983566D01*
X100340561Y-118254459D01*
X100277000Y-118574000D01*
X100277000Y-123908000D01*
X100340561Y-124227541D01*
X100489240Y-124450054D01*
X100521566Y-124498434D01*
X102045566Y-126022434D01*
X102316459Y-126203439D01*
X102636000Y-126267000D01*
X103859281Y-126267000D01*
X103979352Y-126446698D01*
X104361438Y-126702000D01*
X103979352Y-126957302D01*
X103668283Y-127422849D01*
X103559050Y-127972000D01*
X103668283Y-128521151D01*
X103979352Y-128986698D01*
X104361438Y-129242000D01*
X103979352Y-129497302D01*
X103668283Y-129962849D01*
X103559050Y-130512000D01*
X103668283Y-131061151D01*
X103979352Y-131526698D01*
X104361438Y-131782000D01*
X103979352Y-132037302D01*
X103668283Y-132502849D01*
X103559050Y-133052000D01*
X103668283Y-133601151D01*
X103979352Y-134066698D01*
X104361438Y-134322000D01*
X103979352Y-134577302D01*
X103668283Y-135042849D01*
X103559050Y-135592000D01*
X103668283Y-136141151D01*
X103979352Y-136606698D01*
X104361438Y-136862000D01*
X103979352Y-137117302D01*
X103668283Y-137582849D01*
X103559050Y-138132000D01*
X103668283Y-138681151D01*
X103979352Y-139146698D01*
X104361438Y-139402000D01*
X103979352Y-139657302D01*
X103668283Y-140122849D01*
X103559050Y-140672000D01*
X103668283Y-141221151D01*
X103979352Y-141686698D01*
X104357707Y-141939507D01*
X103925500Y-142287104D01*
X103655633Y-142780181D01*
X103638096Y-142862961D01*
X103760085Y-143085000D01*
X105303000Y-143085000D01*
X105303000Y-143065000D01*
X105557000Y-143065000D01*
X105557000Y-143085000D01*
X107099915Y-143085000D01*
X107221904Y-142862961D01*
X107204367Y-142780181D01*
X106934500Y-142287104D01*
X106502293Y-141939507D01*
X106880648Y-141686698D01*
X107191717Y-141221151D01*
X107300950Y-140672000D01*
X107191717Y-140122849D01*
X106880648Y-139657302D01*
X106498562Y-139402000D01*
X106880648Y-139146698D01*
X107191717Y-138681151D01*
X107300950Y-138132000D01*
X107191717Y-137582849D01*
X106880648Y-137117302D01*
X106498562Y-136862000D01*
X106880648Y-136606698D01*
X107191717Y-136141151D01*
X107300950Y-135592000D01*
X107191717Y-135042849D01*
X106880648Y-134577302D01*
X106498562Y-134322000D01*
X106880648Y-134066698D01*
X107191717Y-133601151D01*
X107300950Y-133052000D01*
X107191717Y-132502849D01*
X106880648Y-132037302D01*
X106498562Y-131782000D01*
X106880648Y-131526698D01*
X107191717Y-131061151D01*
X107300950Y-130512000D01*
X107191717Y-129962849D01*
X106880648Y-129497302D01*
X106498562Y-129242000D01*
X106880648Y-128986698D01*
X107191717Y-128521151D01*
X107300950Y-127972000D01*
X107191717Y-127422849D01*
X106880648Y-126957302D01*
X106498562Y-126702000D01*
X106825008Y-126483876D01*
X108405000Y-128063868D01*
X108405000Y-144736000D01*
X108468561Y-145055541D01*
X108600792Y-145253439D01*
X108649566Y-145326434D01*
X109613132Y-146290000D01*
X88069930Y-146290000D01*
X87894345Y-146255074D01*
X87804774Y-146195225D01*
X87744926Y-146105655D01*
X87710000Y-145930070D01*
X87710000Y-144004187D01*
X98914752Y-144004187D01*
X99132757Y-144531800D01*
X99536077Y-144935824D01*
X100063309Y-145154750D01*
X100634187Y-145155248D01*
X101161800Y-144937243D01*
X101565824Y-144533923D01*
X101784750Y-144006691D01*
X101785138Y-143561039D01*
X103638096Y-143561039D01*
X103655633Y-143643819D01*
X103925500Y-144136896D01*
X104363517Y-144489166D01*
X104903000Y-144647000D01*
X105303000Y-144647000D01*
X105303000Y-143339000D01*
X105557000Y-143339000D01*
X105557000Y-144647000D01*
X105957000Y-144647000D01*
X106496483Y-144489166D01*
X106934500Y-144136896D01*
X107204367Y-143643819D01*
X107221904Y-143561039D01*
X107099915Y-143339000D01*
X105557000Y-143339000D01*
X105303000Y-143339000D01*
X103760085Y-143339000D01*
X103638096Y-143561039D01*
X101785138Y-143561039D01*
X101785248Y-143435813D01*
X101567243Y-142908200D01*
X101163923Y-142504176D01*
X101097456Y-142476577D01*
X101104005Y-142473864D01*
X101178139Y-142227745D01*
X100350000Y-141399605D01*
X99521861Y-142227745D01*
X99595995Y-142473864D01*
X99602483Y-142476196D01*
X99538200Y-142502757D01*
X99134176Y-142906077D01*
X98915250Y-143433309D01*
X98914752Y-144004187D01*
X87710000Y-144004187D01*
X87710000Y-141003223D01*
X98903035Y-141003223D01*
X98930222Y-141573454D01*
X99096136Y-141974005D01*
X99342255Y-142048139D01*
X100170395Y-141220000D01*
X100529605Y-141220000D01*
X101357745Y-142048139D01*
X101603864Y-141974005D01*
X101796965Y-141436777D01*
X101769778Y-140866546D01*
X101603864Y-140465995D01*
X101357745Y-140391861D01*
X100529605Y-141220000D01*
X100170395Y-141220000D01*
X99342255Y-140391861D01*
X99096136Y-140465995D01*
X98903035Y-141003223D01*
X87710000Y-141003223D01*
X87710000Y-140212255D01*
X99521861Y-140212255D01*
X100350000Y-141040395D01*
X101178139Y-140212255D01*
X101104005Y-139966136D01*
X100566777Y-139773035D01*
X99996546Y-139800222D01*
X99595995Y-139966136D01*
X99521861Y-140212255D01*
X87710000Y-140212255D01*
X87710000Y-138162187D01*
X98914752Y-138162187D01*
X99132757Y-138689800D01*
X99536077Y-139093824D01*
X100063309Y-139312750D01*
X100634187Y-139313248D01*
X101161800Y-139095243D01*
X101565824Y-138691923D01*
X101784750Y-138164691D01*
X101785248Y-137593813D01*
X101567243Y-137066200D01*
X101163923Y-136662176D01*
X101097456Y-136634577D01*
X101104005Y-136631864D01*
X101178139Y-136385745D01*
X100350000Y-135557605D01*
X99521861Y-136385745D01*
X99595995Y-136631864D01*
X99602483Y-136634196D01*
X99538200Y-136660757D01*
X99134176Y-137064077D01*
X98915250Y-137591309D01*
X98914752Y-138162187D01*
X87710000Y-138162187D01*
X87710000Y-135161223D01*
X98903035Y-135161223D01*
X98930222Y-135731454D01*
X99096136Y-136132005D01*
X99342255Y-136206139D01*
X100170395Y-135378000D01*
X100529605Y-135378000D01*
X101357745Y-136206139D01*
X101603864Y-136132005D01*
X101796965Y-135594777D01*
X101769778Y-135024546D01*
X101603864Y-134623995D01*
X101357745Y-134549861D01*
X100529605Y-135378000D01*
X100170395Y-135378000D01*
X99342255Y-134549861D01*
X99096136Y-134623995D01*
X98903035Y-135161223D01*
X87710000Y-135161223D01*
X87710000Y-134370255D01*
X99521861Y-134370255D01*
X100350000Y-135198395D01*
X101178139Y-134370255D01*
X101104005Y-134124136D01*
X100566777Y-133931035D01*
X99996546Y-133958222D01*
X99595995Y-134124136D01*
X99521861Y-134370255D01*
X87710000Y-134370255D01*
X87710000Y-96069931D01*
X87973288Y-94746293D01*
X88683454Y-93683454D01*
X89746295Y-92973288D01*
X90766303Y-92770395D01*
X91497954Y-93502046D01*
X91728295Y-93655954D01*
X92000000Y-93710001D01*
X92000005Y-93710000D01*
X136000000Y-93710000D01*
X136271705Y-93655954D01*
X136502046Y-93502046D01*
X137294092Y-92710000D01*
X192930069Y-92710000D01*
X194253707Y-92973288D01*
X194253707Y-92973288D01*
G37*
X194253707Y-92973288D02*
X195316546Y-93683454D01*
X196026712Y-94746295D01*
X196290000Y-96069931D01*
X196290000Y-145930070D01*
X196255074Y-146105655D01*
X196195225Y-146195226D01*
X196105655Y-146255074D01*
X195930070Y-146290000D01*
X153533838Y-146290000D01*
X153645434Y-146215434D01*
X160385868Y-139475000D01*
X161403720Y-139475000D01*
X161773223Y-139845149D01*
X162295826Y-140062152D01*
X162861691Y-140062646D01*
X163384672Y-139846555D01*
X163785149Y-139446777D01*
X164002152Y-138924174D01*
X164002646Y-138358309D01*
X163786555Y-137835328D01*
X163386777Y-137434851D01*
X163230860Y-137370109D01*
X163384672Y-137306555D01*
X163606614Y-137085000D01*
X164712000Y-137085000D01*
X166162560Y-138535560D01*
X166162560Y-139490000D01*
X166206838Y-139725317D01*
X166345910Y-139941441D01*
X166558110Y-140086431D01*
X166810000Y-140137440D01*
X168510000Y-140137440D01*
X168745317Y-140093162D01*
X168961441Y-139954090D01*
X169106431Y-139741890D01*
X169120086Y-139674459D01*
X169149946Y-139719147D01*
X169631715Y-140041054D01*
X170200000Y-140154093D01*
X170768285Y-140041054D01*
X171250054Y-139719147D01*
X171312961Y-139625000D01*
X171627039Y-139625000D01*
X171689946Y-139719147D01*
X172171715Y-140041054D01*
X172740000Y-140154093D01*
X173308285Y-140041054D01*
X173790054Y-139719147D01*
X174111961Y-139237378D01*
X174225000Y-138669093D01*
X174225000Y-138610907D01*
X174111961Y-138042622D01*
X173790054Y-137560853D01*
X173506899Y-137371655D01*
X173506924Y-137371645D01*
X173935183Y-136981358D01*
X174181486Y-136456892D01*
X174060819Y-136227000D01*
X172867000Y-136227000D01*
X172867000Y-136247000D01*
X172613000Y-136247000D01*
X172613000Y-136227000D01*
X170327000Y-136227000D01*
X170327000Y-136247000D01*
X170073000Y-136247000D01*
X170073000Y-136227000D01*
X167787000Y-136227000D01*
X167787000Y-136247000D01*
X167533000Y-136247000D01*
X167533000Y-136227000D01*
X167513000Y-136227000D01*
X167513000Y-135973000D01*
X167533000Y-135973000D01*
X167533000Y-134779845D01*
X167787000Y-134779845D01*
X167787000Y-135973000D01*
X170073000Y-135973000D01*
X170073000Y-134779845D01*
X170327000Y-134779845D01*
X170327000Y-135973000D01*
X172613000Y-135973000D01*
X172613000Y-134779845D01*
X172867000Y-134779845D01*
X172867000Y-135973000D01*
X174060819Y-135973000D01*
X174181486Y-135743108D01*
X173935183Y-135218642D01*
X173506924Y-134828355D01*
X173096890Y-134658524D01*
X172867000Y-134779845D01*
X172613000Y-134779845D01*
X172383110Y-134658524D01*
X171973076Y-134828355D01*
X171544817Y-135218642D01*
X171470000Y-135377954D01*
X171395183Y-135218642D01*
X170966924Y-134828355D01*
X170556890Y-134658524D01*
X170327000Y-134779845D01*
X170073000Y-134779845D01*
X169843110Y-134658524D01*
X169433076Y-134828355D01*
X169004817Y-135218642D01*
X168930000Y-135377954D01*
X168855183Y-135218642D01*
X168426924Y-134828355D01*
X168016890Y-134658524D01*
X167787000Y-134779845D01*
X167533000Y-134779845D01*
X167303110Y-134658524D01*
X166893076Y-134828355D01*
X166464817Y-135218642D01*
X166218514Y-135743108D01*
X166287457Y-135874457D01*
X165816500Y-135403500D01*
X165496943Y-135189979D01*
X165120000Y-135115000D01*
X163606542Y-135115000D01*
X163386777Y-134894851D01*
X163230860Y-134830109D01*
X163384672Y-134766555D01*
X163785149Y-134366777D01*
X164002152Y-133844174D01*
X164002646Y-133278309D01*
X163786555Y-132755328D01*
X163386777Y-132354851D01*
X163230860Y-132290109D01*
X163384672Y-132226555D01*
X163756877Y-131855000D01*
X174934132Y-131855000D01*
X178901193Y-135822061D01*
X178845907Y-136100000D01*
X178958946Y-136668285D01*
X179280853Y-137150054D01*
X179610026Y-137370000D01*
X179280853Y-137589946D01*
X179137159Y-137805000D01*
X177820000Y-137805000D01*
X177500459Y-137868561D01*
X177239958Y-138042622D01*
X177229566Y-138049566D01*
X174689566Y-140589566D01*
X174508561Y-140860459D01*
X174445000Y-141180000D01*
X174445000Y-142724560D01*
X174360000Y-142724560D01*
X174124683Y-142768838D01*
X173908559Y-142907910D01*
X173763569Y-143120110D01*
X173712560Y-143372000D01*
X173712560Y-145172000D01*
X173756838Y-145407317D01*
X173895910Y-145623441D01*
X174108110Y-145768431D01*
X174360000Y-145819440D01*
X176160000Y-145819440D01*
X176395317Y-145775162D01*
X176611441Y-145636090D01*
X176756431Y-145423890D01*
X176760567Y-145403466D01*
X176929357Y-145572551D01*
X177493330Y-145806733D01*
X178103991Y-145807265D01*
X178668371Y-145574068D01*
X179100551Y-145142643D01*
X179115351Y-145107000D01*
X179145917Y-145107000D01*
X179526077Y-145487824D01*
X180053309Y-145706750D01*
X180624187Y-145707248D01*
X181151800Y-145489243D01*
X181555824Y-145085923D01*
X181748860Y-144621039D01*
X186568096Y-144621039D01*
X186728959Y-145009423D01*
X187104866Y-145424389D01*
X187610959Y-145663914D01*
X187833000Y-145542629D01*
X187833000Y-144399000D01*
X188087000Y-144399000D01*
X188087000Y-145542629D01*
X188309041Y-145663914D01*
X188815134Y-145424389D01*
X189191041Y-145009423D01*
X189351904Y-144621039D01*
X189229915Y-144399000D01*
X188087000Y-144399000D01*
X187833000Y-144399000D01*
X186690085Y-144399000D01*
X186568096Y-144621039D01*
X181748860Y-144621039D01*
X181774750Y-144558691D01*
X181775248Y-143987813D01*
X181748452Y-143922961D01*
X186568096Y-143922961D01*
X186690085Y-144145000D01*
X187833000Y-144145000D01*
X187833000Y-143001371D01*
X188087000Y-143001371D01*
X188087000Y-144145000D01*
X189229915Y-144145000D01*
X189351904Y-143922961D01*
X189191041Y-143534577D01*
X188815134Y-143119611D01*
X188309041Y-142880086D01*
X188087000Y-143001371D01*
X187833000Y-143001371D01*
X187610959Y-142880086D01*
X187104866Y-143119611D01*
X186728959Y-143534577D01*
X186568096Y-143922961D01*
X181748452Y-143922961D01*
X181557243Y-143460200D01*
X181153923Y-143056176D01*
X180626691Y-142837250D01*
X180055813Y-142836752D01*
X179528200Y-143054757D01*
X179145290Y-143437000D01*
X179115857Y-143437000D01*
X179102068Y-143403629D01*
X178670643Y-142971449D01*
X178106670Y-142737267D01*
X177496009Y-142736735D01*
X176931629Y-142969932D01*
X176763387Y-143137880D01*
X176763162Y-143136683D01*
X176624090Y-142920559D01*
X176411890Y-142775569D01*
X176160000Y-142724560D01*
X176115000Y-142724560D01*
X176115000Y-141525868D01*
X178165868Y-139475000D01*
X179137159Y-139475000D01*
X179280853Y-139690054D01*
X179762622Y-140011961D01*
X180330907Y-140125000D01*
X180389093Y-140125000D01*
X180957378Y-140011961D01*
X181439147Y-139690054D01*
X181482615Y-139625000D01*
X186857385Y-139625000D01*
X186900853Y-139690054D01*
X187382622Y-140011961D01*
X187950907Y-140125000D01*
X188009093Y-140125000D01*
X188577378Y-140011961D01*
X189059147Y-139690054D01*
X189102615Y-139625000D01*
X191790000Y-139625000D01*
X192166943Y-139550021D01*
X192486500Y-139336500D01*
X195026500Y-136796500D01*
X195240021Y-136476943D01*
X195251439Y-136419540D01*
X195315000Y-136100000D01*
X195315000Y-118320000D01*
X195240021Y-117943057D01*
X195026500Y-117623500D01*
X192486500Y-115083500D01*
X192166943Y-114869979D01*
X191790000Y-114795000D01*
X191642615Y-114795000D01*
X191599147Y-114729946D01*
X191117378Y-114408039D01*
X190549093Y-114295000D01*
X190490907Y-114295000D01*
X189922622Y-114408039D01*
X189440853Y-114729946D01*
X189440029Y-114731179D01*
X189433162Y-114694683D01*
X189294090Y-114478559D01*
X189081890Y-114333569D01*
X188830000Y-114282560D01*
X187130000Y-114282560D01*
X186894683Y-114326838D01*
X186678559Y-114465910D01*
X186533569Y-114678110D01*
X186509898Y-114795000D01*
X181482615Y-114795000D01*
X181439147Y-114729946D01*
X180957378Y-114408039D01*
X180389093Y-114295000D01*
X180330907Y-114295000D01*
X179762622Y-114408039D01*
X179280853Y-114729946D01*
X179280029Y-114731179D01*
X179273162Y-114694683D01*
X179134090Y-114478559D01*
X178921890Y-114333569D01*
X178805000Y-114309898D01*
X178805000Y-109282615D01*
X178870054Y-109239147D01*
X178932961Y-109145000D01*
X186857385Y-109145000D01*
X186900853Y-109210054D01*
X187382622Y-109531961D01*
X187950907Y-109645000D01*
X188009093Y-109645000D01*
X188577378Y-109531961D01*
X189059147Y-109210054D01*
X189381054Y-108728285D01*
X189494093Y-108160000D01*
X189381054Y-107591715D01*
X189059147Y-107109946D01*
X189017548Y-107082150D01*
X189065317Y-107073162D01*
X189281441Y-106934090D01*
X189426431Y-106721890D01*
X189477440Y-106470000D01*
X189477440Y-104770000D01*
X189433162Y-104534683D01*
X189294090Y-104318559D01*
X189081890Y-104173569D01*
X188830000Y-104122560D01*
X188815000Y-104122560D01*
X188815000Y-96730000D01*
X188751439Y-96410459D01*
X188570434Y-96139566D01*
X186030434Y-93599566D01*
X185884485Y-93502046D01*
X185759541Y-93418561D01*
X185440000Y-93355000D01*
X138450000Y-93355000D01*
X138130459Y-93418561D01*
X138005515Y-93502046D01*
X137859566Y-93599566D01*
X136834132Y-94625000D01*
X133313187Y-94625000D01*
X133150054Y-94380853D01*
X132668285Y-94058946D01*
X132100000Y-93945907D01*
X131531715Y-94058946D01*
X131049946Y-94380853D01*
X130830000Y-94710026D01*
X130610054Y-94380853D01*
X130128285Y-94058946D01*
X129560000Y-93945907D01*
X128991715Y-94058946D01*
X128509946Y-94380853D01*
X128290000Y-94710026D01*
X128070054Y-94380853D01*
X127588285Y-94058946D01*
X127020000Y-93945907D01*
X126451715Y-94058946D01*
X125969946Y-94380853D01*
X125750000Y-94710026D01*
X125530054Y-94380853D01*
X125048285Y-94058946D01*
X124480000Y-93945907D01*
X123911715Y-94058946D01*
X123429946Y-94380853D01*
X123210000Y-94710026D01*
X122990054Y-94380853D01*
X122508285Y-94058946D01*
X121940000Y-93945907D01*
X121371715Y-94058946D01*
X120889946Y-94380853D01*
X120670000Y-94710026D01*
X120450054Y-94380853D01*
X119968285Y-94058946D01*
X119400000Y-93945907D01*
X118831715Y-94058946D01*
X118349946Y-94380853D01*
X118121409Y-94722883D01*
X117890711Y-94390915D01*
X117453265Y-94098655D01*
X117233000Y-94187282D01*
X117233000Y-95087000D01*
X117253000Y-95087000D01*
X117253000Y-95833000D01*
X117233000Y-95833000D01*
X117233000Y-97627000D01*
X117253000Y-97627000D01*
X117253000Y-98373000D01*
X117233000Y-98373000D01*
X117233000Y-99272718D01*
X117453265Y-99361345D01*
X117890711Y-99069085D01*
X118121409Y-98737117D01*
X118349946Y-99079147D01*
X118831715Y-99401054D01*
X119400000Y-99514093D01*
X119968285Y-99401054D01*
X120450054Y-99079147D01*
X120670000Y-98749974D01*
X120889946Y-99079147D01*
X121371715Y-99401054D01*
X121940000Y-99514093D01*
X122508285Y-99401054D01*
X122990054Y-99079147D01*
X123210000Y-98749974D01*
X123429946Y-99079147D01*
X123911715Y-99401054D01*
X124480000Y-99514093D01*
X125048285Y-99401054D01*
X125530054Y-99079147D01*
X125750000Y-98749974D01*
X125969946Y-99079147D01*
X126451715Y-99401054D01*
X127020000Y-99514093D01*
X127588285Y-99401054D01*
X128070054Y-99079147D01*
X128290000Y-98749974D01*
X128509946Y-99079147D01*
X128991715Y-99401054D01*
X129560000Y-99514093D01*
X130128285Y-99401054D01*
X130610054Y-99079147D01*
X130830000Y-98749974D01*
X131049946Y-99079147D01*
X131531715Y-99401054D01*
X132100000Y-99514093D01*
X132668285Y-99401054D01*
X133150054Y-99079147D01*
X133471961Y-98597378D01*
X133585000Y-98029093D01*
X133585000Y-97970907D01*
X133471961Y-97402622D01*
X133150054Y-96920853D01*
X132935000Y-96777159D01*
X132935000Y-96682841D01*
X133150054Y-96539147D01*
X133313187Y-96295000D01*
X137180000Y-96295000D01*
X137499541Y-96231439D01*
X137770434Y-96050434D01*
X138795868Y-95025000D01*
X185094132Y-95025000D01*
X187145000Y-97075868D01*
X187145000Y-104122560D01*
X187130000Y-104122560D01*
X186894683Y-104166838D01*
X186678559Y-104305910D01*
X186533569Y-104518110D01*
X186482560Y-104770000D01*
X186482560Y-106470000D01*
X186526838Y-106705317D01*
X186665910Y-106921441D01*
X186878110Y-107066431D01*
X186945541Y-107080086D01*
X186900853Y-107109946D01*
X186857385Y-107175000D01*
X178932961Y-107175000D01*
X178870054Y-107080853D01*
X178586899Y-106891655D01*
X178586924Y-106891645D01*
X179015183Y-106501358D01*
X179261486Y-105976892D01*
X179140819Y-105747000D01*
X177947000Y-105747000D01*
X177947000Y-105767000D01*
X177693000Y-105767000D01*
X177693000Y-105747000D01*
X175407000Y-105747000D01*
X175407000Y-105767000D01*
X175153000Y-105767000D01*
X175153000Y-105747000D01*
X172867000Y-105747000D01*
X172867000Y-105767000D01*
X172613000Y-105767000D01*
X172613000Y-105747000D01*
X171419181Y-105747000D01*
X171298514Y-105976892D01*
X171544817Y-106501358D01*
X171750504Y-106688808D01*
X171654683Y-106706838D01*
X171438559Y-106845910D01*
X171293569Y-107058110D01*
X171269898Y-107175000D01*
X167914000Y-107175000D01*
X167537057Y-107249979D01*
X167217500Y-107463500D01*
X164966000Y-109715000D01*
X163606542Y-109715000D01*
X163386777Y-109494851D01*
X163230860Y-109430109D01*
X163384672Y-109366555D01*
X163785149Y-108966777D01*
X164002152Y-108444174D01*
X164002646Y-107878309D01*
X163786555Y-107355328D01*
X163386777Y-106954851D01*
X163246422Y-106896571D01*
X163326425Y-106863432D01*
X163399011Y-106618617D01*
X162580000Y-105799605D01*
X161760989Y-106618617D01*
X161833575Y-106863432D01*
X161919024Y-106894071D01*
X161775328Y-106953445D01*
X161374851Y-107353223D01*
X161157848Y-107875826D01*
X161157354Y-108441691D01*
X161373445Y-108964672D01*
X161773223Y-109365149D01*
X161929140Y-109429891D01*
X161775328Y-109493445D01*
X161553386Y-109715000D01*
X160702000Y-109715000D01*
X156393235Y-105406235D01*
X161145574Y-105406235D01*
X161172959Y-105971438D01*
X161336568Y-106366425D01*
X161581383Y-106439011D01*
X162400395Y-105620000D01*
X162759605Y-105620000D01*
X163578617Y-106439011D01*
X163823432Y-106366425D01*
X164014426Y-105833765D01*
X163987041Y-105268562D01*
X163984782Y-105263108D01*
X171298514Y-105263108D01*
X171419181Y-105493000D01*
X172613000Y-105493000D01*
X172613000Y-104299845D01*
X172867000Y-104299845D01*
X172867000Y-105493000D01*
X175153000Y-105493000D01*
X175153000Y-104299845D01*
X175407000Y-104299845D01*
X175407000Y-105493000D01*
X177693000Y-105493000D01*
X177693000Y-104299845D01*
X177947000Y-104299845D01*
X177947000Y-105493000D01*
X179140819Y-105493000D01*
X179261486Y-105263108D01*
X179015183Y-104738642D01*
X178586924Y-104348355D01*
X178176890Y-104178524D01*
X177947000Y-104299845D01*
X177693000Y-104299845D01*
X177463110Y-104178524D01*
X177053076Y-104348355D01*
X176624817Y-104738642D01*
X176550000Y-104897954D01*
X176475183Y-104738642D01*
X176046924Y-104348355D01*
X175636890Y-104178524D01*
X175407000Y-104299845D01*
X175153000Y-104299845D01*
X174923110Y-104178524D01*
X174513076Y-104348355D01*
X174084817Y-104738642D01*
X174010000Y-104897954D01*
X173935183Y-104738642D01*
X173506924Y-104348355D01*
X173096890Y-104178524D01*
X172867000Y-104299845D01*
X172613000Y-104299845D01*
X172383110Y-104178524D01*
X171973076Y-104348355D01*
X171544817Y-104738642D01*
X171298514Y-105263108D01*
X163984782Y-105263108D01*
X163823432Y-104873575D01*
X163578617Y-104800989D01*
X162759605Y-105620000D01*
X162400395Y-105620000D01*
X161581383Y-104800989D01*
X161336568Y-104873575D01*
X161145574Y-105406235D01*
X156393235Y-105406235D01*
X154348691Y-103361691D01*
X161157354Y-103361691D01*
X161373445Y-103884672D01*
X161773223Y-104285149D01*
X161913578Y-104343429D01*
X161833575Y-104376568D01*
X161760989Y-104621383D01*
X162580000Y-105440395D01*
X163399011Y-104621383D01*
X163326425Y-104376568D01*
X163240976Y-104345929D01*
X163384672Y-104286555D01*
X163785149Y-103886777D01*
X164002152Y-103364174D01*
X164002646Y-102798309D01*
X163786555Y-102275328D01*
X163386777Y-101874851D01*
X162864174Y-101657848D01*
X162298309Y-101657354D01*
X161775328Y-101873445D01*
X161374851Y-102273223D01*
X161157848Y-102795826D01*
X161157354Y-103361691D01*
X154348691Y-103361691D01*
X151084500Y-100097500D01*
X150764943Y-99883979D01*
X150388000Y-99809000D01*
X143784000Y-99809000D01*
X143407057Y-99883979D01*
X143087500Y-100097500D01*
X142360000Y-100825000D01*
X137322630Y-100825000D01*
X137313162Y-100774683D01*
X137174090Y-100558559D01*
X136961890Y-100413569D01*
X136710000Y-100362560D01*
X135110000Y-100362560D01*
X134874683Y-100406838D01*
X134658559Y-100545910D01*
X134570356Y-100675000D01*
X131724606Y-100675000D01*
X131643923Y-100594176D01*
X131116691Y-100375250D01*
X130545813Y-100374752D01*
X130018200Y-100592757D01*
X129935813Y-100675000D01*
X117330133Y-100675000D01*
X115515942Y-98860810D01*
X115598591Y-98737117D01*
X115829289Y-99069085D01*
X116266735Y-99361345D01*
X116487000Y-99272718D01*
X116487000Y-98373000D01*
X116467000Y-98373000D01*
X116467000Y-97627000D01*
X116487000Y-97627000D01*
X116487000Y-95833000D01*
X116467000Y-95833000D01*
X116467000Y-95087000D01*
X116487000Y-95087000D01*
X116487000Y-94187282D01*
X116266735Y-94098655D01*
X115829289Y-94390915D01*
X115598591Y-94722883D01*
X115370054Y-94380853D01*
X114888285Y-94058946D01*
X114320000Y-93945907D01*
X113751715Y-94058946D01*
X113269946Y-94380853D01*
X113050000Y-94710026D01*
X112830054Y-94380853D01*
X112348285Y-94058946D01*
X111780000Y-93945907D01*
X111211715Y-94058946D01*
X110729946Y-94380853D01*
X110510000Y-94710026D01*
X110290054Y-94380853D01*
X109808285Y-94058946D01*
X109240000Y-93945907D01*
X108671715Y-94058946D01*
X108189946Y-94380853D01*
X107970000Y-94710026D01*
X107750054Y-94380853D01*
X107268285Y-94058946D01*
X106700000Y-93945907D01*
X106131715Y-94058946D01*
X105649946Y-94380853D01*
X105430000Y-94710026D01*
X105210054Y-94380853D01*
X104728285Y-94058946D01*
X104160000Y-93945907D01*
X103591715Y-94058946D01*
X103109946Y-94380853D01*
X102890000Y-94710026D01*
X102670054Y-94380853D01*
X102188285Y-94058946D01*
X101620000Y-93945907D01*
X101051715Y-94058946D01*
X100569946Y-94380853D01*
X100350000Y-94710026D01*
X100130054Y-94380853D01*
X99648285Y-94058946D01*
X99080000Y-93945907D01*
X98511715Y-94058946D01*
X98029946Y-94380853D01*
X97810000Y-94710026D01*
X97590054Y-94380853D01*
X97108285Y-94058946D01*
X96540000Y-93945907D01*
X95971715Y-94058946D01*
X95489946Y-94380853D01*
X95270000Y-94710026D01*
X95050054Y-94380853D01*
X94568285Y-94058946D01*
X94000000Y-93945907D01*
X93431715Y-94058946D01*
X92949946Y-94380853D01*
X92628039Y-94862622D01*
X92515000Y-95430907D01*
X92515000Y-95489093D01*
X92628039Y-96057378D01*
X92949946Y-96539147D01*
X92951179Y-96539971D01*
X92914683Y-96546838D01*
X92698559Y-96685910D01*
X92553569Y-96898110D01*
X92502560Y-97150000D01*
X92502560Y-98850000D01*
X92546838Y-99085317D01*
X92685910Y-99301441D01*
X92898110Y-99446431D01*
X93150000Y-99497440D01*
X94850000Y-99497440D01*
X95085317Y-99453162D01*
X95301441Y-99314090D01*
X95446431Y-99101890D01*
X95460086Y-99034459D01*
X95489946Y-99079147D01*
X95971715Y-99401054D01*
X96540000Y-99514093D01*
X97108285Y-99401054D01*
X97590054Y-99079147D01*
X97810000Y-98749974D01*
X98029946Y-99079147D01*
X98511715Y-99401054D01*
X99080000Y-99514093D01*
X99648285Y-99401054D01*
X100130054Y-99079147D01*
X100350000Y-98749974D01*
X100569946Y-99079147D01*
X101051715Y-99401054D01*
X101620000Y-99514093D01*
X102188285Y-99401054D01*
X102670054Y-99079147D01*
X102890000Y-98749974D01*
X103109946Y-99079147D01*
X103591715Y-99401054D01*
X104160000Y-99514093D01*
X104728285Y-99401054D01*
X105210054Y-99079147D01*
X105430000Y-98749974D01*
X105649946Y-99079147D01*
X106131715Y-99401054D01*
X106700000Y-99514093D01*
X107268285Y-99401054D01*
X107750054Y-99079147D01*
X107970000Y-98749974D01*
X108189946Y-99079147D01*
X108671715Y-99401054D01*
X109240000Y-99514093D01*
X109808285Y-99401054D01*
X110290054Y-99079147D01*
X110510000Y-98749974D01*
X110729946Y-99079147D01*
X111211715Y-99401054D01*
X111650749Y-99488383D01*
X106608132Y-104531000D01*
X105176000Y-104531000D01*
X104856460Y-104594560D01*
X104585566Y-104775566D01*
X102807566Y-106553566D01*
X102626561Y-106824459D01*
X102563000Y-107144000D01*
X102563000Y-111716000D01*
X102626561Y-112035541D01*
X102807566Y-112306434D01*
X104331566Y-113830434D01*
X104602459Y-114011439D01*
X104922000Y-114075000D01*
X105537118Y-114075000D01*
X105657189Y-114254698D01*
X106039275Y-114510000D01*
X105657189Y-114765302D01*
X105537118Y-114945000D01*
X103906000Y-114945000D01*
X103586460Y-115008560D01*
X103315566Y-115189566D01*
X100521566Y-117983566D01*
X100340561Y-118254459D01*
X100277000Y-118574000D01*
X100277000Y-123908000D01*
X100340561Y-124227541D01*
X100489240Y-124450054D01*
X100521566Y-124498434D01*
X102045566Y-126022434D01*
X102316459Y-126203439D01*
X102636000Y-126267000D01*
X103859281Y-126267000D01*
X103979352Y-126446698D01*
X104361438Y-126702000D01*
X103979352Y-126957302D01*
X103668283Y-127422849D01*
X103559050Y-127972000D01*
X103668283Y-128521151D01*
X103979352Y-128986698D01*
X104361438Y-129242000D01*
X103979352Y-129497302D01*
X103668283Y-129962849D01*
X103559050Y-130512000D01*
X103668283Y-131061151D01*
X103979352Y-131526698D01*
X104361438Y-131782000D01*
X103979352Y-132037302D01*
X103668283Y-132502849D01*
X103559050Y-133052000D01*
X103668283Y-133601151D01*
X103979352Y-134066698D01*
X104361438Y-134322000D01*
X103979352Y-134577302D01*
X103668283Y-135042849D01*
X103559050Y-135592000D01*
X103668283Y-136141151D01*
X103979352Y-136606698D01*
X104361438Y-136862000D01*
X103979352Y-137117302D01*
X103668283Y-137582849D01*
X103559050Y-138132000D01*
X103668283Y-138681151D01*
X103979352Y-139146698D01*
X104361438Y-139402000D01*
X103979352Y-139657302D01*
X103668283Y-140122849D01*
X103559050Y-140672000D01*
X103668283Y-141221151D01*
X103979352Y-141686698D01*
X104357707Y-141939507D01*
X103925500Y-142287104D01*
X103655633Y-142780181D01*
X103638096Y-142862961D01*
X103760085Y-143085000D01*
X105303000Y-143085000D01*
X105303000Y-143065000D01*
X105557000Y-143065000D01*
X105557000Y-143085000D01*
X107099915Y-143085000D01*
X107221904Y-142862961D01*
X107204367Y-142780181D01*
X106934500Y-142287104D01*
X106502293Y-141939507D01*
X106880648Y-141686698D01*
X107191717Y-141221151D01*
X107300950Y-140672000D01*
X107191717Y-140122849D01*
X106880648Y-139657302D01*
X106498562Y-139402000D01*
X106880648Y-139146698D01*
X107191717Y-138681151D01*
X107300950Y-138132000D01*
X107191717Y-137582849D01*
X106880648Y-137117302D01*
X106498562Y-136862000D01*
X106880648Y-136606698D01*
X107191717Y-136141151D01*
X107300950Y-135592000D01*
X107191717Y-135042849D01*
X106880648Y-134577302D01*
X106498562Y-134322000D01*
X106880648Y-134066698D01*
X107191717Y-133601151D01*
X107300950Y-133052000D01*
X107191717Y-132502849D01*
X106880648Y-132037302D01*
X106498562Y-131782000D01*
X106880648Y-131526698D01*
X107191717Y-131061151D01*
X107300950Y-130512000D01*
X107191717Y-129962849D01*
X106880648Y-129497302D01*
X106498562Y-129242000D01*
X106880648Y-128986698D01*
X107191717Y-128521151D01*
X107300950Y-127972000D01*
X107191717Y-127422849D01*
X106880648Y-126957302D01*
X106498562Y-126702000D01*
X106825008Y-126483876D01*
X108405000Y-128063868D01*
X108405000Y-144736000D01*
X108468561Y-145055541D01*
X108600792Y-145253439D01*
X108649566Y-145326434D01*
X109613132Y-146290000D01*
X88069930Y-146290000D01*
X87894345Y-146255074D01*
X87804774Y-146195225D01*
X87744926Y-146105655D01*
X87710000Y-145930070D01*
X87710000Y-144004187D01*
X98914752Y-144004187D01*
X99132757Y-144531800D01*
X99536077Y-144935824D01*
X100063309Y-145154750D01*
X100634187Y-145155248D01*
X101161800Y-144937243D01*
X101565824Y-144533923D01*
X101784750Y-144006691D01*
X101785138Y-143561039D01*
X103638096Y-143561039D01*
X103655633Y-143643819D01*
X103925500Y-144136896D01*
X104363517Y-144489166D01*
X104903000Y-144647000D01*
X105303000Y-144647000D01*
X105303000Y-143339000D01*
X105557000Y-143339000D01*
X105557000Y-144647000D01*
X105957000Y-144647000D01*
X106496483Y-144489166D01*
X106934500Y-144136896D01*
X107204367Y-143643819D01*
X107221904Y-143561039D01*
X107099915Y-143339000D01*
X105557000Y-143339000D01*
X105303000Y-143339000D01*
X103760085Y-143339000D01*
X103638096Y-143561039D01*
X101785138Y-143561039D01*
X101785248Y-143435813D01*
X101567243Y-142908200D01*
X101163923Y-142504176D01*
X101097456Y-142476577D01*
X101104005Y-142473864D01*
X101178139Y-142227745D01*
X100350000Y-141399605D01*
X99521861Y-142227745D01*
X99595995Y-142473864D01*
X99602483Y-142476196D01*
X99538200Y-142502757D01*
X99134176Y-142906077D01*
X98915250Y-143433309D01*
X98914752Y-144004187D01*
X87710000Y-144004187D01*
X87710000Y-141003223D01*
X98903035Y-141003223D01*
X98930222Y-141573454D01*
X99096136Y-141974005D01*
X99342255Y-142048139D01*
X100170395Y-141220000D01*
X100529605Y-141220000D01*
X101357745Y-142048139D01*
X101603864Y-141974005D01*
X101796965Y-141436777D01*
X101769778Y-140866546D01*
X101603864Y-140465995D01*
X101357745Y-140391861D01*
X100529605Y-141220000D01*
X100170395Y-141220000D01*
X99342255Y-140391861D01*
X99096136Y-140465995D01*
X98903035Y-141003223D01*
X87710000Y-141003223D01*
X87710000Y-140212255D01*
X99521861Y-140212255D01*
X100350000Y-141040395D01*
X101178139Y-140212255D01*
X101104005Y-139966136D01*
X100566777Y-139773035D01*
X99996546Y-139800222D01*
X99595995Y-139966136D01*
X99521861Y-140212255D01*
X87710000Y-140212255D01*
X87710000Y-138162187D01*
X98914752Y-138162187D01*
X99132757Y-138689800D01*
X99536077Y-139093824D01*
X100063309Y-139312750D01*
X100634187Y-139313248D01*
X101161800Y-139095243D01*
X101565824Y-138691923D01*
X101784750Y-138164691D01*
X101785248Y-137593813D01*
X101567243Y-137066200D01*
X101163923Y-136662176D01*
X101097456Y-136634577D01*
X101104005Y-136631864D01*
X101178139Y-136385745D01*
X100350000Y-135557605D01*
X99521861Y-136385745D01*
X99595995Y-136631864D01*
X99602483Y-136634196D01*
X99538200Y-136660757D01*
X99134176Y-137064077D01*
X98915250Y-137591309D01*
X98914752Y-138162187D01*
X87710000Y-138162187D01*
X87710000Y-135161223D01*
X98903035Y-135161223D01*
X98930222Y-135731454D01*
X99096136Y-136132005D01*
X99342255Y-136206139D01*
X100170395Y-135378000D01*
X100529605Y-135378000D01*
X101357745Y-136206139D01*
X101603864Y-136132005D01*
X101796965Y-135594777D01*
X101769778Y-135024546D01*
X101603864Y-134623995D01*
X101357745Y-134549861D01*
X100529605Y-135378000D01*
X100170395Y-135378000D01*
X99342255Y-134549861D01*
X99096136Y-134623995D01*
X98903035Y-135161223D01*
X87710000Y-135161223D01*
X87710000Y-134370255D01*
X99521861Y-134370255D01*
X100350000Y-135198395D01*
X101178139Y-134370255D01*
X101104005Y-134124136D01*
X100566777Y-133931035D01*
X99996546Y-133958222D01*
X99595995Y-134124136D01*
X99521861Y-134370255D01*
X87710000Y-134370255D01*
X87710000Y-96069931D01*
X87973288Y-94746293D01*
X88683454Y-93683454D01*
X89746295Y-92973288D01*
X90766303Y-92770395D01*
X91497954Y-93502046D01*
X91728295Y-93655954D01*
X92000000Y-93710001D01*
X92000005Y-93710000D01*
X136000000Y-93710000D01*
X136271705Y-93655954D01*
X136502046Y-93502046D01*
X137294092Y-92710000D01*
X192930069Y-92710000D01*
X194253707Y-92973288D01*
G36*
X129741000Y-142795868D02*
X129741000Y-144482000D01*
X129804561Y-144801541D01*
X129947363Y-145015259D01*
X129985566Y-145072434D01*
X131128566Y-146215434D01*
X131240162Y-146290000D01*
X121566868Y-146290000D01*
X122686527Y-145170341D01*
X122722838Y-145363317D01*
X122861910Y-145579441D01*
X123074110Y-145724431D01*
X123326000Y-145775440D01*
X125126000Y-145775440D01*
X125361317Y-145731162D01*
X125577441Y-145592090D01*
X125722431Y-145379890D01*
X125726567Y-145359466D01*
X125895357Y-145528551D01*
X126459330Y-145762733D01*
X127069991Y-145763265D01*
X127634371Y-145530068D01*
X128066551Y-145098643D01*
X128300733Y-144534670D01*
X128301265Y-143924009D01*
X128068068Y-143359629D01*
X127636643Y-142927449D01*
X127601000Y-142912649D01*
X127601000Y-142196000D01*
X127537439Y-141876459D01*
X127356434Y-141605566D01*
X126340434Y-140589566D01*
X126181756Y-140483541D01*
X126069541Y-140408561D01*
X125750000Y-140345000D01*
X124150083Y-140345000D01*
X124042272Y-140237000D01*
X127182132Y-140237000D01*
X129741000Y-142795868D01*
X129741000Y-142795868D01*
G37*
X129741000Y-142795868D02*
X129741000Y-144482000D01*
X129804561Y-144801541D01*
X129947363Y-145015259D01*
X129985566Y-145072434D01*
X131128566Y-146215434D01*
X131240162Y-146290000D01*
X121566868Y-146290000D01*
X122686527Y-145170341D01*
X122722838Y-145363317D01*
X122861910Y-145579441D01*
X123074110Y-145724431D01*
X123326000Y-145775440D01*
X125126000Y-145775440D01*
X125361317Y-145731162D01*
X125577441Y-145592090D01*
X125722431Y-145379890D01*
X125726567Y-145359466D01*
X125895357Y-145528551D01*
X126459330Y-145762733D01*
X127069991Y-145763265D01*
X127634371Y-145530068D01*
X128066551Y-145098643D01*
X128300733Y-144534670D01*
X128301265Y-143924009D01*
X128068068Y-143359629D01*
X127636643Y-142927449D01*
X127601000Y-142912649D01*
X127601000Y-142196000D01*
X127537439Y-141876459D01*
X127356434Y-141605566D01*
X126340434Y-140589566D01*
X126181756Y-140483541D01*
X126069541Y-140408561D01*
X125750000Y-140345000D01*
X124150083Y-140345000D01*
X124042272Y-140237000D01*
X127182132Y-140237000D01*
X129741000Y-142795868D01*
G36*
X131509566Y-142532434D02*
X131780460Y-142713440D01*
X132096744Y-142776352D01*
X132176040Y-142855648D01*
X131924741Y-142935920D01*
X131723282Y-143491279D01*
X131749685Y-144081458D01*
X131924741Y-144504080D01*
X132176042Y-144584353D01*
X133040395Y-143720000D01*
X133026253Y-143705858D01*
X133205858Y-143526253D01*
X133220000Y-143540395D01*
X133234143Y-143526253D01*
X133413748Y-143705858D01*
X133399605Y-143720000D01*
X134263958Y-144584353D01*
X134515259Y-144504080D01*
X134716718Y-143948721D01*
X134690315Y-143358542D01*
X134515259Y-142935920D01*
X134263960Y-142855648D01*
X134342608Y-142777000D01*
X138562705Y-142777000D01*
X138461812Y-142877717D01*
X138235258Y-143423319D01*
X138234743Y-144014089D01*
X138460344Y-144560086D01*
X138689857Y-144790000D01*
X134076034Y-144790000D01*
X134084353Y-144763958D01*
X133220000Y-143899605D01*
X132355647Y-144763958D01*
X132363966Y-144790000D01*
X132064868Y-144790000D01*
X131411000Y-144136132D01*
X131411000Y-142450000D01*
X131406994Y-142429862D01*
X131509566Y-142532434D01*
X131509566Y-142532434D01*
G37*
X131509566Y-142532434D02*
X131780460Y-142713440D01*
X132096744Y-142776352D01*
X132176040Y-142855648D01*
X131924741Y-142935920D01*
X131723282Y-143491279D01*
X131749685Y-144081458D01*
X131924741Y-144504080D01*
X132176042Y-144584353D01*
X133040395Y-143720000D01*
X133026253Y-143705858D01*
X133205858Y-143526253D01*
X133220000Y-143540395D01*
X133234143Y-143526253D01*
X133413748Y-143705858D01*
X133399605Y-143720000D01*
X134263958Y-144584353D01*
X134515259Y-144504080D01*
X134716718Y-143948721D01*
X134690315Y-143358542D01*
X134515259Y-142935920D01*
X134263960Y-142855648D01*
X134342608Y-142777000D01*
X138562705Y-142777000D01*
X138461812Y-142877717D01*
X138235258Y-143423319D01*
X138234743Y-144014089D01*
X138460344Y-144560086D01*
X138689857Y-144790000D01*
X134076034Y-144790000D01*
X134084353Y-144763958D01*
X133220000Y-143899605D01*
X132355647Y-144763958D01*
X132363966Y-144790000D01*
X132064868Y-144790000D01*
X131411000Y-144136132D01*
X131411000Y-142450000D01*
X131406994Y-142429862D01*
X131509566Y-142532434D01*
G36*
X159597500Y-111396500D02*
X159917057Y-111610021D01*
X160294000Y-111685000D01*
X161553458Y-111685000D01*
X161773223Y-111905149D01*
X161929140Y-111969891D01*
X161775328Y-112033445D01*
X161374851Y-112433223D01*
X161157848Y-112955826D01*
X161157354Y-113521691D01*
X161373445Y-114044672D01*
X161773223Y-114445149D01*
X161929140Y-114509891D01*
X161775328Y-114573445D01*
X161374851Y-114973223D01*
X161157848Y-115495826D01*
X161157354Y-116061691D01*
X161373445Y-116584672D01*
X161773223Y-116985149D01*
X161929140Y-117049891D01*
X161775328Y-117113445D01*
X161374851Y-117513223D01*
X161157848Y-118035826D01*
X161157354Y-118601691D01*
X161373445Y-119124672D01*
X161773223Y-119525149D01*
X161929140Y-119589891D01*
X161775328Y-119653445D01*
X161374851Y-120053223D01*
X161157848Y-120575826D01*
X161157354Y-121141691D01*
X161373445Y-121664672D01*
X161773223Y-122065149D01*
X161929140Y-122129891D01*
X161775328Y-122193445D01*
X161374851Y-122593223D01*
X161157848Y-123115826D01*
X161157354Y-123681691D01*
X161373445Y-124204672D01*
X161773223Y-124605149D01*
X161929140Y-124669891D01*
X161775328Y-124733445D01*
X161374851Y-125133223D01*
X161157848Y-125655826D01*
X161157354Y-126221691D01*
X161373445Y-126744672D01*
X161773223Y-127145149D01*
X161929140Y-127209891D01*
X161775328Y-127273445D01*
X161374851Y-127673223D01*
X161157848Y-128195826D01*
X161157354Y-128761691D01*
X161373445Y-129284672D01*
X161773223Y-129685149D01*
X161929140Y-129749891D01*
X161775328Y-129813445D01*
X161374851Y-130213223D01*
X161157848Y-130735826D01*
X161157354Y-131301691D01*
X161373445Y-131824672D01*
X161773223Y-132225149D01*
X161929140Y-132289891D01*
X161775328Y-132353445D01*
X161374851Y-132753223D01*
X161157848Y-133275826D01*
X161157354Y-133841691D01*
X161373445Y-134364672D01*
X161773223Y-134765149D01*
X161929140Y-134829891D01*
X161775328Y-134893445D01*
X161374851Y-135293223D01*
X161157848Y-135815826D01*
X161157354Y-136381691D01*
X161373445Y-136904672D01*
X161773223Y-137305149D01*
X161929140Y-137369891D01*
X161775328Y-137433445D01*
X161403123Y-137805000D01*
X160040000Y-137805000D01*
X159720460Y-137868560D01*
X159449566Y-138049566D01*
X152709132Y-144790000D01*
X140750073Y-144790000D01*
X140978188Y-144562283D01*
X140981212Y-144555000D01*
X147848000Y-144555000D01*
X148167541Y-144491439D01*
X148438434Y-144310434D01*
X153264434Y-139484434D01*
X153445440Y-139213540D01*
X153509000Y-138894000D01*
X153509000Y-110446000D01*
X153445439Y-110126459D01*
X153264434Y-109855566D01*
X150978434Y-107569566D01*
X150968042Y-107562622D01*
X150707541Y-107388561D01*
X150388000Y-107325000D01*
X148516280Y-107325000D01*
X148146777Y-106954851D01*
X147990860Y-106890109D01*
X148144672Y-106826555D01*
X148545149Y-106426777D01*
X148762152Y-105904174D01*
X148762646Y-105338309D01*
X148546555Y-104815328D01*
X148146777Y-104414851D01*
X147990860Y-104350109D01*
X148144672Y-104286555D01*
X148545149Y-103886777D01*
X148762152Y-103364174D01*
X148762646Y-102798309D01*
X148546555Y-102275328D01*
X148146777Y-101874851D01*
X147915941Y-101779000D01*
X149980000Y-101779000D01*
X159597500Y-111396500D01*
X159597500Y-111396500D01*
G37*
X159597500Y-111396500D02*
X159917057Y-111610021D01*
X160294000Y-111685000D01*
X161553458Y-111685000D01*
X161773223Y-111905149D01*
X161929140Y-111969891D01*
X161775328Y-112033445D01*
X161374851Y-112433223D01*
X161157848Y-112955826D01*
X161157354Y-113521691D01*
X161373445Y-114044672D01*
X161773223Y-114445149D01*
X161929140Y-114509891D01*
X161775328Y-114573445D01*
X161374851Y-114973223D01*
X161157848Y-115495826D01*
X161157354Y-116061691D01*
X161373445Y-116584672D01*
X161773223Y-116985149D01*
X161929140Y-117049891D01*
X161775328Y-117113445D01*
X161374851Y-117513223D01*
X161157848Y-118035826D01*
X161157354Y-118601691D01*
X161373445Y-119124672D01*
X161773223Y-119525149D01*
X161929140Y-119589891D01*
X161775328Y-119653445D01*
X161374851Y-120053223D01*
X161157848Y-120575826D01*
X161157354Y-121141691D01*
X161373445Y-121664672D01*
X161773223Y-122065149D01*
X161929140Y-122129891D01*
X161775328Y-122193445D01*
X161374851Y-122593223D01*
X161157848Y-123115826D01*
X161157354Y-123681691D01*
X161373445Y-124204672D01*
X161773223Y-124605149D01*
X161929140Y-124669891D01*
X161775328Y-124733445D01*
X161374851Y-125133223D01*
X161157848Y-125655826D01*
X161157354Y-126221691D01*
X161373445Y-126744672D01*
X161773223Y-127145149D01*
X161929140Y-127209891D01*
X161775328Y-127273445D01*
X161374851Y-127673223D01*
X161157848Y-128195826D01*
X161157354Y-128761691D01*
X161373445Y-129284672D01*
X161773223Y-129685149D01*
X161929140Y-129749891D01*
X161775328Y-129813445D01*
X161374851Y-130213223D01*
X161157848Y-130735826D01*
X161157354Y-131301691D01*
X161373445Y-131824672D01*
X161773223Y-132225149D01*
X161929140Y-132289891D01*
X161775328Y-132353445D01*
X161374851Y-132753223D01*
X161157848Y-133275826D01*
X161157354Y-133841691D01*
X161373445Y-134364672D01*
X161773223Y-134765149D01*
X161929140Y-134829891D01*
X161775328Y-134893445D01*
X161374851Y-135293223D01*
X161157848Y-135815826D01*
X161157354Y-136381691D01*
X161373445Y-136904672D01*
X161773223Y-137305149D01*
X161929140Y-137369891D01*
X161775328Y-137433445D01*
X161403123Y-137805000D01*
X160040000Y-137805000D01*
X159720460Y-137868560D01*
X159449566Y-138049566D01*
X152709132Y-144790000D01*
X140750073Y-144790000D01*
X140978188Y-144562283D01*
X140981212Y-144555000D01*
X147848000Y-144555000D01*
X148167541Y-144491439D01*
X148438434Y-144310434D01*
X153264434Y-139484434D01*
X153445440Y-139213540D01*
X153509000Y-138894000D01*
X153509000Y-110446000D01*
X153445439Y-110126459D01*
X153264434Y-109855566D01*
X150978434Y-107569566D01*
X150968042Y-107562622D01*
X150707541Y-107388561D01*
X150388000Y-107325000D01*
X148516280Y-107325000D01*
X148146777Y-106954851D01*
X147990860Y-106890109D01*
X148144672Y-106826555D01*
X148545149Y-106426777D01*
X148762152Y-105904174D01*
X148762646Y-105338309D01*
X148546555Y-104815328D01*
X148146777Y-104414851D01*
X147990860Y-104350109D01*
X148144672Y-104286555D01*
X148545149Y-103886777D01*
X148762152Y-103364174D01*
X148762646Y-102798309D01*
X148546555Y-102275328D01*
X148146777Y-101874851D01*
X147915941Y-101779000D01*
X149980000Y-101779000D01*
X159597500Y-111396500D01*
G36*
X146535328Y-101873445D02*
X146134851Y-102273223D01*
X145917848Y-102795826D01*
X145917354Y-103361691D01*
X146133445Y-103884672D01*
X146533223Y-104285149D01*
X146689140Y-104349891D01*
X146535328Y-104413445D01*
X146134851Y-104813223D01*
X145917848Y-105335826D01*
X145917354Y-105901691D01*
X146133445Y-106424672D01*
X146533223Y-106825149D01*
X146689140Y-106889891D01*
X146535328Y-106953445D01*
X146163123Y-107325000D01*
X144824000Y-107325000D01*
X144504459Y-107388561D01*
X144243958Y-107562622D01*
X144233566Y-107569566D01*
X141890216Y-109912916D01*
X141771127Y-109912812D01*
X141372200Y-110077646D01*
X141066718Y-110382595D01*
X140901189Y-110781233D01*
X140900812Y-111212873D01*
X141065646Y-111611800D01*
X141370595Y-111917282D01*
X141769233Y-112082811D01*
X142200873Y-112083188D01*
X142599800Y-111918354D01*
X142905282Y-111613405D01*
X143070811Y-111214767D01*
X143070917Y-111093951D01*
X143678633Y-110486235D01*
X145905574Y-110486235D01*
X145932959Y-111051438D01*
X146096568Y-111446425D01*
X146341383Y-111519011D01*
X147160395Y-110700000D01*
X147519605Y-110700000D01*
X148338617Y-111519011D01*
X148583432Y-111446425D01*
X148774426Y-110913765D01*
X148747041Y-110348562D01*
X148583432Y-109953575D01*
X148338617Y-109880989D01*
X147519605Y-110700000D01*
X147160395Y-110700000D01*
X146341383Y-109880989D01*
X146096568Y-109953575D01*
X145905574Y-110486235D01*
X143678633Y-110486235D01*
X145169868Y-108995000D01*
X146163720Y-108995000D01*
X146533223Y-109365149D01*
X146673578Y-109423429D01*
X146593575Y-109456568D01*
X146520989Y-109701383D01*
X147340000Y-110520395D01*
X148159011Y-109701383D01*
X148086425Y-109456568D01*
X148000976Y-109425929D01*
X148144672Y-109366555D01*
X148516877Y-108995000D01*
X150042132Y-108995000D01*
X151839000Y-110791868D01*
X151839000Y-138548132D01*
X150461000Y-139926132D01*
X150461000Y-136862000D01*
X150449907Y-136806233D01*
X150397440Y-136542460D01*
X150216434Y-136271566D01*
X149454434Y-135509566D01*
X149295695Y-135403500D01*
X149183541Y-135328561D01*
X148864000Y-135265000D01*
X148516280Y-135265000D01*
X148146777Y-134894851D01*
X147990860Y-134830109D01*
X148144672Y-134766555D01*
X148545149Y-134366777D01*
X148762152Y-133844174D01*
X148762646Y-133278309D01*
X148546555Y-132755328D01*
X148146777Y-132354851D01*
X147990860Y-132290109D01*
X148144672Y-132226555D01*
X148545149Y-131826777D01*
X148762152Y-131304174D01*
X148762646Y-130738309D01*
X148546555Y-130215328D01*
X148146777Y-129814851D01*
X147990860Y-129750109D01*
X148144672Y-129686555D01*
X148545149Y-129286777D01*
X148762152Y-128764174D01*
X148762646Y-128198309D01*
X148546555Y-127675328D01*
X148146777Y-127274851D01*
X147990860Y-127210109D01*
X148144672Y-127146555D01*
X148545149Y-126746777D01*
X148762152Y-126224174D01*
X148762646Y-125658309D01*
X148546555Y-125135328D01*
X148146777Y-124734851D01*
X147990860Y-124670109D01*
X148144672Y-124606555D01*
X148545149Y-124206777D01*
X148762152Y-123684174D01*
X148762646Y-123118309D01*
X148546555Y-122595328D01*
X148146777Y-122194851D01*
X147990860Y-122130109D01*
X148144672Y-122066555D01*
X148545149Y-121666777D01*
X148762152Y-121144174D01*
X148762646Y-120578309D01*
X148546555Y-120055328D01*
X148146777Y-119654851D01*
X147990860Y-119590109D01*
X148144672Y-119526555D01*
X148545149Y-119126777D01*
X148762152Y-118604174D01*
X148762646Y-118038309D01*
X148546555Y-117515328D01*
X148146777Y-117114851D01*
X147990860Y-117050109D01*
X148144672Y-116986555D01*
X148545149Y-116586777D01*
X148762152Y-116064174D01*
X148762646Y-115498309D01*
X148546555Y-114975328D01*
X148146777Y-114574851D01*
X147990860Y-114510109D01*
X148144672Y-114446555D01*
X148545149Y-114046777D01*
X148762152Y-113524174D01*
X148762646Y-112958309D01*
X148546555Y-112435328D01*
X148146777Y-112034851D01*
X148006422Y-111976571D01*
X148086425Y-111943432D01*
X148159011Y-111698617D01*
X147340000Y-110879605D01*
X146520989Y-111698617D01*
X146593575Y-111943432D01*
X146679024Y-111974071D01*
X146535328Y-112033445D01*
X146163123Y-112405000D01*
X138402841Y-112405000D01*
X138259147Y-112189946D01*
X137929974Y-111970000D01*
X138259147Y-111750054D01*
X138581054Y-111268285D01*
X138694093Y-110700000D01*
X138581054Y-110131715D01*
X138259147Y-109649946D01*
X137777378Y-109328039D01*
X137209093Y-109215000D01*
X137150907Y-109215000D01*
X136582622Y-109328039D01*
X136100853Y-109649946D01*
X136057385Y-109715000D01*
X128142615Y-109715000D01*
X128099147Y-109649946D01*
X128005000Y-109587039D01*
X128005000Y-106028000D01*
X128715255Y-105317745D01*
X130001861Y-105317745D01*
X130075995Y-105563864D01*
X130613223Y-105756965D01*
X131183454Y-105729778D01*
X131584005Y-105563864D01*
X131658139Y-105317745D01*
X135081861Y-105317745D01*
X135155995Y-105563864D01*
X135693223Y-105756965D01*
X136263454Y-105729778D01*
X136664005Y-105563864D01*
X136738139Y-105317745D01*
X135910000Y-104489605D01*
X135081861Y-105317745D01*
X131658139Y-105317745D01*
X130830000Y-104489605D01*
X130001861Y-105317745D01*
X128715255Y-105317745D01*
X129408371Y-104624629D01*
X129410222Y-104663454D01*
X129576136Y-105064005D01*
X129822255Y-105138139D01*
X130650395Y-104310000D01*
X131009605Y-104310000D01*
X131837745Y-105138139D01*
X132083864Y-105064005D01*
X132276965Y-104526777D01*
X132256295Y-104093223D01*
X134463035Y-104093223D01*
X134490222Y-104663454D01*
X134656136Y-105064005D01*
X134902255Y-105138139D01*
X135730395Y-104310000D01*
X136089605Y-104310000D01*
X136917745Y-105138139D01*
X137163864Y-105064005D01*
X137356965Y-104526777D01*
X137329778Y-103956546D01*
X137163864Y-103555995D01*
X136917745Y-103481861D01*
X136089605Y-104310000D01*
X135730395Y-104310000D01*
X134902255Y-103481861D01*
X134656136Y-103555995D01*
X134463035Y-104093223D01*
X132256295Y-104093223D01*
X132249778Y-103956546D01*
X132083864Y-103555995D01*
X131837745Y-103481861D01*
X131009605Y-104310000D01*
X130650395Y-104310000D01*
X130636252Y-104295858D01*
X130815858Y-104116252D01*
X130830000Y-104130395D01*
X131658139Y-103302255D01*
X131584005Y-103056136D01*
X131577517Y-103053804D01*
X131641800Y-103027243D01*
X131724187Y-102945000D01*
X134570982Y-102945000D01*
X134645910Y-103061441D01*
X134858110Y-103206431D01*
X135096201Y-103254646D01*
X135081861Y-103302255D01*
X135910000Y-104130395D01*
X136738139Y-103302255D01*
X136723855Y-103254833D01*
X136945317Y-103213162D01*
X137161441Y-103074090D01*
X137306431Y-102861890D01*
X137319977Y-102795000D01*
X142768000Y-102795000D01*
X143144943Y-102720021D01*
X143464500Y-102506500D01*
X144192000Y-101779000D01*
X146763903Y-101779000D01*
X146535328Y-101873445D01*
X146535328Y-101873445D01*
G37*
X146535328Y-101873445D02*
X146134851Y-102273223D01*
X145917848Y-102795826D01*
X145917354Y-103361691D01*
X146133445Y-103884672D01*
X146533223Y-104285149D01*
X146689140Y-104349891D01*
X146535328Y-104413445D01*
X146134851Y-104813223D01*
X145917848Y-105335826D01*
X145917354Y-105901691D01*
X146133445Y-106424672D01*
X146533223Y-106825149D01*
X146689140Y-106889891D01*
X146535328Y-106953445D01*
X146163123Y-107325000D01*
X144824000Y-107325000D01*
X144504459Y-107388561D01*
X144243958Y-107562622D01*
X144233566Y-107569566D01*
X141890216Y-109912916D01*
X141771127Y-109912812D01*
X141372200Y-110077646D01*
X141066718Y-110382595D01*
X140901189Y-110781233D01*
X140900812Y-111212873D01*
X141065646Y-111611800D01*
X141370595Y-111917282D01*
X141769233Y-112082811D01*
X142200873Y-112083188D01*
X142599800Y-111918354D01*
X142905282Y-111613405D01*
X143070811Y-111214767D01*
X143070917Y-111093951D01*
X143678633Y-110486235D01*
X145905574Y-110486235D01*
X145932959Y-111051438D01*
X146096568Y-111446425D01*
X146341383Y-111519011D01*
X147160395Y-110700000D01*
X147519605Y-110700000D01*
X148338617Y-111519011D01*
X148583432Y-111446425D01*
X148774426Y-110913765D01*
X148747041Y-110348562D01*
X148583432Y-109953575D01*
X148338617Y-109880989D01*
X147519605Y-110700000D01*
X147160395Y-110700000D01*
X146341383Y-109880989D01*
X146096568Y-109953575D01*
X145905574Y-110486235D01*
X143678633Y-110486235D01*
X145169868Y-108995000D01*
X146163720Y-108995000D01*
X146533223Y-109365149D01*
X146673578Y-109423429D01*
X146593575Y-109456568D01*
X146520989Y-109701383D01*
X147340000Y-110520395D01*
X148159011Y-109701383D01*
X148086425Y-109456568D01*
X148000976Y-109425929D01*
X148144672Y-109366555D01*
X148516877Y-108995000D01*
X150042132Y-108995000D01*
X151839000Y-110791868D01*
X151839000Y-138548132D01*
X150461000Y-139926132D01*
X150461000Y-136862000D01*
X150449907Y-136806233D01*
X150397440Y-136542460D01*
X150216434Y-136271566D01*
X149454434Y-135509566D01*
X149295695Y-135403500D01*
X149183541Y-135328561D01*
X148864000Y-135265000D01*
X148516280Y-135265000D01*
X148146777Y-134894851D01*
X147990860Y-134830109D01*
X148144672Y-134766555D01*
X148545149Y-134366777D01*
X148762152Y-133844174D01*
X148762646Y-133278309D01*
X148546555Y-132755328D01*
X148146777Y-132354851D01*
X147990860Y-132290109D01*
X148144672Y-132226555D01*
X148545149Y-131826777D01*
X148762152Y-131304174D01*
X148762646Y-130738309D01*
X148546555Y-130215328D01*
X148146777Y-129814851D01*
X147990860Y-129750109D01*
X148144672Y-129686555D01*
X148545149Y-129286777D01*
X148762152Y-128764174D01*
X148762646Y-128198309D01*
X148546555Y-127675328D01*
X148146777Y-127274851D01*
X147990860Y-127210109D01*
X148144672Y-127146555D01*
X148545149Y-126746777D01*
X148762152Y-126224174D01*
X148762646Y-125658309D01*
X148546555Y-125135328D01*
X148146777Y-124734851D01*
X147990860Y-124670109D01*
X148144672Y-124606555D01*
X148545149Y-124206777D01*
X148762152Y-123684174D01*
X148762646Y-123118309D01*
X148546555Y-122595328D01*
X148146777Y-122194851D01*
X147990860Y-122130109D01*
X148144672Y-122066555D01*
X148545149Y-121666777D01*
X148762152Y-121144174D01*
X148762646Y-120578309D01*
X148546555Y-120055328D01*
X148146777Y-119654851D01*
X147990860Y-119590109D01*
X148144672Y-119526555D01*
X148545149Y-119126777D01*
X148762152Y-118604174D01*
X148762646Y-118038309D01*
X148546555Y-117515328D01*
X148146777Y-117114851D01*
X147990860Y-117050109D01*
X148144672Y-116986555D01*
X148545149Y-116586777D01*
X148762152Y-116064174D01*
X148762646Y-115498309D01*
X148546555Y-114975328D01*
X148146777Y-114574851D01*
X147990860Y-114510109D01*
X148144672Y-114446555D01*
X148545149Y-114046777D01*
X148762152Y-113524174D01*
X148762646Y-112958309D01*
X148546555Y-112435328D01*
X148146777Y-112034851D01*
X148006422Y-111976571D01*
X148086425Y-111943432D01*
X148159011Y-111698617D01*
X147340000Y-110879605D01*
X146520989Y-111698617D01*
X146593575Y-111943432D01*
X146679024Y-111974071D01*
X146535328Y-112033445D01*
X146163123Y-112405000D01*
X138402841Y-112405000D01*
X138259147Y-112189946D01*
X137929974Y-111970000D01*
X138259147Y-111750054D01*
X138581054Y-111268285D01*
X138694093Y-110700000D01*
X138581054Y-110131715D01*
X138259147Y-109649946D01*
X137777378Y-109328039D01*
X137209093Y-109215000D01*
X137150907Y-109215000D01*
X136582622Y-109328039D01*
X136100853Y-109649946D01*
X136057385Y-109715000D01*
X128142615Y-109715000D01*
X128099147Y-109649946D01*
X128005000Y-109587039D01*
X128005000Y-106028000D01*
X128715255Y-105317745D01*
X130001861Y-105317745D01*
X130075995Y-105563864D01*
X130613223Y-105756965D01*
X131183454Y-105729778D01*
X131584005Y-105563864D01*
X131658139Y-105317745D01*
X135081861Y-105317745D01*
X135155995Y-105563864D01*
X135693223Y-105756965D01*
X136263454Y-105729778D01*
X136664005Y-105563864D01*
X136738139Y-105317745D01*
X135910000Y-104489605D01*
X135081861Y-105317745D01*
X131658139Y-105317745D01*
X130830000Y-104489605D01*
X130001861Y-105317745D01*
X128715255Y-105317745D01*
X129408371Y-104624629D01*
X129410222Y-104663454D01*
X129576136Y-105064005D01*
X129822255Y-105138139D01*
X130650395Y-104310000D01*
X131009605Y-104310000D01*
X131837745Y-105138139D01*
X132083864Y-105064005D01*
X132276965Y-104526777D01*
X132256295Y-104093223D01*
X134463035Y-104093223D01*
X134490222Y-104663454D01*
X134656136Y-105064005D01*
X134902255Y-105138139D01*
X135730395Y-104310000D01*
X136089605Y-104310000D01*
X136917745Y-105138139D01*
X137163864Y-105064005D01*
X137356965Y-104526777D01*
X137329778Y-103956546D01*
X137163864Y-103555995D01*
X136917745Y-103481861D01*
X136089605Y-104310000D01*
X135730395Y-104310000D01*
X134902255Y-103481861D01*
X134656136Y-103555995D01*
X134463035Y-104093223D01*
X132256295Y-104093223D01*
X132249778Y-103956546D01*
X132083864Y-103555995D01*
X131837745Y-103481861D01*
X131009605Y-104310000D01*
X130650395Y-104310000D01*
X130636252Y-104295858D01*
X130815858Y-104116252D01*
X130830000Y-104130395D01*
X131658139Y-103302255D01*
X131584005Y-103056136D01*
X131577517Y-103053804D01*
X131641800Y-103027243D01*
X131724187Y-102945000D01*
X134570982Y-102945000D01*
X134645910Y-103061441D01*
X134858110Y-103206431D01*
X135096201Y-103254646D01*
X135081861Y-103302255D01*
X135910000Y-104130395D01*
X136738139Y-103302255D01*
X136723855Y-103254833D01*
X136945317Y-103213162D01*
X137161441Y-103074090D01*
X137306431Y-102861890D01*
X137319977Y-102795000D01*
X142768000Y-102795000D01*
X143144943Y-102720021D01*
X143464500Y-102506500D01*
X144192000Y-101779000D01*
X146763903Y-101779000D01*
X146535328Y-101873445D01*
G36*
X172657566Y-127292434D02*
X172928460Y-127473440D01*
X173248000Y-127537000D01*
X182046132Y-127537000D01*
X183081000Y-128571868D01*
X183081000Y-132036000D01*
X183144561Y-132355541D01*
X183247731Y-132509946D01*
X183325566Y-132626434D01*
X186521193Y-135822061D01*
X186465907Y-136100000D01*
X186578946Y-136668285D01*
X186900853Y-137150054D01*
X187230026Y-137370000D01*
X186900853Y-137589946D01*
X186857385Y-137655000D01*
X181482615Y-137655000D01*
X181439147Y-137589946D01*
X181109974Y-137370000D01*
X181439147Y-137150054D01*
X181761054Y-136668285D01*
X181874093Y-136100000D01*
X181761054Y-135531715D01*
X181439147Y-135049946D01*
X181109974Y-134830000D01*
X181439147Y-134610054D01*
X181761054Y-134128285D01*
X181874093Y-133560000D01*
X181761054Y-132991715D01*
X181439147Y-132509946D01*
X181395223Y-132480597D01*
X181569698Y-132408327D01*
X181748327Y-132229699D01*
X181845000Y-131996310D01*
X181845000Y-131305750D01*
X181686250Y-131147000D01*
X180487000Y-131147000D01*
X180487000Y-131167000D01*
X180233000Y-131167000D01*
X180233000Y-131147000D01*
X179033750Y-131147000D01*
X178875000Y-131305750D01*
X178875000Y-131996310D01*
X178971673Y-132229699D01*
X179150302Y-132408327D01*
X179324777Y-132480597D01*
X179280853Y-132509946D01*
X179256805Y-132545937D01*
X176754558Y-130043690D01*
X178875000Y-130043690D01*
X178875000Y-130734250D01*
X179033750Y-130893000D01*
X180233000Y-130893000D01*
X180233000Y-129693750D01*
X180487000Y-129693750D01*
X180487000Y-130893000D01*
X181686250Y-130893000D01*
X181845000Y-130734250D01*
X181845000Y-130043690D01*
X181748327Y-129810301D01*
X181569698Y-129631673D01*
X181336309Y-129535000D01*
X180645750Y-129535000D01*
X180487000Y-129693750D01*
X180233000Y-129693750D01*
X180074250Y-129535000D01*
X179383691Y-129535000D01*
X179150302Y-129631673D01*
X178971673Y-129810301D01*
X178875000Y-130043690D01*
X176754558Y-130043690D01*
X176124434Y-129413566D01*
X176114607Y-129407000D01*
X175853541Y-129232561D01*
X175534000Y-129169000D01*
X166227868Y-129169000D01*
X164948434Y-127889566D01*
X164691667Y-127718000D01*
X164677541Y-127708561D01*
X164358000Y-127645000D01*
X163756280Y-127645000D01*
X163386777Y-127274851D01*
X163230860Y-127210109D01*
X163384672Y-127146555D01*
X163756877Y-126775000D01*
X172140132Y-126775000D01*
X172657566Y-127292434D01*
X172657566Y-127292434D01*
G37*
X172657566Y-127292434D02*
X172928460Y-127473440D01*
X173248000Y-127537000D01*
X182046132Y-127537000D01*
X183081000Y-128571868D01*
X183081000Y-132036000D01*
X183144561Y-132355541D01*
X183247731Y-132509946D01*
X183325566Y-132626434D01*
X186521193Y-135822061D01*
X186465907Y-136100000D01*
X186578946Y-136668285D01*
X186900853Y-137150054D01*
X187230026Y-137370000D01*
X186900853Y-137589946D01*
X186857385Y-137655000D01*
X181482615Y-137655000D01*
X181439147Y-137589946D01*
X181109974Y-137370000D01*
X181439147Y-137150054D01*
X181761054Y-136668285D01*
X181874093Y-136100000D01*
X181761054Y-135531715D01*
X181439147Y-135049946D01*
X181109974Y-134830000D01*
X181439147Y-134610054D01*
X181761054Y-134128285D01*
X181874093Y-133560000D01*
X181761054Y-132991715D01*
X181439147Y-132509946D01*
X181395223Y-132480597D01*
X181569698Y-132408327D01*
X181748327Y-132229699D01*
X181845000Y-131996310D01*
X181845000Y-131305750D01*
X181686250Y-131147000D01*
X180487000Y-131147000D01*
X180487000Y-131167000D01*
X180233000Y-131167000D01*
X180233000Y-131147000D01*
X179033750Y-131147000D01*
X178875000Y-131305750D01*
X178875000Y-131996310D01*
X178971673Y-132229699D01*
X179150302Y-132408327D01*
X179324777Y-132480597D01*
X179280853Y-132509946D01*
X179256805Y-132545937D01*
X176754558Y-130043690D01*
X178875000Y-130043690D01*
X178875000Y-130734250D01*
X179033750Y-130893000D01*
X180233000Y-130893000D01*
X180233000Y-129693750D01*
X180487000Y-129693750D01*
X180487000Y-130893000D01*
X181686250Y-130893000D01*
X181845000Y-130734250D01*
X181845000Y-130043690D01*
X181748327Y-129810301D01*
X181569698Y-129631673D01*
X181336309Y-129535000D01*
X180645750Y-129535000D01*
X180487000Y-129693750D01*
X180233000Y-129693750D01*
X180074250Y-129535000D01*
X179383691Y-129535000D01*
X179150302Y-129631673D01*
X178971673Y-129810301D01*
X178875000Y-130043690D01*
X176754558Y-130043690D01*
X176124434Y-129413566D01*
X176114607Y-129407000D01*
X175853541Y-129232561D01*
X175534000Y-129169000D01*
X166227868Y-129169000D01*
X164948434Y-127889566D01*
X164691667Y-127718000D01*
X164677541Y-127708561D01*
X164358000Y-127645000D01*
X163756280Y-127645000D01*
X163386777Y-127274851D01*
X163230860Y-127210109D01*
X163384672Y-127146555D01*
X163756877Y-126775000D01*
X172140132Y-126775000D01*
X172657566Y-127292434D01*
G36*
X171286838Y-109245317D02*
X171425910Y-109461441D01*
X171638110Y-109606431D01*
X171890000Y-109657440D01*
X173590000Y-109657440D01*
X173825317Y-109613162D01*
X174041441Y-109474090D01*
X174186431Y-109261890D01*
X174200086Y-109194459D01*
X174229946Y-109239147D01*
X174711715Y-109561054D01*
X175280000Y-109674093D01*
X175848285Y-109561054D01*
X176330054Y-109239147D01*
X176392961Y-109145000D01*
X176707039Y-109145000D01*
X176769946Y-109239147D01*
X176835000Y-109282615D01*
X176835000Y-114307962D01*
X176734683Y-114326838D01*
X176518559Y-114465910D01*
X176373569Y-114678110D01*
X176322560Y-114930000D01*
X176322560Y-116630000D01*
X176366838Y-116865317D01*
X176505910Y-117081441D01*
X176718110Y-117226431D01*
X176826107Y-117248301D01*
X176548355Y-117553076D01*
X176378524Y-117963110D01*
X176499845Y-118193000D01*
X177693000Y-118193000D01*
X177693000Y-118173000D01*
X177947000Y-118173000D01*
X177947000Y-118193000D01*
X180233000Y-118193000D01*
X180233000Y-118173000D01*
X180487000Y-118173000D01*
X180487000Y-118193000D01*
X181680155Y-118193000D01*
X181801476Y-117963110D01*
X181631645Y-117553076D01*
X181241358Y-117124817D01*
X181098447Y-117057702D01*
X181439147Y-116830054D01*
X181482615Y-116765000D01*
X186507962Y-116765000D01*
X186526838Y-116865317D01*
X186665910Y-117081441D01*
X186878110Y-117226431D01*
X186986107Y-117248301D01*
X186708355Y-117553076D01*
X186538524Y-117963110D01*
X186659845Y-118193000D01*
X187853000Y-118193000D01*
X187853000Y-118173000D01*
X188107000Y-118173000D01*
X188107000Y-118193000D01*
X190393000Y-118193000D01*
X190393000Y-118173000D01*
X190647000Y-118173000D01*
X190647000Y-118193000D01*
X191840155Y-118193000D01*
X191961476Y-117963110D01*
X191791645Y-117553076D01*
X191401358Y-117124817D01*
X191258447Y-117057702D01*
X191507974Y-116890974D01*
X193345000Y-118728000D01*
X193345000Y-135692000D01*
X191382000Y-137655000D01*
X189102615Y-137655000D01*
X189059147Y-137589946D01*
X188729974Y-137370000D01*
X189059147Y-137150054D01*
X189381054Y-136668285D01*
X189494093Y-136100000D01*
X189381054Y-135531715D01*
X189059147Y-135049946D01*
X188729974Y-134830000D01*
X189059147Y-134610054D01*
X189381054Y-134128285D01*
X189494093Y-133560000D01*
X189381054Y-132991715D01*
X189059147Y-132509946D01*
X189015223Y-132480597D01*
X189189698Y-132408327D01*
X189368327Y-132229699D01*
X189465000Y-131996310D01*
X189465000Y-131305750D01*
X189306250Y-131147000D01*
X188107000Y-131147000D01*
X188107000Y-131167000D01*
X187853000Y-131167000D01*
X187853000Y-131147000D01*
X186653750Y-131147000D01*
X186495000Y-131305750D01*
X186495000Y-131996310D01*
X186591673Y-132229699D01*
X186770302Y-132408327D01*
X186944777Y-132480597D01*
X186900853Y-132509946D01*
X186876805Y-132545937D01*
X185767000Y-131436132D01*
X185767000Y-130043690D01*
X186495000Y-130043690D01*
X186495000Y-130734250D01*
X186653750Y-130893000D01*
X187853000Y-130893000D01*
X187853000Y-129693750D01*
X188107000Y-129693750D01*
X188107000Y-130893000D01*
X189306250Y-130893000D01*
X189465000Y-130734250D01*
X189465000Y-130043690D01*
X189368327Y-129810301D01*
X189189698Y-129631673D01*
X188956309Y-129535000D01*
X188265750Y-129535000D01*
X188107000Y-129693750D01*
X187853000Y-129693750D01*
X187694250Y-129535000D01*
X187003691Y-129535000D01*
X186770302Y-129631673D01*
X186591673Y-129810301D01*
X186495000Y-130043690D01*
X185767000Y-130043690D01*
X185767000Y-127972000D01*
X185703439Y-127652459D01*
X185522434Y-127381566D01*
X183490434Y-125349566D01*
X183233667Y-125178000D01*
X183219541Y-125168561D01*
X182900000Y-125105000D01*
X174355868Y-125105000D01*
X173838434Y-124587566D01*
X173745607Y-124525541D01*
X173567541Y-124406561D01*
X173248000Y-124343000D01*
X166481868Y-124343000D01*
X164948434Y-122809566D01*
X164880889Y-122764434D01*
X164677541Y-122628561D01*
X164358000Y-122565000D01*
X163756280Y-122565000D01*
X163386777Y-122194851D01*
X163230860Y-122130109D01*
X163384672Y-122066555D01*
X163756877Y-121695000D01*
X171632132Y-121695000D01*
X172149566Y-122212434D01*
X172420460Y-122393440D01*
X172740000Y-122457000D01*
X174172132Y-122457000D01*
X175705566Y-123990434D01*
X175976460Y-124171440D01*
X176296000Y-124235000D01*
X176597159Y-124235000D01*
X176740853Y-124450054D01*
X177222622Y-124771961D01*
X177790907Y-124885000D01*
X177849093Y-124885000D01*
X178417378Y-124771961D01*
X178899147Y-124450054D01*
X179042841Y-124235000D01*
X179137159Y-124235000D01*
X179280853Y-124450054D01*
X179762622Y-124771961D01*
X180330907Y-124885000D01*
X180389093Y-124885000D01*
X180957378Y-124771961D01*
X181439147Y-124450054D01*
X181582841Y-124235000D01*
X186757159Y-124235000D01*
X186900853Y-124450054D01*
X187382622Y-124771961D01*
X187950907Y-124885000D01*
X188009093Y-124885000D01*
X188577378Y-124771961D01*
X189059147Y-124450054D01*
X189202841Y-124235000D01*
X189297159Y-124235000D01*
X189440853Y-124450054D01*
X189922622Y-124771961D01*
X190490907Y-124885000D01*
X190549093Y-124885000D01*
X191117378Y-124771961D01*
X191599147Y-124450054D01*
X191921054Y-123968285D01*
X192034093Y-123400000D01*
X191921054Y-122831715D01*
X191599147Y-122349946D01*
X191269974Y-122130000D01*
X191599147Y-121910054D01*
X191921054Y-121428285D01*
X192034093Y-120860000D01*
X191921054Y-120291715D01*
X191599147Y-119809946D01*
X191258447Y-119582298D01*
X191401358Y-119515183D01*
X191791645Y-119086924D01*
X191961476Y-118676890D01*
X191840155Y-118447000D01*
X190647000Y-118447000D01*
X190647000Y-118467000D01*
X190393000Y-118467000D01*
X190393000Y-118447000D01*
X188107000Y-118447000D01*
X188107000Y-118467000D01*
X187853000Y-118467000D01*
X187853000Y-118447000D01*
X186659845Y-118447000D01*
X186538524Y-118676890D01*
X186708355Y-119086924D01*
X187098642Y-119515183D01*
X187241553Y-119582298D01*
X186900853Y-119809946D01*
X186757159Y-120025000D01*
X181582841Y-120025000D01*
X181439147Y-119809946D01*
X181098447Y-119582298D01*
X181241358Y-119515183D01*
X181631645Y-119086924D01*
X181801476Y-118676890D01*
X181680155Y-118447000D01*
X180487000Y-118447000D01*
X180487000Y-118467000D01*
X180233000Y-118467000D01*
X180233000Y-118447000D01*
X177947000Y-118447000D01*
X177947000Y-118467000D01*
X177693000Y-118467000D01*
X177693000Y-118447000D01*
X176499845Y-118447000D01*
X176378524Y-118676890D01*
X176548355Y-119086924D01*
X176938642Y-119515183D01*
X177081553Y-119582298D01*
X176740853Y-119809946D01*
X176597159Y-120025000D01*
X173593868Y-120025000D01*
X173076434Y-119507566D01*
X173047210Y-119488039D01*
X172805541Y-119326561D01*
X172486000Y-119263000D01*
X166481868Y-119263000D01*
X164948434Y-117729566D01*
X164677541Y-117548561D01*
X164358000Y-117485000D01*
X163756280Y-117485000D01*
X163386777Y-117114851D01*
X163230860Y-117050109D01*
X163384672Y-116986555D01*
X163756877Y-116615000D01*
X166437159Y-116615000D01*
X166580853Y-116830054D01*
X167062622Y-117151961D01*
X167630907Y-117265000D01*
X167689093Y-117265000D01*
X168257378Y-117151961D01*
X168739147Y-116830054D01*
X169061054Y-116348285D01*
X169174093Y-115780000D01*
X169061054Y-115211715D01*
X168739147Y-114729946D01*
X168697548Y-114702150D01*
X168745317Y-114693162D01*
X168961441Y-114554090D01*
X169106431Y-114341890D01*
X169157440Y-114090000D01*
X169157440Y-112390000D01*
X169113162Y-112154683D01*
X168974090Y-111938559D01*
X168761890Y-111793569D01*
X168510000Y-111742560D01*
X166810000Y-111742560D01*
X166574683Y-111786838D01*
X166358559Y-111925910D01*
X166213569Y-112138110D01*
X166162560Y-112390000D01*
X166162560Y-112405000D01*
X163756280Y-112405000D01*
X163386777Y-112034851D01*
X163230860Y-111970109D01*
X163384672Y-111906555D01*
X163606614Y-111685000D01*
X165374000Y-111685000D01*
X165750943Y-111610021D01*
X166070500Y-111396500D01*
X168322000Y-109145000D01*
X171267962Y-109145000D01*
X171286838Y-109245317D01*
X171286838Y-109245317D01*
G37*
X171286838Y-109245317D02*
X171425910Y-109461441D01*
X171638110Y-109606431D01*
X171890000Y-109657440D01*
X173590000Y-109657440D01*
X173825317Y-109613162D01*
X174041441Y-109474090D01*
X174186431Y-109261890D01*
X174200086Y-109194459D01*
X174229946Y-109239147D01*
X174711715Y-109561054D01*
X175280000Y-109674093D01*
X175848285Y-109561054D01*
X176330054Y-109239147D01*
X176392961Y-109145000D01*
X176707039Y-109145000D01*
X176769946Y-109239147D01*
X176835000Y-109282615D01*
X176835000Y-114307962D01*
X176734683Y-114326838D01*
X176518559Y-114465910D01*
X176373569Y-114678110D01*
X176322560Y-114930000D01*
X176322560Y-116630000D01*
X176366838Y-116865317D01*
X176505910Y-117081441D01*
X176718110Y-117226431D01*
X176826107Y-117248301D01*
X176548355Y-117553076D01*
X176378524Y-117963110D01*
X176499845Y-118193000D01*
X177693000Y-118193000D01*
X177693000Y-118173000D01*
X177947000Y-118173000D01*
X177947000Y-118193000D01*
X180233000Y-118193000D01*
X180233000Y-118173000D01*
X180487000Y-118173000D01*
X180487000Y-118193000D01*
X181680155Y-118193000D01*
X181801476Y-117963110D01*
X181631645Y-117553076D01*
X181241358Y-117124817D01*
X181098447Y-117057702D01*
X181439147Y-116830054D01*
X181482615Y-116765000D01*
X186507962Y-116765000D01*
X186526838Y-116865317D01*
X186665910Y-117081441D01*
X186878110Y-117226431D01*
X186986107Y-117248301D01*
X186708355Y-117553076D01*
X186538524Y-117963110D01*
X186659845Y-118193000D01*
X187853000Y-118193000D01*
X187853000Y-118173000D01*
X188107000Y-118173000D01*
X188107000Y-118193000D01*
X190393000Y-118193000D01*
X190393000Y-118173000D01*
X190647000Y-118173000D01*
X190647000Y-118193000D01*
X191840155Y-118193000D01*
X191961476Y-117963110D01*
X191791645Y-117553076D01*
X191401358Y-117124817D01*
X191258447Y-117057702D01*
X191507974Y-116890974D01*
X193345000Y-118728000D01*
X193345000Y-135692000D01*
X191382000Y-137655000D01*
X189102615Y-137655000D01*
X189059147Y-137589946D01*
X188729974Y-137370000D01*
X189059147Y-137150054D01*
X189381054Y-136668285D01*
X189494093Y-136100000D01*
X189381054Y-135531715D01*
X189059147Y-135049946D01*
X188729974Y-134830000D01*
X189059147Y-134610054D01*
X189381054Y-134128285D01*
X189494093Y-133560000D01*
X189381054Y-132991715D01*
X189059147Y-132509946D01*
X189015223Y-132480597D01*
X189189698Y-132408327D01*
X189368327Y-132229699D01*
X189465000Y-131996310D01*
X189465000Y-131305750D01*
X189306250Y-131147000D01*
X188107000Y-131147000D01*
X188107000Y-131167000D01*
X187853000Y-131167000D01*
X187853000Y-131147000D01*
X186653750Y-131147000D01*
X186495000Y-131305750D01*
X186495000Y-131996310D01*
X186591673Y-132229699D01*
X186770302Y-132408327D01*
X186944777Y-132480597D01*
X186900853Y-132509946D01*
X186876805Y-132545937D01*
X185767000Y-131436132D01*
X185767000Y-130043690D01*
X186495000Y-130043690D01*
X186495000Y-130734250D01*
X186653750Y-130893000D01*
X187853000Y-130893000D01*
X187853000Y-129693750D01*
X188107000Y-129693750D01*
X188107000Y-130893000D01*
X189306250Y-130893000D01*
X189465000Y-130734250D01*
X189465000Y-130043690D01*
X189368327Y-129810301D01*
X189189698Y-129631673D01*
X188956309Y-129535000D01*
X188265750Y-129535000D01*
X188107000Y-129693750D01*
X187853000Y-129693750D01*
X187694250Y-129535000D01*
X187003691Y-129535000D01*
X186770302Y-129631673D01*
X186591673Y-129810301D01*
X186495000Y-130043690D01*
X185767000Y-130043690D01*
X185767000Y-127972000D01*
X185703439Y-127652459D01*
X185522434Y-127381566D01*
X183490434Y-125349566D01*
X183233667Y-125178000D01*
X183219541Y-125168561D01*
X182900000Y-125105000D01*
X174355868Y-125105000D01*
X173838434Y-124587566D01*
X173745607Y-124525541D01*
X173567541Y-124406561D01*
X173248000Y-124343000D01*
X166481868Y-124343000D01*
X164948434Y-122809566D01*
X164880889Y-122764434D01*
X164677541Y-122628561D01*
X164358000Y-122565000D01*
X163756280Y-122565000D01*
X163386777Y-122194851D01*
X163230860Y-122130109D01*
X163384672Y-122066555D01*
X163756877Y-121695000D01*
X171632132Y-121695000D01*
X172149566Y-122212434D01*
X172420460Y-122393440D01*
X172740000Y-122457000D01*
X174172132Y-122457000D01*
X175705566Y-123990434D01*
X175976460Y-124171440D01*
X176296000Y-124235000D01*
X176597159Y-124235000D01*
X176740853Y-124450054D01*
X177222622Y-124771961D01*
X177790907Y-124885000D01*
X177849093Y-124885000D01*
X178417378Y-124771961D01*
X178899147Y-124450054D01*
X179042841Y-124235000D01*
X179137159Y-124235000D01*
X179280853Y-124450054D01*
X179762622Y-124771961D01*
X180330907Y-124885000D01*
X180389093Y-124885000D01*
X180957378Y-124771961D01*
X181439147Y-124450054D01*
X181582841Y-124235000D01*
X186757159Y-124235000D01*
X186900853Y-124450054D01*
X187382622Y-124771961D01*
X187950907Y-124885000D01*
X188009093Y-124885000D01*
X188577378Y-124771961D01*
X189059147Y-124450054D01*
X189202841Y-124235000D01*
X189297159Y-124235000D01*
X189440853Y-124450054D01*
X189922622Y-124771961D01*
X190490907Y-124885000D01*
X190549093Y-124885000D01*
X191117378Y-124771961D01*
X191599147Y-124450054D01*
X191921054Y-123968285D01*
X192034093Y-123400000D01*
X191921054Y-122831715D01*
X191599147Y-122349946D01*
X191269974Y-122130000D01*
X191599147Y-121910054D01*
X191921054Y-121428285D01*
X192034093Y-120860000D01*
X191921054Y-120291715D01*
X191599147Y-119809946D01*
X191258447Y-119582298D01*
X191401358Y-119515183D01*
X191791645Y-119086924D01*
X191961476Y-118676890D01*
X191840155Y-118447000D01*
X190647000Y-118447000D01*
X190647000Y-118467000D01*
X190393000Y-118467000D01*
X190393000Y-118447000D01*
X188107000Y-118447000D01*
X188107000Y-118467000D01*
X187853000Y-118467000D01*
X187853000Y-118447000D01*
X186659845Y-118447000D01*
X186538524Y-118676890D01*
X186708355Y-119086924D01*
X187098642Y-119515183D01*
X187241553Y-119582298D01*
X186900853Y-119809946D01*
X186757159Y-120025000D01*
X181582841Y-120025000D01*
X181439147Y-119809946D01*
X181098447Y-119582298D01*
X181241358Y-119515183D01*
X181631645Y-119086924D01*
X181801476Y-118676890D01*
X181680155Y-118447000D01*
X180487000Y-118447000D01*
X180487000Y-118467000D01*
X180233000Y-118467000D01*
X180233000Y-118447000D01*
X177947000Y-118447000D01*
X177947000Y-118467000D01*
X177693000Y-118467000D01*
X177693000Y-118447000D01*
X176499845Y-118447000D01*
X176378524Y-118676890D01*
X176548355Y-119086924D01*
X176938642Y-119515183D01*
X177081553Y-119582298D01*
X176740853Y-119809946D01*
X176597159Y-120025000D01*
X173593868Y-120025000D01*
X173076434Y-119507566D01*
X173047210Y-119488039D01*
X172805541Y-119326561D01*
X172486000Y-119263000D01*
X166481868Y-119263000D01*
X164948434Y-117729566D01*
X164677541Y-117548561D01*
X164358000Y-117485000D01*
X163756280Y-117485000D01*
X163386777Y-117114851D01*
X163230860Y-117050109D01*
X163384672Y-116986555D01*
X163756877Y-116615000D01*
X166437159Y-116615000D01*
X166580853Y-116830054D01*
X167062622Y-117151961D01*
X167630907Y-117265000D01*
X167689093Y-117265000D01*
X168257378Y-117151961D01*
X168739147Y-116830054D01*
X169061054Y-116348285D01*
X169174093Y-115780000D01*
X169061054Y-115211715D01*
X168739147Y-114729946D01*
X168697548Y-114702150D01*
X168745317Y-114693162D01*
X168961441Y-114554090D01*
X169106431Y-114341890D01*
X169157440Y-114090000D01*
X169157440Y-112390000D01*
X169113162Y-112154683D01*
X168974090Y-111938559D01*
X168761890Y-111793569D01*
X168510000Y-111742560D01*
X166810000Y-111742560D01*
X166574683Y-111786838D01*
X166358559Y-111925910D01*
X166213569Y-112138110D01*
X166162560Y-112390000D01*
X166162560Y-112405000D01*
X163756280Y-112405000D01*
X163386777Y-112034851D01*
X163230860Y-111970109D01*
X163384672Y-111906555D01*
X163606614Y-111685000D01*
X165374000Y-111685000D01*
X165750943Y-111610021D01*
X166070500Y-111396500D01*
X168322000Y-109145000D01*
X171267962Y-109145000D01*
X171286838Y-109245317D01*
G36*
X118047566Y-126530434D02*
X118318459Y-126711439D01*
X118638000Y-126775000D01*
X125004132Y-126775000D01*
X122365566Y-129413566D01*
X122184561Y-129684459D01*
X122121000Y-130004000D01*
X122121000Y-132397118D01*
X121941302Y-132517189D01*
X121802447Y-132725000D01*
X121061553Y-132725000D01*
X120922698Y-132517189D01*
X120457151Y-132206120D01*
X119908000Y-132096887D01*
X119358849Y-132206120D01*
X118893302Y-132517189D01*
X118582233Y-132982736D01*
X118473000Y-133531887D01*
X118473000Y-133588113D01*
X118582233Y-134137264D01*
X118893302Y-134602811D01*
X119358849Y-134913880D01*
X119908000Y-135023113D01*
X120457151Y-134913880D01*
X120922698Y-134602811D01*
X121061553Y-134395000D01*
X121802447Y-134395000D01*
X121941302Y-134602811D01*
X122406849Y-134913880D01*
X122956000Y-135023113D01*
X123505151Y-134913880D01*
X123970698Y-134602811D01*
X124281767Y-134137264D01*
X124339752Y-133845750D01*
X125535000Y-133845750D01*
X125535000Y-134536310D01*
X125631673Y-134769699D01*
X125810302Y-134948327D01*
X126043691Y-135045000D01*
X126734250Y-135045000D01*
X126893000Y-134886250D01*
X126893000Y-133687000D01*
X127147000Y-133687000D01*
X127147000Y-134886250D01*
X127305750Y-135045000D01*
X127996309Y-135045000D01*
X128229698Y-134948327D01*
X128408327Y-134769699D01*
X128505000Y-134536310D01*
X128505000Y-133845750D01*
X128346250Y-133687000D01*
X127147000Y-133687000D01*
X126893000Y-133687000D01*
X125693750Y-133687000D01*
X125535000Y-133845750D01*
X124339752Y-133845750D01*
X124391000Y-133588113D01*
X124391000Y-133531887D01*
X124281767Y-132982736D01*
X123970698Y-132517189D01*
X123791000Y-132397118D01*
X123791000Y-130349868D01*
X125531617Y-128609251D01*
X125618946Y-129048285D01*
X125940853Y-129530054D01*
X126270026Y-129750000D01*
X125940853Y-129969946D01*
X125618946Y-130451715D01*
X125505907Y-131020000D01*
X125618946Y-131588285D01*
X125940853Y-132070054D01*
X125984777Y-132099403D01*
X125810302Y-132171673D01*
X125631673Y-132350301D01*
X125535000Y-132583690D01*
X125535000Y-133274250D01*
X125693750Y-133433000D01*
X126893000Y-133433000D01*
X126893000Y-133413000D01*
X127147000Y-133413000D01*
X127147000Y-133433000D01*
X128346250Y-133433000D01*
X128505000Y-133274250D01*
X128505000Y-132583690D01*
X128408327Y-132350301D01*
X128229698Y-132171673D01*
X128055223Y-132099403D01*
X128099147Y-132070054D01*
X128242841Y-131855000D01*
X130484132Y-131855000D01*
X131265000Y-132635868D01*
X131265000Y-134195000D01*
X131328561Y-134514541D01*
X131471216Y-134728039D01*
X131509566Y-134785434D01*
X133259132Y-136535000D01*
X130921868Y-136535000D01*
X129896434Y-135509566D01*
X129737695Y-135403500D01*
X129625541Y-135328561D01*
X129306000Y-135265000D01*
X118221868Y-135265000D01*
X117949000Y-134992132D01*
X117949000Y-130004000D01*
X117885439Y-129684459D01*
X117704434Y-129413566D01*
X115672434Y-127381566D01*
X115643379Y-127362152D01*
X115401541Y-127200561D01*
X115082000Y-127137000D01*
X114620719Y-127137000D01*
X114500648Y-126957302D01*
X114118562Y-126702000D01*
X114500648Y-126446698D01*
X114811717Y-125981151D01*
X114920950Y-125432000D01*
X114811717Y-124882849D01*
X114500648Y-124417302D01*
X114118562Y-124162000D01*
X114500648Y-123906698D01*
X114620719Y-123727000D01*
X115244132Y-123727000D01*
X118047566Y-126530434D01*
X118047566Y-126530434D01*
G37*
X118047566Y-126530434D02*
X118318459Y-126711439D01*
X118638000Y-126775000D01*
X125004132Y-126775000D01*
X122365566Y-129413566D01*
X122184561Y-129684459D01*
X122121000Y-130004000D01*
X122121000Y-132397118D01*
X121941302Y-132517189D01*
X121802447Y-132725000D01*
X121061553Y-132725000D01*
X120922698Y-132517189D01*
X120457151Y-132206120D01*
X119908000Y-132096887D01*
X119358849Y-132206120D01*
X118893302Y-132517189D01*
X118582233Y-132982736D01*
X118473000Y-133531887D01*
X118473000Y-133588113D01*
X118582233Y-134137264D01*
X118893302Y-134602811D01*
X119358849Y-134913880D01*
X119908000Y-135023113D01*
X120457151Y-134913880D01*
X120922698Y-134602811D01*
X121061553Y-134395000D01*
X121802447Y-134395000D01*
X121941302Y-134602811D01*
X122406849Y-134913880D01*
X122956000Y-135023113D01*
X123505151Y-134913880D01*
X123970698Y-134602811D01*
X124281767Y-134137264D01*
X124339752Y-133845750D01*
X125535000Y-133845750D01*
X125535000Y-134536310D01*
X125631673Y-134769699D01*
X125810302Y-134948327D01*
X126043691Y-135045000D01*
X126734250Y-135045000D01*
X126893000Y-134886250D01*
X126893000Y-133687000D01*
X127147000Y-133687000D01*
X127147000Y-134886250D01*
X127305750Y-135045000D01*
X127996309Y-135045000D01*
X128229698Y-134948327D01*
X128408327Y-134769699D01*
X128505000Y-134536310D01*
X128505000Y-133845750D01*
X128346250Y-133687000D01*
X127147000Y-133687000D01*
X126893000Y-133687000D01*
X125693750Y-133687000D01*
X125535000Y-133845750D01*
X124339752Y-133845750D01*
X124391000Y-133588113D01*
X124391000Y-133531887D01*
X124281767Y-132982736D01*
X123970698Y-132517189D01*
X123791000Y-132397118D01*
X123791000Y-130349868D01*
X125531617Y-128609251D01*
X125618946Y-129048285D01*
X125940853Y-129530054D01*
X126270026Y-129750000D01*
X125940853Y-129969946D01*
X125618946Y-130451715D01*
X125505907Y-131020000D01*
X125618946Y-131588285D01*
X125940853Y-132070054D01*
X125984777Y-132099403D01*
X125810302Y-132171673D01*
X125631673Y-132350301D01*
X125535000Y-132583690D01*
X125535000Y-133274250D01*
X125693750Y-133433000D01*
X126893000Y-133433000D01*
X126893000Y-133413000D01*
X127147000Y-133413000D01*
X127147000Y-133433000D01*
X128346250Y-133433000D01*
X128505000Y-133274250D01*
X128505000Y-132583690D01*
X128408327Y-132350301D01*
X128229698Y-132171673D01*
X128055223Y-132099403D01*
X128099147Y-132070054D01*
X128242841Y-131855000D01*
X130484132Y-131855000D01*
X131265000Y-132635868D01*
X131265000Y-134195000D01*
X131328561Y-134514541D01*
X131471216Y-134728039D01*
X131509566Y-134785434D01*
X133259132Y-136535000D01*
X130921868Y-136535000D01*
X129896434Y-135509566D01*
X129737695Y-135403500D01*
X129625541Y-135328561D01*
X129306000Y-135265000D01*
X118221868Y-135265000D01*
X117949000Y-134992132D01*
X117949000Y-130004000D01*
X117885439Y-129684459D01*
X117704434Y-129413566D01*
X115672434Y-127381566D01*
X115643379Y-127362152D01*
X115401541Y-127200561D01*
X115082000Y-127137000D01*
X114620719Y-127137000D01*
X114500648Y-126957302D01*
X114118562Y-126702000D01*
X114500648Y-126446698D01*
X114811717Y-125981151D01*
X114920950Y-125432000D01*
X114811717Y-124882849D01*
X114500648Y-124417302D01*
X114118562Y-124162000D01*
X114500648Y-123906698D01*
X114620719Y-123727000D01*
X115244132Y-123727000D01*
X118047566Y-126530434D01*
G36*
X146533223Y-127145149D02*
X146689140Y-127209891D01*
X146535328Y-127273445D01*
X146163123Y-127645000D01*
X146070000Y-127645000D01*
X145750460Y-127708560D01*
X145479566Y-127889566D01*
X138739132Y-134630000D01*
X138626192Y-134630000D01*
X138665000Y-134536310D01*
X138665000Y-133845750D01*
X138506250Y-133687000D01*
X137307000Y-133687000D01*
X137307000Y-133707000D01*
X137053000Y-133707000D01*
X137053000Y-133687000D01*
X135853750Y-133687000D01*
X135695000Y-133845750D01*
X135695000Y-134536310D01*
X135733808Y-134630000D01*
X135620868Y-134630000D01*
X134205000Y-133214132D01*
X134205000Y-129750000D01*
X134141439Y-129430459D01*
X133960434Y-129159566D01*
X132690434Y-127889566D01*
X132433667Y-127718000D01*
X132419541Y-127708561D01*
X132100000Y-127645000D01*
X128242841Y-127645000D01*
X128099147Y-127429946D01*
X127769974Y-127210000D01*
X128099147Y-126990054D01*
X128142615Y-126925000D01*
X136057385Y-126925000D01*
X136100853Y-126990054D01*
X136430026Y-127210000D01*
X136100853Y-127429946D01*
X135778946Y-127911715D01*
X135665907Y-128480000D01*
X135778946Y-129048285D01*
X136100853Y-129530054D01*
X136430026Y-129750000D01*
X136100853Y-129969946D01*
X135778946Y-130451715D01*
X135665907Y-131020000D01*
X135778946Y-131588285D01*
X136100853Y-132070054D01*
X136144777Y-132099403D01*
X135970302Y-132171673D01*
X135791673Y-132350301D01*
X135695000Y-132583690D01*
X135695000Y-133274250D01*
X135853750Y-133433000D01*
X137053000Y-133433000D01*
X137053000Y-133413000D01*
X137307000Y-133413000D01*
X137307000Y-133433000D01*
X138506250Y-133433000D01*
X138665000Y-133274250D01*
X138665000Y-132583690D01*
X138568327Y-132350301D01*
X138389698Y-132171673D01*
X138215223Y-132099403D01*
X138259147Y-132070054D01*
X138402841Y-131855000D01*
X138450000Y-131855000D01*
X138769541Y-131791439D01*
X139040434Y-131610434D01*
X143875868Y-126775000D01*
X146163720Y-126775000D01*
X146533223Y-127145149D01*
X146533223Y-127145149D01*
G37*
X146533223Y-127145149D02*
X146689140Y-127209891D01*
X146535328Y-127273445D01*
X146163123Y-127645000D01*
X146070000Y-127645000D01*
X145750460Y-127708560D01*
X145479566Y-127889566D01*
X138739132Y-134630000D01*
X138626192Y-134630000D01*
X138665000Y-134536310D01*
X138665000Y-133845750D01*
X138506250Y-133687000D01*
X137307000Y-133687000D01*
X137307000Y-133707000D01*
X137053000Y-133707000D01*
X137053000Y-133687000D01*
X135853750Y-133687000D01*
X135695000Y-133845750D01*
X135695000Y-134536310D01*
X135733808Y-134630000D01*
X135620868Y-134630000D01*
X134205000Y-133214132D01*
X134205000Y-129750000D01*
X134141439Y-129430459D01*
X133960434Y-129159566D01*
X132690434Y-127889566D01*
X132433667Y-127718000D01*
X132419541Y-127708561D01*
X132100000Y-127645000D01*
X128242841Y-127645000D01*
X128099147Y-127429946D01*
X127769974Y-127210000D01*
X128099147Y-126990054D01*
X128142615Y-126925000D01*
X136057385Y-126925000D01*
X136100853Y-126990054D01*
X136430026Y-127210000D01*
X136100853Y-127429946D01*
X135778946Y-127911715D01*
X135665907Y-128480000D01*
X135778946Y-129048285D01*
X136100853Y-129530054D01*
X136430026Y-129750000D01*
X136100853Y-129969946D01*
X135778946Y-130451715D01*
X135665907Y-131020000D01*
X135778946Y-131588285D01*
X136100853Y-132070054D01*
X136144777Y-132099403D01*
X135970302Y-132171673D01*
X135791673Y-132350301D01*
X135695000Y-132583690D01*
X135695000Y-133274250D01*
X135853750Y-133433000D01*
X137053000Y-133433000D01*
X137053000Y-133413000D01*
X137307000Y-133413000D01*
X137307000Y-133433000D01*
X138506250Y-133433000D01*
X138665000Y-133274250D01*
X138665000Y-132583690D01*
X138568327Y-132350301D01*
X138389698Y-132171673D01*
X138215223Y-132099403D01*
X138259147Y-132070054D01*
X138402841Y-131855000D01*
X138450000Y-131855000D01*
X138769541Y-131791439D01*
X139040434Y-131610434D01*
X143875868Y-126775000D01*
X146163720Y-126775000D01*
X146533223Y-127145149D01*
G36*
X125940853Y-111750054D02*
X126270026Y-111970000D01*
X125940853Y-112189946D01*
X125618946Y-112671715D01*
X125505907Y-113240000D01*
X125618946Y-113808285D01*
X125940853Y-114290054D01*
X126270026Y-114510000D01*
X125940853Y-114729946D01*
X125618946Y-115211715D01*
X125505907Y-115780000D01*
X125618946Y-116348285D01*
X125940853Y-116830054D01*
X125984777Y-116859403D01*
X125810302Y-116931673D01*
X125631673Y-117110301D01*
X125535000Y-117343690D01*
X125535000Y-118034250D01*
X125693750Y-118193000D01*
X126893000Y-118193000D01*
X126893000Y-118173000D01*
X127147000Y-118173000D01*
X127147000Y-118193000D01*
X128346250Y-118193000D01*
X128505000Y-118034250D01*
X128505000Y-117343690D01*
X128408327Y-117110301D01*
X128229698Y-116931673D01*
X128055223Y-116859403D01*
X128099147Y-116830054D01*
X128242841Y-116615000D01*
X129214132Y-116615000D01*
X134049566Y-121450434D01*
X134320459Y-121631439D01*
X134640000Y-121695000D01*
X146163720Y-121695000D01*
X146533223Y-122065149D01*
X146689140Y-122129891D01*
X146535328Y-122193445D01*
X146163123Y-122565000D01*
X143530000Y-122565000D01*
X143210459Y-122628561D01*
X143007111Y-122764434D01*
X142939566Y-122809566D01*
X138283195Y-127465937D01*
X138259147Y-127429946D01*
X137929974Y-127210000D01*
X138259147Y-126990054D01*
X138581054Y-126508285D01*
X138694093Y-125940000D01*
X138581054Y-125371715D01*
X138259147Y-124889946D01*
X137777378Y-124568039D01*
X137209093Y-124455000D01*
X137150907Y-124455000D01*
X136582622Y-124568039D01*
X136100853Y-124889946D01*
X136057385Y-124955000D01*
X128142615Y-124955000D01*
X128099147Y-124889946D01*
X127617378Y-124568039D01*
X127049093Y-124455000D01*
X126990907Y-124455000D01*
X126885056Y-124476055D01*
X124937000Y-122528000D01*
X124937000Y-118605750D01*
X125535000Y-118605750D01*
X125535000Y-119296310D01*
X125631673Y-119529699D01*
X125810302Y-119708327D01*
X126043691Y-119805000D01*
X126734250Y-119805000D01*
X126893000Y-119646250D01*
X126893000Y-118447000D01*
X127147000Y-118447000D01*
X127147000Y-119646250D01*
X127305750Y-119805000D01*
X127996309Y-119805000D01*
X128229698Y-119708327D01*
X128408327Y-119529699D01*
X128505000Y-119296310D01*
X128505000Y-118605750D01*
X128346250Y-118447000D01*
X127147000Y-118447000D01*
X126893000Y-118447000D01*
X125693750Y-118447000D01*
X125535000Y-118605750D01*
X124937000Y-118605750D01*
X124937000Y-112168000D01*
X125420000Y-111685000D01*
X125897385Y-111685000D01*
X125940853Y-111750054D01*
X125940853Y-111750054D01*
G37*
X125940853Y-111750054D02*
X126270026Y-111970000D01*
X125940853Y-112189946D01*
X125618946Y-112671715D01*
X125505907Y-113240000D01*
X125618946Y-113808285D01*
X125940853Y-114290054D01*
X126270026Y-114510000D01*
X125940853Y-114729946D01*
X125618946Y-115211715D01*
X125505907Y-115780000D01*
X125618946Y-116348285D01*
X125940853Y-116830054D01*
X125984777Y-116859403D01*
X125810302Y-116931673D01*
X125631673Y-117110301D01*
X125535000Y-117343690D01*
X125535000Y-118034250D01*
X125693750Y-118193000D01*
X126893000Y-118193000D01*
X126893000Y-118173000D01*
X127147000Y-118173000D01*
X127147000Y-118193000D01*
X128346250Y-118193000D01*
X128505000Y-118034250D01*
X128505000Y-117343690D01*
X128408327Y-117110301D01*
X128229698Y-116931673D01*
X128055223Y-116859403D01*
X128099147Y-116830054D01*
X128242841Y-116615000D01*
X129214132Y-116615000D01*
X134049566Y-121450434D01*
X134320459Y-121631439D01*
X134640000Y-121695000D01*
X146163720Y-121695000D01*
X146533223Y-122065149D01*
X146689140Y-122129891D01*
X146535328Y-122193445D01*
X146163123Y-122565000D01*
X143530000Y-122565000D01*
X143210459Y-122628561D01*
X143007111Y-122764434D01*
X142939566Y-122809566D01*
X138283195Y-127465937D01*
X138259147Y-127429946D01*
X137929974Y-127210000D01*
X138259147Y-126990054D01*
X138581054Y-126508285D01*
X138694093Y-125940000D01*
X138581054Y-125371715D01*
X138259147Y-124889946D01*
X137777378Y-124568039D01*
X137209093Y-124455000D01*
X137150907Y-124455000D01*
X136582622Y-124568039D01*
X136100853Y-124889946D01*
X136057385Y-124955000D01*
X128142615Y-124955000D01*
X128099147Y-124889946D01*
X127617378Y-124568039D01*
X127049093Y-124455000D01*
X126990907Y-124455000D01*
X126885056Y-124476055D01*
X124937000Y-122528000D01*
X124937000Y-118605750D01*
X125535000Y-118605750D01*
X125535000Y-119296310D01*
X125631673Y-119529699D01*
X125810302Y-119708327D01*
X126043691Y-119805000D01*
X126734250Y-119805000D01*
X126893000Y-119646250D01*
X126893000Y-118447000D01*
X127147000Y-118447000D01*
X127147000Y-119646250D01*
X127305750Y-119805000D01*
X127996309Y-119805000D01*
X128229698Y-119708327D01*
X128408327Y-119529699D01*
X128505000Y-119296310D01*
X128505000Y-118605750D01*
X128346250Y-118447000D01*
X127147000Y-118447000D01*
X126893000Y-118447000D01*
X125693750Y-118447000D01*
X125535000Y-118605750D01*
X124937000Y-118605750D01*
X124937000Y-112168000D01*
X125420000Y-111685000D01*
X125897385Y-111685000D01*
X125940853Y-111750054D01*
G36*
X113517434Y-100072566D02*
X116057433Y-102612566D01*
X116335418Y-102798309D01*
X116425654Y-102858603D01*
X116708515Y-102914868D01*
X116575813Y-102914752D01*
X116048200Y-103132757D01*
X115644176Y-103536077D01*
X115425250Y-104063309D01*
X115424778Y-104604354D01*
X113729566Y-106299566D01*
X113548561Y-106570459D01*
X113485000Y-106890000D01*
X113485000Y-107006447D01*
X113277189Y-107145302D01*
X112966120Y-107610849D01*
X112856887Y-108160000D01*
X112966120Y-108709151D01*
X113277189Y-109174698D01*
X113659275Y-109430000D01*
X113277189Y-109685302D01*
X112966120Y-110150849D01*
X112856887Y-110700000D01*
X112966120Y-111249151D01*
X113277189Y-111714698D01*
X113659275Y-111970000D01*
X113277189Y-112225302D01*
X112966120Y-112690849D01*
X112856887Y-113240000D01*
X112966120Y-113789151D01*
X113277189Y-114254698D01*
X113659275Y-114510000D01*
X113277189Y-114765302D01*
X112966120Y-115230849D01*
X112856887Y-115780000D01*
X112966120Y-116329151D01*
X113277189Y-116794698D01*
X113742736Y-117105767D01*
X114291887Y-117215000D01*
X114348113Y-117215000D01*
X114897264Y-117105767D01*
X115362811Y-116794698D01*
X115673880Y-116329151D01*
X115783113Y-115780000D01*
X115673880Y-115230849D01*
X115362811Y-114765302D01*
X114980725Y-114510000D01*
X115362811Y-114254698D01*
X115482882Y-114075000D01*
X116514132Y-114075000D01*
X118002499Y-115563367D01*
X117965000Y-115751887D01*
X117965000Y-115808113D01*
X118074233Y-116357264D01*
X118385302Y-116822811D01*
X118850849Y-117133880D01*
X119400000Y-117243113D01*
X119949151Y-117133880D01*
X120414698Y-116822811D01*
X120725767Y-116357264D01*
X120835000Y-115808113D01*
X120835000Y-115751887D01*
X120725767Y-115202736D01*
X120414698Y-114737189D01*
X119949151Y-114426120D01*
X119400000Y-114316887D01*
X119164582Y-114363714D01*
X117450434Y-112649566D01*
X117179541Y-112468561D01*
X116860000Y-112405000D01*
X115482882Y-112405000D01*
X115362811Y-112225302D01*
X114980725Y-111970000D01*
X115362811Y-111714698D01*
X115482882Y-111535000D01*
X116860000Y-111535000D01*
X117179541Y-111471439D01*
X117450434Y-111290434D01*
X119146089Y-109594779D01*
X119684187Y-109595248D01*
X120211800Y-109377243D01*
X120615824Y-108973923D01*
X120834750Y-108446691D01*
X120835248Y-107875813D01*
X120617243Y-107348200D01*
X120213923Y-106944176D01*
X119686691Y-106725250D01*
X119115813Y-106724752D01*
X118588200Y-106942757D01*
X118184176Y-107346077D01*
X117965250Y-107873309D01*
X117964778Y-108414354D01*
X116514132Y-109865000D01*
X115482882Y-109865000D01*
X115362811Y-109685302D01*
X114980725Y-109430000D01*
X115362811Y-109174698D01*
X115673880Y-108709151D01*
X115783113Y-108160000D01*
X115673880Y-107610849D01*
X115362811Y-107145302D01*
X115292528Y-107098340D01*
X116606089Y-105784779D01*
X117144187Y-105785248D01*
X117671800Y-105567243D01*
X118075824Y-105163923D01*
X118268860Y-104699039D01*
X123088096Y-104699039D01*
X123248959Y-105087423D01*
X123624866Y-105502389D01*
X124130959Y-105741914D01*
X124353000Y-105620629D01*
X124353000Y-104477000D01*
X124607000Y-104477000D01*
X124607000Y-105620629D01*
X124829041Y-105741914D01*
X125335134Y-105502389D01*
X125711041Y-105087423D01*
X125871904Y-104699039D01*
X125749915Y-104477000D01*
X124607000Y-104477000D01*
X124353000Y-104477000D01*
X123210085Y-104477000D01*
X123088096Y-104699039D01*
X118268860Y-104699039D01*
X118294750Y-104636691D01*
X118295248Y-104065813D01*
X118077243Y-103538200D01*
X117673923Y-103134176D01*
X117218337Y-102945000D01*
X124352998Y-102945000D01*
X124352998Y-103079370D01*
X124130959Y-102958086D01*
X123624866Y-103197611D01*
X123248959Y-103612577D01*
X123088096Y-104000961D01*
X123210085Y-104223000D01*
X124353000Y-104223000D01*
X124353000Y-104203000D01*
X124607000Y-104203000D01*
X124607000Y-104223000D01*
X125749915Y-104223000D01*
X125871904Y-104000961D01*
X125711041Y-103612577D01*
X125335134Y-103197611D01*
X124829041Y-102958086D01*
X124607002Y-103079370D01*
X124607002Y-102945000D01*
X128302000Y-102945000D01*
X126323500Y-104923500D01*
X126109979Y-105243057D01*
X126035000Y-105620000D01*
X126035000Y-109587039D01*
X125940853Y-109649946D01*
X125897385Y-109715000D01*
X125012000Y-109715000D01*
X124635057Y-109789979D01*
X124315500Y-110003500D01*
X123255500Y-111063500D01*
X123041979Y-111383057D01*
X122967000Y-111760000D01*
X122967000Y-122936000D01*
X123041979Y-123312943D01*
X123255500Y-123632500D01*
X124728000Y-125105000D01*
X118983868Y-125105000D01*
X116180434Y-122301566D01*
X116151379Y-122282152D01*
X115909541Y-122120561D01*
X115590000Y-122057000D01*
X114620719Y-122057000D01*
X114500648Y-121877302D01*
X114035101Y-121566233D01*
X113626715Y-121485000D01*
X115732132Y-121485000D01*
X116516916Y-122269784D01*
X116516812Y-122388873D01*
X116681646Y-122787800D01*
X116986595Y-123093282D01*
X117385233Y-123258811D01*
X117816873Y-123259188D01*
X118215800Y-123094354D01*
X118521282Y-122789405D01*
X118686811Y-122390767D01*
X118687188Y-121959127D01*
X118522354Y-121560200D01*
X118217405Y-121254718D01*
X117818767Y-121089189D01*
X117697951Y-121089083D01*
X116668434Y-120059566D01*
X116616702Y-120025000D01*
X116397541Y-119878561D01*
X116078000Y-119815000D01*
X112014000Y-119815000D01*
X111694459Y-119878561D01*
X111475298Y-120025000D01*
X111423566Y-120059566D01*
X109391566Y-122091566D01*
X109210561Y-122362459D01*
X109147000Y-122682000D01*
X109147000Y-124158132D01*
X107290434Y-122301566D01*
X107277440Y-122292884D01*
X107277440Y-122092000D01*
X107233162Y-121856683D01*
X107094090Y-121640559D01*
X106881890Y-121495569D01*
X106761649Y-121471219D01*
X110846434Y-117386434D01*
X111027440Y-117115540D01*
X111091000Y-116796000D01*
X111091000Y-109684000D01*
X111027439Y-109364459D01*
X110846434Y-109093566D01*
X109322434Y-107569566D01*
X109312042Y-107562622D01*
X109051541Y-107388561D01*
X108732000Y-107325000D01*
X108140854Y-107325000D01*
X108103162Y-107124683D01*
X107964090Y-106908559D01*
X107751890Y-106763569D01*
X107500000Y-106712560D01*
X105900000Y-106712560D01*
X105664683Y-106756838D01*
X105448559Y-106895910D01*
X105303569Y-107108110D01*
X105252560Y-107360000D01*
X105252560Y-108960000D01*
X105296838Y-109195317D01*
X105435910Y-109411441D01*
X105648110Y-109556431D01*
X105807616Y-109588732D01*
X105468959Y-109962577D01*
X105308096Y-110350961D01*
X105430085Y-110573000D01*
X106573000Y-110573000D01*
X106573000Y-110553000D01*
X106827000Y-110553000D01*
X106827000Y-110573000D01*
X107969915Y-110573000D01*
X108091904Y-110350961D01*
X107931041Y-109962577D01*
X107593410Y-109589864D01*
X107735317Y-109563162D01*
X107951441Y-109424090D01*
X108096431Y-109211890D01*
X108140352Y-108995000D01*
X108386132Y-108995000D01*
X109421000Y-110029868D01*
X109421000Y-116450132D01*
X104839566Y-121031566D01*
X104658561Y-121302459D01*
X104630295Y-121444560D01*
X104230000Y-121444560D01*
X103994683Y-121488838D01*
X103778559Y-121627910D01*
X103633569Y-121840110D01*
X103582560Y-122092000D01*
X103582560Y-123692000D01*
X103626838Y-123927317D01*
X103765910Y-124143441D01*
X103978110Y-124288431D01*
X104127074Y-124318597D01*
X103979352Y-124417302D01*
X103859281Y-124597000D01*
X102981868Y-124597000D01*
X101947000Y-123562132D01*
X101947000Y-118919868D01*
X104251868Y-116615000D01*
X105537118Y-116615000D01*
X105657189Y-116794698D01*
X106122736Y-117105767D01*
X106671887Y-117215000D01*
X106728113Y-117215000D01*
X107277264Y-117105767D01*
X107742811Y-116794698D01*
X108053880Y-116329151D01*
X108163113Y-115780000D01*
X108053880Y-115230849D01*
X107742811Y-114765302D01*
X107360725Y-114510000D01*
X107742811Y-114254698D01*
X108053880Y-113789151D01*
X108163113Y-113240000D01*
X108053880Y-112690849D01*
X107742811Y-112225302D01*
X107338297Y-111955014D01*
X107555134Y-111852389D01*
X107931041Y-111437423D01*
X108091904Y-111049039D01*
X107969915Y-110827000D01*
X106827000Y-110827000D01*
X106827000Y-110847000D01*
X106573000Y-110847000D01*
X106573000Y-110827000D01*
X105430085Y-110827000D01*
X105308096Y-111049039D01*
X105468959Y-111437423D01*
X105844866Y-111852389D01*
X106061703Y-111955014D01*
X105657189Y-112225302D01*
X105537118Y-112405000D01*
X105267868Y-112405000D01*
X104233000Y-111370132D01*
X104233000Y-107489868D01*
X105521868Y-106201000D01*
X106954000Y-106201000D01*
X107273541Y-106137439D01*
X107544434Y-105956434D01*
X113481733Y-100019135D01*
X113517434Y-100072566D01*
X113517434Y-100072566D01*
G37*
X113517434Y-100072566D02*
X116057433Y-102612566D01*
X116335418Y-102798309D01*
X116425654Y-102858603D01*
X116708515Y-102914868D01*
X116575813Y-102914752D01*
X116048200Y-103132757D01*
X115644176Y-103536077D01*
X115425250Y-104063309D01*
X115424778Y-104604354D01*
X113729566Y-106299566D01*
X113548561Y-106570459D01*
X113485000Y-106890000D01*
X113485000Y-107006447D01*
X113277189Y-107145302D01*
X112966120Y-107610849D01*
X112856887Y-108160000D01*
X112966120Y-108709151D01*
X113277189Y-109174698D01*
X113659275Y-109430000D01*
X113277189Y-109685302D01*
X112966120Y-110150849D01*
X112856887Y-110700000D01*
X112966120Y-111249151D01*
X113277189Y-111714698D01*
X113659275Y-111970000D01*
X113277189Y-112225302D01*
X112966120Y-112690849D01*
X112856887Y-113240000D01*
X112966120Y-113789151D01*
X113277189Y-114254698D01*
X113659275Y-114510000D01*
X113277189Y-114765302D01*
X112966120Y-115230849D01*
X112856887Y-115780000D01*
X112966120Y-116329151D01*
X113277189Y-116794698D01*
X113742736Y-117105767D01*
X114291887Y-117215000D01*
X114348113Y-117215000D01*
X114897264Y-117105767D01*
X115362811Y-116794698D01*
X115673880Y-116329151D01*
X115783113Y-115780000D01*
X115673880Y-115230849D01*
X115362811Y-114765302D01*
X114980725Y-114510000D01*
X115362811Y-114254698D01*
X115482882Y-114075000D01*
X116514132Y-114075000D01*
X118002499Y-115563367D01*
X117965000Y-115751887D01*
X117965000Y-115808113D01*
X118074233Y-116357264D01*
X118385302Y-116822811D01*
X118850849Y-117133880D01*
X119400000Y-117243113D01*
X119949151Y-117133880D01*
X120414698Y-116822811D01*
X120725767Y-116357264D01*
X120835000Y-115808113D01*
X120835000Y-115751887D01*
X120725767Y-115202736D01*
X120414698Y-114737189D01*
X119949151Y-114426120D01*
X119400000Y-114316887D01*
X119164582Y-114363714D01*
X117450434Y-112649566D01*
X117179541Y-112468561D01*
X116860000Y-112405000D01*
X115482882Y-112405000D01*
X115362811Y-112225302D01*
X114980725Y-111970000D01*
X115362811Y-111714698D01*
X115482882Y-111535000D01*
X116860000Y-111535000D01*
X117179541Y-111471439D01*
X117450434Y-111290434D01*
X119146089Y-109594779D01*
X119684187Y-109595248D01*
X120211800Y-109377243D01*
X120615824Y-108973923D01*
X120834750Y-108446691D01*
X120835248Y-107875813D01*
X120617243Y-107348200D01*
X120213923Y-106944176D01*
X119686691Y-106725250D01*
X119115813Y-106724752D01*
X118588200Y-106942757D01*
X118184176Y-107346077D01*
X117965250Y-107873309D01*
X117964778Y-108414354D01*
X116514132Y-109865000D01*
X115482882Y-109865000D01*
X115362811Y-109685302D01*
X114980725Y-109430000D01*
X115362811Y-109174698D01*
X115673880Y-108709151D01*
X115783113Y-108160000D01*
X115673880Y-107610849D01*
X115362811Y-107145302D01*
X115292528Y-107098340D01*
X116606089Y-105784779D01*
X117144187Y-105785248D01*
X117671800Y-105567243D01*
X118075824Y-105163923D01*
X118268860Y-104699039D01*
X123088096Y-104699039D01*
X123248959Y-105087423D01*
X123624866Y-105502389D01*
X124130959Y-105741914D01*
X124353000Y-105620629D01*
X124353000Y-104477000D01*
X124607000Y-104477000D01*
X124607000Y-105620629D01*
X124829041Y-105741914D01*
X125335134Y-105502389D01*
X125711041Y-105087423D01*
X125871904Y-104699039D01*
X125749915Y-104477000D01*
X124607000Y-104477000D01*
X124353000Y-104477000D01*
X123210085Y-104477000D01*
X123088096Y-104699039D01*
X118268860Y-104699039D01*
X118294750Y-104636691D01*
X118295248Y-104065813D01*
X118077243Y-103538200D01*
X117673923Y-103134176D01*
X117218337Y-102945000D01*
X124352998Y-102945000D01*
X124352998Y-103079370D01*
X124130959Y-102958086D01*
X123624866Y-103197611D01*
X123248959Y-103612577D01*
X123088096Y-104000961D01*
X123210085Y-104223000D01*
X124353000Y-104223000D01*
X124353000Y-104203000D01*
X124607000Y-104203000D01*
X124607000Y-104223000D01*
X125749915Y-104223000D01*
X125871904Y-104000961D01*
X125711041Y-103612577D01*
X125335134Y-103197611D01*
X124829041Y-102958086D01*
X124607002Y-103079370D01*
X124607002Y-102945000D01*
X128302000Y-102945000D01*
X126323500Y-104923500D01*
X126109979Y-105243057D01*
X126035000Y-105620000D01*
X126035000Y-109587039D01*
X125940853Y-109649946D01*
X125897385Y-109715000D01*
X125012000Y-109715000D01*
X124635057Y-109789979D01*
X124315500Y-110003500D01*
X123255500Y-111063500D01*
X123041979Y-111383057D01*
X122967000Y-111760000D01*
X122967000Y-122936000D01*
X123041979Y-123312943D01*
X123255500Y-123632500D01*
X124728000Y-125105000D01*
X118983868Y-125105000D01*
X116180434Y-122301566D01*
X116151379Y-122282152D01*
X115909541Y-122120561D01*
X115590000Y-122057000D01*
X114620719Y-122057000D01*
X114500648Y-121877302D01*
X114035101Y-121566233D01*
X113626715Y-121485000D01*
X115732132Y-121485000D01*
X116516916Y-122269784D01*
X116516812Y-122388873D01*
X116681646Y-122787800D01*
X116986595Y-123093282D01*
X117385233Y-123258811D01*
X117816873Y-123259188D01*
X118215800Y-123094354D01*
X118521282Y-122789405D01*
X118686811Y-122390767D01*
X118687188Y-121959127D01*
X118522354Y-121560200D01*
X118217405Y-121254718D01*
X117818767Y-121089189D01*
X117697951Y-121089083D01*
X116668434Y-120059566D01*
X116616702Y-120025000D01*
X116397541Y-119878561D01*
X116078000Y-119815000D01*
X112014000Y-119815000D01*
X111694459Y-119878561D01*
X111475298Y-120025000D01*
X111423566Y-120059566D01*
X109391566Y-122091566D01*
X109210561Y-122362459D01*
X109147000Y-122682000D01*
X109147000Y-124158132D01*
X107290434Y-122301566D01*
X107277440Y-122292884D01*
X107277440Y-122092000D01*
X107233162Y-121856683D01*
X107094090Y-121640559D01*
X106881890Y-121495569D01*
X106761649Y-121471219D01*
X110846434Y-117386434D01*
X111027440Y-117115540D01*
X111091000Y-116796000D01*
X111091000Y-109684000D01*
X111027439Y-109364459D01*
X110846434Y-109093566D01*
X109322434Y-107569566D01*
X109312042Y-107562622D01*
X109051541Y-107388561D01*
X108732000Y-107325000D01*
X108140854Y-107325000D01*
X108103162Y-107124683D01*
X107964090Y-106908559D01*
X107751890Y-106763569D01*
X107500000Y-106712560D01*
X105900000Y-106712560D01*
X105664683Y-106756838D01*
X105448559Y-106895910D01*
X105303569Y-107108110D01*
X105252560Y-107360000D01*
X105252560Y-108960000D01*
X105296838Y-109195317D01*
X105435910Y-109411441D01*
X105648110Y-109556431D01*
X105807616Y-109588732D01*
X105468959Y-109962577D01*
X105308096Y-110350961D01*
X105430085Y-110573000D01*
X106573000Y-110573000D01*
X106573000Y-110553000D01*
X106827000Y-110553000D01*
X106827000Y-110573000D01*
X107969915Y-110573000D01*
X108091904Y-110350961D01*
X107931041Y-109962577D01*
X107593410Y-109589864D01*
X107735317Y-109563162D01*
X107951441Y-109424090D01*
X108096431Y-109211890D01*
X108140352Y-108995000D01*
X108386132Y-108995000D01*
X109421000Y-110029868D01*
X109421000Y-116450132D01*
X104839566Y-121031566D01*
X104658561Y-121302459D01*
X104630295Y-121444560D01*
X104230000Y-121444560D01*
X103994683Y-121488838D01*
X103778559Y-121627910D01*
X103633569Y-121840110D01*
X103582560Y-122092000D01*
X103582560Y-123692000D01*
X103626838Y-123927317D01*
X103765910Y-124143441D01*
X103978110Y-124288431D01*
X104127074Y-124318597D01*
X103979352Y-124417302D01*
X103859281Y-124597000D01*
X102981868Y-124597000D01*
X101947000Y-123562132D01*
X101947000Y-118919868D01*
X104251868Y-116615000D01*
X105537118Y-116615000D01*
X105657189Y-116794698D01*
X106122736Y-117105767D01*
X106671887Y-117215000D01*
X106728113Y-117215000D01*
X107277264Y-117105767D01*
X107742811Y-116794698D01*
X108053880Y-116329151D01*
X108163113Y-115780000D01*
X108053880Y-115230849D01*
X107742811Y-114765302D01*
X107360725Y-114510000D01*
X107742811Y-114254698D01*
X108053880Y-113789151D01*
X108163113Y-113240000D01*
X108053880Y-112690849D01*
X107742811Y-112225302D01*
X107338297Y-111955014D01*
X107555134Y-111852389D01*
X107931041Y-111437423D01*
X108091904Y-111049039D01*
X107969915Y-110827000D01*
X106827000Y-110827000D01*
X106827000Y-110847000D01*
X106573000Y-110847000D01*
X106573000Y-110827000D01*
X105430085Y-110827000D01*
X105308096Y-111049039D01*
X105468959Y-111437423D01*
X105844866Y-111852389D01*
X106061703Y-111955014D01*
X105657189Y-112225302D01*
X105537118Y-112405000D01*
X105267868Y-112405000D01*
X104233000Y-111370132D01*
X104233000Y-107489868D01*
X105521868Y-106201000D01*
X106954000Y-106201000D01*
X107273541Y-106137439D01*
X107544434Y-105956434D01*
X113481733Y-100019135D01*
X113517434Y-100072566D01*
G36*
X136100853Y-111750054D02*
X136430026Y-111970000D01*
X136100853Y-112189946D01*
X135778946Y-112671715D01*
X135665907Y-113240000D01*
X135778946Y-113808285D01*
X136100853Y-114290054D01*
X136430026Y-114510000D01*
X136100853Y-114729946D01*
X135778946Y-115211715D01*
X135665907Y-115780000D01*
X135778946Y-116348285D01*
X136100853Y-116830054D01*
X136144777Y-116859403D01*
X135970302Y-116931673D01*
X135791673Y-117110301D01*
X135695000Y-117343690D01*
X135695000Y-118034250D01*
X135853750Y-118193000D01*
X137053000Y-118193000D01*
X137053000Y-118173000D01*
X137307000Y-118173000D01*
X137307000Y-118193000D01*
X138506250Y-118193000D01*
X138665000Y-118034250D01*
X138665000Y-117343690D01*
X138568327Y-117110301D01*
X138389698Y-116931673D01*
X138215223Y-116859403D01*
X138259147Y-116830054D01*
X138402841Y-116615000D01*
X146163720Y-116615000D01*
X146533223Y-116985149D01*
X146689140Y-117049891D01*
X146535328Y-117113445D01*
X146163123Y-117485000D01*
X141752000Y-117485000D01*
X141432460Y-117548560D01*
X141161566Y-117729566D01*
X139628132Y-119263000D01*
X138665000Y-119263000D01*
X138665000Y-118605750D01*
X138506250Y-118447000D01*
X137307000Y-118447000D01*
X137307000Y-118467000D01*
X137053000Y-118467000D01*
X137053000Y-118447000D01*
X135853750Y-118447000D01*
X135695000Y-118605750D01*
X135695000Y-119263000D01*
X135239868Y-119263000D01*
X128626434Y-112649566D01*
X128355541Y-112468561D01*
X128274546Y-112452450D01*
X128099147Y-112189946D01*
X127769974Y-111970000D01*
X128099147Y-111750054D01*
X128142615Y-111685000D01*
X136057385Y-111685000D01*
X136100853Y-111750054D01*
X136100853Y-111750054D01*
G37*
X136100853Y-111750054D02*
X136430026Y-111970000D01*
X136100853Y-112189946D01*
X135778946Y-112671715D01*
X135665907Y-113240000D01*
X135778946Y-113808285D01*
X136100853Y-114290054D01*
X136430026Y-114510000D01*
X136100853Y-114729946D01*
X135778946Y-115211715D01*
X135665907Y-115780000D01*
X135778946Y-116348285D01*
X136100853Y-116830054D01*
X136144777Y-116859403D01*
X135970302Y-116931673D01*
X135791673Y-117110301D01*
X135695000Y-117343690D01*
X135695000Y-118034250D01*
X135853750Y-118193000D01*
X137053000Y-118193000D01*
X137053000Y-118173000D01*
X137307000Y-118173000D01*
X137307000Y-118193000D01*
X138506250Y-118193000D01*
X138665000Y-118034250D01*
X138665000Y-117343690D01*
X138568327Y-117110301D01*
X138389698Y-116931673D01*
X138215223Y-116859403D01*
X138259147Y-116830054D01*
X138402841Y-116615000D01*
X146163720Y-116615000D01*
X146533223Y-116985149D01*
X146689140Y-117049891D01*
X146535328Y-117113445D01*
X146163123Y-117485000D01*
X141752000Y-117485000D01*
X141432460Y-117548560D01*
X141161566Y-117729566D01*
X139628132Y-119263000D01*
X138665000Y-119263000D01*
X138665000Y-118605750D01*
X138506250Y-118447000D01*
X137307000Y-118447000D01*
X137307000Y-118467000D01*
X137053000Y-118467000D01*
X137053000Y-118447000D01*
X135853750Y-118447000D01*
X135695000Y-118605750D01*
X135695000Y-119263000D01*
X135239868Y-119263000D01*
X128626434Y-112649566D01*
X128355541Y-112468561D01*
X128274546Y-112452450D01*
X128099147Y-112189946D01*
X127769974Y-111970000D01*
X128099147Y-111750054D01*
X128142615Y-111685000D01*
X136057385Y-111685000D01*
X136100853Y-111750054D01*
M02*
