M48
;DRILL file {KiCad 4.0.7-e2-6376~61~ubuntu18.04.1} date Mon May 27 11:53:02 2019
;FORMAT={-:-/ absolute / metric / decimal}
FMAT,2
METRIC,TZ
T1C0.600
T2C0.800
T3C0.900
T4C1.000
%
G90
G05
M71
T1
X117.602Y-122.174
X128.544Y-142.704
X131.846Y-123.908
X141.986Y-110.998
X156.738Y-136.608
X157.246Y-114.002
T2
X100.35Y-135.378
X100.35Y-137.878
X100.35Y-141.22
X100.35Y-143.72
X105.43Y-122.892
X105.43Y-125.432
X105.43Y-127.972
X105.43Y-130.512
X105.43Y-133.052
X105.43Y-135.592
X105.43Y-138.132
X105.43Y-140.672
X105.43Y-143.212
X106.7Y-108.16
X106.7Y-110.7
X106.7Y-113.24
X106.7Y-115.78
X113.05Y-122.892
X113.05Y-125.432
X113.05Y-127.972
X113.05Y-130.512
X113.05Y-133.052
X113.05Y-135.592
X113.05Y-138.132
X113.05Y-140.672
X113.05Y-143.212
X114.32Y-108.16
X114.32Y-110.7
X114.32Y-113.24
X114.32Y-115.78
X116.86Y-104.35
X119.4Y-108.16
X119.4Y-115.78
X119.908Y-133.56
X119.908Y-141.18
X122.956Y-133.56
X122.956Y-141.18
X124.48Y-104.35
X130.83Y-101.81
X130.83Y-104.31
X135.91Y-101.81
X135.91Y-104.31
X147.34Y-103.08
X147.34Y-105.62
X147.34Y-108.16
X147.34Y-110.7
X147.34Y-113.24
X147.34Y-115.78
X147.34Y-118.32
X147.34Y-120.86
X147.34Y-123.4
X147.34Y-125.94
X147.34Y-128.48
X147.34Y-131.02
X147.34Y-133.56
X147.34Y-136.1
X147.34Y-138.64
X162.58Y-103.08
X162.58Y-105.62
X162.58Y-108.16
X162.58Y-110.7
X162.58Y-113.24
X162.58Y-115.78
X162.58Y-118.32
X162.58Y-120.86
X162.58Y-123.4
X162.58Y-125.94
X162.58Y-128.48
X162.58Y-131.02
X162.58Y-133.56
X162.58Y-136.1
X162.58Y-138.64
X180.34Y-144.272
X187.96Y-144.272
T3
X117.368Y-144.228
X119.908Y-144.228
X124.226Y-144.228
X126.766Y-144.228
X175.26Y-144.272
X177.8Y-144.272
T4
X94.Y-95.46
X94.Y-98.
X96.54Y-95.46
X96.54Y-98.
X99.08Y-95.46
X99.08Y-98.
X101.62Y-95.46
X101.62Y-98.
X104.16Y-95.46
X104.16Y-98.
X106.7Y-95.46
X106.7Y-98.
X109.24Y-95.46
X109.24Y-98.
X111.78Y-95.46
X111.78Y-98.
X114.32Y-95.46
X114.32Y-98.
X116.86Y-95.46
X116.86Y-98.
X119.4Y-95.46
X119.4Y-98.
X121.94Y-95.46
X121.94Y-98.
X124.48Y-95.46
X124.48Y-98.
X127.02Y-95.46
X127.02Y-98.
X127.02Y-110.7
X127.02Y-113.24
X127.02Y-115.78
X127.02Y-118.32
X127.02Y-125.94
X127.02Y-128.48
X127.02Y-131.02
X127.02Y-133.56
X129.56Y-95.46
X129.56Y-98.
X132.1Y-95.46
X132.1Y-98.
X133.22Y-139.22
X133.22Y-143.72
X137.18Y-110.7
X137.18Y-113.24
X137.18Y-115.78
X137.18Y-118.32
X137.18Y-125.94
X137.18Y-128.48
X137.18Y-131.02
X137.18Y-133.56
X139.72Y-139.22
X139.72Y-143.72
X167.66Y-113.24
X167.66Y-115.78
X167.66Y-136.1
X167.66Y-138.64
X170.2Y-136.1
X170.2Y-138.64
X172.74Y-105.62
X172.74Y-108.16
X172.74Y-136.1
X172.74Y-138.64
X175.28Y-105.62
X175.28Y-108.16
X177.82Y-105.62
X177.82Y-108.16
X177.82Y-115.78
X177.82Y-118.32
X177.82Y-120.86
X177.82Y-123.4
X180.36Y-115.78
X180.36Y-118.32
X180.36Y-120.86
X180.36Y-123.4
X180.36Y-131.02
X180.36Y-133.56
X180.36Y-136.1
X180.36Y-138.64
X187.98Y-105.62
X187.98Y-108.16
X187.98Y-115.78
X187.98Y-118.32
X187.98Y-120.86
X187.98Y-123.4
X187.98Y-131.02
X187.98Y-133.56
X187.98Y-136.1
X187.98Y-138.64
X190.52Y-115.78
X190.52Y-118.32
X190.52Y-120.86
X190.52Y-123.4
T0
M30
