M48
;DRILL file {KiCad 4.0.7-e2-6376~61~ubuntu18.04.1} date Mon Feb 11 08:52:31 2019
;FORMAT={-:-/ absolute / metric / decimal}
FMAT,2
METRIC,TZ
T1C0.800
T2C1.000
T3C1.097
%
G90
G05
M71
T1
X109.22Y-81.915
X109.22Y-84.455
X109.22Y-86.995
X109.22Y-89.535
X109.22Y-92.075
X109.22Y-94.615
X109.22Y-97.155
X109.22Y-99.695
X109.22Y-102.235
X109.22Y-104.775
X109.22Y-107.315
X109.22Y-109.855
X109.22Y-112.395
X109.22Y-114.935
X109.22Y-117.475
X124.46Y-81.915
X124.46Y-84.455
X124.46Y-86.995
X124.46Y-89.535
X124.46Y-92.075
X124.46Y-94.615
X124.46Y-97.155
X124.46Y-99.695
X124.46Y-102.235
X124.46Y-104.775
X124.46Y-107.315
X124.46Y-109.855
X124.46Y-112.395
X124.46Y-114.935
X124.46Y-117.475
T2
X95.25Y-86.995
X97.79Y-86.995
X97.79Y-92.075
X97.79Y-94.615
X97.79Y-97.155
X97.79Y-99.695
X97.79Y-104.775
X97.79Y-107.315
X97.79Y-109.855
X97.79Y-112.395
X97.79Y-114.935
X97.79Y-117.475
X100.33Y-86.995
X102.87Y-86.995
X105.41Y-86.995
X128.905Y-90.17
X130.175Y-80.01
X130.175Y-82.55
X130.175Y-85.09
X130.175Y-119.38
X131.445Y-90.17
X132.715Y-119.38
X133.985Y-90.17
X135.255Y-119.38
X136.525Y-90.17
X136.525Y-94.615
X136.525Y-97.155
X136.525Y-99.695
X136.525Y-104.775
X136.525Y-107.315
X136.525Y-109.855
X136.525Y-112.395
X136.525Y-114.935
X139.065Y-90.17
T3
X99.695Y-80.01
X99.695Y-82.55
X136.525Y-81.28
X136.525Y-83.82
T0
M30
