G04 #@! TF.FileFunction,Copper,L2,Bot,Signal*
%FSLAX46Y46*%
G04 Gerber Fmt 4.6, Leading zero omitted, Abs format (unit mm)*
G04 Created by KiCad (PCBNEW 4.0.7-e2-6376~61~ubuntu18.04.1) date Mon Feb 11 08:52:26 2019*
%MOMM*%
%LPD*%
G01*
G04 APERTURE LIST*
%ADD10C,0.100000*%
%ADD11C,0.200000*%
%ADD12C,0.300000*%
%ADD13C,1.574800*%
%ADD14O,1.998980X1.998980*%
%ADD15R,1.998980X1.998980*%
%ADD16R,1.700000X1.700000*%
%ADD17O,1.700000X1.700000*%
%ADD18C,0.800000*%
%ADD19C,2.000000*%
%ADD20C,0.400000*%
%ADD21C,0.254000*%
G04 APERTURE END LIST*
D10*
D11*
X131254286Y-108132619D02*
X131206667Y-108085000D01*
X131111429Y-108037381D01*
X130873333Y-108037381D01*
X130778095Y-108085000D01*
X130730476Y-108132619D01*
X130682857Y-108227857D01*
X130682857Y-108323095D01*
X130730476Y-108465952D01*
X131301905Y-109037381D01*
X130682857Y-109037381D01*
X130063810Y-108037381D02*
X129968571Y-108037381D01*
X129873333Y-108085000D01*
X129825714Y-108132619D01*
X129778095Y-108227857D01*
X129730476Y-108418333D01*
X129730476Y-108656429D01*
X129778095Y-108846905D01*
X129825714Y-108942143D01*
X129873333Y-108989762D01*
X129968571Y-109037381D01*
X130063810Y-109037381D01*
X130159048Y-108989762D01*
X130206667Y-108942143D01*
X130254286Y-108846905D01*
X130301905Y-108656429D01*
X130301905Y-108418333D01*
X130254286Y-108227857D01*
X130206667Y-108132619D01*
X130159048Y-108085000D01*
X130063810Y-108037381D01*
X128778095Y-109037381D02*
X129349524Y-109037381D01*
X129063810Y-109037381D02*
X129063810Y-108037381D01*
X129159048Y-108180238D01*
X129254286Y-108275476D01*
X129349524Y-108323095D01*
X128301905Y-109037381D02*
X128111429Y-109037381D01*
X128016190Y-108989762D01*
X127968571Y-108942143D01*
X127873333Y-108799286D01*
X127825714Y-108608810D01*
X127825714Y-108227857D01*
X127873333Y-108132619D01*
X127920952Y-108085000D01*
X128016190Y-108037381D01*
X128206667Y-108037381D01*
X128301905Y-108085000D01*
X128349524Y-108132619D01*
X128397143Y-108227857D01*
X128397143Y-108465952D01*
X128349524Y-108561190D01*
X128301905Y-108608810D01*
X128206667Y-108656429D01*
X128016190Y-108656429D01*
X127920952Y-108608810D01*
X127873333Y-108561190D01*
X127825714Y-108465952D01*
X131492380Y-106497381D02*
X131825714Y-106021190D01*
X132063809Y-106497381D02*
X132063809Y-105497381D01*
X131682856Y-105497381D01*
X131587618Y-105545000D01*
X131539999Y-105592619D01*
X131492380Y-105687857D01*
X131492380Y-105830714D01*
X131539999Y-105925952D01*
X131587618Y-105973571D01*
X131682856Y-106021190D01*
X132063809Y-106021190D01*
X130920952Y-106497381D02*
X131016190Y-106449762D01*
X131063809Y-106402143D01*
X131111428Y-106306905D01*
X131111428Y-106021190D01*
X131063809Y-105925952D01*
X131016190Y-105878333D01*
X130920952Y-105830714D01*
X130778094Y-105830714D01*
X130682856Y-105878333D01*
X130635237Y-105925952D01*
X130587618Y-106021190D01*
X130587618Y-106306905D01*
X130635237Y-106402143D01*
X130682856Y-106449762D01*
X130778094Y-106497381D01*
X130920952Y-106497381D01*
X130159047Y-106497381D02*
X130159047Y-105830714D01*
X130159047Y-105925952D02*
X130111428Y-105878333D01*
X130016190Y-105830714D01*
X129873332Y-105830714D01*
X129778094Y-105878333D01*
X129730475Y-105973571D01*
X129730475Y-106497381D01*
X129730475Y-105973571D02*
X129682856Y-105878333D01*
X129587618Y-105830714D01*
X129444761Y-105830714D01*
X129349523Y-105878333D01*
X129301904Y-105973571D01*
X129301904Y-106497381D01*
X128397142Y-106497381D02*
X128397142Y-105973571D01*
X128444761Y-105878333D01*
X128539999Y-105830714D01*
X128730476Y-105830714D01*
X128825714Y-105878333D01*
X128397142Y-106449762D02*
X128492380Y-106497381D01*
X128730476Y-106497381D01*
X128825714Y-106449762D01*
X128873333Y-106354524D01*
X128873333Y-106259286D01*
X128825714Y-106164048D01*
X128730476Y-106116429D01*
X128492380Y-106116429D01*
X128397142Y-106068810D01*
X127920952Y-106497381D02*
X127920952Y-105830714D01*
X127920952Y-105497381D02*
X127968571Y-105545000D01*
X127920952Y-105592619D01*
X127873333Y-105545000D01*
X127920952Y-105497381D01*
X127920952Y-105592619D01*
X127444762Y-105830714D02*
X127444762Y-106497381D01*
X127444762Y-105925952D02*
X127397143Y-105878333D01*
X127301905Y-105830714D01*
X127159047Y-105830714D01*
X127063809Y-105878333D01*
X127016190Y-105973571D01*
X127016190Y-106497381D01*
D12*
X133139286Y-113068571D02*
X133639286Y-112354286D01*
X133996429Y-113068571D02*
X133996429Y-111568571D01*
X133425001Y-111568571D01*
X133282143Y-111640000D01*
X133210715Y-111711429D01*
X133139286Y-111854286D01*
X133139286Y-112068571D01*
X133210715Y-112211429D01*
X133282143Y-112282857D01*
X133425001Y-112354286D01*
X133996429Y-112354286D01*
X132282143Y-113068571D02*
X132425001Y-112997143D01*
X132496429Y-112925714D01*
X132567858Y-112782857D01*
X132567858Y-112354286D01*
X132496429Y-112211429D01*
X132425001Y-112140000D01*
X132282143Y-112068571D01*
X132067858Y-112068571D01*
X131925001Y-112140000D01*
X131853572Y-112211429D01*
X131782143Y-112354286D01*
X131782143Y-112782857D01*
X131853572Y-112925714D01*
X131925001Y-112997143D01*
X132067858Y-113068571D01*
X132282143Y-113068571D01*
X131139286Y-113068571D02*
X131139286Y-111568571D01*
X131139286Y-112140000D02*
X130996429Y-112068571D01*
X130710715Y-112068571D01*
X130567858Y-112140000D01*
X130496429Y-112211429D01*
X130425000Y-112354286D01*
X130425000Y-112782857D01*
X130496429Y-112925714D01*
X130567858Y-112997143D01*
X130710715Y-113068571D01*
X130996429Y-113068571D01*
X131139286Y-112997143D01*
X129567857Y-113068571D02*
X129710715Y-112997143D01*
X129782143Y-112925714D01*
X129853572Y-112782857D01*
X129853572Y-112354286D01*
X129782143Y-112211429D01*
X129710715Y-112140000D01*
X129567857Y-112068571D01*
X129353572Y-112068571D01*
X129210715Y-112140000D01*
X129139286Y-112211429D01*
X129067857Y-112354286D01*
X129067857Y-112782857D01*
X129139286Y-112925714D01*
X129210715Y-112997143D01*
X129353572Y-113068571D01*
X129567857Y-113068571D01*
X128639286Y-112068571D02*
X128067857Y-112068571D01*
X128425000Y-111568571D02*
X128425000Y-112854286D01*
X128353572Y-112997143D01*
X128210714Y-113068571D01*
X128067857Y-113068571D01*
X127567857Y-113068571D02*
X127567857Y-112068571D01*
X127567857Y-111568571D02*
X127639286Y-111640000D01*
X127567857Y-111711429D01*
X127496429Y-111640000D01*
X127567857Y-111568571D01*
X127567857Y-111711429D01*
X126853571Y-113068571D02*
X126853571Y-111568571D01*
X126710714Y-112497143D02*
X126282143Y-113068571D01*
X126282143Y-112068571D02*
X126853571Y-112640000D01*
X131746428Y-114118571D02*
X131746428Y-115332857D01*
X131675000Y-115475714D01*
X131603571Y-115547143D01*
X131460714Y-115618571D01*
X131175000Y-115618571D01*
X131032142Y-115547143D01*
X130960714Y-115475714D01*
X130889285Y-115332857D01*
X130889285Y-114118571D01*
X130389285Y-114118571D02*
X129532142Y-114118571D01*
X129960713Y-115618571D02*
X129960713Y-114118571D01*
X129246428Y-114118571D02*
X128389285Y-114118571D01*
X128817856Y-115618571D02*
X128817856Y-114118571D01*
D13*
X124460000Y-81915000D03*
X109220000Y-81915000D03*
X124460000Y-84455000D03*
X109220000Y-84455000D03*
X124460000Y-86995000D03*
X109220000Y-86995000D03*
X124460000Y-89535000D03*
X109220000Y-89535000D03*
X124460000Y-92075000D03*
X109220000Y-92075000D03*
X124460000Y-94615000D03*
X109220000Y-94615000D03*
X124460000Y-97155000D03*
X109220000Y-97155000D03*
X124460000Y-99695000D03*
X109220000Y-99695000D03*
X124460000Y-102235000D03*
X109220000Y-102235000D03*
X124460000Y-104775000D03*
X109220000Y-104775000D03*
X124460000Y-107315000D03*
X109220000Y-107315000D03*
X124460000Y-109855000D03*
X109220000Y-109855000D03*
X124460000Y-112395000D03*
X109220000Y-112395000D03*
X124460000Y-114935000D03*
X109220000Y-114935000D03*
X124460000Y-117475000D03*
X109220000Y-117475000D03*
D14*
X136525000Y-81280000D03*
D15*
X136525000Y-83820000D03*
D14*
X99695000Y-80010000D03*
D15*
X99695000Y-82550000D03*
D16*
X128905000Y-90170000D03*
D17*
X131445000Y-90170000D03*
X133985000Y-90170000D03*
X136525000Y-90170000D03*
X139065000Y-90170000D03*
D16*
X130175000Y-119380000D03*
D17*
X132715000Y-119380000D03*
X135255000Y-119380000D03*
D16*
X95250000Y-86995000D03*
D17*
X97790000Y-86995000D03*
X100330000Y-86995000D03*
X102870000Y-86995000D03*
X105410000Y-86995000D03*
D16*
X130175000Y-80010000D03*
D17*
X130175000Y-82550000D03*
X130175000Y-85090000D03*
D16*
X97790000Y-99695000D03*
D17*
X97790000Y-97155000D03*
X97790000Y-94615000D03*
X97790000Y-92075000D03*
D16*
X97790000Y-117475000D03*
D17*
X97790000Y-114935000D03*
X97790000Y-112395000D03*
X97790000Y-109855000D03*
X97790000Y-107315000D03*
X97790000Y-104775000D03*
D16*
X136525000Y-94615000D03*
D17*
X136525000Y-97155000D03*
X136525000Y-99695000D03*
D16*
X136525000Y-104775000D03*
D17*
X136525000Y-107315000D03*
X136525000Y-109855000D03*
X136525000Y-112395000D03*
X136525000Y-114935000D03*
D18*
X130175000Y-82550000D02*
X135255000Y-82550000D01*
X135255000Y-82550000D02*
X136525000Y-81280000D01*
D19*
X136525000Y-81280000D02*
X136525000Y-83820000D01*
D18*
X130175000Y-82550000D02*
X125095000Y-82550000D01*
X125095000Y-82550000D02*
X124460000Y-81915000D01*
X130175000Y-82550000D02*
X130175000Y-80010000D01*
X130175000Y-82550000D02*
X130175000Y-85090000D01*
D19*
X99695000Y-80010000D02*
X99695000Y-82550000D01*
D18*
X124460000Y-89535000D02*
X128270000Y-89535000D01*
X128270000Y-89535000D02*
X128905000Y-90170000D01*
X128905000Y-90170000D02*
X133985000Y-90170000D01*
X133985000Y-90170000D02*
X136525000Y-90170000D01*
X136525000Y-90170000D02*
X139065000Y-90170000D01*
D20*
X97790000Y-92075000D02*
X109220000Y-92075000D01*
X97790000Y-94615000D02*
X109220000Y-94615000D01*
X124460000Y-97155000D02*
X136525000Y-97155000D01*
X109220000Y-97155000D02*
X97790000Y-97155000D01*
X124460000Y-99695000D02*
X136525000Y-99695000D01*
X97790000Y-99695000D02*
X109220000Y-99695000D01*
X124460000Y-102235000D02*
X133985000Y-102235000D01*
X133985000Y-102235000D02*
X136525000Y-104775000D01*
X136525000Y-114935000D02*
X137795000Y-114935000D01*
X111125000Y-102235000D02*
X109220000Y-102235000D01*
X113030000Y-104140000D02*
X111125000Y-102235000D01*
X113030000Y-110490000D02*
X113030000Y-104140000D01*
X123825000Y-121285000D02*
X113030000Y-110490000D01*
X136525000Y-121285000D02*
X123825000Y-121285000D01*
X139065000Y-118745000D02*
X136525000Y-121285000D01*
X139065000Y-116205000D02*
X139065000Y-118745000D01*
X137795000Y-114935000D02*
X139065000Y-116205000D01*
X124460000Y-104775000D02*
X133985000Y-104775000D01*
X133985000Y-104775000D02*
X136525000Y-107315000D01*
X97790000Y-104775000D02*
X109220000Y-104775000D01*
X124460000Y-107315000D02*
X133985000Y-107315000D01*
X133985000Y-107315000D02*
X136525000Y-109855000D01*
X109220000Y-107315000D02*
X97790000Y-107315000D01*
X124460000Y-109855000D02*
X133985000Y-109855000D01*
X133985000Y-109855000D02*
X136525000Y-112395000D01*
X97790000Y-109855000D02*
X109220000Y-109855000D01*
X109220000Y-112395000D02*
X97790000Y-112395000D01*
D18*
X124460000Y-114935000D02*
X125730000Y-114935000D01*
X125730000Y-114935000D02*
X130175000Y-119380000D01*
X130175000Y-119380000D02*
X135255000Y-119380000D01*
D20*
X97790000Y-114935000D02*
X109220000Y-114935000D01*
X109220000Y-117475000D02*
X97790000Y-117475000D01*
D21*
G36*
X140543979Y-77600478D02*
X140721145Y-77718856D01*
X140839521Y-77896019D01*
X140895000Y-78174931D01*
X140895000Y-121215069D01*
X140839521Y-121493981D01*
X140721145Y-121671144D01*
X140543979Y-121789522D01*
X140265070Y-121845000D01*
X137145868Y-121845000D01*
X139655434Y-119335434D01*
X139836439Y-119064541D01*
X139900000Y-118745000D01*
X139900000Y-116205000D01*
X139836439Y-115885459D01*
X139655434Y-115614566D01*
X138385434Y-114344566D01*
X138114541Y-114163561D01*
X137795000Y-114100000D01*
X137747841Y-114100000D01*
X137604147Y-113884946D01*
X137274974Y-113665000D01*
X137604147Y-113445054D01*
X137926054Y-112963285D01*
X138039093Y-112395000D01*
X137926054Y-111826715D01*
X137604147Y-111344946D01*
X137274974Y-111125000D01*
X137604147Y-110905054D01*
X137926054Y-110423285D01*
X138039093Y-109855000D01*
X137926054Y-109286715D01*
X137604147Y-108804946D01*
X137274974Y-108585000D01*
X137604147Y-108365054D01*
X137926054Y-107883285D01*
X138039093Y-107315000D01*
X137926054Y-106746715D01*
X137604147Y-106264946D01*
X137562548Y-106237150D01*
X137610317Y-106228162D01*
X137826441Y-106089090D01*
X137971431Y-105876890D01*
X138022440Y-105625000D01*
X138022440Y-103925000D01*
X137978162Y-103689683D01*
X137839090Y-103473559D01*
X137626890Y-103328569D01*
X137375000Y-103277560D01*
X136208428Y-103277560D01*
X134575434Y-101644566D01*
X134304541Y-101463561D01*
X133985000Y-101400000D01*
X125636280Y-101400000D01*
X125266777Y-101029851D01*
X125110860Y-100965109D01*
X125264672Y-100901555D01*
X125636877Y-100530000D01*
X135302159Y-100530000D01*
X135445853Y-100745054D01*
X135927622Y-101066961D01*
X136495907Y-101180000D01*
X136554093Y-101180000D01*
X137122378Y-101066961D01*
X137604147Y-100745054D01*
X137926054Y-100263285D01*
X138039093Y-99695000D01*
X137926054Y-99126715D01*
X137604147Y-98644946D01*
X137274974Y-98425000D01*
X137604147Y-98205054D01*
X137926054Y-97723285D01*
X138039093Y-97155000D01*
X137926054Y-96586715D01*
X137604147Y-96104946D01*
X137560223Y-96075597D01*
X137734698Y-96003327D01*
X137913327Y-95824699D01*
X138010000Y-95591310D01*
X138010000Y-94900750D01*
X137851250Y-94742000D01*
X136652000Y-94742000D01*
X136652000Y-94762000D01*
X136398000Y-94762000D01*
X136398000Y-94742000D01*
X135198750Y-94742000D01*
X135040000Y-94900750D01*
X135040000Y-95591310D01*
X135136673Y-95824699D01*
X135315302Y-96003327D01*
X135489777Y-96075597D01*
X135445853Y-96104946D01*
X135302159Y-96320000D01*
X125636280Y-96320000D01*
X125266777Y-95949851D01*
X125110860Y-95885109D01*
X125264672Y-95821555D01*
X125665149Y-95421777D01*
X125882152Y-94899174D01*
X125882646Y-94333309D01*
X125666555Y-93810328D01*
X125495217Y-93638690D01*
X135040000Y-93638690D01*
X135040000Y-94329250D01*
X135198750Y-94488000D01*
X136398000Y-94488000D01*
X136398000Y-93288750D01*
X136652000Y-93288750D01*
X136652000Y-94488000D01*
X137851250Y-94488000D01*
X138010000Y-94329250D01*
X138010000Y-93638690D01*
X137913327Y-93405301D01*
X137734698Y-93226673D01*
X137501309Y-93130000D01*
X136810750Y-93130000D01*
X136652000Y-93288750D01*
X136398000Y-93288750D01*
X136239250Y-93130000D01*
X135548691Y-93130000D01*
X135315302Y-93226673D01*
X135136673Y-93405301D01*
X135040000Y-93638690D01*
X125495217Y-93638690D01*
X125266777Y-93409851D01*
X125110860Y-93345109D01*
X125264672Y-93281555D01*
X125665149Y-92881777D01*
X125882152Y-92359174D01*
X125882646Y-91793309D01*
X125666555Y-91270328D01*
X125266777Y-90869851D01*
X125110860Y-90805109D01*
X125264672Y-90741555D01*
X125436527Y-90570000D01*
X127407560Y-90570000D01*
X127407560Y-91020000D01*
X127451838Y-91255317D01*
X127590910Y-91471441D01*
X127803110Y-91616431D01*
X128055000Y-91667440D01*
X129755000Y-91667440D01*
X129990317Y-91623162D01*
X130206441Y-91484090D01*
X130351431Y-91271890D01*
X130364977Y-91205000D01*
X130365448Y-91205000D01*
X130394946Y-91249147D01*
X130876715Y-91571054D01*
X131445000Y-91684093D01*
X132013285Y-91571054D01*
X132495054Y-91249147D01*
X132524552Y-91205000D01*
X132905448Y-91205000D01*
X132934946Y-91249147D01*
X133416715Y-91571054D01*
X133985000Y-91684093D01*
X134553285Y-91571054D01*
X135035054Y-91249147D01*
X135064552Y-91205000D01*
X135445448Y-91205000D01*
X135474946Y-91249147D01*
X135956715Y-91571054D01*
X136525000Y-91684093D01*
X137093285Y-91571054D01*
X137575054Y-91249147D01*
X137604552Y-91205000D01*
X137985448Y-91205000D01*
X138014946Y-91249147D01*
X138496715Y-91571054D01*
X139065000Y-91684093D01*
X139633285Y-91571054D01*
X140115054Y-91249147D01*
X140436961Y-90767378D01*
X140550000Y-90199093D01*
X140550000Y-90140907D01*
X140436961Y-89572622D01*
X140115054Y-89090853D01*
X139633285Y-88768946D01*
X139065000Y-88655907D01*
X138496715Y-88768946D01*
X138014946Y-89090853D01*
X137985448Y-89135000D01*
X137604552Y-89135000D01*
X137575054Y-89090853D01*
X137093285Y-88768946D01*
X136525000Y-88655907D01*
X135956715Y-88768946D01*
X135474946Y-89090853D01*
X135445448Y-89135000D01*
X135064552Y-89135000D01*
X135035054Y-89090853D01*
X134553285Y-88768946D01*
X133985000Y-88655907D01*
X133416715Y-88768946D01*
X132934946Y-89090853D01*
X132905448Y-89135000D01*
X132524552Y-89135000D01*
X132495054Y-89090853D01*
X132013285Y-88768946D01*
X131445000Y-88655907D01*
X130876715Y-88768946D01*
X130394946Y-89090853D01*
X130367150Y-89132452D01*
X130358162Y-89084683D01*
X130219090Y-88868559D01*
X130006890Y-88723569D01*
X129755000Y-88672560D01*
X128806422Y-88672560D01*
X128666077Y-88578785D01*
X128270000Y-88499999D01*
X128269995Y-88500000D01*
X125436629Y-88500000D01*
X125266777Y-88329851D01*
X125110860Y-88265109D01*
X125264672Y-88201555D01*
X125665149Y-87801777D01*
X125882152Y-87279174D01*
X125882646Y-86713309D01*
X125666555Y-86190328D01*
X125266777Y-85789851D01*
X125126422Y-85731571D01*
X125206425Y-85698432D01*
X125279011Y-85453617D01*
X124460000Y-84634605D01*
X123640989Y-85453617D01*
X123713575Y-85698432D01*
X123799024Y-85729071D01*
X123655328Y-85788445D01*
X123254851Y-86188223D01*
X123037848Y-86710826D01*
X123037354Y-87276691D01*
X123253445Y-87799672D01*
X123653223Y-88200149D01*
X123809140Y-88264891D01*
X123655328Y-88328445D01*
X123254851Y-88728223D01*
X123037848Y-89250826D01*
X123037354Y-89816691D01*
X123253445Y-90339672D01*
X123653223Y-90740149D01*
X123809140Y-90804891D01*
X123655328Y-90868445D01*
X123254851Y-91268223D01*
X123037848Y-91790826D01*
X123037354Y-92356691D01*
X123253445Y-92879672D01*
X123653223Y-93280149D01*
X123809140Y-93344891D01*
X123655328Y-93408445D01*
X123254851Y-93808223D01*
X123037848Y-94330826D01*
X123037354Y-94896691D01*
X123253445Y-95419672D01*
X123653223Y-95820149D01*
X123809140Y-95884891D01*
X123655328Y-95948445D01*
X123254851Y-96348223D01*
X123037848Y-96870826D01*
X123037354Y-97436691D01*
X123253445Y-97959672D01*
X123653223Y-98360149D01*
X123809140Y-98424891D01*
X123655328Y-98488445D01*
X123254851Y-98888223D01*
X123037848Y-99410826D01*
X123037354Y-99976691D01*
X123253445Y-100499672D01*
X123653223Y-100900149D01*
X123809140Y-100964891D01*
X123655328Y-101028445D01*
X123254851Y-101428223D01*
X123037848Y-101950826D01*
X123037354Y-102516691D01*
X123253445Y-103039672D01*
X123653223Y-103440149D01*
X123809140Y-103504891D01*
X123655328Y-103568445D01*
X123254851Y-103968223D01*
X123037848Y-104490826D01*
X123037354Y-105056691D01*
X123253445Y-105579672D01*
X123653223Y-105980149D01*
X123809140Y-106044891D01*
X123655328Y-106108445D01*
X123254851Y-106508223D01*
X123037848Y-107030826D01*
X123037354Y-107596691D01*
X123253445Y-108119672D01*
X123653223Y-108520149D01*
X123809140Y-108584891D01*
X123655328Y-108648445D01*
X123254851Y-109048223D01*
X123037848Y-109570826D01*
X123037354Y-110136691D01*
X123253445Y-110659672D01*
X123653223Y-111060149D01*
X123809140Y-111124891D01*
X123655328Y-111188445D01*
X123254851Y-111588223D01*
X123037848Y-112110826D01*
X123037354Y-112676691D01*
X123253445Y-113199672D01*
X123653223Y-113600149D01*
X123809140Y-113664891D01*
X123655328Y-113728445D01*
X123254851Y-114128223D01*
X123037848Y-114650826D01*
X123037354Y-115216691D01*
X123253445Y-115739672D01*
X123653223Y-116140149D01*
X123809140Y-116204891D01*
X123655328Y-116268445D01*
X123254851Y-116668223D01*
X123037848Y-117190826D01*
X123037354Y-117756691D01*
X123253445Y-118279672D01*
X123653223Y-118680149D01*
X124175826Y-118897152D01*
X124741691Y-118897646D01*
X125264672Y-118681555D01*
X125665149Y-118281777D01*
X125882152Y-117759174D01*
X125882646Y-117193309D01*
X125771783Y-116925000D01*
X126256288Y-116925000D01*
X128677560Y-119346271D01*
X128677560Y-120230000D01*
X128718956Y-120450000D01*
X124170868Y-120450000D01*
X113865000Y-110144132D01*
X113865000Y-104140000D01*
X113801439Y-103820459D01*
X113620434Y-103549566D01*
X111715434Y-101644566D01*
X111444541Y-101463561D01*
X111125000Y-101400000D01*
X110396280Y-101400000D01*
X110026777Y-101029851D01*
X109870860Y-100965109D01*
X110024672Y-100901555D01*
X110425149Y-100501777D01*
X110642152Y-99979174D01*
X110642646Y-99413309D01*
X110426555Y-98890328D01*
X110026777Y-98489851D01*
X109870860Y-98425109D01*
X110024672Y-98361555D01*
X110425149Y-97961777D01*
X110642152Y-97439174D01*
X110642646Y-96873309D01*
X110426555Y-96350328D01*
X110026777Y-95949851D01*
X109870860Y-95885109D01*
X110024672Y-95821555D01*
X110425149Y-95421777D01*
X110642152Y-94899174D01*
X110642646Y-94333309D01*
X110426555Y-93810328D01*
X110026777Y-93409851D01*
X109870860Y-93345109D01*
X110024672Y-93281555D01*
X110425149Y-92881777D01*
X110642152Y-92359174D01*
X110642646Y-91793309D01*
X110426555Y-91270328D01*
X110026777Y-90869851D01*
X109886422Y-90811571D01*
X109966425Y-90778432D01*
X110039011Y-90533617D01*
X109220000Y-89714605D01*
X108400989Y-90533617D01*
X108473575Y-90778432D01*
X108559024Y-90809071D01*
X108415328Y-90868445D01*
X108043123Y-91240000D01*
X99012841Y-91240000D01*
X98869147Y-91024946D01*
X98387378Y-90703039D01*
X97819093Y-90590000D01*
X97760907Y-90590000D01*
X97192622Y-90703039D01*
X96710853Y-91024946D01*
X96388946Y-91506715D01*
X96275907Y-92075000D01*
X96388946Y-92643285D01*
X96710853Y-93125054D01*
X97040026Y-93345000D01*
X96710853Y-93564946D01*
X96388946Y-94046715D01*
X96275907Y-94615000D01*
X96388946Y-95183285D01*
X96710853Y-95665054D01*
X97040026Y-95885000D01*
X96710853Y-96104946D01*
X96388946Y-96586715D01*
X96275907Y-97155000D01*
X96388946Y-97723285D01*
X96710853Y-98205054D01*
X96752452Y-98232850D01*
X96704683Y-98241838D01*
X96488559Y-98380910D01*
X96343569Y-98593110D01*
X96292560Y-98845000D01*
X96292560Y-100545000D01*
X96336838Y-100780317D01*
X96475910Y-100996441D01*
X96688110Y-101141431D01*
X96940000Y-101192440D01*
X98640000Y-101192440D01*
X98875317Y-101148162D01*
X99091441Y-101009090D01*
X99236431Y-100796890D01*
X99287440Y-100545000D01*
X99287440Y-100530000D01*
X108043720Y-100530000D01*
X108413223Y-100900149D01*
X108569140Y-100964891D01*
X108415328Y-101028445D01*
X108014851Y-101428223D01*
X107797848Y-101950826D01*
X107797354Y-102516691D01*
X108013445Y-103039672D01*
X108413223Y-103440149D01*
X108569140Y-103504891D01*
X108415328Y-103568445D01*
X108043123Y-103940000D01*
X99012841Y-103940000D01*
X98869147Y-103724946D01*
X98387378Y-103403039D01*
X97819093Y-103290000D01*
X97760907Y-103290000D01*
X97192622Y-103403039D01*
X96710853Y-103724946D01*
X96388946Y-104206715D01*
X96275907Y-104775000D01*
X96388946Y-105343285D01*
X96710853Y-105825054D01*
X97040026Y-106045000D01*
X96710853Y-106264946D01*
X96388946Y-106746715D01*
X96275907Y-107315000D01*
X96388946Y-107883285D01*
X96710853Y-108365054D01*
X97040026Y-108585000D01*
X96710853Y-108804946D01*
X96388946Y-109286715D01*
X96275907Y-109855000D01*
X96388946Y-110423285D01*
X96710853Y-110905054D01*
X97040026Y-111125000D01*
X96710853Y-111344946D01*
X96388946Y-111826715D01*
X96275907Y-112395000D01*
X96388946Y-112963285D01*
X96710853Y-113445054D01*
X97040026Y-113665000D01*
X96710853Y-113884946D01*
X96388946Y-114366715D01*
X96275907Y-114935000D01*
X96388946Y-115503285D01*
X96710853Y-115985054D01*
X96752452Y-116012850D01*
X96704683Y-116021838D01*
X96488559Y-116160910D01*
X96343569Y-116373110D01*
X96292560Y-116625000D01*
X96292560Y-118325000D01*
X96336838Y-118560317D01*
X96475910Y-118776441D01*
X96688110Y-118921431D01*
X96940000Y-118972440D01*
X98640000Y-118972440D01*
X98875317Y-118928162D01*
X99091441Y-118789090D01*
X99236431Y-118576890D01*
X99287440Y-118325000D01*
X99287440Y-118310000D01*
X108043720Y-118310000D01*
X108413223Y-118680149D01*
X108935826Y-118897152D01*
X109501691Y-118897646D01*
X110024672Y-118681555D01*
X110425149Y-118281777D01*
X110642152Y-117759174D01*
X110642646Y-117193309D01*
X110426555Y-116670328D01*
X110026777Y-116269851D01*
X109870860Y-116205109D01*
X110024672Y-116141555D01*
X110425149Y-115741777D01*
X110642152Y-115219174D01*
X110642646Y-114653309D01*
X110426555Y-114130328D01*
X110026777Y-113729851D01*
X109870860Y-113665109D01*
X110024672Y-113601555D01*
X110425149Y-113201777D01*
X110642152Y-112679174D01*
X110642646Y-112113309D01*
X110426555Y-111590328D01*
X110026777Y-111189851D01*
X109870860Y-111125109D01*
X110024672Y-111061555D01*
X110425149Y-110661777D01*
X110642152Y-110139174D01*
X110642646Y-109573309D01*
X110426555Y-109050328D01*
X110026777Y-108649851D01*
X109870860Y-108585109D01*
X110024672Y-108521555D01*
X110425149Y-108121777D01*
X110642152Y-107599174D01*
X110642646Y-107033309D01*
X110426555Y-106510328D01*
X110026777Y-106109851D01*
X109870860Y-106045109D01*
X110024672Y-105981555D01*
X110425149Y-105581777D01*
X110642152Y-105059174D01*
X110642646Y-104493309D01*
X110426555Y-103970328D01*
X110026777Y-103569851D01*
X109870860Y-103505109D01*
X110024672Y-103441555D01*
X110396877Y-103070000D01*
X110779132Y-103070000D01*
X112195000Y-104485868D01*
X112195000Y-110490000D01*
X112258561Y-110809541D01*
X112401216Y-111023039D01*
X112439566Y-111080434D01*
X123204132Y-121845000D01*
X94684931Y-121845000D01*
X94406019Y-121789521D01*
X94228856Y-121671145D01*
X94110478Y-121493979D01*
X94055000Y-121215070D01*
X94055000Y-89321235D01*
X107785574Y-89321235D01*
X107812959Y-89886438D01*
X107976568Y-90281425D01*
X108221383Y-90354011D01*
X109040395Y-89535000D01*
X109399605Y-89535000D01*
X110218617Y-90354011D01*
X110463432Y-90281425D01*
X110654426Y-89748765D01*
X110627041Y-89183562D01*
X110463432Y-88788575D01*
X110218617Y-88715989D01*
X109399605Y-89535000D01*
X109040395Y-89535000D01*
X108221383Y-88715989D01*
X107976568Y-88788575D01*
X107785574Y-89321235D01*
X94055000Y-89321235D01*
X94055000Y-88389416D01*
X94273690Y-88480000D01*
X94964250Y-88480000D01*
X95123000Y-88321250D01*
X95123000Y-87122000D01*
X95377000Y-87122000D01*
X95377000Y-88321250D01*
X95535750Y-88480000D01*
X96226310Y-88480000D01*
X96459699Y-88383327D01*
X96638327Y-88204698D01*
X96725136Y-87995122D01*
X97023076Y-88266645D01*
X97433110Y-88436476D01*
X97663000Y-88315155D01*
X97663000Y-87122000D01*
X97917000Y-87122000D01*
X97917000Y-88315155D01*
X98146890Y-88436476D01*
X98556924Y-88266645D01*
X98985183Y-87876358D01*
X99060000Y-87717046D01*
X99134817Y-87876358D01*
X99563076Y-88266645D01*
X99973110Y-88436476D01*
X100203000Y-88315155D01*
X100203000Y-87122000D01*
X100457000Y-87122000D01*
X100457000Y-88315155D01*
X100686890Y-88436476D01*
X101096924Y-88266645D01*
X101525183Y-87876358D01*
X101600000Y-87717046D01*
X101674817Y-87876358D01*
X102103076Y-88266645D01*
X102513110Y-88436476D01*
X102743000Y-88315155D01*
X102743000Y-87122000D01*
X102997000Y-87122000D01*
X102997000Y-88315155D01*
X103226890Y-88436476D01*
X103636924Y-88266645D01*
X104065183Y-87876358D01*
X104140000Y-87717046D01*
X104214817Y-87876358D01*
X104643076Y-88266645D01*
X105053110Y-88436476D01*
X105283000Y-88315155D01*
X105283000Y-87122000D01*
X105537000Y-87122000D01*
X105537000Y-88315155D01*
X105766890Y-88436476D01*
X106176924Y-88266645D01*
X106605183Y-87876358D01*
X106851486Y-87351892D01*
X106730819Y-87122000D01*
X105537000Y-87122000D01*
X105283000Y-87122000D01*
X102997000Y-87122000D01*
X102743000Y-87122000D01*
X100457000Y-87122000D01*
X100203000Y-87122000D01*
X97917000Y-87122000D01*
X97663000Y-87122000D01*
X95377000Y-87122000D01*
X95123000Y-87122000D01*
X95103000Y-87122000D01*
X95103000Y-86868000D01*
X95123000Y-86868000D01*
X95123000Y-85668750D01*
X95377000Y-85668750D01*
X95377000Y-86868000D01*
X97663000Y-86868000D01*
X97663000Y-85674845D01*
X97917000Y-85674845D01*
X97917000Y-86868000D01*
X100203000Y-86868000D01*
X100203000Y-85674845D01*
X100457000Y-85674845D01*
X100457000Y-86868000D01*
X102743000Y-86868000D01*
X102743000Y-85674845D01*
X102997000Y-85674845D01*
X102997000Y-86868000D01*
X105283000Y-86868000D01*
X105283000Y-85674845D01*
X105537000Y-85674845D01*
X105537000Y-86868000D01*
X106730819Y-86868000D01*
X106851486Y-86638108D01*
X106605183Y-86113642D01*
X106176924Y-85723355D01*
X105766890Y-85553524D01*
X105537000Y-85674845D01*
X105283000Y-85674845D01*
X105053110Y-85553524D01*
X104643076Y-85723355D01*
X104214817Y-86113642D01*
X104140000Y-86272954D01*
X104065183Y-86113642D01*
X103636924Y-85723355D01*
X103226890Y-85553524D01*
X102997000Y-85674845D01*
X102743000Y-85674845D01*
X102513110Y-85553524D01*
X102103076Y-85723355D01*
X101674817Y-86113642D01*
X101600000Y-86272954D01*
X101525183Y-86113642D01*
X101096924Y-85723355D01*
X100686890Y-85553524D01*
X100457000Y-85674845D01*
X100203000Y-85674845D01*
X99973110Y-85553524D01*
X99563076Y-85723355D01*
X99134817Y-86113642D01*
X99060000Y-86272954D01*
X98985183Y-86113642D01*
X98556924Y-85723355D01*
X98146890Y-85553524D01*
X97917000Y-85674845D01*
X97663000Y-85674845D01*
X97433110Y-85553524D01*
X97023076Y-85723355D01*
X96725136Y-85994878D01*
X96638327Y-85785302D01*
X96459699Y-85606673D01*
X96226310Y-85510000D01*
X95535750Y-85510000D01*
X95377000Y-85668750D01*
X95123000Y-85668750D01*
X94964250Y-85510000D01*
X94273690Y-85510000D01*
X94055000Y-85600584D01*
X94055000Y-82835750D01*
X98060510Y-82835750D01*
X98060510Y-83675799D01*
X98157183Y-83909188D01*
X98335811Y-84087817D01*
X98569200Y-84184490D01*
X99409250Y-84184490D01*
X99568000Y-84025740D01*
X99568000Y-82677000D01*
X99822000Y-82677000D01*
X99822000Y-84025740D01*
X99980750Y-84184490D01*
X100820800Y-84184490D01*
X101054189Y-84087817D01*
X101232817Y-83909188D01*
X101329490Y-83675799D01*
X101329490Y-82835750D01*
X101170740Y-82677000D01*
X99822000Y-82677000D01*
X99568000Y-82677000D01*
X98219260Y-82677000D01*
X98060510Y-82835750D01*
X94055000Y-82835750D01*
X94055000Y-81424201D01*
X98060510Y-81424201D01*
X98060510Y-82264250D01*
X98219260Y-82423000D01*
X99568000Y-82423000D01*
X99568000Y-80137000D01*
X99822000Y-80137000D01*
X99822000Y-82423000D01*
X101170740Y-82423000D01*
X101329490Y-82264250D01*
X101329490Y-82196691D01*
X107797354Y-82196691D01*
X108013445Y-82719672D01*
X108413223Y-83120149D01*
X108569140Y-83184891D01*
X108415328Y-83248445D01*
X108014851Y-83648223D01*
X107797848Y-84170826D01*
X107797354Y-84736691D01*
X108013445Y-85259672D01*
X108413223Y-85660149D01*
X108569140Y-85724891D01*
X108415328Y-85788445D01*
X108014851Y-86188223D01*
X107797848Y-86710826D01*
X107797354Y-87276691D01*
X108013445Y-87799672D01*
X108413223Y-88200149D01*
X108553578Y-88258429D01*
X108473575Y-88291568D01*
X108400989Y-88536383D01*
X109220000Y-89355395D01*
X110039011Y-88536383D01*
X109966425Y-88291568D01*
X109880976Y-88260929D01*
X110024672Y-88201555D01*
X110425149Y-87801777D01*
X110642152Y-87279174D01*
X110642646Y-86713309D01*
X110426555Y-86190328D01*
X110026777Y-85789851D01*
X109870860Y-85725109D01*
X110024672Y-85661555D01*
X110425149Y-85261777D01*
X110642152Y-84739174D01*
X110642586Y-84241235D01*
X123025574Y-84241235D01*
X123052959Y-84806438D01*
X123216568Y-85201425D01*
X123461383Y-85274011D01*
X124280395Y-84455000D01*
X123461383Y-83635989D01*
X123216568Y-83708575D01*
X123025574Y-84241235D01*
X110642586Y-84241235D01*
X110642646Y-84173309D01*
X110426555Y-83650328D01*
X110026777Y-83249851D01*
X109870860Y-83185109D01*
X110024672Y-83121555D01*
X110425149Y-82721777D01*
X110642152Y-82199174D01*
X110642154Y-82196691D01*
X123037354Y-82196691D01*
X123253445Y-82719672D01*
X123653223Y-83120149D01*
X123793578Y-83178429D01*
X123713575Y-83211568D01*
X123640989Y-83456383D01*
X124460000Y-84275395D01*
X124474142Y-84261252D01*
X124653748Y-84440858D01*
X124639605Y-84455000D01*
X125458617Y-85274011D01*
X125703432Y-85201425D01*
X125894426Y-84668765D01*
X125867041Y-84103562D01*
X125703432Y-83708575D01*
X125458619Y-83635989D01*
X125509608Y-83585000D01*
X129085794Y-83585000D01*
X129095853Y-83600054D01*
X129140000Y-83629552D01*
X129140000Y-84010448D01*
X129095853Y-84039946D01*
X128773946Y-84521715D01*
X128660907Y-85090000D01*
X128773946Y-85658285D01*
X129095853Y-86140054D01*
X129577622Y-86461961D01*
X130145907Y-86575000D01*
X130204093Y-86575000D01*
X130772378Y-86461961D01*
X131254147Y-86140054D01*
X131576054Y-85658285D01*
X131689093Y-85090000D01*
X131576054Y-84521715D01*
X131254147Y-84039946D01*
X131210000Y-84010448D01*
X131210000Y-83629552D01*
X131254147Y-83600054D01*
X131264206Y-83585000D01*
X134878070Y-83585000D01*
X134878070Y-84819490D01*
X134922348Y-85054807D01*
X135061420Y-85270931D01*
X135273620Y-85415921D01*
X135525510Y-85466930D01*
X137524490Y-85466930D01*
X137759807Y-85422652D01*
X137975931Y-85283580D01*
X138120921Y-85071380D01*
X138171930Y-84819490D01*
X138171930Y-82820510D01*
X138160000Y-82757108D01*
X138160000Y-81280000D01*
X138159490Y-81277436D01*
X138159490Y-81247978D01*
X138035072Y-80622486D01*
X137680759Y-80092219D01*
X137150492Y-79737906D01*
X136525000Y-79613488D01*
X135899508Y-79737906D01*
X135369241Y-80092219D01*
X135014928Y-80622486D01*
X134890510Y-81247978D01*
X134890510Y-81277436D01*
X134890000Y-81280000D01*
X134890000Y-81451288D01*
X134826288Y-81515000D01*
X131264206Y-81515000D01*
X131254147Y-81499946D01*
X131212548Y-81472150D01*
X131260317Y-81463162D01*
X131476441Y-81324090D01*
X131621431Y-81111890D01*
X131672440Y-80860000D01*
X131672440Y-79160000D01*
X131628162Y-78924683D01*
X131489090Y-78708559D01*
X131276890Y-78563569D01*
X131025000Y-78512560D01*
X129325000Y-78512560D01*
X129089683Y-78556838D01*
X128873559Y-78695910D01*
X128728569Y-78908110D01*
X128677560Y-79160000D01*
X128677560Y-80860000D01*
X128721838Y-81095317D01*
X128860910Y-81311441D01*
X129073110Y-81456431D01*
X129140000Y-81469977D01*
X129140000Y-81470448D01*
X129095853Y-81499946D01*
X129085794Y-81515000D01*
X125833762Y-81515000D01*
X125666555Y-81110328D01*
X125266777Y-80709851D01*
X124744174Y-80492848D01*
X124178309Y-80492354D01*
X123655328Y-80708445D01*
X123254851Y-81108223D01*
X123037848Y-81630826D01*
X123037354Y-82196691D01*
X110642154Y-82196691D01*
X110642646Y-81633309D01*
X110426555Y-81110328D01*
X110026777Y-80709851D01*
X109504174Y-80492848D01*
X108938309Y-80492354D01*
X108415328Y-80708445D01*
X108014851Y-81108223D01*
X107797848Y-81630826D01*
X107797354Y-82196691D01*
X101329490Y-82196691D01*
X101329490Y-81424201D01*
X101232817Y-81190812D01*
X101054189Y-81012183D01*
X100997549Y-80988722D01*
X101018068Y-80969726D01*
X101284627Y-80390355D01*
X101165807Y-80137000D01*
X99822000Y-80137000D01*
X99568000Y-80137000D01*
X98224193Y-80137000D01*
X98105373Y-80390355D01*
X98371932Y-80969726D01*
X98392451Y-80988722D01*
X98335811Y-81012183D01*
X98157183Y-81190812D01*
X98060510Y-81424201D01*
X94055000Y-81424201D01*
X94055000Y-79629645D01*
X98105373Y-79629645D01*
X98224193Y-79883000D01*
X99568000Y-79883000D01*
X99568000Y-78539735D01*
X99822000Y-78539735D01*
X99822000Y-79883000D01*
X101165807Y-79883000D01*
X101284627Y-79629645D01*
X101018068Y-79050274D01*
X100550084Y-78617013D01*
X100075354Y-78420381D01*
X99822000Y-78539735D01*
X99568000Y-78539735D01*
X99314646Y-78420381D01*
X98839916Y-78617013D01*
X98371932Y-79050274D01*
X98105373Y-79629645D01*
X94055000Y-79629645D01*
X94055000Y-78174930D01*
X94110478Y-77896021D01*
X94228856Y-77718855D01*
X94406019Y-77600479D01*
X94684931Y-77545000D01*
X140265070Y-77545000D01*
X140543979Y-77600478D01*
X140543979Y-77600478D01*
G37*
X140543979Y-77600478D02*
X140721145Y-77718856D01*
X140839521Y-77896019D01*
X140895000Y-78174931D01*
X140895000Y-121215069D01*
X140839521Y-121493981D01*
X140721145Y-121671144D01*
X140543979Y-121789522D01*
X140265070Y-121845000D01*
X137145868Y-121845000D01*
X139655434Y-119335434D01*
X139836439Y-119064541D01*
X139900000Y-118745000D01*
X139900000Y-116205000D01*
X139836439Y-115885459D01*
X139655434Y-115614566D01*
X138385434Y-114344566D01*
X138114541Y-114163561D01*
X137795000Y-114100000D01*
X137747841Y-114100000D01*
X137604147Y-113884946D01*
X137274974Y-113665000D01*
X137604147Y-113445054D01*
X137926054Y-112963285D01*
X138039093Y-112395000D01*
X137926054Y-111826715D01*
X137604147Y-111344946D01*
X137274974Y-111125000D01*
X137604147Y-110905054D01*
X137926054Y-110423285D01*
X138039093Y-109855000D01*
X137926054Y-109286715D01*
X137604147Y-108804946D01*
X137274974Y-108585000D01*
X137604147Y-108365054D01*
X137926054Y-107883285D01*
X138039093Y-107315000D01*
X137926054Y-106746715D01*
X137604147Y-106264946D01*
X137562548Y-106237150D01*
X137610317Y-106228162D01*
X137826441Y-106089090D01*
X137971431Y-105876890D01*
X138022440Y-105625000D01*
X138022440Y-103925000D01*
X137978162Y-103689683D01*
X137839090Y-103473559D01*
X137626890Y-103328569D01*
X137375000Y-103277560D01*
X136208428Y-103277560D01*
X134575434Y-101644566D01*
X134304541Y-101463561D01*
X133985000Y-101400000D01*
X125636280Y-101400000D01*
X125266777Y-101029851D01*
X125110860Y-100965109D01*
X125264672Y-100901555D01*
X125636877Y-100530000D01*
X135302159Y-100530000D01*
X135445853Y-100745054D01*
X135927622Y-101066961D01*
X136495907Y-101180000D01*
X136554093Y-101180000D01*
X137122378Y-101066961D01*
X137604147Y-100745054D01*
X137926054Y-100263285D01*
X138039093Y-99695000D01*
X137926054Y-99126715D01*
X137604147Y-98644946D01*
X137274974Y-98425000D01*
X137604147Y-98205054D01*
X137926054Y-97723285D01*
X138039093Y-97155000D01*
X137926054Y-96586715D01*
X137604147Y-96104946D01*
X137560223Y-96075597D01*
X137734698Y-96003327D01*
X137913327Y-95824699D01*
X138010000Y-95591310D01*
X138010000Y-94900750D01*
X137851250Y-94742000D01*
X136652000Y-94742000D01*
X136652000Y-94762000D01*
X136398000Y-94762000D01*
X136398000Y-94742000D01*
X135198750Y-94742000D01*
X135040000Y-94900750D01*
X135040000Y-95591310D01*
X135136673Y-95824699D01*
X135315302Y-96003327D01*
X135489777Y-96075597D01*
X135445853Y-96104946D01*
X135302159Y-96320000D01*
X125636280Y-96320000D01*
X125266777Y-95949851D01*
X125110860Y-95885109D01*
X125264672Y-95821555D01*
X125665149Y-95421777D01*
X125882152Y-94899174D01*
X125882646Y-94333309D01*
X125666555Y-93810328D01*
X125495217Y-93638690D01*
X135040000Y-93638690D01*
X135040000Y-94329250D01*
X135198750Y-94488000D01*
X136398000Y-94488000D01*
X136398000Y-93288750D01*
X136652000Y-93288750D01*
X136652000Y-94488000D01*
X137851250Y-94488000D01*
X138010000Y-94329250D01*
X138010000Y-93638690D01*
X137913327Y-93405301D01*
X137734698Y-93226673D01*
X137501309Y-93130000D01*
X136810750Y-93130000D01*
X136652000Y-93288750D01*
X136398000Y-93288750D01*
X136239250Y-93130000D01*
X135548691Y-93130000D01*
X135315302Y-93226673D01*
X135136673Y-93405301D01*
X135040000Y-93638690D01*
X125495217Y-93638690D01*
X125266777Y-93409851D01*
X125110860Y-93345109D01*
X125264672Y-93281555D01*
X125665149Y-92881777D01*
X125882152Y-92359174D01*
X125882646Y-91793309D01*
X125666555Y-91270328D01*
X125266777Y-90869851D01*
X125110860Y-90805109D01*
X125264672Y-90741555D01*
X125436527Y-90570000D01*
X127407560Y-90570000D01*
X127407560Y-91020000D01*
X127451838Y-91255317D01*
X127590910Y-91471441D01*
X127803110Y-91616431D01*
X128055000Y-91667440D01*
X129755000Y-91667440D01*
X129990317Y-91623162D01*
X130206441Y-91484090D01*
X130351431Y-91271890D01*
X130364977Y-91205000D01*
X130365448Y-91205000D01*
X130394946Y-91249147D01*
X130876715Y-91571054D01*
X131445000Y-91684093D01*
X132013285Y-91571054D01*
X132495054Y-91249147D01*
X132524552Y-91205000D01*
X132905448Y-91205000D01*
X132934946Y-91249147D01*
X133416715Y-91571054D01*
X133985000Y-91684093D01*
X134553285Y-91571054D01*
X135035054Y-91249147D01*
X135064552Y-91205000D01*
X135445448Y-91205000D01*
X135474946Y-91249147D01*
X135956715Y-91571054D01*
X136525000Y-91684093D01*
X137093285Y-91571054D01*
X137575054Y-91249147D01*
X137604552Y-91205000D01*
X137985448Y-91205000D01*
X138014946Y-91249147D01*
X138496715Y-91571054D01*
X139065000Y-91684093D01*
X139633285Y-91571054D01*
X140115054Y-91249147D01*
X140436961Y-90767378D01*
X140550000Y-90199093D01*
X140550000Y-90140907D01*
X140436961Y-89572622D01*
X140115054Y-89090853D01*
X139633285Y-88768946D01*
X139065000Y-88655907D01*
X138496715Y-88768946D01*
X138014946Y-89090853D01*
X137985448Y-89135000D01*
X137604552Y-89135000D01*
X137575054Y-89090853D01*
X137093285Y-88768946D01*
X136525000Y-88655907D01*
X135956715Y-88768946D01*
X135474946Y-89090853D01*
X135445448Y-89135000D01*
X135064552Y-89135000D01*
X135035054Y-89090853D01*
X134553285Y-88768946D01*
X133985000Y-88655907D01*
X133416715Y-88768946D01*
X132934946Y-89090853D01*
X132905448Y-89135000D01*
X132524552Y-89135000D01*
X132495054Y-89090853D01*
X132013285Y-88768946D01*
X131445000Y-88655907D01*
X130876715Y-88768946D01*
X130394946Y-89090853D01*
X130367150Y-89132452D01*
X130358162Y-89084683D01*
X130219090Y-88868559D01*
X130006890Y-88723569D01*
X129755000Y-88672560D01*
X128806422Y-88672560D01*
X128666077Y-88578785D01*
X128270000Y-88499999D01*
X128269995Y-88500000D01*
X125436629Y-88500000D01*
X125266777Y-88329851D01*
X125110860Y-88265109D01*
X125264672Y-88201555D01*
X125665149Y-87801777D01*
X125882152Y-87279174D01*
X125882646Y-86713309D01*
X125666555Y-86190328D01*
X125266777Y-85789851D01*
X125126422Y-85731571D01*
X125206425Y-85698432D01*
X125279011Y-85453617D01*
X124460000Y-84634605D01*
X123640989Y-85453617D01*
X123713575Y-85698432D01*
X123799024Y-85729071D01*
X123655328Y-85788445D01*
X123254851Y-86188223D01*
X123037848Y-86710826D01*
X123037354Y-87276691D01*
X123253445Y-87799672D01*
X123653223Y-88200149D01*
X123809140Y-88264891D01*
X123655328Y-88328445D01*
X123254851Y-88728223D01*
X123037848Y-89250826D01*
X123037354Y-89816691D01*
X123253445Y-90339672D01*
X123653223Y-90740149D01*
X123809140Y-90804891D01*
X123655328Y-90868445D01*
X123254851Y-91268223D01*
X123037848Y-91790826D01*
X123037354Y-92356691D01*
X123253445Y-92879672D01*
X123653223Y-93280149D01*
X123809140Y-93344891D01*
X123655328Y-93408445D01*
X123254851Y-93808223D01*
X123037848Y-94330826D01*
X123037354Y-94896691D01*
X123253445Y-95419672D01*
X123653223Y-95820149D01*
X123809140Y-95884891D01*
X123655328Y-95948445D01*
X123254851Y-96348223D01*
X123037848Y-96870826D01*
X123037354Y-97436691D01*
X123253445Y-97959672D01*
X123653223Y-98360149D01*
X123809140Y-98424891D01*
X123655328Y-98488445D01*
X123254851Y-98888223D01*
X123037848Y-99410826D01*
X123037354Y-99976691D01*
X123253445Y-100499672D01*
X123653223Y-100900149D01*
X123809140Y-100964891D01*
X123655328Y-101028445D01*
X123254851Y-101428223D01*
X123037848Y-101950826D01*
X123037354Y-102516691D01*
X123253445Y-103039672D01*
X123653223Y-103440149D01*
X123809140Y-103504891D01*
X123655328Y-103568445D01*
X123254851Y-103968223D01*
X123037848Y-104490826D01*
X123037354Y-105056691D01*
X123253445Y-105579672D01*
X123653223Y-105980149D01*
X123809140Y-106044891D01*
X123655328Y-106108445D01*
X123254851Y-106508223D01*
X123037848Y-107030826D01*
X123037354Y-107596691D01*
X123253445Y-108119672D01*
X123653223Y-108520149D01*
X123809140Y-108584891D01*
X123655328Y-108648445D01*
X123254851Y-109048223D01*
X123037848Y-109570826D01*
X123037354Y-110136691D01*
X123253445Y-110659672D01*
X123653223Y-111060149D01*
X123809140Y-111124891D01*
X123655328Y-111188445D01*
X123254851Y-111588223D01*
X123037848Y-112110826D01*
X123037354Y-112676691D01*
X123253445Y-113199672D01*
X123653223Y-113600149D01*
X123809140Y-113664891D01*
X123655328Y-113728445D01*
X123254851Y-114128223D01*
X123037848Y-114650826D01*
X123037354Y-115216691D01*
X123253445Y-115739672D01*
X123653223Y-116140149D01*
X123809140Y-116204891D01*
X123655328Y-116268445D01*
X123254851Y-116668223D01*
X123037848Y-117190826D01*
X123037354Y-117756691D01*
X123253445Y-118279672D01*
X123653223Y-118680149D01*
X124175826Y-118897152D01*
X124741691Y-118897646D01*
X125264672Y-118681555D01*
X125665149Y-118281777D01*
X125882152Y-117759174D01*
X125882646Y-117193309D01*
X125771783Y-116925000D01*
X126256288Y-116925000D01*
X128677560Y-119346271D01*
X128677560Y-120230000D01*
X128718956Y-120450000D01*
X124170868Y-120450000D01*
X113865000Y-110144132D01*
X113865000Y-104140000D01*
X113801439Y-103820459D01*
X113620434Y-103549566D01*
X111715434Y-101644566D01*
X111444541Y-101463561D01*
X111125000Y-101400000D01*
X110396280Y-101400000D01*
X110026777Y-101029851D01*
X109870860Y-100965109D01*
X110024672Y-100901555D01*
X110425149Y-100501777D01*
X110642152Y-99979174D01*
X110642646Y-99413309D01*
X110426555Y-98890328D01*
X110026777Y-98489851D01*
X109870860Y-98425109D01*
X110024672Y-98361555D01*
X110425149Y-97961777D01*
X110642152Y-97439174D01*
X110642646Y-96873309D01*
X110426555Y-96350328D01*
X110026777Y-95949851D01*
X109870860Y-95885109D01*
X110024672Y-95821555D01*
X110425149Y-95421777D01*
X110642152Y-94899174D01*
X110642646Y-94333309D01*
X110426555Y-93810328D01*
X110026777Y-93409851D01*
X109870860Y-93345109D01*
X110024672Y-93281555D01*
X110425149Y-92881777D01*
X110642152Y-92359174D01*
X110642646Y-91793309D01*
X110426555Y-91270328D01*
X110026777Y-90869851D01*
X109886422Y-90811571D01*
X109966425Y-90778432D01*
X110039011Y-90533617D01*
X109220000Y-89714605D01*
X108400989Y-90533617D01*
X108473575Y-90778432D01*
X108559024Y-90809071D01*
X108415328Y-90868445D01*
X108043123Y-91240000D01*
X99012841Y-91240000D01*
X98869147Y-91024946D01*
X98387378Y-90703039D01*
X97819093Y-90590000D01*
X97760907Y-90590000D01*
X97192622Y-90703039D01*
X96710853Y-91024946D01*
X96388946Y-91506715D01*
X96275907Y-92075000D01*
X96388946Y-92643285D01*
X96710853Y-93125054D01*
X97040026Y-93345000D01*
X96710853Y-93564946D01*
X96388946Y-94046715D01*
X96275907Y-94615000D01*
X96388946Y-95183285D01*
X96710853Y-95665054D01*
X97040026Y-95885000D01*
X96710853Y-96104946D01*
X96388946Y-96586715D01*
X96275907Y-97155000D01*
X96388946Y-97723285D01*
X96710853Y-98205054D01*
X96752452Y-98232850D01*
X96704683Y-98241838D01*
X96488559Y-98380910D01*
X96343569Y-98593110D01*
X96292560Y-98845000D01*
X96292560Y-100545000D01*
X96336838Y-100780317D01*
X96475910Y-100996441D01*
X96688110Y-101141431D01*
X96940000Y-101192440D01*
X98640000Y-101192440D01*
X98875317Y-101148162D01*
X99091441Y-101009090D01*
X99236431Y-100796890D01*
X99287440Y-100545000D01*
X99287440Y-100530000D01*
X108043720Y-100530000D01*
X108413223Y-100900149D01*
X108569140Y-100964891D01*
X108415328Y-101028445D01*
X108014851Y-101428223D01*
X107797848Y-101950826D01*
X107797354Y-102516691D01*
X108013445Y-103039672D01*
X108413223Y-103440149D01*
X108569140Y-103504891D01*
X108415328Y-103568445D01*
X108043123Y-103940000D01*
X99012841Y-103940000D01*
X98869147Y-103724946D01*
X98387378Y-103403039D01*
X97819093Y-103290000D01*
X97760907Y-103290000D01*
X97192622Y-103403039D01*
X96710853Y-103724946D01*
X96388946Y-104206715D01*
X96275907Y-104775000D01*
X96388946Y-105343285D01*
X96710853Y-105825054D01*
X97040026Y-106045000D01*
X96710853Y-106264946D01*
X96388946Y-106746715D01*
X96275907Y-107315000D01*
X96388946Y-107883285D01*
X96710853Y-108365054D01*
X97040026Y-108585000D01*
X96710853Y-108804946D01*
X96388946Y-109286715D01*
X96275907Y-109855000D01*
X96388946Y-110423285D01*
X96710853Y-110905054D01*
X97040026Y-111125000D01*
X96710853Y-111344946D01*
X96388946Y-111826715D01*
X96275907Y-112395000D01*
X96388946Y-112963285D01*
X96710853Y-113445054D01*
X97040026Y-113665000D01*
X96710853Y-113884946D01*
X96388946Y-114366715D01*
X96275907Y-114935000D01*
X96388946Y-115503285D01*
X96710853Y-115985054D01*
X96752452Y-116012850D01*
X96704683Y-116021838D01*
X96488559Y-116160910D01*
X96343569Y-116373110D01*
X96292560Y-116625000D01*
X96292560Y-118325000D01*
X96336838Y-118560317D01*
X96475910Y-118776441D01*
X96688110Y-118921431D01*
X96940000Y-118972440D01*
X98640000Y-118972440D01*
X98875317Y-118928162D01*
X99091441Y-118789090D01*
X99236431Y-118576890D01*
X99287440Y-118325000D01*
X99287440Y-118310000D01*
X108043720Y-118310000D01*
X108413223Y-118680149D01*
X108935826Y-118897152D01*
X109501691Y-118897646D01*
X110024672Y-118681555D01*
X110425149Y-118281777D01*
X110642152Y-117759174D01*
X110642646Y-117193309D01*
X110426555Y-116670328D01*
X110026777Y-116269851D01*
X109870860Y-116205109D01*
X110024672Y-116141555D01*
X110425149Y-115741777D01*
X110642152Y-115219174D01*
X110642646Y-114653309D01*
X110426555Y-114130328D01*
X110026777Y-113729851D01*
X109870860Y-113665109D01*
X110024672Y-113601555D01*
X110425149Y-113201777D01*
X110642152Y-112679174D01*
X110642646Y-112113309D01*
X110426555Y-111590328D01*
X110026777Y-111189851D01*
X109870860Y-111125109D01*
X110024672Y-111061555D01*
X110425149Y-110661777D01*
X110642152Y-110139174D01*
X110642646Y-109573309D01*
X110426555Y-109050328D01*
X110026777Y-108649851D01*
X109870860Y-108585109D01*
X110024672Y-108521555D01*
X110425149Y-108121777D01*
X110642152Y-107599174D01*
X110642646Y-107033309D01*
X110426555Y-106510328D01*
X110026777Y-106109851D01*
X109870860Y-106045109D01*
X110024672Y-105981555D01*
X110425149Y-105581777D01*
X110642152Y-105059174D01*
X110642646Y-104493309D01*
X110426555Y-103970328D01*
X110026777Y-103569851D01*
X109870860Y-103505109D01*
X110024672Y-103441555D01*
X110396877Y-103070000D01*
X110779132Y-103070000D01*
X112195000Y-104485868D01*
X112195000Y-110490000D01*
X112258561Y-110809541D01*
X112401216Y-111023039D01*
X112439566Y-111080434D01*
X123204132Y-121845000D01*
X94684931Y-121845000D01*
X94406019Y-121789521D01*
X94228856Y-121671145D01*
X94110478Y-121493979D01*
X94055000Y-121215070D01*
X94055000Y-89321235D01*
X107785574Y-89321235D01*
X107812959Y-89886438D01*
X107976568Y-90281425D01*
X108221383Y-90354011D01*
X109040395Y-89535000D01*
X109399605Y-89535000D01*
X110218617Y-90354011D01*
X110463432Y-90281425D01*
X110654426Y-89748765D01*
X110627041Y-89183562D01*
X110463432Y-88788575D01*
X110218617Y-88715989D01*
X109399605Y-89535000D01*
X109040395Y-89535000D01*
X108221383Y-88715989D01*
X107976568Y-88788575D01*
X107785574Y-89321235D01*
X94055000Y-89321235D01*
X94055000Y-88389416D01*
X94273690Y-88480000D01*
X94964250Y-88480000D01*
X95123000Y-88321250D01*
X95123000Y-87122000D01*
X95377000Y-87122000D01*
X95377000Y-88321250D01*
X95535750Y-88480000D01*
X96226310Y-88480000D01*
X96459699Y-88383327D01*
X96638327Y-88204698D01*
X96725136Y-87995122D01*
X97023076Y-88266645D01*
X97433110Y-88436476D01*
X97663000Y-88315155D01*
X97663000Y-87122000D01*
X97917000Y-87122000D01*
X97917000Y-88315155D01*
X98146890Y-88436476D01*
X98556924Y-88266645D01*
X98985183Y-87876358D01*
X99060000Y-87717046D01*
X99134817Y-87876358D01*
X99563076Y-88266645D01*
X99973110Y-88436476D01*
X100203000Y-88315155D01*
X100203000Y-87122000D01*
X100457000Y-87122000D01*
X100457000Y-88315155D01*
X100686890Y-88436476D01*
X101096924Y-88266645D01*
X101525183Y-87876358D01*
X101600000Y-87717046D01*
X101674817Y-87876358D01*
X102103076Y-88266645D01*
X102513110Y-88436476D01*
X102743000Y-88315155D01*
X102743000Y-87122000D01*
X102997000Y-87122000D01*
X102997000Y-88315155D01*
X103226890Y-88436476D01*
X103636924Y-88266645D01*
X104065183Y-87876358D01*
X104140000Y-87717046D01*
X104214817Y-87876358D01*
X104643076Y-88266645D01*
X105053110Y-88436476D01*
X105283000Y-88315155D01*
X105283000Y-87122000D01*
X105537000Y-87122000D01*
X105537000Y-88315155D01*
X105766890Y-88436476D01*
X106176924Y-88266645D01*
X106605183Y-87876358D01*
X106851486Y-87351892D01*
X106730819Y-87122000D01*
X105537000Y-87122000D01*
X105283000Y-87122000D01*
X102997000Y-87122000D01*
X102743000Y-87122000D01*
X100457000Y-87122000D01*
X100203000Y-87122000D01*
X97917000Y-87122000D01*
X97663000Y-87122000D01*
X95377000Y-87122000D01*
X95123000Y-87122000D01*
X95103000Y-87122000D01*
X95103000Y-86868000D01*
X95123000Y-86868000D01*
X95123000Y-85668750D01*
X95377000Y-85668750D01*
X95377000Y-86868000D01*
X97663000Y-86868000D01*
X97663000Y-85674845D01*
X97917000Y-85674845D01*
X97917000Y-86868000D01*
X100203000Y-86868000D01*
X100203000Y-85674845D01*
X100457000Y-85674845D01*
X100457000Y-86868000D01*
X102743000Y-86868000D01*
X102743000Y-85674845D01*
X102997000Y-85674845D01*
X102997000Y-86868000D01*
X105283000Y-86868000D01*
X105283000Y-85674845D01*
X105537000Y-85674845D01*
X105537000Y-86868000D01*
X106730819Y-86868000D01*
X106851486Y-86638108D01*
X106605183Y-86113642D01*
X106176924Y-85723355D01*
X105766890Y-85553524D01*
X105537000Y-85674845D01*
X105283000Y-85674845D01*
X105053110Y-85553524D01*
X104643076Y-85723355D01*
X104214817Y-86113642D01*
X104140000Y-86272954D01*
X104065183Y-86113642D01*
X103636924Y-85723355D01*
X103226890Y-85553524D01*
X102997000Y-85674845D01*
X102743000Y-85674845D01*
X102513110Y-85553524D01*
X102103076Y-85723355D01*
X101674817Y-86113642D01*
X101600000Y-86272954D01*
X101525183Y-86113642D01*
X101096924Y-85723355D01*
X100686890Y-85553524D01*
X100457000Y-85674845D01*
X100203000Y-85674845D01*
X99973110Y-85553524D01*
X99563076Y-85723355D01*
X99134817Y-86113642D01*
X99060000Y-86272954D01*
X98985183Y-86113642D01*
X98556924Y-85723355D01*
X98146890Y-85553524D01*
X97917000Y-85674845D01*
X97663000Y-85674845D01*
X97433110Y-85553524D01*
X97023076Y-85723355D01*
X96725136Y-85994878D01*
X96638327Y-85785302D01*
X96459699Y-85606673D01*
X96226310Y-85510000D01*
X95535750Y-85510000D01*
X95377000Y-85668750D01*
X95123000Y-85668750D01*
X94964250Y-85510000D01*
X94273690Y-85510000D01*
X94055000Y-85600584D01*
X94055000Y-82835750D01*
X98060510Y-82835750D01*
X98060510Y-83675799D01*
X98157183Y-83909188D01*
X98335811Y-84087817D01*
X98569200Y-84184490D01*
X99409250Y-84184490D01*
X99568000Y-84025740D01*
X99568000Y-82677000D01*
X99822000Y-82677000D01*
X99822000Y-84025740D01*
X99980750Y-84184490D01*
X100820800Y-84184490D01*
X101054189Y-84087817D01*
X101232817Y-83909188D01*
X101329490Y-83675799D01*
X101329490Y-82835750D01*
X101170740Y-82677000D01*
X99822000Y-82677000D01*
X99568000Y-82677000D01*
X98219260Y-82677000D01*
X98060510Y-82835750D01*
X94055000Y-82835750D01*
X94055000Y-81424201D01*
X98060510Y-81424201D01*
X98060510Y-82264250D01*
X98219260Y-82423000D01*
X99568000Y-82423000D01*
X99568000Y-80137000D01*
X99822000Y-80137000D01*
X99822000Y-82423000D01*
X101170740Y-82423000D01*
X101329490Y-82264250D01*
X101329490Y-82196691D01*
X107797354Y-82196691D01*
X108013445Y-82719672D01*
X108413223Y-83120149D01*
X108569140Y-83184891D01*
X108415328Y-83248445D01*
X108014851Y-83648223D01*
X107797848Y-84170826D01*
X107797354Y-84736691D01*
X108013445Y-85259672D01*
X108413223Y-85660149D01*
X108569140Y-85724891D01*
X108415328Y-85788445D01*
X108014851Y-86188223D01*
X107797848Y-86710826D01*
X107797354Y-87276691D01*
X108013445Y-87799672D01*
X108413223Y-88200149D01*
X108553578Y-88258429D01*
X108473575Y-88291568D01*
X108400989Y-88536383D01*
X109220000Y-89355395D01*
X110039011Y-88536383D01*
X109966425Y-88291568D01*
X109880976Y-88260929D01*
X110024672Y-88201555D01*
X110425149Y-87801777D01*
X110642152Y-87279174D01*
X110642646Y-86713309D01*
X110426555Y-86190328D01*
X110026777Y-85789851D01*
X109870860Y-85725109D01*
X110024672Y-85661555D01*
X110425149Y-85261777D01*
X110642152Y-84739174D01*
X110642586Y-84241235D01*
X123025574Y-84241235D01*
X123052959Y-84806438D01*
X123216568Y-85201425D01*
X123461383Y-85274011D01*
X124280395Y-84455000D01*
X123461383Y-83635989D01*
X123216568Y-83708575D01*
X123025574Y-84241235D01*
X110642586Y-84241235D01*
X110642646Y-84173309D01*
X110426555Y-83650328D01*
X110026777Y-83249851D01*
X109870860Y-83185109D01*
X110024672Y-83121555D01*
X110425149Y-82721777D01*
X110642152Y-82199174D01*
X110642154Y-82196691D01*
X123037354Y-82196691D01*
X123253445Y-82719672D01*
X123653223Y-83120149D01*
X123793578Y-83178429D01*
X123713575Y-83211568D01*
X123640989Y-83456383D01*
X124460000Y-84275395D01*
X124474142Y-84261252D01*
X124653748Y-84440858D01*
X124639605Y-84455000D01*
X125458617Y-85274011D01*
X125703432Y-85201425D01*
X125894426Y-84668765D01*
X125867041Y-84103562D01*
X125703432Y-83708575D01*
X125458619Y-83635989D01*
X125509608Y-83585000D01*
X129085794Y-83585000D01*
X129095853Y-83600054D01*
X129140000Y-83629552D01*
X129140000Y-84010448D01*
X129095853Y-84039946D01*
X128773946Y-84521715D01*
X128660907Y-85090000D01*
X128773946Y-85658285D01*
X129095853Y-86140054D01*
X129577622Y-86461961D01*
X130145907Y-86575000D01*
X130204093Y-86575000D01*
X130772378Y-86461961D01*
X131254147Y-86140054D01*
X131576054Y-85658285D01*
X131689093Y-85090000D01*
X131576054Y-84521715D01*
X131254147Y-84039946D01*
X131210000Y-84010448D01*
X131210000Y-83629552D01*
X131254147Y-83600054D01*
X131264206Y-83585000D01*
X134878070Y-83585000D01*
X134878070Y-84819490D01*
X134922348Y-85054807D01*
X135061420Y-85270931D01*
X135273620Y-85415921D01*
X135525510Y-85466930D01*
X137524490Y-85466930D01*
X137759807Y-85422652D01*
X137975931Y-85283580D01*
X138120921Y-85071380D01*
X138171930Y-84819490D01*
X138171930Y-82820510D01*
X138160000Y-82757108D01*
X138160000Y-81280000D01*
X138159490Y-81277436D01*
X138159490Y-81247978D01*
X138035072Y-80622486D01*
X137680759Y-80092219D01*
X137150492Y-79737906D01*
X136525000Y-79613488D01*
X135899508Y-79737906D01*
X135369241Y-80092219D01*
X135014928Y-80622486D01*
X134890510Y-81247978D01*
X134890510Y-81277436D01*
X134890000Y-81280000D01*
X134890000Y-81451288D01*
X134826288Y-81515000D01*
X131264206Y-81515000D01*
X131254147Y-81499946D01*
X131212548Y-81472150D01*
X131260317Y-81463162D01*
X131476441Y-81324090D01*
X131621431Y-81111890D01*
X131672440Y-80860000D01*
X131672440Y-79160000D01*
X131628162Y-78924683D01*
X131489090Y-78708559D01*
X131276890Y-78563569D01*
X131025000Y-78512560D01*
X129325000Y-78512560D01*
X129089683Y-78556838D01*
X128873559Y-78695910D01*
X128728569Y-78908110D01*
X128677560Y-79160000D01*
X128677560Y-80860000D01*
X128721838Y-81095317D01*
X128860910Y-81311441D01*
X129073110Y-81456431D01*
X129140000Y-81469977D01*
X129140000Y-81470448D01*
X129095853Y-81499946D01*
X129085794Y-81515000D01*
X125833762Y-81515000D01*
X125666555Y-81110328D01*
X125266777Y-80709851D01*
X124744174Y-80492848D01*
X124178309Y-80492354D01*
X123655328Y-80708445D01*
X123254851Y-81108223D01*
X123037848Y-81630826D01*
X123037354Y-82196691D01*
X110642154Y-82196691D01*
X110642646Y-81633309D01*
X110426555Y-81110328D01*
X110026777Y-80709851D01*
X109504174Y-80492848D01*
X108938309Y-80492354D01*
X108415328Y-80708445D01*
X108014851Y-81108223D01*
X107797848Y-81630826D01*
X107797354Y-82196691D01*
X101329490Y-82196691D01*
X101329490Y-81424201D01*
X101232817Y-81190812D01*
X101054189Y-81012183D01*
X100997549Y-80988722D01*
X101018068Y-80969726D01*
X101284627Y-80390355D01*
X101165807Y-80137000D01*
X99822000Y-80137000D01*
X99568000Y-80137000D01*
X98224193Y-80137000D01*
X98105373Y-80390355D01*
X98371932Y-80969726D01*
X98392451Y-80988722D01*
X98335811Y-81012183D01*
X98157183Y-81190812D01*
X98060510Y-81424201D01*
X94055000Y-81424201D01*
X94055000Y-79629645D01*
X98105373Y-79629645D01*
X98224193Y-79883000D01*
X99568000Y-79883000D01*
X99568000Y-78539735D01*
X99822000Y-78539735D01*
X99822000Y-79883000D01*
X101165807Y-79883000D01*
X101284627Y-79629645D01*
X101018068Y-79050274D01*
X100550084Y-78617013D01*
X100075354Y-78420381D01*
X99822000Y-78539735D01*
X99568000Y-78539735D01*
X99314646Y-78420381D01*
X98839916Y-78617013D01*
X98371932Y-79050274D01*
X98105373Y-79629645D01*
X94055000Y-79629645D01*
X94055000Y-78174930D01*
X94110478Y-77896021D01*
X94228856Y-77718855D01*
X94406019Y-77600479D01*
X94684931Y-77545000D01*
X140265070Y-77545000D01*
X140543979Y-77600478D01*
M02*
