M48
;DRILL file {KiCad 4.0.7-e2-6376~61~ubuntu18.04.1} date Tue May 28 20:38:22 2019
;FORMAT={-:-/ absolute / metric / decimal}
FMAT,2
METRIC,TZ
T1C0.600
T2C0.762
T3C0.800
T4C0.900
T5C1.000
%
G90
G05
M71
T1
X121.666Y-100.61
T2
X173.99Y-103.378
X173.99Y-116.078
X174.498Y-123.698
X174.498Y-136.398
X176.53Y-103.378
X176.53Y-116.078
X177.038Y-123.698
X177.038Y-136.398
X179.07Y-103.378
X179.07Y-116.078
X179.578Y-123.698
X179.578Y-136.398
X181.61Y-103.378
X181.61Y-116.078
X182.118Y-123.698
X182.118Y-136.398
X184.15Y-103.378
X184.15Y-116.078
X184.658Y-123.698
X184.658Y-136.398
X186.69Y-103.378
X186.69Y-116.078
X187.198Y-123.698
X187.198Y-136.398
X189.23Y-103.378
X189.23Y-116.078
X189.738Y-123.698
X189.738Y-136.398
X191.77Y-103.378
X191.77Y-116.078
X192.278Y-123.698
X192.278Y-136.398
T3
X97.028Y-134.62
X97.282Y-143.764
X100.35Y-135.378
X100.35Y-137.878
X100.35Y-141.22
X100.35Y-143.72
X105.43Y-122.892
X105.43Y-125.432
X105.43Y-127.972
X105.43Y-130.512
X105.43Y-133.052
X105.43Y-135.592
X105.43Y-138.132
X105.43Y-140.672
X105.43Y-143.212
X106.7Y-108.16
X106.7Y-110.7
X106.7Y-113.24
X106.7Y-115.78
X113.05Y-122.892
X113.05Y-125.432
X113.05Y-127.972
X113.05Y-130.512
X113.05Y-133.052
X113.05Y-135.592
X113.05Y-138.132
X113.05Y-140.672
X113.05Y-143.212
X114.32Y-108.16
X114.32Y-110.7
X114.32Y-113.24
X114.32Y-115.78
X116.86Y-104.35
X117.602Y-122.174
X119.4Y-108.16
X119.4Y-115.78
X119.908Y-133.56
X119.908Y-141.18
X122.956Y-133.56
X122.956Y-141.18
X124.48Y-104.35
X130.83Y-101.81
X130.83Y-104.31
X135.91Y-101.81
X135.91Y-104.31
X141.986Y-110.998
X147.34Y-103.08
X147.34Y-105.62
X147.34Y-108.16
X147.34Y-110.7
X147.34Y-113.24
X147.34Y-115.78
X147.34Y-118.32
X147.34Y-120.86
X147.34Y-123.4
X147.34Y-125.94
X147.34Y-128.48
X147.34Y-131.02
X147.34Y-133.56
X147.34Y-136.1
X147.34Y-138.64
X155.448Y-97.536
X157.734Y-136.906
X162.58Y-103.08
X162.58Y-105.62
X162.58Y-108.16
X162.58Y-110.7
X162.58Y-113.24
X162.58Y-115.78
X162.58Y-118.32
X162.58Y-120.86
X162.58Y-123.4
X162.58Y-125.94
X162.58Y-128.48
X162.58Y-131.02
X162.58Y-133.56
X162.58Y-136.1
X162.58Y-138.64
X163.068Y-144.272
X173.736Y-144.145
X181.356Y-144.145
X189.23Y-106.426
X193.04Y-119.38
T4
X117.368Y-144.228
X119.908Y-144.228
X124.226Y-144.228
X126.766Y-144.228
X168.529Y-144.145
X171.069Y-144.145
T5
X94.Y-95.46
X94.Y-98.
X96.54Y-95.46
X96.54Y-98.
X99.08Y-95.46
X99.08Y-98.
X101.62Y-95.46
X101.62Y-98.
X104.16Y-95.46
X104.16Y-98.
X106.7Y-95.46
X106.7Y-98.
X109.24Y-95.46
X109.24Y-98.
X111.78Y-95.46
X111.78Y-98.
X114.32Y-95.46
X114.32Y-98.
X116.86Y-95.46
X116.86Y-98.
X119.4Y-95.46
X119.4Y-98.
X121.94Y-95.46
X121.94Y-98.
X124.48Y-95.46
X124.48Y-98.
X127.02Y-95.46
X127.02Y-98.
X129.56Y-95.46
X129.56Y-98.
X132.1Y-95.46
X132.1Y-98.
X133.22Y-139.22
X133.22Y-143.72
X137.16Y-127.
X137.16Y-129.54
X137.16Y-132.08
X139.7Y-127.
X139.7Y-129.54
X139.7Y-132.08
X139.72Y-139.22
X139.72Y-143.72
X142.24Y-127.
X142.24Y-129.54
X142.24Y-132.08
X144.272Y-113.284
X144.272Y-115.824
X144.272Y-118.364
X166.624Y-113.284
X166.624Y-115.824
X166.624Y-118.364
X166.624Y-120.904
X167.64Y-97.536
X167.64Y-100.076
X179.07Y-99.822
X179.578Y-120.142
X181.61Y-99.822
X182.118Y-120.142
X184.15Y-99.822
X184.658Y-120.142
X185.42Y-144.78
X186.69Y-99.822
X187.198Y-120.142
X190.5Y-144.78
T0
M30
