G04 #@! TF.FileFunction,Copper,L2,Bot,Signal*
%FSLAX46Y46*%
G04 Gerber Fmt 4.6, Leading zero omitted, Abs format (unit mm)*
G04 Created by KiCad (PCBNEW 4.0.7-e2-6376~61~ubuntu18.04.1) date Tue May 28 20:38:26 2019*
%MOMM*%
%LPD*%
G01*
G04 APERTURE LIST*
%ADD10C,0.100000*%
%ADD11C,2.000000*%
%ADD12C,1.574800*%
%ADD13C,1.600000*%
%ADD14R,1.600000X1.600000*%
%ADD15R,1.800000X1.800000*%
%ADD16C,1.800000*%
%ADD17O,1.600000X1.600000*%
%ADD18C,1.700000*%
%ADD19R,2.400000X1.600000*%
%ADD20O,2.400000X1.600000*%
%ADD21R,1.700000X1.700000*%
%ADD22O,1.700000X1.700000*%
%ADD23C,1.524000*%
%ADD24C,1.200000*%
%ADD25C,0.900000*%
%ADD26C,0.400000*%
%ADD27C,0.700000*%
%ADD28C,1.000000*%
%ADD29C,0.254000*%
G04 APERTURE END LIST*
D10*
D11*
X139700000Y-132080000D03*
X139700000Y-129540000D03*
X137160000Y-132080000D03*
X137160000Y-129540000D03*
D12*
X162580000Y-103080000D03*
X147340000Y-103080000D03*
X162580000Y-105620000D03*
X147340000Y-105620000D03*
X162580000Y-108160000D03*
X147340000Y-108160000D03*
X162580000Y-110700000D03*
X147340000Y-110700000D03*
X162580000Y-113240000D03*
X147340000Y-113240000D03*
X162580000Y-115780000D03*
X147340000Y-115780000D03*
X162580000Y-118320000D03*
X147340000Y-118320000D03*
X162580000Y-120860000D03*
X147340000Y-120860000D03*
X162580000Y-123400000D03*
X147340000Y-123400000D03*
X162580000Y-125940000D03*
X147340000Y-125940000D03*
X162580000Y-128480000D03*
X147340000Y-128480000D03*
X162580000Y-131020000D03*
X147340000Y-131020000D03*
X162580000Y-133560000D03*
X147340000Y-133560000D03*
X162580000Y-136100000D03*
X147340000Y-136100000D03*
X162580000Y-138640000D03*
X147340000Y-138640000D03*
D13*
X100350000Y-137878000D03*
X100350000Y-135378000D03*
X100350000Y-143720000D03*
X100350000Y-141220000D03*
D14*
X135910000Y-101810000D03*
D13*
X135910000Y-104310000D03*
X130830000Y-101810000D03*
X130830000Y-104310000D03*
D15*
X168529000Y-144145000D03*
D16*
X171069000Y-144145000D03*
D15*
X124226000Y-144228000D03*
D16*
X126766000Y-144228000D03*
D15*
X117368000Y-144228000D03*
D16*
X119908000Y-144228000D03*
D13*
X116860000Y-104350000D03*
D17*
X124480000Y-104350000D03*
D13*
X119400000Y-108160000D03*
D17*
X119400000Y-115780000D03*
D13*
X173736000Y-144145000D03*
D17*
X181356000Y-144145000D03*
D13*
X122956000Y-141180000D03*
D17*
X122956000Y-133560000D03*
D13*
X119908000Y-141180000D03*
D17*
X119908000Y-133560000D03*
D18*
X133220000Y-139220000D03*
X139720000Y-139220000D03*
X133220000Y-143720000D03*
X139720000Y-143720000D03*
D19*
X105430000Y-122892000D03*
D20*
X113050000Y-143212000D03*
X105430000Y-125432000D03*
X113050000Y-140672000D03*
X105430000Y-127972000D03*
X113050000Y-138132000D03*
X105430000Y-130512000D03*
X113050000Y-135592000D03*
X105430000Y-133052000D03*
X113050000Y-133052000D03*
X105430000Y-135592000D03*
X113050000Y-130512000D03*
X105430000Y-138132000D03*
X113050000Y-127972000D03*
X105430000Y-140672000D03*
X113050000Y-125432000D03*
X105430000Y-143212000D03*
X113050000Y-122892000D03*
D21*
X94000000Y-98000000D03*
D22*
X94000000Y-95460000D03*
X96540000Y-98000000D03*
X96540000Y-95460000D03*
X99080000Y-98000000D03*
X99080000Y-95460000D03*
X101620000Y-98000000D03*
X101620000Y-95460000D03*
X104160000Y-98000000D03*
X104160000Y-95460000D03*
X106700000Y-98000000D03*
X106700000Y-95460000D03*
X109240000Y-98000000D03*
X109240000Y-95460000D03*
X111780000Y-98000000D03*
X111780000Y-95460000D03*
X114320000Y-98000000D03*
X114320000Y-95460000D03*
X116860000Y-98000000D03*
X116860000Y-95460000D03*
X119400000Y-98000000D03*
X119400000Y-95460000D03*
X121940000Y-98000000D03*
X121940000Y-95460000D03*
X124480000Y-98000000D03*
X124480000Y-95460000D03*
X127020000Y-98000000D03*
X127020000Y-95460000D03*
X129560000Y-98000000D03*
X129560000Y-95460000D03*
X132100000Y-98000000D03*
X132100000Y-95460000D03*
D14*
X106700000Y-108160000D03*
D17*
X114320000Y-115780000D03*
X106700000Y-110700000D03*
X114320000Y-113240000D03*
X106700000Y-113240000D03*
X114320000Y-110700000D03*
X106700000Y-115780000D03*
X114320000Y-108160000D03*
D21*
X167640000Y-97536000D03*
D22*
X167640000Y-100076000D03*
D21*
X166624000Y-113284000D03*
D22*
X166624000Y-115824000D03*
X166624000Y-118364000D03*
X166624000Y-120904000D03*
D21*
X144272000Y-118364000D03*
D22*
X144272000Y-115824000D03*
X144272000Y-113284000D03*
D21*
X142240000Y-132080000D03*
D22*
X142240000Y-129540000D03*
X142240000Y-127000000D03*
D21*
X187198000Y-120142000D03*
D22*
X184658000Y-120142000D03*
X182118000Y-120142000D03*
X179578000Y-120142000D03*
D21*
X186690000Y-99822000D03*
D22*
X184150000Y-99822000D03*
X181610000Y-99822000D03*
X179070000Y-99822000D03*
D23*
X174498000Y-136398000D03*
X177038000Y-136398000D03*
X179578000Y-136398000D03*
X182118000Y-136398000D03*
X184658000Y-136398000D03*
X187198000Y-136398000D03*
X189738000Y-136398000D03*
X192278000Y-136398000D03*
X192278000Y-123698000D03*
X189738000Y-123698000D03*
X187198000Y-123698000D03*
X184658000Y-123698000D03*
X177038000Y-123698000D03*
X174498000Y-123698000D03*
X182118000Y-123698000D03*
X179578000Y-123698000D03*
X173990000Y-116078000D03*
X176530000Y-116078000D03*
X179070000Y-116078000D03*
X181610000Y-116078000D03*
X184150000Y-116078000D03*
X186690000Y-116078000D03*
X189230000Y-116078000D03*
X191770000Y-116078000D03*
X191770000Y-103378000D03*
X189230000Y-103378000D03*
X186690000Y-103378000D03*
X184150000Y-103378000D03*
X176530000Y-103378000D03*
X173990000Y-103378000D03*
X181610000Y-103378000D03*
X179070000Y-103378000D03*
D11*
X185420000Y-144780000D03*
X190500000Y-144780000D03*
X139700000Y-127000000D03*
X137160000Y-127000000D03*
D24*
X117602000Y-122174000D03*
X141986000Y-110998000D03*
X163068000Y-144272000D03*
X157734000Y-136906000D03*
X189230000Y-106426000D03*
X193040000Y-119380000D03*
X97028000Y-134620000D03*
X97282000Y-143764000D03*
X155448000Y-97536000D03*
D25*
X121666000Y-100609998D03*
D26*
X147340000Y-108160000D02*
X144824000Y-108160000D01*
X111208000Y-125432000D02*
X113050000Y-125432000D01*
X109982000Y-124206000D02*
X111208000Y-125432000D01*
X109982000Y-122682000D02*
X109982000Y-124206000D01*
X112014000Y-120650000D02*
X109982000Y-122682000D01*
X116078000Y-120650000D02*
X112014000Y-120650000D01*
X117602000Y-122174000D02*
X116078000Y-120650000D01*
X144824000Y-108160000D02*
X141986000Y-110998000D01*
X139720000Y-143720000D02*
X147848000Y-143720000D01*
X150388000Y-108160000D02*
X147340000Y-108160000D01*
X152674000Y-110446000D02*
X150388000Y-108160000D01*
X152674000Y-138894000D02*
X152674000Y-110446000D01*
X147848000Y-143720000D02*
X152674000Y-138894000D01*
X162580000Y-110700000D02*
X160572000Y-110700000D01*
X163195000Y-144145000D02*
X168529000Y-144145000D01*
X163068000Y-144272000D02*
X163195000Y-144145000D01*
X157734000Y-113538000D02*
X157734000Y-136906000D01*
X160572000Y-110700000D02*
X157734000Y-113538000D01*
X189738000Y-123698000D02*
X189738000Y-122682000D01*
X189230000Y-106426000D02*
X189230000Y-103378000D01*
X189738000Y-122682000D02*
X193040000Y-119380000D01*
X162580000Y-110700000D02*
X163366000Y-110700000D01*
X163366000Y-110700000D02*
X176530000Y-97536000D01*
X176530000Y-97536000D02*
X187960000Y-97536000D01*
X187960000Y-97536000D02*
X189230000Y-98806000D01*
X189230000Y-98806000D02*
X189230000Y-103378000D01*
X189738000Y-123698000D02*
X189738000Y-123444000D01*
D27*
X127020000Y-125940000D02*
X126956000Y-125940000D01*
X126956000Y-125940000D02*
X123952000Y-122936000D01*
X125012000Y-110700000D02*
X127020000Y-110700000D01*
X123952000Y-111760000D02*
X125012000Y-110700000D01*
X123952000Y-122936000D02*
X123952000Y-111760000D01*
D26*
X122956000Y-133560000D02*
X119908000Y-133560000D01*
X127020000Y-125940000D02*
X122956000Y-130004000D01*
X122956000Y-130004000D02*
X122956000Y-133560000D01*
X114320000Y-98000000D02*
X106954000Y-105366000D01*
X104922000Y-113240000D02*
X106700000Y-113240000D01*
X103398000Y-111716000D02*
X104922000Y-113240000D01*
X103398000Y-107144000D02*
X103398000Y-111716000D01*
X105176000Y-105366000D02*
X103398000Y-107144000D01*
X106954000Y-105366000D02*
X105176000Y-105366000D01*
D27*
X135910000Y-101810000D02*
X142768000Y-101810000D01*
X160294000Y-110700000D02*
X162580000Y-110700000D01*
X150388000Y-100794000D02*
X160294000Y-110700000D01*
X143784000Y-100794000D02*
X150388000Y-100794000D01*
X142768000Y-101810000D02*
X143784000Y-100794000D01*
D26*
X119400000Y-125940000D02*
X118638000Y-125940000D01*
X118638000Y-125940000D02*
X115590000Y-122892000D01*
X115590000Y-122892000D02*
X113050000Y-122892000D01*
D27*
X127020000Y-110700000D02*
X127020000Y-105620000D01*
X127020000Y-105620000D02*
X130830000Y-101810000D01*
D26*
X119400000Y-125940000D02*
X123210000Y-125940000D01*
X123210000Y-125940000D02*
X127020000Y-125940000D01*
D28*
X135910000Y-101810000D02*
X130830000Y-101810000D01*
X130830000Y-101810000D02*
X116860000Y-101810000D01*
X116860000Y-101810000D02*
X114320000Y-99270000D01*
X114320000Y-99270000D02*
X114320000Y-98000000D01*
X114320000Y-95460000D02*
X114320000Y-98000000D01*
D26*
X166624000Y-113284000D02*
X162624000Y-113284000D01*
X162624000Y-113284000D02*
X162580000Y-113240000D01*
X162580000Y-115780000D02*
X166580000Y-115780000D01*
X166580000Y-115780000D02*
X166624000Y-115824000D01*
X147340000Y-133560000D02*
X145816000Y-133560000D01*
X115082000Y-127972000D02*
X113050000Y-127972000D01*
X117114000Y-130004000D02*
X115082000Y-127972000D01*
X117114000Y-135338000D02*
X117114000Y-130004000D01*
X117876000Y-136100000D02*
X117114000Y-135338000D01*
X129306000Y-136100000D02*
X117876000Y-136100000D01*
X130576000Y-137370000D02*
X129306000Y-136100000D01*
X142006000Y-137370000D02*
X130576000Y-137370000D01*
X145816000Y-133560000D02*
X142006000Y-137370000D01*
X113050000Y-135592000D02*
X116860000Y-139402000D01*
X116860000Y-139402000D02*
X117876000Y-139402000D01*
X117876000Y-139402000D02*
X127528000Y-139402000D01*
X130576000Y-144482000D02*
X131719000Y-145625000D01*
X130576000Y-142450000D02*
X130576000Y-144482000D01*
X127528000Y-139402000D02*
X130576000Y-142450000D01*
X160040000Y-138640000D02*
X162580000Y-138640000D01*
X153055000Y-145625000D02*
X160040000Y-138640000D01*
X131719000Y-145625000D02*
X153055000Y-145625000D01*
X113050000Y-130512000D02*
X115082000Y-130512000D01*
X116098000Y-131528000D02*
X116098000Y-135592000D01*
X116098000Y-135592000D02*
X117622000Y-137116000D01*
X117622000Y-137116000D02*
X128671000Y-137116000D01*
X128671000Y-137116000D02*
X132481000Y-140926000D01*
X132481000Y-140926000D02*
X145054000Y-140926000D01*
X145054000Y-140926000D02*
X147340000Y-138640000D01*
X115082000Y-130512000D02*
X116098000Y-131528000D01*
X97028000Y-134620000D02*
X100286000Y-137878000D01*
X100286000Y-137878000D02*
X105176000Y-137878000D01*
X105176000Y-137878000D02*
X105430000Y-138132000D01*
X100350000Y-143720000D02*
X97326000Y-143720000D01*
X97326000Y-143720000D02*
X97282000Y-143764000D01*
X105430000Y-140672000D02*
X103398000Y-140672000D01*
X103398000Y-140672000D02*
X100350000Y-143720000D01*
X124226000Y-144228000D02*
X122448000Y-144228000D01*
X106954000Y-125432000D02*
X105430000Y-125432000D01*
X109240000Y-127718000D02*
X106954000Y-125432000D01*
X109240000Y-144736000D02*
X109240000Y-127718000D01*
X110510000Y-146006000D02*
X109240000Y-144736000D01*
X120670000Y-146006000D02*
X110510000Y-146006000D01*
X122448000Y-144228000D02*
X120670000Y-146006000D01*
X105430000Y-125432000D02*
X102636000Y-125432000D01*
X103906000Y-115780000D02*
X106700000Y-115780000D01*
X101112000Y-118574000D02*
X103906000Y-115780000D01*
X101112000Y-123908000D02*
X101112000Y-118574000D01*
X102636000Y-125432000D02*
X101112000Y-123908000D01*
X126766000Y-142196000D02*
X126766000Y-144228000D01*
X125750000Y-141180000D02*
X126766000Y-142196000D01*
X122956000Y-141180000D02*
X125750000Y-141180000D01*
X105430000Y-122892000D02*
X105430000Y-121622000D01*
X108732000Y-108160000D02*
X106700000Y-108160000D01*
X110256000Y-109684000D02*
X108732000Y-108160000D01*
X110256000Y-116796000D02*
X110256000Y-109684000D01*
X105430000Y-121622000D02*
X110256000Y-116796000D01*
X117368000Y-144228000D02*
X115844000Y-144228000D01*
X106700000Y-122892000D02*
X105430000Y-122892000D01*
X110256000Y-126448000D02*
X106700000Y-122892000D01*
X110256000Y-143720000D02*
X110256000Y-126448000D01*
X111526000Y-144990000D02*
X110256000Y-143720000D01*
X115082000Y-144990000D02*
X111526000Y-144990000D01*
X115844000Y-144228000D02*
X115082000Y-144990000D01*
X119908000Y-141180000D02*
X119908000Y-144228000D01*
X114320000Y-108160000D02*
X114320000Y-106890000D01*
X114320000Y-106890000D02*
X116860000Y-104350000D01*
X113050000Y-133052000D02*
X114574000Y-133052000D01*
X114574000Y-133052000D02*
X115336000Y-133814000D01*
X115336000Y-133814000D02*
X115336000Y-136862000D01*
X115336000Y-136862000D02*
X116606000Y-138132000D01*
X116606000Y-138132000D02*
X128290000Y-138132000D01*
X128290000Y-138132000D02*
X132100000Y-141942000D01*
X132100000Y-141942000D02*
X147848000Y-141942000D01*
X147848000Y-141942000D02*
X149626000Y-140164000D01*
X149626000Y-140164000D02*
X149626000Y-136862000D01*
X149626000Y-136862000D02*
X148864000Y-136100000D01*
X148864000Y-136100000D02*
X147340000Y-136100000D01*
X114320000Y-110700000D02*
X116860000Y-110700000D01*
X116860000Y-110700000D02*
X119400000Y-108160000D01*
X114320000Y-113240000D02*
X116860000Y-113240000D01*
X116860000Y-113240000D02*
X119400000Y-115780000D01*
X155448000Y-97536000D02*
X167640000Y-97536000D01*
X132100000Y-98000000D02*
X132100000Y-95460000D01*
X166624000Y-118364000D02*
X162624000Y-118364000D01*
X162624000Y-118364000D02*
X162580000Y-118320000D01*
X162580000Y-120860000D02*
X166580000Y-120860000D01*
X166580000Y-120860000D02*
X166624000Y-120904000D01*
D28*
X174498000Y-136398000D02*
X174498000Y-139446000D01*
X147340000Y-120860000D02*
X150832000Y-120860000D01*
X150832000Y-120860000D02*
X150876000Y-120904000D01*
D26*
X191770000Y-116078000D02*
X191770000Y-115062000D01*
X168192000Y-123400000D02*
X162580000Y-123400000D01*
X168910000Y-122682000D02*
X168192000Y-123400000D01*
X168910000Y-115062000D02*
X168910000Y-122682000D01*
X172466000Y-111506000D02*
X168910000Y-115062000D01*
X188214000Y-111506000D02*
X172466000Y-111506000D01*
X191770000Y-115062000D02*
X188214000Y-111506000D01*
D28*
X147340000Y-123400000D02*
X150832000Y-123400000D01*
X150832000Y-123400000D02*
X150876000Y-123444000D01*
X173990000Y-116078000D02*
X173990000Y-119126000D01*
D26*
X189230000Y-116078000D02*
X189230000Y-113792000D01*
X166668000Y-125940000D02*
X162580000Y-125940000D01*
X169672000Y-122936000D02*
X166668000Y-125940000D01*
X169672000Y-115570000D02*
X169672000Y-122936000D01*
X172974000Y-112268000D02*
X169672000Y-115570000D01*
X187706000Y-112268000D02*
X172974000Y-112268000D01*
X189230000Y-113792000D02*
X187706000Y-112268000D01*
X162580000Y-128480000D02*
X184360000Y-128480000D01*
X184360000Y-128480000D02*
X192278000Y-136398000D01*
X147340000Y-128480000D02*
X146705000Y-128480000D01*
X162580000Y-131020000D02*
X184360000Y-131020000D01*
X184360000Y-131020000D02*
X189738000Y-136398000D01*
X187198000Y-120142000D02*
X187198000Y-123698000D01*
X184658000Y-120142000D02*
X184658000Y-123698000D01*
X182118000Y-123698000D02*
X182118000Y-120142000D01*
X179578000Y-120142000D02*
X179578000Y-123698000D01*
X186690000Y-99822000D02*
X186690000Y-103378000D01*
X184150000Y-99822000D02*
X184150000Y-103378000D01*
X181610000Y-99822000D02*
X181610000Y-103378000D01*
X179070000Y-103378000D02*
X179070000Y-99822000D01*
D28*
X104160000Y-98000000D02*
X104160000Y-95460000D01*
D27*
X173990000Y-103378000D02*
X173990000Y-105918000D01*
X176276000Y-108204000D02*
X195834000Y-108204000D01*
X173990000Y-105918000D02*
X176276000Y-108204000D01*
X174498000Y-123698000D02*
X174498000Y-125730000D01*
X175768000Y-127000000D02*
X195834000Y-127000000D01*
X174498000Y-125730000D02*
X175768000Y-127000000D01*
D28*
X190500000Y-144780000D02*
X193802000Y-144780000D01*
X127990002Y-100609998D02*
X121666000Y-100609998D01*
X128524000Y-100076000D02*
X127990002Y-100609998D01*
X133350000Y-100076000D02*
X128524000Y-100076000D01*
X140208000Y-93218000D02*
X133350000Y-100076000D01*
X192278000Y-93218000D02*
X140208000Y-93218000D01*
X195834000Y-96774000D02*
X192278000Y-93218000D01*
X195834000Y-142748000D02*
X195834000Y-127000000D01*
X195834000Y-127000000D02*
X195834000Y-108204000D01*
X195834000Y-108204000D02*
X195834000Y-96774000D01*
X193802000Y-144780000D02*
X195834000Y-142748000D01*
X119400000Y-98000000D02*
X119400000Y-100056000D01*
X119400000Y-100056000D02*
X119380000Y-100076000D01*
X119400000Y-95460000D02*
X119400000Y-98000000D01*
X139700000Y-127000000D02*
X139700000Y-117094000D01*
X139700000Y-117094000D02*
X130810000Y-108204000D01*
X139700000Y-129540000D02*
X139700000Y-132080000D01*
X139700000Y-127000000D02*
X139700000Y-129540000D01*
D29*
G36*
X194699000Y-142277868D02*
X193331868Y-143645000D01*
X191677204Y-143645000D01*
X191427363Y-143394722D01*
X190826648Y-143145284D01*
X190176205Y-143144716D01*
X189575057Y-143393106D01*
X189114722Y-143852637D01*
X188865284Y-144453352D01*
X188864716Y-145103795D01*
X189113106Y-145704943D01*
X189572637Y-146165278D01*
X189873002Y-146290000D01*
X186075505Y-146290000D01*
X186294264Y-146199387D01*
X186392927Y-145932532D01*
X185420000Y-144959605D01*
X184447073Y-145932532D01*
X184545736Y-146199387D01*
X184789638Y-146290000D01*
X153533838Y-146290000D01*
X153645434Y-146215434D01*
X155344289Y-144516579D01*
X161832786Y-144516579D01*
X162020408Y-144970657D01*
X162367515Y-145318371D01*
X162821266Y-145506785D01*
X163312579Y-145507214D01*
X163766657Y-145319592D01*
X164106843Y-144980000D01*
X166981560Y-144980000D01*
X166981560Y-145045000D01*
X167025838Y-145280317D01*
X167164910Y-145496441D01*
X167377110Y-145641431D01*
X167629000Y-145692440D01*
X169429000Y-145692440D01*
X169664317Y-145648162D01*
X169880441Y-145509090D01*
X170025431Y-145296890D01*
X170029567Y-145276466D01*
X170198357Y-145445551D01*
X170762330Y-145679733D01*
X171372991Y-145680265D01*
X171937371Y-145447068D01*
X172369551Y-145015643D01*
X172456525Y-144806187D01*
X172518757Y-144956800D01*
X172922077Y-145360824D01*
X173449309Y-145579750D01*
X174020187Y-145580248D01*
X174547800Y-145362243D01*
X174951824Y-144958923D01*
X175144860Y-144494039D01*
X179964096Y-144494039D01*
X180124959Y-144882423D01*
X180500866Y-145297389D01*
X181006959Y-145536914D01*
X181229000Y-145415629D01*
X181229000Y-144272000D01*
X181483000Y-144272000D01*
X181483000Y-145415629D01*
X181705041Y-145536914D01*
X182211134Y-145297389D01*
X182587041Y-144882423D01*
X182739031Y-144515461D01*
X183774092Y-144515461D01*
X183798144Y-145165460D01*
X184000613Y-145654264D01*
X184267468Y-145752927D01*
X185240395Y-144780000D01*
X185599605Y-144780000D01*
X186572532Y-145752927D01*
X186839387Y-145654264D01*
X187065908Y-145044539D01*
X187041856Y-144394540D01*
X186839387Y-143905736D01*
X186572532Y-143807073D01*
X185599605Y-144780000D01*
X185240395Y-144780000D01*
X184267468Y-143807073D01*
X184000613Y-143905736D01*
X183774092Y-144515461D01*
X182739031Y-144515461D01*
X182747904Y-144494039D01*
X182625915Y-144272000D01*
X181483000Y-144272000D01*
X181229000Y-144272000D01*
X180086085Y-144272000D01*
X179964096Y-144494039D01*
X175144860Y-144494039D01*
X175170750Y-144431691D01*
X175171248Y-143860813D01*
X175144452Y-143795961D01*
X179964096Y-143795961D01*
X180086085Y-144018000D01*
X181229000Y-144018000D01*
X181229000Y-142874371D01*
X181483000Y-142874371D01*
X181483000Y-144018000D01*
X182625915Y-144018000D01*
X182747904Y-143795961D01*
X182678117Y-143627468D01*
X184447073Y-143627468D01*
X185420000Y-144600395D01*
X186392927Y-143627468D01*
X186294264Y-143360613D01*
X185684539Y-143134092D01*
X185034540Y-143158144D01*
X184545736Y-143360613D01*
X184447073Y-143627468D01*
X182678117Y-143627468D01*
X182587041Y-143407577D01*
X182211134Y-142992611D01*
X181705041Y-142753086D01*
X181483000Y-142874371D01*
X181229000Y-142874371D01*
X181006959Y-142753086D01*
X180500866Y-142992611D01*
X180124959Y-143407577D01*
X179964096Y-143795961D01*
X175144452Y-143795961D01*
X174953243Y-143333200D01*
X174549923Y-142929176D01*
X174022691Y-142710250D01*
X173451813Y-142709752D01*
X172924200Y-142927757D01*
X172520176Y-143331077D01*
X172456714Y-143483909D01*
X172371068Y-143276629D01*
X171939643Y-142844449D01*
X171375670Y-142610267D01*
X170765009Y-142609735D01*
X170200629Y-142842932D01*
X170032387Y-143010880D01*
X170032162Y-143009683D01*
X169893090Y-142793559D01*
X169680890Y-142648569D01*
X169429000Y-142597560D01*
X167629000Y-142597560D01*
X167393683Y-142641838D01*
X167177559Y-142780910D01*
X167032569Y-142993110D01*
X166981560Y-143245000D01*
X166981560Y-143310000D01*
X163852709Y-143310000D01*
X163768485Y-143225629D01*
X163314734Y-143037215D01*
X162823421Y-143036786D01*
X162369343Y-143224408D01*
X162021629Y-143571515D01*
X161833215Y-144025266D01*
X161832786Y-144516579D01*
X155344289Y-144516579D01*
X160385868Y-139475000D01*
X161403720Y-139475000D01*
X161773223Y-139845149D01*
X162295826Y-140062152D01*
X162861691Y-140062646D01*
X163384672Y-139846555D01*
X163785149Y-139446777D01*
X164002152Y-138924174D01*
X164002646Y-138358309D01*
X163786555Y-137835328D01*
X163386777Y-137434851D01*
X163230860Y-137370109D01*
X163384672Y-137306555D01*
X163785149Y-136906777D01*
X164002152Y-136384174D01*
X164002646Y-135818309D01*
X163786555Y-135295328D01*
X163386777Y-134894851D01*
X163230860Y-134830109D01*
X163384672Y-134766555D01*
X163785149Y-134366777D01*
X164002152Y-133844174D01*
X164002646Y-133278309D01*
X163786555Y-132755328D01*
X163386777Y-132354851D01*
X163230860Y-132290109D01*
X163384672Y-132226555D01*
X163756877Y-131855000D01*
X184014132Y-131855000D01*
X187160098Y-135000966D01*
X186921339Y-135000758D01*
X186407697Y-135212990D01*
X186014371Y-135605630D01*
X185928051Y-135813512D01*
X185843010Y-135607697D01*
X185450370Y-135214371D01*
X184937100Y-135001243D01*
X184381339Y-135000758D01*
X183867697Y-135212990D01*
X183474371Y-135605630D01*
X183388051Y-135813512D01*
X183303010Y-135607697D01*
X182910370Y-135214371D01*
X182397100Y-135001243D01*
X181841339Y-135000758D01*
X181327697Y-135212990D01*
X180934371Y-135605630D01*
X180848051Y-135813512D01*
X180763010Y-135607697D01*
X180370370Y-135214371D01*
X179857100Y-135001243D01*
X179301339Y-135000758D01*
X178787697Y-135212990D01*
X178394371Y-135605630D01*
X178308051Y-135813512D01*
X178223010Y-135607697D01*
X177830370Y-135214371D01*
X177317100Y-135001243D01*
X176761339Y-135000758D01*
X176247697Y-135212990D01*
X175854371Y-135605630D01*
X175768051Y-135813512D01*
X175683010Y-135607697D01*
X175290370Y-135214371D01*
X174777100Y-135001243D01*
X174221339Y-135000758D01*
X173707697Y-135212990D01*
X173314371Y-135605630D01*
X173101243Y-136118900D01*
X173100758Y-136674661D01*
X173312990Y-137188303D01*
X173363000Y-137238400D01*
X173363000Y-139446000D01*
X173449397Y-139880346D01*
X173695434Y-140248566D01*
X174063654Y-140494603D01*
X174498000Y-140581000D01*
X174932346Y-140494603D01*
X175300566Y-140248566D01*
X175546603Y-139880346D01*
X175633000Y-139446000D01*
X175633000Y-137238914D01*
X175681629Y-137190370D01*
X175767949Y-136982488D01*
X175852990Y-137188303D01*
X176245630Y-137581629D01*
X176758900Y-137794757D01*
X177314661Y-137795242D01*
X177828303Y-137583010D01*
X178221629Y-137190370D01*
X178307949Y-136982488D01*
X178392990Y-137188303D01*
X178785630Y-137581629D01*
X179298900Y-137794757D01*
X179854661Y-137795242D01*
X180368303Y-137583010D01*
X180761629Y-137190370D01*
X180847949Y-136982488D01*
X180932990Y-137188303D01*
X181325630Y-137581629D01*
X181838900Y-137794757D01*
X182394661Y-137795242D01*
X182908303Y-137583010D01*
X183301629Y-137190370D01*
X183387949Y-136982488D01*
X183472990Y-137188303D01*
X183865630Y-137581629D01*
X184378900Y-137794757D01*
X184934661Y-137795242D01*
X185448303Y-137583010D01*
X185841629Y-137190370D01*
X185927949Y-136982488D01*
X186012990Y-137188303D01*
X186405630Y-137581629D01*
X186918900Y-137794757D01*
X187474661Y-137795242D01*
X187988303Y-137583010D01*
X188381629Y-137190370D01*
X188467949Y-136982488D01*
X188552990Y-137188303D01*
X188945630Y-137581629D01*
X189458900Y-137794757D01*
X190014661Y-137795242D01*
X190528303Y-137583010D01*
X190921629Y-137190370D01*
X191007949Y-136982488D01*
X191092990Y-137188303D01*
X191485630Y-137581629D01*
X191998900Y-137794757D01*
X192554661Y-137795242D01*
X193068303Y-137583010D01*
X193461629Y-137190370D01*
X193674757Y-136677100D01*
X193675242Y-136121339D01*
X193463010Y-135607697D01*
X193070370Y-135214371D01*
X192557100Y-135001243D01*
X192061679Y-135000811D01*
X185045868Y-127985000D01*
X194699000Y-127985000D01*
X194699000Y-142277868D01*
X194699000Y-142277868D01*
G37*
X194699000Y-142277868D02*
X193331868Y-143645000D01*
X191677204Y-143645000D01*
X191427363Y-143394722D01*
X190826648Y-143145284D01*
X190176205Y-143144716D01*
X189575057Y-143393106D01*
X189114722Y-143852637D01*
X188865284Y-144453352D01*
X188864716Y-145103795D01*
X189113106Y-145704943D01*
X189572637Y-146165278D01*
X189873002Y-146290000D01*
X186075505Y-146290000D01*
X186294264Y-146199387D01*
X186392927Y-145932532D01*
X185420000Y-144959605D01*
X184447073Y-145932532D01*
X184545736Y-146199387D01*
X184789638Y-146290000D01*
X153533838Y-146290000D01*
X153645434Y-146215434D01*
X155344289Y-144516579D01*
X161832786Y-144516579D01*
X162020408Y-144970657D01*
X162367515Y-145318371D01*
X162821266Y-145506785D01*
X163312579Y-145507214D01*
X163766657Y-145319592D01*
X164106843Y-144980000D01*
X166981560Y-144980000D01*
X166981560Y-145045000D01*
X167025838Y-145280317D01*
X167164910Y-145496441D01*
X167377110Y-145641431D01*
X167629000Y-145692440D01*
X169429000Y-145692440D01*
X169664317Y-145648162D01*
X169880441Y-145509090D01*
X170025431Y-145296890D01*
X170029567Y-145276466D01*
X170198357Y-145445551D01*
X170762330Y-145679733D01*
X171372991Y-145680265D01*
X171937371Y-145447068D01*
X172369551Y-145015643D01*
X172456525Y-144806187D01*
X172518757Y-144956800D01*
X172922077Y-145360824D01*
X173449309Y-145579750D01*
X174020187Y-145580248D01*
X174547800Y-145362243D01*
X174951824Y-144958923D01*
X175144860Y-144494039D01*
X179964096Y-144494039D01*
X180124959Y-144882423D01*
X180500866Y-145297389D01*
X181006959Y-145536914D01*
X181229000Y-145415629D01*
X181229000Y-144272000D01*
X181483000Y-144272000D01*
X181483000Y-145415629D01*
X181705041Y-145536914D01*
X182211134Y-145297389D01*
X182587041Y-144882423D01*
X182739031Y-144515461D01*
X183774092Y-144515461D01*
X183798144Y-145165460D01*
X184000613Y-145654264D01*
X184267468Y-145752927D01*
X185240395Y-144780000D01*
X185599605Y-144780000D01*
X186572532Y-145752927D01*
X186839387Y-145654264D01*
X187065908Y-145044539D01*
X187041856Y-144394540D01*
X186839387Y-143905736D01*
X186572532Y-143807073D01*
X185599605Y-144780000D01*
X185240395Y-144780000D01*
X184267468Y-143807073D01*
X184000613Y-143905736D01*
X183774092Y-144515461D01*
X182739031Y-144515461D01*
X182747904Y-144494039D01*
X182625915Y-144272000D01*
X181483000Y-144272000D01*
X181229000Y-144272000D01*
X180086085Y-144272000D01*
X179964096Y-144494039D01*
X175144860Y-144494039D01*
X175170750Y-144431691D01*
X175171248Y-143860813D01*
X175144452Y-143795961D01*
X179964096Y-143795961D01*
X180086085Y-144018000D01*
X181229000Y-144018000D01*
X181229000Y-142874371D01*
X181483000Y-142874371D01*
X181483000Y-144018000D01*
X182625915Y-144018000D01*
X182747904Y-143795961D01*
X182678117Y-143627468D01*
X184447073Y-143627468D01*
X185420000Y-144600395D01*
X186392927Y-143627468D01*
X186294264Y-143360613D01*
X185684539Y-143134092D01*
X185034540Y-143158144D01*
X184545736Y-143360613D01*
X184447073Y-143627468D01*
X182678117Y-143627468D01*
X182587041Y-143407577D01*
X182211134Y-142992611D01*
X181705041Y-142753086D01*
X181483000Y-142874371D01*
X181229000Y-142874371D01*
X181006959Y-142753086D01*
X180500866Y-142992611D01*
X180124959Y-143407577D01*
X179964096Y-143795961D01*
X175144452Y-143795961D01*
X174953243Y-143333200D01*
X174549923Y-142929176D01*
X174022691Y-142710250D01*
X173451813Y-142709752D01*
X172924200Y-142927757D01*
X172520176Y-143331077D01*
X172456714Y-143483909D01*
X172371068Y-143276629D01*
X171939643Y-142844449D01*
X171375670Y-142610267D01*
X170765009Y-142609735D01*
X170200629Y-142842932D01*
X170032387Y-143010880D01*
X170032162Y-143009683D01*
X169893090Y-142793559D01*
X169680890Y-142648569D01*
X169429000Y-142597560D01*
X167629000Y-142597560D01*
X167393683Y-142641838D01*
X167177559Y-142780910D01*
X167032569Y-142993110D01*
X166981560Y-143245000D01*
X166981560Y-143310000D01*
X163852709Y-143310000D01*
X163768485Y-143225629D01*
X163314734Y-143037215D01*
X162823421Y-143036786D01*
X162369343Y-143224408D01*
X162021629Y-143571515D01*
X161833215Y-144025266D01*
X161832786Y-144516579D01*
X155344289Y-144516579D01*
X160385868Y-139475000D01*
X161403720Y-139475000D01*
X161773223Y-139845149D01*
X162295826Y-140062152D01*
X162861691Y-140062646D01*
X163384672Y-139846555D01*
X163785149Y-139446777D01*
X164002152Y-138924174D01*
X164002646Y-138358309D01*
X163786555Y-137835328D01*
X163386777Y-137434851D01*
X163230860Y-137370109D01*
X163384672Y-137306555D01*
X163785149Y-136906777D01*
X164002152Y-136384174D01*
X164002646Y-135818309D01*
X163786555Y-135295328D01*
X163386777Y-134894851D01*
X163230860Y-134830109D01*
X163384672Y-134766555D01*
X163785149Y-134366777D01*
X164002152Y-133844174D01*
X164002646Y-133278309D01*
X163786555Y-132755328D01*
X163386777Y-132354851D01*
X163230860Y-132290109D01*
X163384672Y-132226555D01*
X163756877Y-131855000D01*
X184014132Y-131855000D01*
X187160098Y-135000966D01*
X186921339Y-135000758D01*
X186407697Y-135212990D01*
X186014371Y-135605630D01*
X185928051Y-135813512D01*
X185843010Y-135607697D01*
X185450370Y-135214371D01*
X184937100Y-135001243D01*
X184381339Y-135000758D01*
X183867697Y-135212990D01*
X183474371Y-135605630D01*
X183388051Y-135813512D01*
X183303010Y-135607697D01*
X182910370Y-135214371D01*
X182397100Y-135001243D01*
X181841339Y-135000758D01*
X181327697Y-135212990D01*
X180934371Y-135605630D01*
X180848051Y-135813512D01*
X180763010Y-135607697D01*
X180370370Y-135214371D01*
X179857100Y-135001243D01*
X179301339Y-135000758D01*
X178787697Y-135212990D01*
X178394371Y-135605630D01*
X178308051Y-135813512D01*
X178223010Y-135607697D01*
X177830370Y-135214371D01*
X177317100Y-135001243D01*
X176761339Y-135000758D01*
X176247697Y-135212990D01*
X175854371Y-135605630D01*
X175768051Y-135813512D01*
X175683010Y-135607697D01*
X175290370Y-135214371D01*
X174777100Y-135001243D01*
X174221339Y-135000758D01*
X173707697Y-135212990D01*
X173314371Y-135605630D01*
X173101243Y-136118900D01*
X173100758Y-136674661D01*
X173312990Y-137188303D01*
X173363000Y-137238400D01*
X173363000Y-139446000D01*
X173449397Y-139880346D01*
X173695434Y-140248566D01*
X174063654Y-140494603D01*
X174498000Y-140581000D01*
X174932346Y-140494603D01*
X175300566Y-140248566D01*
X175546603Y-139880346D01*
X175633000Y-139446000D01*
X175633000Y-137238914D01*
X175681629Y-137190370D01*
X175767949Y-136982488D01*
X175852990Y-137188303D01*
X176245630Y-137581629D01*
X176758900Y-137794757D01*
X177314661Y-137795242D01*
X177828303Y-137583010D01*
X178221629Y-137190370D01*
X178307949Y-136982488D01*
X178392990Y-137188303D01*
X178785630Y-137581629D01*
X179298900Y-137794757D01*
X179854661Y-137795242D01*
X180368303Y-137583010D01*
X180761629Y-137190370D01*
X180847949Y-136982488D01*
X180932990Y-137188303D01*
X181325630Y-137581629D01*
X181838900Y-137794757D01*
X182394661Y-137795242D01*
X182908303Y-137583010D01*
X183301629Y-137190370D01*
X183387949Y-136982488D01*
X183472990Y-137188303D01*
X183865630Y-137581629D01*
X184378900Y-137794757D01*
X184934661Y-137795242D01*
X185448303Y-137583010D01*
X185841629Y-137190370D01*
X185927949Y-136982488D01*
X186012990Y-137188303D01*
X186405630Y-137581629D01*
X186918900Y-137794757D01*
X187474661Y-137795242D01*
X187988303Y-137583010D01*
X188381629Y-137190370D01*
X188467949Y-136982488D01*
X188552990Y-137188303D01*
X188945630Y-137581629D01*
X189458900Y-137794757D01*
X190014661Y-137795242D01*
X190528303Y-137583010D01*
X190921629Y-137190370D01*
X191007949Y-136982488D01*
X191092990Y-137188303D01*
X191485630Y-137581629D01*
X191998900Y-137794757D01*
X192554661Y-137795242D01*
X193068303Y-137583010D01*
X193461629Y-137190370D01*
X193674757Y-136677100D01*
X193675242Y-136121339D01*
X193463010Y-135607697D01*
X193070370Y-135214371D01*
X192557100Y-135001243D01*
X192061679Y-135000811D01*
X185045868Y-127985000D01*
X194699000Y-127985000D01*
X194699000Y-142277868D01*
G36*
X133533657Y-98287211D02*
X133585000Y-98029093D01*
X133585000Y-97970907D01*
X133471961Y-97402622D01*
X133150054Y-96920853D01*
X132935000Y-96777159D01*
X132935000Y-96682841D01*
X133150054Y-96539147D01*
X133471961Y-96057378D01*
X133585000Y-95489093D01*
X133585000Y-95430907D01*
X133471961Y-94862622D01*
X133150054Y-94380853D01*
X132668285Y-94058946D01*
X132100000Y-93945907D01*
X131531715Y-94058946D01*
X131049946Y-94380853D01*
X130830000Y-94710026D01*
X130610054Y-94380853D01*
X130128285Y-94058946D01*
X129560000Y-93945907D01*
X128991715Y-94058946D01*
X128509946Y-94380853D01*
X128290000Y-94710026D01*
X128070054Y-94380853D01*
X127588285Y-94058946D01*
X127020000Y-93945907D01*
X126451715Y-94058946D01*
X125969946Y-94380853D01*
X125750000Y-94710026D01*
X125530054Y-94380853D01*
X125048285Y-94058946D01*
X124480000Y-93945907D01*
X123911715Y-94058946D01*
X123429946Y-94380853D01*
X123202298Y-94721553D01*
X123135183Y-94578642D01*
X122706924Y-94188355D01*
X122296890Y-94018524D01*
X122067000Y-94139845D01*
X122067000Y-95333000D01*
X122087000Y-95333000D01*
X122087000Y-95587000D01*
X122067000Y-95587000D01*
X122067000Y-97873000D01*
X122087000Y-97873000D01*
X122087000Y-98127000D01*
X122067000Y-98127000D01*
X122067000Y-98147000D01*
X121813000Y-98147000D01*
X121813000Y-98127000D01*
X121793000Y-98127000D01*
X121793000Y-97873000D01*
X121813000Y-97873000D01*
X121813000Y-95587000D01*
X121793000Y-95587000D01*
X121793000Y-95333000D01*
X121813000Y-95333000D01*
X121813000Y-94139845D01*
X121583110Y-94018524D01*
X121173076Y-94188355D01*
X120744817Y-94578642D01*
X120677702Y-94721553D01*
X120450054Y-94380853D01*
X119968285Y-94058946D01*
X119400000Y-93945907D01*
X118831715Y-94058946D01*
X118349946Y-94380853D01*
X118121409Y-94722883D01*
X117890711Y-94390915D01*
X117453265Y-94098655D01*
X117233000Y-94187282D01*
X117233000Y-95087000D01*
X117253000Y-95087000D01*
X117253000Y-95833000D01*
X117233000Y-95833000D01*
X117233000Y-97627000D01*
X117253000Y-97627000D01*
X117253000Y-98373000D01*
X117233000Y-98373000D01*
X117233000Y-99272718D01*
X117453265Y-99361345D01*
X117890711Y-99069085D01*
X118121409Y-98737117D01*
X118265000Y-98952016D01*
X118265000Y-99975454D01*
X118245000Y-100076000D01*
X118331397Y-100510345D01*
X118441416Y-100675000D01*
X117330133Y-100675000D01*
X115515942Y-98860810D01*
X115598591Y-98737117D01*
X115829289Y-99069085D01*
X116266735Y-99361345D01*
X116487000Y-99272718D01*
X116487000Y-98373000D01*
X116467000Y-98373000D01*
X116467000Y-97627000D01*
X116487000Y-97627000D01*
X116487000Y-95833000D01*
X116467000Y-95833000D01*
X116467000Y-95087000D01*
X116487000Y-95087000D01*
X116487000Y-94187282D01*
X116266735Y-94098655D01*
X115829289Y-94390915D01*
X115598591Y-94722883D01*
X115370054Y-94380853D01*
X114888285Y-94058946D01*
X114320000Y-93945907D01*
X113751715Y-94058946D01*
X113269946Y-94380853D01*
X113050000Y-94710026D01*
X112830054Y-94380853D01*
X112348285Y-94058946D01*
X111780000Y-93945907D01*
X111211715Y-94058946D01*
X110729946Y-94380853D01*
X110510000Y-94710026D01*
X110290054Y-94380853D01*
X109808285Y-94058946D01*
X109240000Y-93945907D01*
X108671715Y-94058946D01*
X108189946Y-94380853D01*
X107962298Y-94721553D01*
X107895183Y-94578642D01*
X107466924Y-94188355D01*
X107056890Y-94018524D01*
X106827000Y-94139845D01*
X106827000Y-95333000D01*
X106847000Y-95333000D01*
X106847000Y-95587000D01*
X106827000Y-95587000D01*
X106827000Y-97873000D01*
X106847000Y-97873000D01*
X106847000Y-98127000D01*
X106827000Y-98127000D01*
X106827000Y-99320155D01*
X107056890Y-99441476D01*
X107466924Y-99271645D01*
X107895183Y-98881358D01*
X107962298Y-98738447D01*
X108189946Y-99079147D01*
X108671715Y-99401054D01*
X109240000Y-99514093D01*
X109808285Y-99401054D01*
X110290054Y-99079147D01*
X110510000Y-98749974D01*
X110729946Y-99079147D01*
X111211715Y-99401054D01*
X111650749Y-99488383D01*
X106608132Y-104531000D01*
X105176000Y-104531000D01*
X104856460Y-104594560D01*
X104585566Y-104775566D01*
X102807566Y-106553566D01*
X102626561Y-106824459D01*
X102563000Y-107144000D01*
X102563000Y-111716000D01*
X102626561Y-112035541D01*
X102758355Y-112232785D01*
X102807566Y-112306434D01*
X104331566Y-113830434D01*
X104602459Y-114011439D01*
X104922000Y-114075000D01*
X105537118Y-114075000D01*
X105657189Y-114254698D01*
X106039275Y-114510000D01*
X105657189Y-114765302D01*
X105537118Y-114945000D01*
X103906000Y-114945000D01*
X103586460Y-115008560D01*
X103315566Y-115189566D01*
X100521566Y-117983566D01*
X100340561Y-118254459D01*
X100277000Y-118574000D01*
X100277000Y-123908000D01*
X100340561Y-124227541D01*
X100475267Y-124429143D01*
X100521566Y-124498434D01*
X102045566Y-126022434D01*
X102316459Y-126203439D01*
X102636000Y-126267000D01*
X103859281Y-126267000D01*
X103979352Y-126446698D01*
X104361438Y-126702000D01*
X103979352Y-126957302D01*
X103668283Y-127422849D01*
X103559050Y-127972000D01*
X103668283Y-128521151D01*
X103979352Y-128986698D01*
X104361438Y-129242000D01*
X103979352Y-129497302D01*
X103668283Y-129962849D01*
X103559050Y-130512000D01*
X103668283Y-131061151D01*
X103979352Y-131526698D01*
X104361438Y-131782000D01*
X103979352Y-132037302D01*
X103668283Y-132502849D01*
X103559050Y-133052000D01*
X103668283Y-133601151D01*
X103979352Y-134066698D01*
X104361438Y-134322000D01*
X103979352Y-134577302D01*
X103668283Y-135042849D01*
X103559050Y-135592000D01*
X103668283Y-136141151D01*
X103979352Y-136606698D01*
X104361438Y-136862000D01*
X104090553Y-137043000D01*
X101544083Y-137043000D01*
X101163923Y-136662176D01*
X101097456Y-136634577D01*
X101104005Y-136631864D01*
X101178139Y-136385745D01*
X100350000Y-135557605D01*
X100335858Y-135571748D01*
X100156252Y-135392142D01*
X100170395Y-135378000D01*
X100529605Y-135378000D01*
X101357745Y-136206139D01*
X101603864Y-136132005D01*
X101796965Y-135594777D01*
X101769778Y-135024546D01*
X101603864Y-134623995D01*
X101357745Y-134549861D01*
X100529605Y-135378000D01*
X100170395Y-135378000D01*
X99342255Y-134549861D01*
X99096136Y-134623995D01*
X98903035Y-135161223D01*
X98910692Y-135321824D01*
X98262953Y-134674085D01*
X98263214Y-134375421D01*
X98261080Y-134370255D01*
X99521861Y-134370255D01*
X100350000Y-135198395D01*
X101178139Y-134370255D01*
X101104005Y-134124136D01*
X100566777Y-133931035D01*
X99996546Y-133958222D01*
X99595995Y-134124136D01*
X99521861Y-134370255D01*
X98261080Y-134370255D01*
X98075592Y-133921343D01*
X97728485Y-133573629D01*
X97274734Y-133385215D01*
X96783421Y-133384786D01*
X96329343Y-133572408D01*
X95981629Y-133919515D01*
X95793215Y-134373266D01*
X95792786Y-134864579D01*
X95980408Y-135318657D01*
X96327515Y-135666371D01*
X96781266Y-135854785D01*
X97082180Y-135855048D01*
X98915166Y-137688034D01*
X98914752Y-138162187D01*
X99132757Y-138689800D01*
X99536077Y-139093824D01*
X100063309Y-139312750D01*
X100634187Y-139313248D01*
X101161800Y-139095243D01*
X101544710Y-138713000D01*
X103689564Y-138713000D01*
X103979352Y-139146698D01*
X104361438Y-139402000D01*
X103979352Y-139657302D01*
X103859281Y-139837000D01*
X103398000Y-139837000D01*
X103078459Y-139900561D01*
X102923532Y-140004080D01*
X102807566Y-140081566D01*
X101781283Y-141107849D01*
X101769778Y-140866546D01*
X101603864Y-140465995D01*
X101357745Y-140391861D01*
X100529605Y-141220000D01*
X100543748Y-141234142D01*
X100364142Y-141413748D01*
X100350000Y-141399605D01*
X99521861Y-142227745D01*
X99595995Y-142473864D01*
X99602483Y-142476196D01*
X99538200Y-142502757D01*
X99155290Y-142885000D01*
X98149564Y-142885000D01*
X97982485Y-142717629D01*
X97528734Y-142529215D01*
X97037421Y-142528786D01*
X96583343Y-142716408D01*
X96235629Y-143063515D01*
X96047215Y-143517266D01*
X96046786Y-144008579D01*
X96234408Y-144462657D01*
X96581515Y-144810371D01*
X97035266Y-144998785D01*
X97526579Y-144999214D01*
X97980657Y-144811592D01*
X98237698Y-144555000D01*
X99155917Y-144555000D01*
X99536077Y-144935824D01*
X100063309Y-145154750D01*
X100634187Y-145155248D01*
X101161800Y-144937243D01*
X101565824Y-144533923D01*
X101784750Y-144006691D01*
X101785138Y-143561039D01*
X103638096Y-143561039D01*
X103655633Y-143643819D01*
X103925500Y-144136896D01*
X104363517Y-144489166D01*
X104903000Y-144647000D01*
X105303000Y-144647000D01*
X105303000Y-143339000D01*
X105557000Y-143339000D01*
X105557000Y-144647000D01*
X105957000Y-144647000D01*
X106496483Y-144489166D01*
X106934500Y-144136896D01*
X107204367Y-143643819D01*
X107221904Y-143561039D01*
X107099915Y-143339000D01*
X105557000Y-143339000D01*
X105303000Y-143339000D01*
X103760085Y-143339000D01*
X103638096Y-143561039D01*
X101785138Y-143561039D01*
X101785222Y-143465646D01*
X103743868Y-141507000D01*
X103859281Y-141507000D01*
X103979352Y-141686698D01*
X104357707Y-141939507D01*
X103925500Y-142287104D01*
X103655633Y-142780181D01*
X103638096Y-142862961D01*
X103760085Y-143085000D01*
X105303000Y-143085000D01*
X105303000Y-143065000D01*
X105557000Y-143065000D01*
X105557000Y-143085000D01*
X107099915Y-143085000D01*
X107221904Y-142862961D01*
X107204367Y-142780181D01*
X106934500Y-142287104D01*
X106502293Y-141939507D01*
X106880648Y-141686698D01*
X107191717Y-141221151D01*
X107300950Y-140672000D01*
X107191717Y-140122849D01*
X106880648Y-139657302D01*
X106498562Y-139402000D01*
X106880648Y-139146698D01*
X107191717Y-138681151D01*
X107300950Y-138132000D01*
X107191717Y-137582849D01*
X106880648Y-137117302D01*
X106498562Y-136862000D01*
X106880648Y-136606698D01*
X107191717Y-136141151D01*
X107300950Y-135592000D01*
X107191717Y-135042849D01*
X106880648Y-134577302D01*
X106498562Y-134322000D01*
X106880648Y-134066698D01*
X107191717Y-133601151D01*
X107300950Y-133052000D01*
X107191717Y-132502849D01*
X106880648Y-132037302D01*
X106498562Y-131782000D01*
X106880648Y-131526698D01*
X107191717Y-131061151D01*
X107300950Y-130512000D01*
X107191717Y-129962849D01*
X106880648Y-129497302D01*
X106498562Y-129242000D01*
X106880648Y-128986698D01*
X107191717Y-128521151D01*
X107300950Y-127972000D01*
X107191717Y-127422849D01*
X106880648Y-126957302D01*
X106498562Y-126702000D01*
X106825008Y-126483876D01*
X108405000Y-128063868D01*
X108405000Y-144736000D01*
X108468561Y-145055541D01*
X108600792Y-145253439D01*
X108649566Y-145326434D01*
X109613132Y-146290000D01*
X88069930Y-146290000D01*
X87894345Y-146255074D01*
X87804774Y-146195225D01*
X87744926Y-146105655D01*
X87710000Y-145930070D01*
X87710000Y-141003223D01*
X98903035Y-141003223D01*
X98930222Y-141573454D01*
X99096136Y-141974005D01*
X99342255Y-142048139D01*
X100170395Y-141220000D01*
X99342255Y-140391861D01*
X99096136Y-140465995D01*
X98903035Y-141003223D01*
X87710000Y-141003223D01*
X87710000Y-140212255D01*
X99521861Y-140212255D01*
X100350000Y-141040395D01*
X101178139Y-140212255D01*
X101104005Y-139966136D01*
X100566777Y-139773035D01*
X99996546Y-139800222D01*
X99595995Y-139966136D01*
X99521861Y-140212255D01*
X87710000Y-140212255D01*
X87710000Y-97150000D01*
X92502560Y-97150000D01*
X92502560Y-98850000D01*
X92546838Y-99085317D01*
X92685910Y-99301441D01*
X92898110Y-99446431D01*
X93150000Y-99497440D01*
X94850000Y-99497440D01*
X95085317Y-99453162D01*
X95301441Y-99314090D01*
X95446431Y-99101890D01*
X95460086Y-99034459D01*
X95489946Y-99079147D01*
X95971715Y-99401054D01*
X96540000Y-99514093D01*
X97108285Y-99401054D01*
X97590054Y-99079147D01*
X97810000Y-98749974D01*
X98029946Y-99079147D01*
X98511715Y-99401054D01*
X99080000Y-99514093D01*
X99648285Y-99401054D01*
X100130054Y-99079147D01*
X100350000Y-98749974D01*
X100569946Y-99079147D01*
X101051715Y-99401054D01*
X101620000Y-99514093D01*
X102188285Y-99401054D01*
X102670054Y-99079147D01*
X102890000Y-98749974D01*
X103109946Y-99079147D01*
X103591715Y-99401054D01*
X104160000Y-99514093D01*
X104728285Y-99401054D01*
X105210054Y-99079147D01*
X105437702Y-98738447D01*
X105504817Y-98881358D01*
X105933076Y-99271645D01*
X106343110Y-99441476D01*
X106573000Y-99320155D01*
X106573000Y-98127000D01*
X106553000Y-98127000D01*
X106553000Y-97873000D01*
X106573000Y-97873000D01*
X106573000Y-95587000D01*
X106553000Y-95587000D01*
X106553000Y-95333000D01*
X106573000Y-95333000D01*
X106573000Y-94139845D01*
X106343110Y-94018524D01*
X105933076Y-94188355D01*
X105504817Y-94578642D01*
X105437702Y-94721553D01*
X105210054Y-94380853D01*
X104728285Y-94058946D01*
X104160000Y-93945907D01*
X103591715Y-94058946D01*
X103109946Y-94380853D01*
X102890000Y-94710026D01*
X102670054Y-94380853D01*
X102188285Y-94058946D01*
X101620000Y-93945907D01*
X101051715Y-94058946D01*
X100569946Y-94380853D01*
X100350000Y-94710026D01*
X100130054Y-94380853D01*
X99648285Y-94058946D01*
X99080000Y-93945907D01*
X98511715Y-94058946D01*
X98029946Y-94380853D01*
X97810000Y-94710026D01*
X97590054Y-94380853D01*
X97108285Y-94058946D01*
X96540000Y-93945907D01*
X95971715Y-94058946D01*
X95489946Y-94380853D01*
X95270000Y-94710026D01*
X95050054Y-94380853D01*
X94568285Y-94058946D01*
X94000000Y-93945907D01*
X93431715Y-94058946D01*
X92949946Y-94380853D01*
X92628039Y-94862622D01*
X92515000Y-95430907D01*
X92515000Y-95489093D01*
X92628039Y-96057378D01*
X92949946Y-96539147D01*
X92951179Y-96539971D01*
X92914683Y-96546838D01*
X92698559Y-96685910D01*
X92553569Y-96898110D01*
X92502560Y-97150000D01*
X87710000Y-97150000D01*
X87710000Y-96069931D01*
X87973288Y-94746293D01*
X88683454Y-93683454D01*
X89746295Y-92973288D01*
X90766303Y-92770395D01*
X91497954Y-93502046D01*
X91728295Y-93655954D01*
X92000000Y-93710001D01*
X92000005Y-93710000D01*
X136000000Y-93710000D01*
X136271705Y-93655954D01*
X136502046Y-93502046D01*
X137294092Y-92710000D01*
X139110868Y-92710000D01*
X133533657Y-98287211D01*
X133533657Y-98287211D01*
G37*
X133533657Y-98287211D02*
X133585000Y-98029093D01*
X133585000Y-97970907D01*
X133471961Y-97402622D01*
X133150054Y-96920853D01*
X132935000Y-96777159D01*
X132935000Y-96682841D01*
X133150054Y-96539147D01*
X133471961Y-96057378D01*
X133585000Y-95489093D01*
X133585000Y-95430907D01*
X133471961Y-94862622D01*
X133150054Y-94380853D01*
X132668285Y-94058946D01*
X132100000Y-93945907D01*
X131531715Y-94058946D01*
X131049946Y-94380853D01*
X130830000Y-94710026D01*
X130610054Y-94380853D01*
X130128285Y-94058946D01*
X129560000Y-93945907D01*
X128991715Y-94058946D01*
X128509946Y-94380853D01*
X128290000Y-94710026D01*
X128070054Y-94380853D01*
X127588285Y-94058946D01*
X127020000Y-93945907D01*
X126451715Y-94058946D01*
X125969946Y-94380853D01*
X125750000Y-94710026D01*
X125530054Y-94380853D01*
X125048285Y-94058946D01*
X124480000Y-93945907D01*
X123911715Y-94058946D01*
X123429946Y-94380853D01*
X123202298Y-94721553D01*
X123135183Y-94578642D01*
X122706924Y-94188355D01*
X122296890Y-94018524D01*
X122067000Y-94139845D01*
X122067000Y-95333000D01*
X122087000Y-95333000D01*
X122087000Y-95587000D01*
X122067000Y-95587000D01*
X122067000Y-97873000D01*
X122087000Y-97873000D01*
X122087000Y-98127000D01*
X122067000Y-98127000D01*
X122067000Y-98147000D01*
X121813000Y-98147000D01*
X121813000Y-98127000D01*
X121793000Y-98127000D01*
X121793000Y-97873000D01*
X121813000Y-97873000D01*
X121813000Y-95587000D01*
X121793000Y-95587000D01*
X121793000Y-95333000D01*
X121813000Y-95333000D01*
X121813000Y-94139845D01*
X121583110Y-94018524D01*
X121173076Y-94188355D01*
X120744817Y-94578642D01*
X120677702Y-94721553D01*
X120450054Y-94380853D01*
X119968285Y-94058946D01*
X119400000Y-93945907D01*
X118831715Y-94058946D01*
X118349946Y-94380853D01*
X118121409Y-94722883D01*
X117890711Y-94390915D01*
X117453265Y-94098655D01*
X117233000Y-94187282D01*
X117233000Y-95087000D01*
X117253000Y-95087000D01*
X117253000Y-95833000D01*
X117233000Y-95833000D01*
X117233000Y-97627000D01*
X117253000Y-97627000D01*
X117253000Y-98373000D01*
X117233000Y-98373000D01*
X117233000Y-99272718D01*
X117453265Y-99361345D01*
X117890711Y-99069085D01*
X118121409Y-98737117D01*
X118265000Y-98952016D01*
X118265000Y-99975454D01*
X118245000Y-100076000D01*
X118331397Y-100510345D01*
X118441416Y-100675000D01*
X117330133Y-100675000D01*
X115515942Y-98860810D01*
X115598591Y-98737117D01*
X115829289Y-99069085D01*
X116266735Y-99361345D01*
X116487000Y-99272718D01*
X116487000Y-98373000D01*
X116467000Y-98373000D01*
X116467000Y-97627000D01*
X116487000Y-97627000D01*
X116487000Y-95833000D01*
X116467000Y-95833000D01*
X116467000Y-95087000D01*
X116487000Y-95087000D01*
X116487000Y-94187282D01*
X116266735Y-94098655D01*
X115829289Y-94390915D01*
X115598591Y-94722883D01*
X115370054Y-94380853D01*
X114888285Y-94058946D01*
X114320000Y-93945907D01*
X113751715Y-94058946D01*
X113269946Y-94380853D01*
X113050000Y-94710026D01*
X112830054Y-94380853D01*
X112348285Y-94058946D01*
X111780000Y-93945907D01*
X111211715Y-94058946D01*
X110729946Y-94380853D01*
X110510000Y-94710026D01*
X110290054Y-94380853D01*
X109808285Y-94058946D01*
X109240000Y-93945907D01*
X108671715Y-94058946D01*
X108189946Y-94380853D01*
X107962298Y-94721553D01*
X107895183Y-94578642D01*
X107466924Y-94188355D01*
X107056890Y-94018524D01*
X106827000Y-94139845D01*
X106827000Y-95333000D01*
X106847000Y-95333000D01*
X106847000Y-95587000D01*
X106827000Y-95587000D01*
X106827000Y-97873000D01*
X106847000Y-97873000D01*
X106847000Y-98127000D01*
X106827000Y-98127000D01*
X106827000Y-99320155D01*
X107056890Y-99441476D01*
X107466924Y-99271645D01*
X107895183Y-98881358D01*
X107962298Y-98738447D01*
X108189946Y-99079147D01*
X108671715Y-99401054D01*
X109240000Y-99514093D01*
X109808285Y-99401054D01*
X110290054Y-99079147D01*
X110510000Y-98749974D01*
X110729946Y-99079147D01*
X111211715Y-99401054D01*
X111650749Y-99488383D01*
X106608132Y-104531000D01*
X105176000Y-104531000D01*
X104856460Y-104594560D01*
X104585566Y-104775566D01*
X102807566Y-106553566D01*
X102626561Y-106824459D01*
X102563000Y-107144000D01*
X102563000Y-111716000D01*
X102626561Y-112035541D01*
X102758355Y-112232785D01*
X102807566Y-112306434D01*
X104331566Y-113830434D01*
X104602459Y-114011439D01*
X104922000Y-114075000D01*
X105537118Y-114075000D01*
X105657189Y-114254698D01*
X106039275Y-114510000D01*
X105657189Y-114765302D01*
X105537118Y-114945000D01*
X103906000Y-114945000D01*
X103586460Y-115008560D01*
X103315566Y-115189566D01*
X100521566Y-117983566D01*
X100340561Y-118254459D01*
X100277000Y-118574000D01*
X100277000Y-123908000D01*
X100340561Y-124227541D01*
X100475267Y-124429143D01*
X100521566Y-124498434D01*
X102045566Y-126022434D01*
X102316459Y-126203439D01*
X102636000Y-126267000D01*
X103859281Y-126267000D01*
X103979352Y-126446698D01*
X104361438Y-126702000D01*
X103979352Y-126957302D01*
X103668283Y-127422849D01*
X103559050Y-127972000D01*
X103668283Y-128521151D01*
X103979352Y-128986698D01*
X104361438Y-129242000D01*
X103979352Y-129497302D01*
X103668283Y-129962849D01*
X103559050Y-130512000D01*
X103668283Y-131061151D01*
X103979352Y-131526698D01*
X104361438Y-131782000D01*
X103979352Y-132037302D01*
X103668283Y-132502849D01*
X103559050Y-133052000D01*
X103668283Y-133601151D01*
X103979352Y-134066698D01*
X104361438Y-134322000D01*
X103979352Y-134577302D01*
X103668283Y-135042849D01*
X103559050Y-135592000D01*
X103668283Y-136141151D01*
X103979352Y-136606698D01*
X104361438Y-136862000D01*
X104090553Y-137043000D01*
X101544083Y-137043000D01*
X101163923Y-136662176D01*
X101097456Y-136634577D01*
X101104005Y-136631864D01*
X101178139Y-136385745D01*
X100350000Y-135557605D01*
X100335858Y-135571748D01*
X100156252Y-135392142D01*
X100170395Y-135378000D01*
X100529605Y-135378000D01*
X101357745Y-136206139D01*
X101603864Y-136132005D01*
X101796965Y-135594777D01*
X101769778Y-135024546D01*
X101603864Y-134623995D01*
X101357745Y-134549861D01*
X100529605Y-135378000D01*
X100170395Y-135378000D01*
X99342255Y-134549861D01*
X99096136Y-134623995D01*
X98903035Y-135161223D01*
X98910692Y-135321824D01*
X98262953Y-134674085D01*
X98263214Y-134375421D01*
X98261080Y-134370255D01*
X99521861Y-134370255D01*
X100350000Y-135198395D01*
X101178139Y-134370255D01*
X101104005Y-134124136D01*
X100566777Y-133931035D01*
X99996546Y-133958222D01*
X99595995Y-134124136D01*
X99521861Y-134370255D01*
X98261080Y-134370255D01*
X98075592Y-133921343D01*
X97728485Y-133573629D01*
X97274734Y-133385215D01*
X96783421Y-133384786D01*
X96329343Y-133572408D01*
X95981629Y-133919515D01*
X95793215Y-134373266D01*
X95792786Y-134864579D01*
X95980408Y-135318657D01*
X96327515Y-135666371D01*
X96781266Y-135854785D01*
X97082180Y-135855048D01*
X98915166Y-137688034D01*
X98914752Y-138162187D01*
X99132757Y-138689800D01*
X99536077Y-139093824D01*
X100063309Y-139312750D01*
X100634187Y-139313248D01*
X101161800Y-139095243D01*
X101544710Y-138713000D01*
X103689564Y-138713000D01*
X103979352Y-139146698D01*
X104361438Y-139402000D01*
X103979352Y-139657302D01*
X103859281Y-139837000D01*
X103398000Y-139837000D01*
X103078459Y-139900561D01*
X102923532Y-140004080D01*
X102807566Y-140081566D01*
X101781283Y-141107849D01*
X101769778Y-140866546D01*
X101603864Y-140465995D01*
X101357745Y-140391861D01*
X100529605Y-141220000D01*
X100543748Y-141234142D01*
X100364142Y-141413748D01*
X100350000Y-141399605D01*
X99521861Y-142227745D01*
X99595995Y-142473864D01*
X99602483Y-142476196D01*
X99538200Y-142502757D01*
X99155290Y-142885000D01*
X98149564Y-142885000D01*
X97982485Y-142717629D01*
X97528734Y-142529215D01*
X97037421Y-142528786D01*
X96583343Y-142716408D01*
X96235629Y-143063515D01*
X96047215Y-143517266D01*
X96046786Y-144008579D01*
X96234408Y-144462657D01*
X96581515Y-144810371D01*
X97035266Y-144998785D01*
X97526579Y-144999214D01*
X97980657Y-144811592D01*
X98237698Y-144555000D01*
X99155917Y-144555000D01*
X99536077Y-144935824D01*
X100063309Y-145154750D01*
X100634187Y-145155248D01*
X101161800Y-144937243D01*
X101565824Y-144533923D01*
X101784750Y-144006691D01*
X101785138Y-143561039D01*
X103638096Y-143561039D01*
X103655633Y-143643819D01*
X103925500Y-144136896D01*
X104363517Y-144489166D01*
X104903000Y-144647000D01*
X105303000Y-144647000D01*
X105303000Y-143339000D01*
X105557000Y-143339000D01*
X105557000Y-144647000D01*
X105957000Y-144647000D01*
X106496483Y-144489166D01*
X106934500Y-144136896D01*
X107204367Y-143643819D01*
X107221904Y-143561039D01*
X107099915Y-143339000D01*
X105557000Y-143339000D01*
X105303000Y-143339000D01*
X103760085Y-143339000D01*
X103638096Y-143561039D01*
X101785138Y-143561039D01*
X101785222Y-143465646D01*
X103743868Y-141507000D01*
X103859281Y-141507000D01*
X103979352Y-141686698D01*
X104357707Y-141939507D01*
X103925500Y-142287104D01*
X103655633Y-142780181D01*
X103638096Y-142862961D01*
X103760085Y-143085000D01*
X105303000Y-143085000D01*
X105303000Y-143065000D01*
X105557000Y-143065000D01*
X105557000Y-143085000D01*
X107099915Y-143085000D01*
X107221904Y-142862961D01*
X107204367Y-142780181D01*
X106934500Y-142287104D01*
X106502293Y-141939507D01*
X106880648Y-141686698D01*
X107191717Y-141221151D01*
X107300950Y-140672000D01*
X107191717Y-140122849D01*
X106880648Y-139657302D01*
X106498562Y-139402000D01*
X106880648Y-139146698D01*
X107191717Y-138681151D01*
X107300950Y-138132000D01*
X107191717Y-137582849D01*
X106880648Y-137117302D01*
X106498562Y-136862000D01*
X106880648Y-136606698D01*
X107191717Y-136141151D01*
X107300950Y-135592000D01*
X107191717Y-135042849D01*
X106880648Y-134577302D01*
X106498562Y-134322000D01*
X106880648Y-134066698D01*
X107191717Y-133601151D01*
X107300950Y-133052000D01*
X107191717Y-132502849D01*
X106880648Y-132037302D01*
X106498562Y-131782000D01*
X106880648Y-131526698D01*
X107191717Y-131061151D01*
X107300950Y-130512000D01*
X107191717Y-129962849D01*
X106880648Y-129497302D01*
X106498562Y-129242000D01*
X106880648Y-128986698D01*
X107191717Y-128521151D01*
X107300950Y-127972000D01*
X107191717Y-127422849D01*
X106880648Y-126957302D01*
X106498562Y-126702000D01*
X106825008Y-126483876D01*
X108405000Y-128063868D01*
X108405000Y-144736000D01*
X108468561Y-145055541D01*
X108600792Y-145253439D01*
X108649566Y-145326434D01*
X109613132Y-146290000D01*
X88069930Y-146290000D01*
X87894345Y-146255074D01*
X87804774Y-146195225D01*
X87744926Y-146105655D01*
X87710000Y-145930070D01*
X87710000Y-141003223D01*
X98903035Y-141003223D01*
X98930222Y-141573454D01*
X99096136Y-141974005D01*
X99342255Y-142048139D01*
X100170395Y-141220000D01*
X99342255Y-140391861D01*
X99096136Y-140465995D01*
X98903035Y-141003223D01*
X87710000Y-141003223D01*
X87710000Y-140212255D01*
X99521861Y-140212255D01*
X100350000Y-141040395D01*
X101178139Y-140212255D01*
X101104005Y-139966136D01*
X100566777Y-139773035D01*
X99996546Y-139800222D01*
X99595995Y-139966136D01*
X99521861Y-140212255D01*
X87710000Y-140212255D01*
X87710000Y-97150000D01*
X92502560Y-97150000D01*
X92502560Y-98850000D01*
X92546838Y-99085317D01*
X92685910Y-99301441D01*
X92898110Y-99446431D01*
X93150000Y-99497440D01*
X94850000Y-99497440D01*
X95085317Y-99453162D01*
X95301441Y-99314090D01*
X95446431Y-99101890D01*
X95460086Y-99034459D01*
X95489946Y-99079147D01*
X95971715Y-99401054D01*
X96540000Y-99514093D01*
X97108285Y-99401054D01*
X97590054Y-99079147D01*
X97810000Y-98749974D01*
X98029946Y-99079147D01*
X98511715Y-99401054D01*
X99080000Y-99514093D01*
X99648285Y-99401054D01*
X100130054Y-99079147D01*
X100350000Y-98749974D01*
X100569946Y-99079147D01*
X101051715Y-99401054D01*
X101620000Y-99514093D01*
X102188285Y-99401054D01*
X102670054Y-99079147D01*
X102890000Y-98749974D01*
X103109946Y-99079147D01*
X103591715Y-99401054D01*
X104160000Y-99514093D01*
X104728285Y-99401054D01*
X105210054Y-99079147D01*
X105437702Y-98738447D01*
X105504817Y-98881358D01*
X105933076Y-99271645D01*
X106343110Y-99441476D01*
X106573000Y-99320155D01*
X106573000Y-98127000D01*
X106553000Y-98127000D01*
X106553000Y-97873000D01*
X106573000Y-97873000D01*
X106573000Y-95587000D01*
X106553000Y-95587000D01*
X106553000Y-95333000D01*
X106573000Y-95333000D01*
X106573000Y-94139845D01*
X106343110Y-94018524D01*
X105933076Y-94188355D01*
X105504817Y-94578642D01*
X105437702Y-94721553D01*
X105210054Y-94380853D01*
X104728285Y-94058946D01*
X104160000Y-93945907D01*
X103591715Y-94058946D01*
X103109946Y-94380853D01*
X102890000Y-94710026D01*
X102670054Y-94380853D01*
X102188285Y-94058946D01*
X101620000Y-93945907D01*
X101051715Y-94058946D01*
X100569946Y-94380853D01*
X100350000Y-94710026D01*
X100130054Y-94380853D01*
X99648285Y-94058946D01*
X99080000Y-93945907D01*
X98511715Y-94058946D01*
X98029946Y-94380853D01*
X97810000Y-94710026D01*
X97590054Y-94380853D01*
X97108285Y-94058946D01*
X96540000Y-93945907D01*
X95971715Y-94058946D01*
X95489946Y-94380853D01*
X95270000Y-94710026D01*
X95050054Y-94380853D01*
X94568285Y-94058946D01*
X94000000Y-93945907D01*
X93431715Y-94058946D01*
X92949946Y-94380853D01*
X92628039Y-94862622D01*
X92515000Y-95430907D01*
X92515000Y-95489093D01*
X92628039Y-96057378D01*
X92949946Y-96539147D01*
X92951179Y-96539971D01*
X92914683Y-96546838D01*
X92698559Y-96685910D01*
X92553569Y-96898110D01*
X92502560Y-97150000D01*
X87710000Y-97150000D01*
X87710000Y-96069931D01*
X87973288Y-94746293D01*
X88683454Y-93683454D01*
X89746295Y-92973288D01*
X90766303Y-92770395D01*
X91497954Y-93502046D01*
X91728295Y-93655954D01*
X92000000Y-93710001D01*
X92000005Y-93710000D01*
X136000000Y-93710000D01*
X136271705Y-93655954D01*
X136502046Y-93502046D01*
X137294092Y-92710000D01*
X139110868Y-92710000D01*
X133533657Y-98287211D01*
G36*
X133413748Y-139205858D02*
X133399605Y-139220000D01*
X133413748Y-139234143D01*
X133234143Y-139413748D01*
X133220000Y-139399605D01*
X133205858Y-139413748D01*
X133026253Y-139234143D01*
X133040395Y-139220000D01*
X133026253Y-139205858D01*
X133205858Y-139026253D01*
X133220000Y-139040395D01*
X133234143Y-139026253D01*
X133413748Y-139205858D01*
X133413748Y-139205858D01*
G37*
X133413748Y-139205858D02*
X133399605Y-139220000D01*
X133413748Y-139234143D01*
X133234143Y-139413748D01*
X133220000Y-139399605D01*
X133205858Y-139413748D01*
X133026253Y-139234143D01*
X133040395Y-139220000D01*
X133026253Y-139205858D01*
X133205858Y-139026253D01*
X133220000Y-139040395D01*
X133234143Y-139026253D01*
X133413748Y-139205858D01*
G36*
X146535328Y-101873445D02*
X146134851Y-102273223D01*
X145917848Y-102795826D01*
X145917354Y-103361691D01*
X146133445Y-103884672D01*
X146533223Y-104285149D01*
X146689140Y-104349891D01*
X146535328Y-104413445D01*
X146134851Y-104813223D01*
X145917848Y-105335826D01*
X145917354Y-105901691D01*
X146133445Y-106424672D01*
X146533223Y-106825149D01*
X146689140Y-106889891D01*
X146535328Y-106953445D01*
X146163123Y-107325000D01*
X144824000Y-107325000D01*
X144504459Y-107388561D01*
X144233566Y-107569566D01*
X142040085Y-109763047D01*
X141741421Y-109762786D01*
X141287343Y-109950408D01*
X140939629Y-110297515D01*
X140751215Y-110751266D01*
X140750786Y-111242579D01*
X140938408Y-111696657D01*
X141285515Y-112044371D01*
X141739266Y-112232785D01*
X142230579Y-112233214D01*
X142684657Y-112045592D01*
X143032371Y-111698485D01*
X143220785Y-111244734D01*
X143221048Y-110943820D01*
X143678633Y-110486235D01*
X145905574Y-110486235D01*
X145932959Y-111051438D01*
X146096568Y-111446425D01*
X146341383Y-111519011D01*
X147160395Y-110700000D01*
X147519605Y-110700000D01*
X148338617Y-111519011D01*
X148583432Y-111446425D01*
X148774426Y-110913765D01*
X148747041Y-110348562D01*
X148583432Y-109953575D01*
X148338617Y-109880989D01*
X147519605Y-110700000D01*
X147160395Y-110700000D01*
X146341383Y-109880989D01*
X146096568Y-109953575D01*
X145905574Y-110486235D01*
X143678633Y-110486235D01*
X145169868Y-108995000D01*
X146163720Y-108995000D01*
X146533223Y-109365149D01*
X146673578Y-109423429D01*
X146593575Y-109456568D01*
X146520989Y-109701383D01*
X147340000Y-110520395D01*
X148159011Y-109701383D01*
X148086425Y-109456568D01*
X148000976Y-109425929D01*
X148144672Y-109366555D01*
X148516877Y-108995000D01*
X150042132Y-108995000D01*
X151839000Y-110791868D01*
X151839000Y-120341540D01*
X151678566Y-120101434D01*
X151634566Y-120057434D01*
X151504361Y-119970434D01*
X151266346Y-119811397D01*
X150832000Y-119725000D01*
X148216804Y-119725000D01*
X148146777Y-119654851D01*
X147990860Y-119590109D01*
X148144672Y-119526555D01*
X148545149Y-119126777D01*
X148762152Y-118604174D01*
X148762646Y-118038309D01*
X148546555Y-117515328D01*
X148146777Y-117114851D01*
X147990860Y-117050109D01*
X148144672Y-116986555D01*
X148545149Y-116586777D01*
X148762152Y-116064174D01*
X148762646Y-115498309D01*
X148546555Y-114975328D01*
X148146777Y-114574851D01*
X147990860Y-114510109D01*
X148144672Y-114446555D01*
X148545149Y-114046777D01*
X148762152Y-113524174D01*
X148762646Y-112958309D01*
X148546555Y-112435328D01*
X148146777Y-112034851D01*
X148006422Y-111976571D01*
X148086425Y-111943432D01*
X148159011Y-111698617D01*
X147340000Y-110879605D01*
X146520989Y-111698617D01*
X146593575Y-111943432D01*
X146679024Y-111974071D01*
X146535328Y-112033445D01*
X146134851Y-112433223D01*
X145917848Y-112955826D01*
X145917354Y-113521691D01*
X146133445Y-114044672D01*
X146533223Y-114445149D01*
X146689140Y-114509891D01*
X146535328Y-114573445D01*
X146134851Y-114973223D01*
X145917848Y-115495826D01*
X145917354Y-116061691D01*
X146133445Y-116584672D01*
X146533223Y-116985149D01*
X146689140Y-117049891D01*
X146535328Y-117113445D01*
X146134851Y-117513223D01*
X145917848Y-118035826D01*
X145917354Y-118601691D01*
X146133445Y-119124672D01*
X146533223Y-119525149D01*
X146689140Y-119589891D01*
X146535328Y-119653445D01*
X146134851Y-120053223D01*
X145917848Y-120575826D01*
X145917354Y-121141691D01*
X146133445Y-121664672D01*
X146533223Y-122065149D01*
X146689140Y-122129891D01*
X146535328Y-122193445D01*
X146134851Y-122593223D01*
X145917848Y-123115826D01*
X145917354Y-123681691D01*
X146133445Y-124204672D01*
X146533223Y-124605149D01*
X146689140Y-124669891D01*
X146535328Y-124733445D01*
X146134851Y-125133223D01*
X145917848Y-125655826D01*
X145917354Y-126221691D01*
X146133445Y-126744672D01*
X146533223Y-127145149D01*
X146689140Y-127209891D01*
X146535328Y-127273445D01*
X146134851Y-127673223D01*
X145917848Y-128195826D01*
X145917810Y-128239645D01*
X145870000Y-128480000D01*
X145917392Y-128718254D01*
X145917354Y-128761691D01*
X146133445Y-129284672D01*
X146533223Y-129685149D01*
X146689140Y-129749891D01*
X146535328Y-129813445D01*
X146134851Y-130213223D01*
X145917848Y-130735826D01*
X145917354Y-131301691D01*
X146133445Y-131824672D01*
X146533223Y-132225149D01*
X146689140Y-132289891D01*
X146535328Y-132353445D01*
X146163123Y-132725000D01*
X145816000Y-132725000D01*
X145496460Y-132788560D01*
X145225566Y-132969566D01*
X141660132Y-136535000D01*
X130921868Y-136535000D01*
X129896434Y-135509566D01*
X129625541Y-135328561D01*
X129306000Y-135265000D01*
X118221868Y-135265000D01*
X117949000Y-134992132D01*
X117949000Y-130004000D01*
X117885439Y-129684459D01*
X117704434Y-129413566D01*
X115672434Y-127381566D01*
X115590243Y-127326648D01*
X115401541Y-127200561D01*
X115082000Y-127137000D01*
X114620719Y-127137000D01*
X114500648Y-126957302D01*
X114118562Y-126702000D01*
X114500648Y-126446698D01*
X114811717Y-125981151D01*
X114920950Y-125432000D01*
X114811717Y-124882849D01*
X114500648Y-124417302D01*
X114118562Y-124162000D01*
X114500648Y-123906698D01*
X114620719Y-123727000D01*
X115244132Y-123727000D01*
X118047566Y-126530434D01*
X118318459Y-126711439D01*
X118638000Y-126775000D01*
X125004132Y-126775000D01*
X122365566Y-129413566D01*
X122184561Y-129684459D01*
X122121000Y-130004000D01*
X122121000Y-132397118D01*
X121941302Y-132517189D01*
X121802447Y-132725000D01*
X121061553Y-132725000D01*
X120922698Y-132517189D01*
X120457151Y-132206120D01*
X119908000Y-132096887D01*
X119358849Y-132206120D01*
X118893302Y-132517189D01*
X118582233Y-132982736D01*
X118473000Y-133531887D01*
X118473000Y-133588113D01*
X118582233Y-134137264D01*
X118893302Y-134602811D01*
X119358849Y-134913880D01*
X119908000Y-135023113D01*
X120457151Y-134913880D01*
X120922698Y-134602811D01*
X121061553Y-134395000D01*
X121802447Y-134395000D01*
X121941302Y-134602811D01*
X122406849Y-134913880D01*
X122956000Y-135023113D01*
X123505151Y-134913880D01*
X123970698Y-134602811D01*
X124281767Y-134137264D01*
X124391000Y-133588113D01*
X124391000Y-133531887D01*
X124331455Y-133232532D01*
X136187073Y-133232532D01*
X136285736Y-133499387D01*
X136895461Y-133725908D01*
X137545460Y-133701856D01*
X138034264Y-133499387D01*
X138132927Y-133232532D01*
X137160000Y-132259605D01*
X136187073Y-133232532D01*
X124331455Y-133232532D01*
X124281767Y-132982736D01*
X123970698Y-132517189D01*
X123791000Y-132397118D01*
X123791000Y-131815461D01*
X135514092Y-131815461D01*
X135538144Y-132465460D01*
X135740613Y-132954264D01*
X136007468Y-133052927D01*
X136980395Y-132080000D01*
X136007468Y-131107073D01*
X135740613Y-131205736D01*
X135514092Y-131815461D01*
X123791000Y-131815461D01*
X123791000Y-130692532D01*
X136187073Y-130692532D01*
X136230504Y-130810000D01*
X136187073Y-130927468D01*
X137160000Y-131900395D01*
X138132927Y-130927468D01*
X138089496Y-130810000D01*
X138132927Y-130692532D01*
X137160000Y-129719605D01*
X136187073Y-130692532D01*
X123791000Y-130692532D01*
X123791000Y-130349868D01*
X124865407Y-129275461D01*
X135514092Y-129275461D01*
X135538144Y-129925460D01*
X135740613Y-130414264D01*
X136007468Y-130512927D01*
X136980395Y-129540000D01*
X136007468Y-128567073D01*
X135740613Y-128665736D01*
X135514092Y-129275461D01*
X124865407Y-129275461D01*
X125988336Y-128152532D01*
X136187073Y-128152532D01*
X136230504Y-128270000D01*
X136187073Y-128387468D01*
X137160000Y-129360395D01*
X138132927Y-128387468D01*
X138089496Y-128270000D01*
X138132927Y-128152532D01*
X137160000Y-127179605D01*
X136187073Y-128152532D01*
X125988336Y-128152532D01*
X127264503Y-126876365D01*
X127396943Y-126850021D01*
X127568394Y-126735461D01*
X135514092Y-126735461D01*
X135538144Y-127385460D01*
X135740613Y-127874264D01*
X136007468Y-127972927D01*
X136980395Y-127000000D01*
X136007468Y-126027073D01*
X135740613Y-126125736D01*
X135514092Y-126735461D01*
X127568394Y-126735461D01*
X127716500Y-126636500D01*
X127930021Y-126316943D01*
X128005000Y-125940000D01*
X127986595Y-125847468D01*
X136187073Y-125847468D01*
X137160000Y-126820395D01*
X138132927Y-125847468D01*
X138034264Y-125580613D01*
X137424539Y-125354092D01*
X136774540Y-125378144D01*
X136285736Y-125580613D01*
X136187073Y-125847468D01*
X127986595Y-125847468D01*
X127930021Y-125563057D01*
X127716500Y-125243500D01*
X127523628Y-125114627D01*
X124937000Y-122528000D01*
X124937000Y-112168000D01*
X125420000Y-111685000D01*
X127020000Y-111685000D01*
X127396943Y-111610021D01*
X127716500Y-111396500D01*
X127930021Y-111076943D01*
X128005000Y-110700000D01*
X128005000Y-108204000D01*
X129675000Y-108204000D01*
X129761397Y-108638345D01*
X130007434Y-109006566D01*
X138565000Y-117564133D01*
X138565000Y-125822796D01*
X138347438Y-126039978D01*
X138312532Y-126027073D01*
X137339605Y-127000000D01*
X138312532Y-127972927D01*
X138347938Y-127959836D01*
X138565000Y-128177278D01*
X138565000Y-128362796D01*
X138347438Y-128579978D01*
X138312532Y-128567073D01*
X137339605Y-129540000D01*
X138312532Y-130512927D01*
X138347938Y-130499836D01*
X138565000Y-130717278D01*
X138565000Y-130902796D01*
X138347438Y-131119978D01*
X138312532Y-131107073D01*
X137339605Y-132080000D01*
X138312532Y-133052927D01*
X138347938Y-133039836D01*
X138772637Y-133465278D01*
X139373352Y-133714716D01*
X140023795Y-133715284D01*
X140624943Y-133466894D01*
X140841677Y-133250539D01*
X140925910Y-133381441D01*
X141138110Y-133526431D01*
X141390000Y-133577440D01*
X143090000Y-133577440D01*
X143325317Y-133533162D01*
X143541441Y-133394090D01*
X143686431Y-133181890D01*
X143737440Y-132930000D01*
X143737440Y-131230000D01*
X143693162Y-130994683D01*
X143554090Y-130778559D01*
X143341890Y-130633569D01*
X143274459Y-130619914D01*
X143319147Y-130590054D01*
X143641054Y-130108285D01*
X143754093Y-129540000D01*
X143641054Y-128971715D01*
X143319147Y-128489946D01*
X142989974Y-128270000D01*
X143319147Y-128050054D01*
X143641054Y-127568285D01*
X143754093Y-127000000D01*
X143641054Y-126431715D01*
X143319147Y-125949946D01*
X142837378Y-125628039D01*
X142269093Y-125515000D01*
X142210907Y-125515000D01*
X141642622Y-125628039D01*
X141160853Y-125949946D01*
X141081121Y-126069274D01*
X140835000Y-125822722D01*
X140835000Y-117094000D01*
X140791250Y-116874054D01*
X140748604Y-116659655D01*
X140502567Y-116291434D01*
X137495133Y-113284000D01*
X142757907Y-113284000D01*
X142870946Y-113852285D01*
X143192853Y-114334054D01*
X143522026Y-114554000D01*
X143192853Y-114773946D01*
X142870946Y-115255715D01*
X142757907Y-115824000D01*
X142870946Y-116392285D01*
X143192853Y-116874054D01*
X143234452Y-116901850D01*
X143186683Y-116910838D01*
X142970559Y-117049910D01*
X142825569Y-117262110D01*
X142774560Y-117514000D01*
X142774560Y-119214000D01*
X142818838Y-119449317D01*
X142957910Y-119665441D01*
X143170110Y-119810431D01*
X143422000Y-119861440D01*
X145122000Y-119861440D01*
X145357317Y-119817162D01*
X145573441Y-119678090D01*
X145718431Y-119465890D01*
X145769440Y-119214000D01*
X145769440Y-117514000D01*
X145725162Y-117278683D01*
X145586090Y-117062559D01*
X145373890Y-116917569D01*
X145306459Y-116903914D01*
X145351147Y-116874054D01*
X145673054Y-116392285D01*
X145786093Y-115824000D01*
X145673054Y-115255715D01*
X145351147Y-114773946D01*
X145021974Y-114554000D01*
X145351147Y-114334054D01*
X145673054Y-113852285D01*
X145786093Y-113284000D01*
X145673054Y-112715715D01*
X145351147Y-112233946D01*
X144869378Y-111912039D01*
X144301093Y-111799000D01*
X144242907Y-111799000D01*
X143674622Y-111912039D01*
X143192853Y-112233946D01*
X142870946Y-112715715D01*
X142757907Y-113284000D01*
X137495133Y-113284000D01*
X131612566Y-107401434D01*
X131244345Y-107155397D01*
X130810000Y-107069000D01*
X130375655Y-107155397D01*
X130007434Y-107401434D01*
X129761397Y-107769655D01*
X129675000Y-108204000D01*
X128005000Y-108204000D01*
X128005000Y-106028000D01*
X128715255Y-105317745D01*
X130001861Y-105317745D01*
X130075995Y-105563864D01*
X130613223Y-105756965D01*
X131183454Y-105729778D01*
X131584005Y-105563864D01*
X131658139Y-105317745D01*
X135081861Y-105317745D01*
X135155995Y-105563864D01*
X135693223Y-105756965D01*
X136263454Y-105729778D01*
X136664005Y-105563864D01*
X136738139Y-105317745D01*
X135910000Y-104489605D01*
X135081861Y-105317745D01*
X131658139Y-105317745D01*
X130830000Y-104489605D01*
X130001861Y-105317745D01*
X128715255Y-105317745D01*
X129408371Y-104624629D01*
X129410222Y-104663454D01*
X129576136Y-105064005D01*
X129822255Y-105138139D01*
X130650395Y-104310000D01*
X131009605Y-104310000D01*
X131837745Y-105138139D01*
X132083864Y-105064005D01*
X132276965Y-104526777D01*
X132256295Y-104093223D01*
X134463035Y-104093223D01*
X134490222Y-104663454D01*
X134656136Y-105064005D01*
X134902255Y-105138139D01*
X135730395Y-104310000D01*
X136089605Y-104310000D01*
X136917745Y-105138139D01*
X137163864Y-105064005D01*
X137356965Y-104526777D01*
X137329778Y-103956546D01*
X137163864Y-103555995D01*
X136917745Y-103481861D01*
X136089605Y-104310000D01*
X135730395Y-104310000D01*
X134902255Y-103481861D01*
X134656136Y-103555995D01*
X134463035Y-104093223D01*
X132256295Y-104093223D01*
X132249778Y-103956546D01*
X132083864Y-103555995D01*
X131837745Y-103481861D01*
X131009605Y-104310000D01*
X130650395Y-104310000D01*
X130636252Y-104295858D01*
X130815858Y-104116252D01*
X130830000Y-104130395D01*
X131658139Y-103302255D01*
X131584005Y-103056136D01*
X131577517Y-103053804D01*
X131641800Y-103027243D01*
X131724187Y-102945000D01*
X134570982Y-102945000D01*
X134645910Y-103061441D01*
X134858110Y-103206431D01*
X135096201Y-103254646D01*
X135081861Y-103302255D01*
X135910000Y-104130395D01*
X136738139Y-103302255D01*
X136723855Y-103254833D01*
X136945317Y-103213162D01*
X137161441Y-103074090D01*
X137306431Y-102861890D01*
X137319977Y-102795000D01*
X142768000Y-102795000D01*
X143144943Y-102720021D01*
X143464500Y-102506500D01*
X144192000Y-101779000D01*
X146763903Y-101779000D01*
X146535328Y-101873445D01*
X146535328Y-101873445D01*
G37*
X146535328Y-101873445D02*
X146134851Y-102273223D01*
X145917848Y-102795826D01*
X145917354Y-103361691D01*
X146133445Y-103884672D01*
X146533223Y-104285149D01*
X146689140Y-104349891D01*
X146535328Y-104413445D01*
X146134851Y-104813223D01*
X145917848Y-105335826D01*
X145917354Y-105901691D01*
X146133445Y-106424672D01*
X146533223Y-106825149D01*
X146689140Y-106889891D01*
X146535328Y-106953445D01*
X146163123Y-107325000D01*
X144824000Y-107325000D01*
X144504459Y-107388561D01*
X144233566Y-107569566D01*
X142040085Y-109763047D01*
X141741421Y-109762786D01*
X141287343Y-109950408D01*
X140939629Y-110297515D01*
X140751215Y-110751266D01*
X140750786Y-111242579D01*
X140938408Y-111696657D01*
X141285515Y-112044371D01*
X141739266Y-112232785D01*
X142230579Y-112233214D01*
X142684657Y-112045592D01*
X143032371Y-111698485D01*
X143220785Y-111244734D01*
X143221048Y-110943820D01*
X143678633Y-110486235D01*
X145905574Y-110486235D01*
X145932959Y-111051438D01*
X146096568Y-111446425D01*
X146341383Y-111519011D01*
X147160395Y-110700000D01*
X147519605Y-110700000D01*
X148338617Y-111519011D01*
X148583432Y-111446425D01*
X148774426Y-110913765D01*
X148747041Y-110348562D01*
X148583432Y-109953575D01*
X148338617Y-109880989D01*
X147519605Y-110700000D01*
X147160395Y-110700000D01*
X146341383Y-109880989D01*
X146096568Y-109953575D01*
X145905574Y-110486235D01*
X143678633Y-110486235D01*
X145169868Y-108995000D01*
X146163720Y-108995000D01*
X146533223Y-109365149D01*
X146673578Y-109423429D01*
X146593575Y-109456568D01*
X146520989Y-109701383D01*
X147340000Y-110520395D01*
X148159011Y-109701383D01*
X148086425Y-109456568D01*
X148000976Y-109425929D01*
X148144672Y-109366555D01*
X148516877Y-108995000D01*
X150042132Y-108995000D01*
X151839000Y-110791868D01*
X151839000Y-120341540D01*
X151678566Y-120101434D01*
X151634566Y-120057434D01*
X151504361Y-119970434D01*
X151266346Y-119811397D01*
X150832000Y-119725000D01*
X148216804Y-119725000D01*
X148146777Y-119654851D01*
X147990860Y-119590109D01*
X148144672Y-119526555D01*
X148545149Y-119126777D01*
X148762152Y-118604174D01*
X148762646Y-118038309D01*
X148546555Y-117515328D01*
X148146777Y-117114851D01*
X147990860Y-117050109D01*
X148144672Y-116986555D01*
X148545149Y-116586777D01*
X148762152Y-116064174D01*
X148762646Y-115498309D01*
X148546555Y-114975328D01*
X148146777Y-114574851D01*
X147990860Y-114510109D01*
X148144672Y-114446555D01*
X148545149Y-114046777D01*
X148762152Y-113524174D01*
X148762646Y-112958309D01*
X148546555Y-112435328D01*
X148146777Y-112034851D01*
X148006422Y-111976571D01*
X148086425Y-111943432D01*
X148159011Y-111698617D01*
X147340000Y-110879605D01*
X146520989Y-111698617D01*
X146593575Y-111943432D01*
X146679024Y-111974071D01*
X146535328Y-112033445D01*
X146134851Y-112433223D01*
X145917848Y-112955826D01*
X145917354Y-113521691D01*
X146133445Y-114044672D01*
X146533223Y-114445149D01*
X146689140Y-114509891D01*
X146535328Y-114573445D01*
X146134851Y-114973223D01*
X145917848Y-115495826D01*
X145917354Y-116061691D01*
X146133445Y-116584672D01*
X146533223Y-116985149D01*
X146689140Y-117049891D01*
X146535328Y-117113445D01*
X146134851Y-117513223D01*
X145917848Y-118035826D01*
X145917354Y-118601691D01*
X146133445Y-119124672D01*
X146533223Y-119525149D01*
X146689140Y-119589891D01*
X146535328Y-119653445D01*
X146134851Y-120053223D01*
X145917848Y-120575826D01*
X145917354Y-121141691D01*
X146133445Y-121664672D01*
X146533223Y-122065149D01*
X146689140Y-122129891D01*
X146535328Y-122193445D01*
X146134851Y-122593223D01*
X145917848Y-123115826D01*
X145917354Y-123681691D01*
X146133445Y-124204672D01*
X146533223Y-124605149D01*
X146689140Y-124669891D01*
X146535328Y-124733445D01*
X146134851Y-125133223D01*
X145917848Y-125655826D01*
X145917354Y-126221691D01*
X146133445Y-126744672D01*
X146533223Y-127145149D01*
X146689140Y-127209891D01*
X146535328Y-127273445D01*
X146134851Y-127673223D01*
X145917848Y-128195826D01*
X145917810Y-128239645D01*
X145870000Y-128480000D01*
X145917392Y-128718254D01*
X145917354Y-128761691D01*
X146133445Y-129284672D01*
X146533223Y-129685149D01*
X146689140Y-129749891D01*
X146535328Y-129813445D01*
X146134851Y-130213223D01*
X145917848Y-130735826D01*
X145917354Y-131301691D01*
X146133445Y-131824672D01*
X146533223Y-132225149D01*
X146689140Y-132289891D01*
X146535328Y-132353445D01*
X146163123Y-132725000D01*
X145816000Y-132725000D01*
X145496460Y-132788560D01*
X145225566Y-132969566D01*
X141660132Y-136535000D01*
X130921868Y-136535000D01*
X129896434Y-135509566D01*
X129625541Y-135328561D01*
X129306000Y-135265000D01*
X118221868Y-135265000D01*
X117949000Y-134992132D01*
X117949000Y-130004000D01*
X117885439Y-129684459D01*
X117704434Y-129413566D01*
X115672434Y-127381566D01*
X115590243Y-127326648D01*
X115401541Y-127200561D01*
X115082000Y-127137000D01*
X114620719Y-127137000D01*
X114500648Y-126957302D01*
X114118562Y-126702000D01*
X114500648Y-126446698D01*
X114811717Y-125981151D01*
X114920950Y-125432000D01*
X114811717Y-124882849D01*
X114500648Y-124417302D01*
X114118562Y-124162000D01*
X114500648Y-123906698D01*
X114620719Y-123727000D01*
X115244132Y-123727000D01*
X118047566Y-126530434D01*
X118318459Y-126711439D01*
X118638000Y-126775000D01*
X125004132Y-126775000D01*
X122365566Y-129413566D01*
X122184561Y-129684459D01*
X122121000Y-130004000D01*
X122121000Y-132397118D01*
X121941302Y-132517189D01*
X121802447Y-132725000D01*
X121061553Y-132725000D01*
X120922698Y-132517189D01*
X120457151Y-132206120D01*
X119908000Y-132096887D01*
X119358849Y-132206120D01*
X118893302Y-132517189D01*
X118582233Y-132982736D01*
X118473000Y-133531887D01*
X118473000Y-133588113D01*
X118582233Y-134137264D01*
X118893302Y-134602811D01*
X119358849Y-134913880D01*
X119908000Y-135023113D01*
X120457151Y-134913880D01*
X120922698Y-134602811D01*
X121061553Y-134395000D01*
X121802447Y-134395000D01*
X121941302Y-134602811D01*
X122406849Y-134913880D01*
X122956000Y-135023113D01*
X123505151Y-134913880D01*
X123970698Y-134602811D01*
X124281767Y-134137264D01*
X124391000Y-133588113D01*
X124391000Y-133531887D01*
X124331455Y-133232532D01*
X136187073Y-133232532D01*
X136285736Y-133499387D01*
X136895461Y-133725908D01*
X137545460Y-133701856D01*
X138034264Y-133499387D01*
X138132927Y-133232532D01*
X137160000Y-132259605D01*
X136187073Y-133232532D01*
X124331455Y-133232532D01*
X124281767Y-132982736D01*
X123970698Y-132517189D01*
X123791000Y-132397118D01*
X123791000Y-131815461D01*
X135514092Y-131815461D01*
X135538144Y-132465460D01*
X135740613Y-132954264D01*
X136007468Y-133052927D01*
X136980395Y-132080000D01*
X136007468Y-131107073D01*
X135740613Y-131205736D01*
X135514092Y-131815461D01*
X123791000Y-131815461D01*
X123791000Y-130692532D01*
X136187073Y-130692532D01*
X136230504Y-130810000D01*
X136187073Y-130927468D01*
X137160000Y-131900395D01*
X138132927Y-130927468D01*
X138089496Y-130810000D01*
X138132927Y-130692532D01*
X137160000Y-129719605D01*
X136187073Y-130692532D01*
X123791000Y-130692532D01*
X123791000Y-130349868D01*
X124865407Y-129275461D01*
X135514092Y-129275461D01*
X135538144Y-129925460D01*
X135740613Y-130414264D01*
X136007468Y-130512927D01*
X136980395Y-129540000D01*
X136007468Y-128567073D01*
X135740613Y-128665736D01*
X135514092Y-129275461D01*
X124865407Y-129275461D01*
X125988336Y-128152532D01*
X136187073Y-128152532D01*
X136230504Y-128270000D01*
X136187073Y-128387468D01*
X137160000Y-129360395D01*
X138132927Y-128387468D01*
X138089496Y-128270000D01*
X138132927Y-128152532D01*
X137160000Y-127179605D01*
X136187073Y-128152532D01*
X125988336Y-128152532D01*
X127264503Y-126876365D01*
X127396943Y-126850021D01*
X127568394Y-126735461D01*
X135514092Y-126735461D01*
X135538144Y-127385460D01*
X135740613Y-127874264D01*
X136007468Y-127972927D01*
X136980395Y-127000000D01*
X136007468Y-126027073D01*
X135740613Y-126125736D01*
X135514092Y-126735461D01*
X127568394Y-126735461D01*
X127716500Y-126636500D01*
X127930021Y-126316943D01*
X128005000Y-125940000D01*
X127986595Y-125847468D01*
X136187073Y-125847468D01*
X137160000Y-126820395D01*
X138132927Y-125847468D01*
X138034264Y-125580613D01*
X137424539Y-125354092D01*
X136774540Y-125378144D01*
X136285736Y-125580613D01*
X136187073Y-125847468D01*
X127986595Y-125847468D01*
X127930021Y-125563057D01*
X127716500Y-125243500D01*
X127523628Y-125114627D01*
X124937000Y-122528000D01*
X124937000Y-112168000D01*
X125420000Y-111685000D01*
X127020000Y-111685000D01*
X127396943Y-111610021D01*
X127716500Y-111396500D01*
X127930021Y-111076943D01*
X128005000Y-110700000D01*
X128005000Y-108204000D01*
X129675000Y-108204000D01*
X129761397Y-108638345D01*
X130007434Y-109006566D01*
X138565000Y-117564133D01*
X138565000Y-125822796D01*
X138347438Y-126039978D01*
X138312532Y-126027073D01*
X137339605Y-127000000D01*
X138312532Y-127972927D01*
X138347938Y-127959836D01*
X138565000Y-128177278D01*
X138565000Y-128362796D01*
X138347438Y-128579978D01*
X138312532Y-128567073D01*
X137339605Y-129540000D01*
X138312532Y-130512927D01*
X138347938Y-130499836D01*
X138565000Y-130717278D01*
X138565000Y-130902796D01*
X138347438Y-131119978D01*
X138312532Y-131107073D01*
X137339605Y-132080000D01*
X138312532Y-133052927D01*
X138347938Y-133039836D01*
X138772637Y-133465278D01*
X139373352Y-133714716D01*
X140023795Y-133715284D01*
X140624943Y-133466894D01*
X140841677Y-133250539D01*
X140925910Y-133381441D01*
X141138110Y-133526431D01*
X141390000Y-133577440D01*
X143090000Y-133577440D01*
X143325317Y-133533162D01*
X143541441Y-133394090D01*
X143686431Y-133181890D01*
X143737440Y-132930000D01*
X143737440Y-131230000D01*
X143693162Y-130994683D01*
X143554090Y-130778559D01*
X143341890Y-130633569D01*
X143274459Y-130619914D01*
X143319147Y-130590054D01*
X143641054Y-130108285D01*
X143754093Y-129540000D01*
X143641054Y-128971715D01*
X143319147Y-128489946D01*
X142989974Y-128270000D01*
X143319147Y-128050054D01*
X143641054Y-127568285D01*
X143754093Y-127000000D01*
X143641054Y-126431715D01*
X143319147Y-125949946D01*
X142837378Y-125628039D01*
X142269093Y-125515000D01*
X142210907Y-125515000D01*
X141642622Y-125628039D01*
X141160853Y-125949946D01*
X141081121Y-126069274D01*
X140835000Y-125822722D01*
X140835000Y-117094000D01*
X140791250Y-116874054D01*
X140748604Y-116659655D01*
X140502567Y-116291434D01*
X137495133Y-113284000D01*
X142757907Y-113284000D01*
X142870946Y-113852285D01*
X143192853Y-114334054D01*
X143522026Y-114554000D01*
X143192853Y-114773946D01*
X142870946Y-115255715D01*
X142757907Y-115824000D01*
X142870946Y-116392285D01*
X143192853Y-116874054D01*
X143234452Y-116901850D01*
X143186683Y-116910838D01*
X142970559Y-117049910D01*
X142825569Y-117262110D01*
X142774560Y-117514000D01*
X142774560Y-119214000D01*
X142818838Y-119449317D01*
X142957910Y-119665441D01*
X143170110Y-119810431D01*
X143422000Y-119861440D01*
X145122000Y-119861440D01*
X145357317Y-119817162D01*
X145573441Y-119678090D01*
X145718431Y-119465890D01*
X145769440Y-119214000D01*
X145769440Y-117514000D01*
X145725162Y-117278683D01*
X145586090Y-117062559D01*
X145373890Y-116917569D01*
X145306459Y-116903914D01*
X145351147Y-116874054D01*
X145673054Y-116392285D01*
X145786093Y-115824000D01*
X145673054Y-115255715D01*
X145351147Y-114773946D01*
X145021974Y-114554000D01*
X145351147Y-114334054D01*
X145673054Y-113852285D01*
X145786093Y-113284000D01*
X145673054Y-112715715D01*
X145351147Y-112233946D01*
X144869378Y-111912039D01*
X144301093Y-111799000D01*
X144242907Y-111799000D01*
X143674622Y-111912039D01*
X143192853Y-112233946D01*
X142870946Y-112715715D01*
X142757907Y-113284000D01*
X137495133Y-113284000D01*
X131612566Y-107401434D01*
X131244345Y-107155397D01*
X130810000Y-107069000D01*
X130375655Y-107155397D01*
X130007434Y-107401434D01*
X129761397Y-107769655D01*
X129675000Y-108204000D01*
X128005000Y-108204000D01*
X128005000Y-106028000D01*
X128715255Y-105317745D01*
X130001861Y-105317745D01*
X130075995Y-105563864D01*
X130613223Y-105756965D01*
X131183454Y-105729778D01*
X131584005Y-105563864D01*
X131658139Y-105317745D01*
X135081861Y-105317745D01*
X135155995Y-105563864D01*
X135693223Y-105756965D01*
X136263454Y-105729778D01*
X136664005Y-105563864D01*
X136738139Y-105317745D01*
X135910000Y-104489605D01*
X135081861Y-105317745D01*
X131658139Y-105317745D01*
X130830000Y-104489605D01*
X130001861Y-105317745D01*
X128715255Y-105317745D01*
X129408371Y-104624629D01*
X129410222Y-104663454D01*
X129576136Y-105064005D01*
X129822255Y-105138139D01*
X130650395Y-104310000D01*
X131009605Y-104310000D01*
X131837745Y-105138139D01*
X132083864Y-105064005D01*
X132276965Y-104526777D01*
X132256295Y-104093223D01*
X134463035Y-104093223D01*
X134490222Y-104663454D01*
X134656136Y-105064005D01*
X134902255Y-105138139D01*
X135730395Y-104310000D01*
X136089605Y-104310000D01*
X136917745Y-105138139D01*
X137163864Y-105064005D01*
X137356965Y-104526777D01*
X137329778Y-103956546D01*
X137163864Y-103555995D01*
X136917745Y-103481861D01*
X136089605Y-104310000D01*
X135730395Y-104310000D01*
X134902255Y-103481861D01*
X134656136Y-103555995D01*
X134463035Y-104093223D01*
X132256295Y-104093223D01*
X132249778Y-103956546D01*
X132083864Y-103555995D01*
X131837745Y-103481861D01*
X131009605Y-104310000D01*
X130650395Y-104310000D01*
X130636252Y-104295858D01*
X130815858Y-104116252D01*
X130830000Y-104130395D01*
X131658139Y-103302255D01*
X131584005Y-103056136D01*
X131577517Y-103053804D01*
X131641800Y-103027243D01*
X131724187Y-102945000D01*
X134570982Y-102945000D01*
X134645910Y-103061441D01*
X134858110Y-103206431D01*
X135096201Y-103254646D01*
X135081861Y-103302255D01*
X135910000Y-104130395D01*
X136738139Y-103302255D01*
X136723855Y-103254833D01*
X136945317Y-103213162D01*
X137161441Y-103074090D01*
X137306431Y-102861890D01*
X137319977Y-102795000D01*
X142768000Y-102795000D01*
X143144943Y-102720021D01*
X143464500Y-102506500D01*
X144192000Y-101779000D01*
X146763903Y-101779000D01*
X146535328Y-101873445D01*
G36*
X178501715Y-98420946D02*
X178019946Y-98742853D01*
X177698039Y-99224622D01*
X177585000Y-99792907D01*
X177585000Y-99851093D01*
X177698039Y-100419378D01*
X178019946Y-100901147D01*
X178235000Y-101044841D01*
X178235000Y-102237609D01*
X177886371Y-102585630D01*
X177806605Y-102777727D01*
X177752397Y-102646857D01*
X177510213Y-102577392D01*
X176709605Y-103378000D01*
X177510213Y-104178608D01*
X177752397Y-104109143D01*
X177802509Y-103968682D01*
X177884990Y-104168303D01*
X178277630Y-104561629D01*
X178790900Y-104774757D01*
X179346661Y-104775242D01*
X179860303Y-104563010D01*
X180253629Y-104170370D01*
X180339949Y-103962488D01*
X180424990Y-104168303D01*
X180817630Y-104561629D01*
X181330900Y-104774757D01*
X181886661Y-104775242D01*
X182400303Y-104563010D01*
X182793629Y-104170370D01*
X182879949Y-103962488D01*
X182964990Y-104168303D01*
X183357630Y-104561629D01*
X183870900Y-104774757D01*
X184426661Y-104775242D01*
X184940303Y-104563010D01*
X185333629Y-104170370D01*
X185419949Y-103962488D01*
X185504990Y-104168303D01*
X185897630Y-104561629D01*
X186410900Y-104774757D01*
X186966661Y-104775242D01*
X187480303Y-104563010D01*
X187873629Y-104170370D01*
X187959949Y-103962488D01*
X188044990Y-104168303D01*
X188395000Y-104518925D01*
X188395000Y-105514513D01*
X188183629Y-105725515D01*
X187995215Y-106179266D01*
X187994786Y-106670579D01*
X188182408Y-107124657D01*
X188276586Y-107219000D01*
X176684000Y-107219000D01*
X174975000Y-105510000D01*
X174975000Y-104368653D01*
X174985458Y-104358213D01*
X175729392Y-104358213D01*
X175798857Y-104600397D01*
X176322302Y-104787144D01*
X176877368Y-104759362D01*
X177261143Y-104600397D01*
X177330608Y-104358213D01*
X176530000Y-103557605D01*
X175729392Y-104358213D01*
X174985458Y-104358213D01*
X175173629Y-104170370D01*
X175253395Y-103978273D01*
X175307603Y-104109143D01*
X175549787Y-104178608D01*
X176350395Y-103378000D01*
X175549787Y-102577392D01*
X175307603Y-102646857D01*
X175257491Y-102787318D01*
X175175010Y-102587697D01*
X174985432Y-102397787D01*
X175729392Y-102397787D01*
X176530000Y-103198395D01*
X177330608Y-102397787D01*
X177261143Y-102155603D01*
X176737698Y-101968856D01*
X176182632Y-101996638D01*
X175798857Y-102155603D01*
X175729392Y-102397787D01*
X174985432Y-102397787D01*
X174782370Y-102194371D01*
X174269100Y-101981243D01*
X173713339Y-101980758D01*
X173199697Y-102192990D01*
X172806371Y-102585630D01*
X172593243Y-103098900D01*
X172592758Y-103654661D01*
X172804990Y-104168303D01*
X173005000Y-104368662D01*
X173005000Y-105918000D01*
X173079979Y-106294943D01*
X173293500Y-106614500D01*
X175579500Y-108900500D01*
X175899057Y-109114021D01*
X176276000Y-109189000D01*
X194699000Y-109189000D01*
X194699000Y-126015000D01*
X176176000Y-126015000D01*
X175483000Y-125322000D01*
X175483000Y-124688653D01*
X175493458Y-124678213D01*
X176237392Y-124678213D01*
X176306857Y-124920397D01*
X176830302Y-125107144D01*
X177385368Y-125079362D01*
X177769143Y-124920397D01*
X177838608Y-124678213D01*
X177038000Y-123877605D01*
X176237392Y-124678213D01*
X175493458Y-124678213D01*
X175681629Y-124490370D01*
X175761395Y-124298273D01*
X175815603Y-124429143D01*
X176057787Y-124498608D01*
X176858395Y-123698000D01*
X177217605Y-123698000D01*
X178018213Y-124498608D01*
X178260397Y-124429143D01*
X178310509Y-124288682D01*
X178392990Y-124488303D01*
X178785630Y-124881629D01*
X179298900Y-125094757D01*
X179854661Y-125095242D01*
X180368303Y-124883010D01*
X180761629Y-124490370D01*
X180847949Y-124282488D01*
X180932990Y-124488303D01*
X181325630Y-124881629D01*
X181838900Y-125094757D01*
X182394661Y-125095242D01*
X182908303Y-124883010D01*
X183301629Y-124490370D01*
X183387949Y-124282488D01*
X183472990Y-124488303D01*
X183865630Y-124881629D01*
X184378900Y-125094757D01*
X184934661Y-125095242D01*
X185448303Y-124883010D01*
X185841629Y-124490370D01*
X185927949Y-124282488D01*
X186012990Y-124488303D01*
X186405630Y-124881629D01*
X186918900Y-125094757D01*
X187474661Y-125095242D01*
X187988303Y-124883010D01*
X188381629Y-124490370D01*
X188467949Y-124282488D01*
X188552990Y-124488303D01*
X188945630Y-124881629D01*
X189458900Y-125094757D01*
X190014661Y-125095242D01*
X190528303Y-124883010D01*
X190733457Y-124678213D01*
X191477392Y-124678213D01*
X191546857Y-124920397D01*
X192070302Y-125107144D01*
X192625368Y-125079362D01*
X193009143Y-124920397D01*
X193078608Y-124678213D01*
X192278000Y-123877605D01*
X191477392Y-124678213D01*
X190733457Y-124678213D01*
X190921629Y-124490370D01*
X191001395Y-124298273D01*
X191055603Y-124429143D01*
X191297787Y-124498608D01*
X192098395Y-123698000D01*
X192457605Y-123698000D01*
X193258213Y-124498608D01*
X193500397Y-124429143D01*
X193687144Y-123905698D01*
X193659362Y-123350632D01*
X193500397Y-122966857D01*
X193258213Y-122897392D01*
X192457605Y-123698000D01*
X192098395Y-123698000D01*
X191297787Y-122897392D01*
X191055603Y-122966857D01*
X191005491Y-123107318D01*
X190923010Y-122907697D01*
X190808191Y-122792677D01*
X190883081Y-122717787D01*
X191477392Y-122717787D01*
X192278000Y-123518395D01*
X193078608Y-122717787D01*
X193009143Y-122475603D01*
X192485698Y-122288856D01*
X191930632Y-122316638D01*
X191546857Y-122475603D01*
X191477392Y-122717787D01*
X190883081Y-122717787D01*
X192985915Y-120614953D01*
X193284579Y-120615214D01*
X193738657Y-120427592D01*
X194086371Y-120080485D01*
X194274785Y-119626734D01*
X194275214Y-119135421D01*
X194087592Y-118681343D01*
X193740485Y-118333629D01*
X193286734Y-118145215D01*
X192795421Y-118144786D01*
X192341343Y-118332408D01*
X191993629Y-118679515D01*
X191805215Y-119133266D01*
X191804952Y-119434180D01*
X189147566Y-122091566D01*
X188966561Y-122362459D01*
X188933873Y-122526789D01*
X188554371Y-122905630D01*
X188468051Y-123113512D01*
X188383010Y-122907697D01*
X188033000Y-122557075D01*
X188033000Y-121639440D01*
X188048000Y-121639440D01*
X188283317Y-121595162D01*
X188499441Y-121456090D01*
X188644431Y-121243890D01*
X188695440Y-120992000D01*
X188695440Y-119292000D01*
X188651162Y-119056683D01*
X188512090Y-118840559D01*
X188299890Y-118695569D01*
X188048000Y-118644560D01*
X186348000Y-118644560D01*
X186112683Y-118688838D01*
X185896559Y-118827910D01*
X185751569Y-119040110D01*
X185737914Y-119107541D01*
X185708054Y-119062853D01*
X185226285Y-118740946D01*
X184658000Y-118627907D01*
X184089715Y-118740946D01*
X183607946Y-119062853D01*
X183388000Y-119392026D01*
X183168054Y-119062853D01*
X182686285Y-118740946D01*
X182118000Y-118627907D01*
X181549715Y-118740946D01*
X181067946Y-119062853D01*
X180848000Y-119392026D01*
X180628054Y-119062853D01*
X180146285Y-118740946D01*
X179578000Y-118627907D01*
X179009715Y-118740946D01*
X178527946Y-119062853D01*
X178206039Y-119544622D01*
X178093000Y-120112907D01*
X178093000Y-120171093D01*
X178206039Y-120739378D01*
X178527946Y-121221147D01*
X178743000Y-121364841D01*
X178743000Y-122557609D01*
X178394371Y-122905630D01*
X178314605Y-123097727D01*
X178260397Y-122966857D01*
X178018213Y-122897392D01*
X177217605Y-123698000D01*
X176858395Y-123698000D01*
X176057787Y-122897392D01*
X175815603Y-122966857D01*
X175765491Y-123107318D01*
X175683010Y-122907697D01*
X175493432Y-122717787D01*
X176237392Y-122717787D01*
X177038000Y-123518395D01*
X177838608Y-122717787D01*
X177769143Y-122475603D01*
X177245698Y-122288856D01*
X176690632Y-122316638D01*
X176306857Y-122475603D01*
X176237392Y-122717787D01*
X175493432Y-122717787D01*
X175290370Y-122514371D01*
X174777100Y-122301243D01*
X174221339Y-122300758D01*
X173707697Y-122512990D01*
X173314371Y-122905630D01*
X173101243Y-123418900D01*
X173100758Y-123974661D01*
X173312990Y-124488303D01*
X173513000Y-124688662D01*
X173513000Y-125730000D01*
X173587979Y-126106943D01*
X173801500Y-126426500D01*
X175020000Y-127645000D01*
X163756280Y-127645000D01*
X163386777Y-127274851D01*
X163230860Y-127210109D01*
X163384672Y-127146555D01*
X163756877Y-126775000D01*
X166668000Y-126775000D01*
X166987541Y-126711439D01*
X167258434Y-126530434D01*
X170262434Y-123526434D01*
X170443440Y-123255540D01*
X170507000Y-122936000D01*
X170507000Y-115915868D01*
X173319868Y-113103000D01*
X187360132Y-113103000D01*
X188395000Y-114137868D01*
X188395000Y-114937609D01*
X188046371Y-115285630D01*
X187960051Y-115493512D01*
X187875010Y-115287697D01*
X187482370Y-114894371D01*
X186969100Y-114681243D01*
X186413339Y-114680758D01*
X185899697Y-114892990D01*
X185506371Y-115285630D01*
X185420051Y-115493512D01*
X185335010Y-115287697D01*
X184942370Y-114894371D01*
X184429100Y-114681243D01*
X183873339Y-114680758D01*
X183359697Y-114892990D01*
X182966371Y-115285630D01*
X182880051Y-115493512D01*
X182795010Y-115287697D01*
X182402370Y-114894371D01*
X181889100Y-114681243D01*
X181333339Y-114680758D01*
X180819697Y-114892990D01*
X180426371Y-115285630D01*
X180340051Y-115493512D01*
X180255010Y-115287697D01*
X179862370Y-114894371D01*
X179349100Y-114681243D01*
X178793339Y-114680758D01*
X178279697Y-114892990D01*
X177886371Y-115285630D01*
X177800051Y-115493512D01*
X177715010Y-115287697D01*
X177322370Y-114894371D01*
X176809100Y-114681243D01*
X176253339Y-114680758D01*
X175739697Y-114892990D01*
X175346371Y-115285630D01*
X175260051Y-115493512D01*
X175175010Y-115287697D01*
X174782370Y-114894371D01*
X174269100Y-114681243D01*
X173713339Y-114680758D01*
X173199697Y-114892990D01*
X172806371Y-115285630D01*
X172593243Y-115798900D01*
X172592758Y-116354661D01*
X172804990Y-116868303D01*
X172855000Y-116918400D01*
X172855000Y-119126000D01*
X172941397Y-119560346D01*
X173187434Y-119928566D01*
X173555654Y-120174603D01*
X173990000Y-120261000D01*
X174424346Y-120174603D01*
X174792566Y-119928566D01*
X175038603Y-119560346D01*
X175125000Y-119126000D01*
X175125000Y-116918914D01*
X175173629Y-116870370D01*
X175259949Y-116662488D01*
X175344990Y-116868303D01*
X175737630Y-117261629D01*
X176250900Y-117474757D01*
X176806661Y-117475242D01*
X177320303Y-117263010D01*
X177713629Y-116870370D01*
X177799949Y-116662488D01*
X177884990Y-116868303D01*
X178277630Y-117261629D01*
X178790900Y-117474757D01*
X179346661Y-117475242D01*
X179860303Y-117263010D01*
X180253629Y-116870370D01*
X180339949Y-116662488D01*
X180424990Y-116868303D01*
X180817630Y-117261629D01*
X181330900Y-117474757D01*
X181886661Y-117475242D01*
X182400303Y-117263010D01*
X182793629Y-116870370D01*
X182879949Y-116662488D01*
X182964990Y-116868303D01*
X183357630Y-117261629D01*
X183870900Y-117474757D01*
X184426661Y-117475242D01*
X184940303Y-117263010D01*
X185333629Y-116870370D01*
X185419949Y-116662488D01*
X185504990Y-116868303D01*
X185897630Y-117261629D01*
X186410900Y-117474757D01*
X186966661Y-117475242D01*
X187480303Y-117263010D01*
X187873629Y-116870370D01*
X187959949Y-116662488D01*
X188044990Y-116868303D01*
X188437630Y-117261629D01*
X188950900Y-117474757D01*
X189506661Y-117475242D01*
X190020303Y-117263010D01*
X190413629Y-116870370D01*
X190499949Y-116662488D01*
X190584990Y-116868303D01*
X190977630Y-117261629D01*
X191490900Y-117474757D01*
X192046661Y-117475242D01*
X192560303Y-117263010D01*
X192953629Y-116870370D01*
X193166757Y-116357100D01*
X193167242Y-115801339D01*
X192955010Y-115287697D01*
X192573967Y-114905988D01*
X192541439Y-114742459D01*
X192360434Y-114471566D01*
X188804434Y-110915566D01*
X188752702Y-110881000D01*
X188533541Y-110734561D01*
X188214000Y-110671000D01*
X172466000Y-110671000D01*
X172146459Y-110734561D01*
X171927298Y-110881000D01*
X171875566Y-110915566D01*
X168319566Y-114471566D01*
X168138561Y-114742459D01*
X168075000Y-115062000D01*
X168075000Y-115506810D01*
X168025054Y-115255715D01*
X167703147Y-114773946D01*
X167661548Y-114746150D01*
X167709317Y-114737162D01*
X167925441Y-114598090D01*
X168070431Y-114385890D01*
X168121440Y-114134000D01*
X168121440Y-112434000D01*
X168077162Y-112198683D01*
X167938090Y-111982559D01*
X167725890Y-111837569D01*
X167474000Y-111786560D01*
X165774000Y-111786560D01*
X165538683Y-111830838D01*
X165322559Y-111969910D01*
X165177569Y-112182110D01*
X165126560Y-112434000D01*
X165126560Y-112449000D01*
X163792204Y-112449000D01*
X163786555Y-112435328D01*
X163386777Y-112034851D01*
X163230860Y-111970109D01*
X163384672Y-111906555D01*
X163785149Y-111506777D01*
X163843706Y-111365757D01*
X163956434Y-111290434D01*
X176875868Y-98371000D01*
X178752810Y-98371000D01*
X178501715Y-98420946D01*
X178501715Y-98420946D01*
G37*
X178501715Y-98420946D02*
X178019946Y-98742853D01*
X177698039Y-99224622D01*
X177585000Y-99792907D01*
X177585000Y-99851093D01*
X177698039Y-100419378D01*
X178019946Y-100901147D01*
X178235000Y-101044841D01*
X178235000Y-102237609D01*
X177886371Y-102585630D01*
X177806605Y-102777727D01*
X177752397Y-102646857D01*
X177510213Y-102577392D01*
X176709605Y-103378000D01*
X177510213Y-104178608D01*
X177752397Y-104109143D01*
X177802509Y-103968682D01*
X177884990Y-104168303D01*
X178277630Y-104561629D01*
X178790900Y-104774757D01*
X179346661Y-104775242D01*
X179860303Y-104563010D01*
X180253629Y-104170370D01*
X180339949Y-103962488D01*
X180424990Y-104168303D01*
X180817630Y-104561629D01*
X181330900Y-104774757D01*
X181886661Y-104775242D01*
X182400303Y-104563010D01*
X182793629Y-104170370D01*
X182879949Y-103962488D01*
X182964990Y-104168303D01*
X183357630Y-104561629D01*
X183870900Y-104774757D01*
X184426661Y-104775242D01*
X184940303Y-104563010D01*
X185333629Y-104170370D01*
X185419949Y-103962488D01*
X185504990Y-104168303D01*
X185897630Y-104561629D01*
X186410900Y-104774757D01*
X186966661Y-104775242D01*
X187480303Y-104563010D01*
X187873629Y-104170370D01*
X187959949Y-103962488D01*
X188044990Y-104168303D01*
X188395000Y-104518925D01*
X188395000Y-105514513D01*
X188183629Y-105725515D01*
X187995215Y-106179266D01*
X187994786Y-106670579D01*
X188182408Y-107124657D01*
X188276586Y-107219000D01*
X176684000Y-107219000D01*
X174975000Y-105510000D01*
X174975000Y-104368653D01*
X174985458Y-104358213D01*
X175729392Y-104358213D01*
X175798857Y-104600397D01*
X176322302Y-104787144D01*
X176877368Y-104759362D01*
X177261143Y-104600397D01*
X177330608Y-104358213D01*
X176530000Y-103557605D01*
X175729392Y-104358213D01*
X174985458Y-104358213D01*
X175173629Y-104170370D01*
X175253395Y-103978273D01*
X175307603Y-104109143D01*
X175549787Y-104178608D01*
X176350395Y-103378000D01*
X175549787Y-102577392D01*
X175307603Y-102646857D01*
X175257491Y-102787318D01*
X175175010Y-102587697D01*
X174985432Y-102397787D01*
X175729392Y-102397787D01*
X176530000Y-103198395D01*
X177330608Y-102397787D01*
X177261143Y-102155603D01*
X176737698Y-101968856D01*
X176182632Y-101996638D01*
X175798857Y-102155603D01*
X175729392Y-102397787D01*
X174985432Y-102397787D01*
X174782370Y-102194371D01*
X174269100Y-101981243D01*
X173713339Y-101980758D01*
X173199697Y-102192990D01*
X172806371Y-102585630D01*
X172593243Y-103098900D01*
X172592758Y-103654661D01*
X172804990Y-104168303D01*
X173005000Y-104368662D01*
X173005000Y-105918000D01*
X173079979Y-106294943D01*
X173293500Y-106614500D01*
X175579500Y-108900500D01*
X175899057Y-109114021D01*
X176276000Y-109189000D01*
X194699000Y-109189000D01*
X194699000Y-126015000D01*
X176176000Y-126015000D01*
X175483000Y-125322000D01*
X175483000Y-124688653D01*
X175493458Y-124678213D01*
X176237392Y-124678213D01*
X176306857Y-124920397D01*
X176830302Y-125107144D01*
X177385368Y-125079362D01*
X177769143Y-124920397D01*
X177838608Y-124678213D01*
X177038000Y-123877605D01*
X176237392Y-124678213D01*
X175493458Y-124678213D01*
X175681629Y-124490370D01*
X175761395Y-124298273D01*
X175815603Y-124429143D01*
X176057787Y-124498608D01*
X176858395Y-123698000D01*
X177217605Y-123698000D01*
X178018213Y-124498608D01*
X178260397Y-124429143D01*
X178310509Y-124288682D01*
X178392990Y-124488303D01*
X178785630Y-124881629D01*
X179298900Y-125094757D01*
X179854661Y-125095242D01*
X180368303Y-124883010D01*
X180761629Y-124490370D01*
X180847949Y-124282488D01*
X180932990Y-124488303D01*
X181325630Y-124881629D01*
X181838900Y-125094757D01*
X182394661Y-125095242D01*
X182908303Y-124883010D01*
X183301629Y-124490370D01*
X183387949Y-124282488D01*
X183472990Y-124488303D01*
X183865630Y-124881629D01*
X184378900Y-125094757D01*
X184934661Y-125095242D01*
X185448303Y-124883010D01*
X185841629Y-124490370D01*
X185927949Y-124282488D01*
X186012990Y-124488303D01*
X186405630Y-124881629D01*
X186918900Y-125094757D01*
X187474661Y-125095242D01*
X187988303Y-124883010D01*
X188381629Y-124490370D01*
X188467949Y-124282488D01*
X188552990Y-124488303D01*
X188945630Y-124881629D01*
X189458900Y-125094757D01*
X190014661Y-125095242D01*
X190528303Y-124883010D01*
X190733457Y-124678213D01*
X191477392Y-124678213D01*
X191546857Y-124920397D01*
X192070302Y-125107144D01*
X192625368Y-125079362D01*
X193009143Y-124920397D01*
X193078608Y-124678213D01*
X192278000Y-123877605D01*
X191477392Y-124678213D01*
X190733457Y-124678213D01*
X190921629Y-124490370D01*
X191001395Y-124298273D01*
X191055603Y-124429143D01*
X191297787Y-124498608D01*
X192098395Y-123698000D01*
X192457605Y-123698000D01*
X193258213Y-124498608D01*
X193500397Y-124429143D01*
X193687144Y-123905698D01*
X193659362Y-123350632D01*
X193500397Y-122966857D01*
X193258213Y-122897392D01*
X192457605Y-123698000D01*
X192098395Y-123698000D01*
X191297787Y-122897392D01*
X191055603Y-122966857D01*
X191005491Y-123107318D01*
X190923010Y-122907697D01*
X190808191Y-122792677D01*
X190883081Y-122717787D01*
X191477392Y-122717787D01*
X192278000Y-123518395D01*
X193078608Y-122717787D01*
X193009143Y-122475603D01*
X192485698Y-122288856D01*
X191930632Y-122316638D01*
X191546857Y-122475603D01*
X191477392Y-122717787D01*
X190883081Y-122717787D01*
X192985915Y-120614953D01*
X193284579Y-120615214D01*
X193738657Y-120427592D01*
X194086371Y-120080485D01*
X194274785Y-119626734D01*
X194275214Y-119135421D01*
X194087592Y-118681343D01*
X193740485Y-118333629D01*
X193286734Y-118145215D01*
X192795421Y-118144786D01*
X192341343Y-118332408D01*
X191993629Y-118679515D01*
X191805215Y-119133266D01*
X191804952Y-119434180D01*
X189147566Y-122091566D01*
X188966561Y-122362459D01*
X188933873Y-122526789D01*
X188554371Y-122905630D01*
X188468051Y-123113512D01*
X188383010Y-122907697D01*
X188033000Y-122557075D01*
X188033000Y-121639440D01*
X188048000Y-121639440D01*
X188283317Y-121595162D01*
X188499441Y-121456090D01*
X188644431Y-121243890D01*
X188695440Y-120992000D01*
X188695440Y-119292000D01*
X188651162Y-119056683D01*
X188512090Y-118840559D01*
X188299890Y-118695569D01*
X188048000Y-118644560D01*
X186348000Y-118644560D01*
X186112683Y-118688838D01*
X185896559Y-118827910D01*
X185751569Y-119040110D01*
X185737914Y-119107541D01*
X185708054Y-119062853D01*
X185226285Y-118740946D01*
X184658000Y-118627907D01*
X184089715Y-118740946D01*
X183607946Y-119062853D01*
X183388000Y-119392026D01*
X183168054Y-119062853D01*
X182686285Y-118740946D01*
X182118000Y-118627907D01*
X181549715Y-118740946D01*
X181067946Y-119062853D01*
X180848000Y-119392026D01*
X180628054Y-119062853D01*
X180146285Y-118740946D01*
X179578000Y-118627907D01*
X179009715Y-118740946D01*
X178527946Y-119062853D01*
X178206039Y-119544622D01*
X178093000Y-120112907D01*
X178093000Y-120171093D01*
X178206039Y-120739378D01*
X178527946Y-121221147D01*
X178743000Y-121364841D01*
X178743000Y-122557609D01*
X178394371Y-122905630D01*
X178314605Y-123097727D01*
X178260397Y-122966857D01*
X178018213Y-122897392D01*
X177217605Y-123698000D01*
X176858395Y-123698000D01*
X176057787Y-122897392D01*
X175815603Y-122966857D01*
X175765491Y-123107318D01*
X175683010Y-122907697D01*
X175493432Y-122717787D01*
X176237392Y-122717787D01*
X177038000Y-123518395D01*
X177838608Y-122717787D01*
X177769143Y-122475603D01*
X177245698Y-122288856D01*
X176690632Y-122316638D01*
X176306857Y-122475603D01*
X176237392Y-122717787D01*
X175493432Y-122717787D01*
X175290370Y-122514371D01*
X174777100Y-122301243D01*
X174221339Y-122300758D01*
X173707697Y-122512990D01*
X173314371Y-122905630D01*
X173101243Y-123418900D01*
X173100758Y-123974661D01*
X173312990Y-124488303D01*
X173513000Y-124688662D01*
X173513000Y-125730000D01*
X173587979Y-126106943D01*
X173801500Y-126426500D01*
X175020000Y-127645000D01*
X163756280Y-127645000D01*
X163386777Y-127274851D01*
X163230860Y-127210109D01*
X163384672Y-127146555D01*
X163756877Y-126775000D01*
X166668000Y-126775000D01*
X166987541Y-126711439D01*
X167258434Y-126530434D01*
X170262434Y-123526434D01*
X170443440Y-123255540D01*
X170507000Y-122936000D01*
X170507000Y-115915868D01*
X173319868Y-113103000D01*
X187360132Y-113103000D01*
X188395000Y-114137868D01*
X188395000Y-114937609D01*
X188046371Y-115285630D01*
X187960051Y-115493512D01*
X187875010Y-115287697D01*
X187482370Y-114894371D01*
X186969100Y-114681243D01*
X186413339Y-114680758D01*
X185899697Y-114892990D01*
X185506371Y-115285630D01*
X185420051Y-115493512D01*
X185335010Y-115287697D01*
X184942370Y-114894371D01*
X184429100Y-114681243D01*
X183873339Y-114680758D01*
X183359697Y-114892990D01*
X182966371Y-115285630D01*
X182880051Y-115493512D01*
X182795010Y-115287697D01*
X182402370Y-114894371D01*
X181889100Y-114681243D01*
X181333339Y-114680758D01*
X180819697Y-114892990D01*
X180426371Y-115285630D01*
X180340051Y-115493512D01*
X180255010Y-115287697D01*
X179862370Y-114894371D01*
X179349100Y-114681243D01*
X178793339Y-114680758D01*
X178279697Y-114892990D01*
X177886371Y-115285630D01*
X177800051Y-115493512D01*
X177715010Y-115287697D01*
X177322370Y-114894371D01*
X176809100Y-114681243D01*
X176253339Y-114680758D01*
X175739697Y-114892990D01*
X175346371Y-115285630D01*
X175260051Y-115493512D01*
X175175010Y-115287697D01*
X174782370Y-114894371D01*
X174269100Y-114681243D01*
X173713339Y-114680758D01*
X173199697Y-114892990D01*
X172806371Y-115285630D01*
X172593243Y-115798900D01*
X172592758Y-116354661D01*
X172804990Y-116868303D01*
X172855000Y-116918400D01*
X172855000Y-119126000D01*
X172941397Y-119560346D01*
X173187434Y-119928566D01*
X173555654Y-120174603D01*
X173990000Y-120261000D01*
X174424346Y-120174603D01*
X174792566Y-119928566D01*
X175038603Y-119560346D01*
X175125000Y-119126000D01*
X175125000Y-116918914D01*
X175173629Y-116870370D01*
X175259949Y-116662488D01*
X175344990Y-116868303D01*
X175737630Y-117261629D01*
X176250900Y-117474757D01*
X176806661Y-117475242D01*
X177320303Y-117263010D01*
X177713629Y-116870370D01*
X177799949Y-116662488D01*
X177884990Y-116868303D01*
X178277630Y-117261629D01*
X178790900Y-117474757D01*
X179346661Y-117475242D01*
X179860303Y-117263010D01*
X180253629Y-116870370D01*
X180339949Y-116662488D01*
X180424990Y-116868303D01*
X180817630Y-117261629D01*
X181330900Y-117474757D01*
X181886661Y-117475242D01*
X182400303Y-117263010D01*
X182793629Y-116870370D01*
X182879949Y-116662488D01*
X182964990Y-116868303D01*
X183357630Y-117261629D01*
X183870900Y-117474757D01*
X184426661Y-117475242D01*
X184940303Y-117263010D01*
X185333629Y-116870370D01*
X185419949Y-116662488D01*
X185504990Y-116868303D01*
X185897630Y-117261629D01*
X186410900Y-117474757D01*
X186966661Y-117475242D01*
X187480303Y-117263010D01*
X187873629Y-116870370D01*
X187959949Y-116662488D01*
X188044990Y-116868303D01*
X188437630Y-117261629D01*
X188950900Y-117474757D01*
X189506661Y-117475242D01*
X190020303Y-117263010D01*
X190413629Y-116870370D01*
X190499949Y-116662488D01*
X190584990Y-116868303D01*
X190977630Y-117261629D01*
X191490900Y-117474757D01*
X192046661Y-117475242D01*
X192560303Y-117263010D01*
X192953629Y-116870370D01*
X193166757Y-116357100D01*
X193167242Y-115801339D01*
X192955010Y-115287697D01*
X192573967Y-114905988D01*
X192541439Y-114742459D01*
X192360434Y-114471566D01*
X188804434Y-110915566D01*
X188752702Y-110881000D01*
X188533541Y-110734561D01*
X188214000Y-110671000D01*
X172466000Y-110671000D01*
X172146459Y-110734561D01*
X171927298Y-110881000D01*
X171875566Y-110915566D01*
X168319566Y-114471566D01*
X168138561Y-114742459D01*
X168075000Y-115062000D01*
X168075000Y-115506810D01*
X168025054Y-115255715D01*
X167703147Y-114773946D01*
X167661548Y-114746150D01*
X167709317Y-114737162D01*
X167925441Y-114598090D01*
X168070431Y-114385890D01*
X168121440Y-114134000D01*
X168121440Y-112434000D01*
X168077162Y-112198683D01*
X167938090Y-111982559D01*
X167725890Y-111837569D01*
X167474000Y-111786560D01*
X165774000Y-111786560D01*
X165538683Y-111830838D01*
X165322559Y-111969910D01*
X165177569Y-112182110D01*
X165126560Y-112434000D01*
X165126560Y-112449000D01*
X163792204Y-112449000D01*
X163786555Y-112435328D01*
X163386777Y-112034851D01*
X163230860Y-111970109D01*
X163384672Y-111906555D01*
X163785149Y-111506777D01*
X163843706Y-111365757D01*
X163956434Y-111290434D01*
X176875868Y-98371000D01*
X178752810Y-98371000D01*
X178501715Y-98420946D01*
G36*
X113506365Y-100056000D02*
X113517434Y-100072566D01*
X116057433Y-102612566D01*
X116335418Y-102798309D01*
X116425654Y-102858603D01*
X116708515Y-102914868D01*
X116575813Y-102914752D01*
X116048200Y-103132757D01*
X115644176Y-103536077D01*
X115425250Y-104063309D01*
X115424778Y-104604354D01*
X113729566Y-106299566D01*
X113548561Y-106570459D01*
X113485000Y-106890000D01*
X113485000Y-107006447D01*
X113277189Y-107145302D01*
X112966120Y-107610849D01*
X112856887Y-108160000D01*
X112966120Y-108709151D01*
X113277189Y-109174698D01*
X113659275Y-109430000D01*
X113277189Y-109685302D01*
X112966120Y-110150849D01*
X112856887Y-110700000D01*
X112966120Y-111249151D01*
X113277189Y-111714698D01*
X113659275Y-111970000D01*
X113277189Y-112225302D01*
X112966120Y-112690849D01*
X112856887Y-113240000D01*
X112966120Y-113789151D01*
X113277189Y-114254698D01*
X113659275Y-114510000D01*
X113277189Y-114765302D01*
X112966120Y-115230849D01*
X112856887Y-115780000D01*
X112966120Y-116329151D01*
X113277189Y-116794698D01*
X113742736Y-117105767D01*
X114291887Y-117215000D01*
X114348113Y-117215000D01*
X114897264Y-117105767D01*
X115362811Y-116794698D01*
X115673880Y-116329151D01*
X115783113Y-115780000D01*
X115673880Y-115230849D01*
X115362811Y-114765302D01*
X114980725Y-114510000D01*
X115362811Y-114254698D01*
X115482882Y-114075000D01*
X116514132Y-114075000D01*
X118002499Y-115563367D01*
X117965000Y-115751887D01*
X117965000Y-115808113D01*
X118074233Y-116357264D01*
X118385302Y-116822811D01*
X118850849Y-117133880D01*
X119400000Y-117243113D01*
X119949151Y-117133880D01*
X120414698Y-116822811D01*
X120725767Y-116357264D01*
X120835000Y-115808113D01*
X120835000Y-115751887D01*
X120725767Y-115202736D01*
X120414698Y-114737189D01*
X119949151Y-114426120D01*
X119400000Y-114316887D01*
X119164582Y-114363714D01*
X117450434Y-112649566D01*
X117357607Y-112587541D01*
X117179541Y-112468561D01*
X116860000Y-112405000D01*
X115482882Y-112405000D01*
X115362811Y-112225302D01*
X114980725Y-111970000D01*
X115362811Y-111714698D01*
X115482882Y-111535000D01*
X116860000Y-111535000D01*
X117179541Y-111471439D01*
X117450434Y-111290434D01*
X119146089Y-109594779D01*
X119684187Y-109595248D01*
X120211800Y-109377243D01*
X120615824Y-108973923D01*
X120834750Y-108446691D01*
X120835248Y-107875813D01*
X120617243Y-107348200D01*
X120213923Y-106944176D01*
X119686691Y-106725250D01*
X119115813Y-106724752D01*
X118588200Y-106942757D01*
X118184176Y-107346077D01*
X117965250Y-107873309D01*
X117964778Y-108414354D01*
X116514132Y-109865000D01*
X115482882Y-109865000D01*
X115362811Y-109685302D01*
X114980725Y-109430000D01*
X115362811Y-109174698D01*
X115673880Y-108709151D01*
X115783113Y-108160000D01*
X115673880Y-107610849D01*
X115362811Y-107145302D01*
X115292528Y-107098340D01*
X116606089Y-105784779D01*
X117144187Y-105785248D01*
X117671800Y-105567243D01*
X118075824Y-105163923D01*
X118268860Y-104699039D01*
X123088096Y-104699039D01*
X123248959Y-105087423D01*
X123624866Y-105502389D01*
X124130959Y-105741914D01*
X124353000Y-105620629D01*
X124353000Y-104477000D01*
X124607000Y-104477000D01*
X124607000Y-105620629D01*
X124829041Y-105741914D01*
X125335134Y-105502389D01*
X125711041Y-105087423D01*
X125871904Y-104699039D01*
X125749915Y-104477000D01*
X124607000Y-104477000D01*
X124353000Y-104477000D01*
X123210085Y-104477000D01*
X123088096Y-104699039D01*
X118268860Y-104699039D01*
X118294750Y-104636691D01*
X118295248Y-104065813D01*
X118077243Y-103538200D01*
X117673923Y-103134176D01*
X117218337Y-102945000D01*
X124352998Y-102945000D01*
X124352998Y-103079370D01*
X124130959Y-102958086D01*
X123624866Y-103197611D01*
X123248959Y-103612577D01*
X123088096Y-104000961D01*
X123210085Y-104223000D01*
X124353000Y-104223000D01*
X124353000Y-104203000D01*
X124607000Y-104203000D01*
X124607000Y-104223000D01*
X125749915Y-104223000D01*
X125871904Y-104000961D01*
X125711041Y-103612577D01*
X125335134Y-103197611D01*
X124829041Y-102958086D01*
X124607002Y-103079370D01*
X124607002Y-102945000D01*
X128302000Y-102945000D01*
X126323500Y-104923500D01*
X126109979Y-105243057D01*
X126035000Y-105620000D01*
X126035000Y-109715000D01*
X125012000Y-109715000D01*
X124635057Y-109789979D01*
X124315500Y-110003500D01*
X123255500Y-111063500D01*
X123041979Y-111383057D01*
X122967000Y-111760000D01*
X122967000Y-122936000D01*
X123041979Y-123312943D01*
X123255500Y-123632500D01*
X124728000Y-125105000D01*
X118983868Y-125105000D01*
X117239641Y-123360773D01*
X117355266Y-123408785D01*
X117846579Y-123409214D01*
X118300657Y-123221592D01*
X118648371Y-122874485D01*
X118836785Y-122420734D01*
X118837214Y-121929421D01*
X118649592Y-121475343D01*
X118302485Y-121127629D01*
X117848734Y-120939215D01*
X117547820Y-120938952D01*
X116668434Y-120059566D01*
X116616702Y-120025000D01*
X116397541Y-119878561D01*
X116078000Y-119815000D01*
X112014000Y-119815000D01*
X111694459Y-119878561D01*
X111475298Y-120025000D01*
X111423566Y-120059566D01*
X109391566Y-122091566D01*
X109210561Y-122362459D01*
X109147000Y-122682000D01*
X109147000Y-124158132D01*
X107290434Y-122301566D01*
X107277440Y-122292884D01*
X107277440Y-122092000D01*
X107233162Y-121856683D01*
X107094090Y-121640559D01*
X106881890Y-121495569D01*
X106761649Y-121471219D01*
X110846434Y-117386434D01*
X111027440Y-117115540D01*
X111091000Y-116796000D01*
X111091000Y-109684000D01*
X111027439Y-109364459D01*
X110846434Y-109093566D01*
X109322434Y-107569566D01*
X109051541Y-107388561D01*
X108732000Y-107325000D01*
X108140854Y-107325000D01*
X108103162Y-107124683D01*
X107964090Y-106908559D01*
X107751890Y-106763569D01*
X107500000Y-106712560D01*
X105900000Y-106712560D01*
X105664683Y-106756838D01*
X105448559Y-106895910D01*
X105303569Y-107108110D01*
X105252560Y-107360000D01*
X105252560Y-108960000D01*
X105296838Y-109195317D01*
X105435910Y-109411441D01*
X105648110Y-109556431D01*
X105807616Y-109588732D01*
X105468959Y-109962577D01*
X105308096Y-110350961D01*
X105430085Y-110573000D01*
X106573000Y-110573000D01*
X106573000Y-110553000D01*
X106827000Y-110553000D01*
X106827000Y-110573000D01*
X107969915Y-110573000D01*
X108091904Y-110350961D01*
X107931041Y-109962577D01*
X107593410Y-109589864D01*
X107735317Y-109563162D01*
X107951441Y-109424090D01*
X108096431Y-109211890D01*
X108140352Y-108995000D01*
X108386132Y-108995000D01*
X109421000Y-110029868D01*
X109421000Y-116450132D01*
X104839566Y-121031566D01*
X104658561Y-121302459D01*
X104630295Y-121444560D01*
X104230000Y-121444560D01*
X103994683Y-121488838D01*
X103778559Y-121627910D01*
X103633569Y-121840110D01*
X103582560Y-122092000D01*
X103582560Y-123692000D01*
X103626838Y-123927317D01*
X103765910Y-124143441D01*
X103978110Y-124288431D01*
X104127074Y-124318597D01*
X103979352Y-124417302D01*
X103859281Y-124597000D01*
X102981868Y-124597000D01*
X101947000Y-123562132D01*
X101947000Y-118919868D01*
X104251868Y-116615000D01*
X105537118Y-116615000D01*
X105657189Y-116794698D01*
X106122736Y-117105767D01*
X106671887Y-117215000D01*
X106728113Y-117215000D01*
X107277264Y-117105767D01*
X107742811Y-116794698D01*
X108053880Y-116329151D01*
X108163113Y-115780000D01*
X108053880Y-115230849D01*
X107742811Y-114765302D01*
X107360725Y-114510000D01*
X107742811Y-114254698D01*
X108053880Y-113789151D01*
X108163113Y-113240000D01*
X108053880Y-112690849D01*
X107742811Y-112225302D01*
X107338297Y-111955014D01*
X107555134Y-111852389D01*
X107931041Y-111437423D01*
X108091904Y-111049039D01*
X107969915Y-110827000D01*
X106827000Y-110827000D01*
X106827000Y-110847000D01*
X106573000Y-110847000D01*
X106573000Y-110827000D01*
X105430085Y-110827000D01*
X105308096Y-111049039D01*
X105468959Y-111437423D01*
X105844866Y-111852389D01*
X106061703Y-111955014D01*
X105657189Y-112225302D01*
X105537118Y-112405000D01*
X105267868Y-112405000D01*
X104233000Y-111370132D01*
X104233000Y-107489868D01*
X105521868Y-106201000D01*
X106954000Y-106201000D01*
X107273541Y-106137439D01*
X107544434Y-105956434D01*
X113481733Y-100019135D01*
X113506365Y-100056000D01*
X113506365Y-100056000D01*
G37*
X113506365Y-100056000D02*
X113517434Y-100072566D01*
X116057433Y-102612566D01*
X116335418Y-102798309D01*
X116425654Y-102858603D01*
X116708515Y-102914868D01*
X116575813Y-102914752D01*
X116048200Y-103132757D01*
X115644176Y-103536077D01*
X115425250Y-104063309D01*
X115424778Y-104604354D01*
X113729566Y-106299566D01*
X113548561Y-106570459D01*
X113485000Y-106890000D01*
X113485000Y-107006447D01*
X113277189Y-107145302D01*
X112966120Y-107610849D01*
X112856887Y-108160000D01*
X112966120Y-108709151D01*
X113277189Y-109174698D01*
X113659275Y-109430000D01*
X113277189Y-109685302D01*
X112966120Y-110150849D01*
X112856887Y-110700000D01*
X112966120Y-111249151D01*
X113277189Y-111714698D01*
X113659275Y-111970000D01*
X113277189Y-112225302D01*
X112966120Y-112690849D01*
X112856887Y-113240000D01*
X112966120Y-113789151D01*
X113277189Y-114254698D01*
X113659275Y-114510000D01*
X113277189Y-114765302D01*
X112966120Y-115230849D01*
X112856887Y-115780000D01*
X112966120Y-116329151D01*
X113277189Y-116794698D01*
X113742736Y-117105767D01*
X114291887Y-117215000D01*
X114348113Y-117215000D01*
X114897264Y-117105767D01*
X115362811Y-116794698D01*
X115673880Y-116329151D01*
X115783113Y-115780000D01*
X115673880Y-115230849D01*
X115362811Y-114765302D01*
X114980725Y-114510000D01*
X115362811Y-114254698D01*
X115482882Y-114075000D01*
X116514132Y-114075000D01*
X118002499Y-115563367D01*
X117965000Y-115751887D01*
X117965000Y-115808113D01*
X118074233Y-116357264D01*
X118385302Y-116822811D01*
X118850849Y-117133880D01*
X119400000Y-117243113D01*
X119949151Y-117133880D01*
X120414698Y-116822811D01*
X120725767Y-116357264D01*
X120835000Y-115808113D01*
X120835000Y-115751887D01*
X120725767Y-115202736D01*
X120414698Y-114737189D01*
X119949151Y-114426120D01*
X119400000Y-114316887D01*
X119164582Y-114363714D01*
X117450434Y-112649566D01*
X117357607Y-112587541D01*
X117179541Y-112468561D01*
X116860000Y-112405000D01*
X115482882Y-112405000D01*
X115362811Y-112225302D01*
X114980725Y-111970000D01*
X115362811Y-111714698D01*
X115482882Y-111535000D01*
X116860000Y-111535000D01*
X117179541Y-111471439D01*
X117450434Y-111290434D01*
X119146089Y-109594779D01*
X119684187Y-109595248D01*
X120211800Y-109377243D01*
X120615824Y-108973923D01*
X120834750Y-108446691D01*
X120835248Y-107875813D01*
X120617243Y-107348200D01*
X120213923Y-106944176D01*
X119686691Y-106725250D01*
X119115813Y-106724752D01*
X118588200Y-106942757D01*
X118184176Y-107346077D01*
X117965250Y-107873309D01*
X117964778Y-108414354D01*
X116514132Y-109865000D01*
X115482882Y-109865000D01*
X115362811Y-109685302D01*
X114980725Y-109430000D01*
X115362811Y-109174698D01*
X115673880Y-108709151D01*
X115783113Y-108160000D01*
X115673880Y-107610849D01*
X115362811Y-107145302D01*
X115292528Y-107098340D01*
X116606089Y-105784779D01*
X117144187Y-105785248D01*
X117671800Y-105567243D01*
X118075824Y-105163923D01*
X118268860Y-104699039D01*
X123088096Y-104699039D01*
X123248959Y-105087423D01*
X123624866Y-105502389D01*
X124130959Y-105741914D01*
X124353000Y-105620629D01*
X124353000Y-104477000D01*
X124607000Y-104477000D01*
X124607000Y-105620629D01*
X124829041Y-105741914D01*
X125335134Y-105502389D01*
X125711041Y-105087423D01*
X125871904Y-104699039D01*
X125749915Y-104477000D01*
X124607000Y-104477000D01*
X124353000Y-104477000D01*
X123210085Y-104477000D01*
X123088096Y-104699039D01*
X118268860Y-104699039D01*
X118294750Y-104636691D01*
X118295248Y-104065813D01*
X118077243Y-103538200D01*
X117673923Y-103134176D01*
X117218337Y-102945000D01*
X124352998Y-102945000D01*
X124352998Y-103079370D01*
X124130959Y-102958086D01*
X123624866Y-103197611D01*
X123248959Y-103612577D01*
X123088096Y-104000961D01*
X123210085Y-104223000D01*
X124353000Y-104223000D01*
X124353000Y-104203000D01*
X124607000Y-104203000D01*
X124607000Y-104223000D01*
X125749915Y-104223000D01*
X125871904Y-104000961D01*
X125711041Y-103612577D01*
X125335134Y-103197611D01*
X124829041Y-102958086D01*
X124607002Y-103079370D01*
X124607002Y-102945000D01*
X128302000Y-102945000D01*
X126323500Y-104923500D01*
X126109979Y-105243057D01*
X126035000Y-105620000D01*
X126035000Y-109715000D01*
X125012000Y-109715000D01*
X124635057Y-109789979D01*
X124315500Y-110003500D01*
X123255500Y-111063500D01*
X123041979Y-111383057D01*
X122967000Y-111760000D01*
X122967000Y-122936000D01*
X123041979Y-123312943D01*
X123255500Y-123632500D01*
X124728000Y-125105000D01*
X118983868Y-125105000D01*
X117239641Y-123360773D01*
X117355266Y-123408785D01*
X117846579Y-123409214D01*
X118300657Y-123221592D01*
X118648371Y-122874485D01*
X118836785Y-122420734D01*
X118837214Y-121929421D01*
X118649592Y-121475343D01*
X118302485Y-121127629D01*
X117848734Y-120939215D01*
X117547820Y-120938952D01*
X116668434Y-120059566D01*
X116616702Y-120025000D01*
X116397541Y-119878561D01*
X116078000Y-119815000D01*
X112014000Y-119815000D01*
X111694459Y-119878561D01*
X111475298Y-120025000D01*
X111423566Y-120059566D01*
X109391566Y-122091566D01*
X109210561Y-122362459D01*
X109147000Y-122682000D01*
X109147000Y-124158132D01*
X107290434Y-122301566D01*
X107277440Y-122292884D01*
X107277440Y-122092000D01*
X107233162Y-121856683D01*
X107094090Y-121640559D01*
X106881890Y-121495569D01*
X106761649Y-121471219D01*
X110846434Y-117386434D01*
X111027440Y-117115540D01*
X111091000Y-116796000D01*
X111091000Y-109684000D01*
X111027439Y-109364459D01*
X110846434Y-109093566D01*
X109322434Y-107569566D01*
X109051541Y-107388561D01*
X108732000Y-107325000D01*
X108140854Y-107325000D01*
X108103162Y-107124683D01*
X107964090Y-106908559D01*
X107751890Y-106763569D01*
X107500000Y-106712560D01*
X105900000Y-106712560D01*
X105664683Y-106756838D01*
X105448559Y-106895910D01*
X105303569Y-107108110D01*
X105252560Y-107360000D01*
X105252560Y-108960000D01*
X105296838Y-109195317D01*
X105435910Y-109411441D01*
X105648110Y-109556431D01*
X105807616Y-109588732D01*
X105468959Y-109962577D01*
X105308096Y-110350961D01*
X105430085Y-110573000D01*
X106573000Y-110573000D01*
X106573000Y-110553000D01*
X106827000Y-110553000D01*
X106827000Y-110573000D01*
X107969915Y-110573000D01*
X108091904Y-110350961D01*
X107931041Y-109962577D01*
X107593410Y-109589864D01*
X107735317Y-109563162D01*
X107951441Y-109424090D01*
X108096431Y-109211890D01*
X108140352Y-108995000D01*
X108386132Y-108995000D01*
X109421000Y-110029868D01*
X109421000Y-116450132D01*
X104839566Y-121031566D01*
X104658561Y-121302459D01*
X104630295Y-121444560D01*
X104230000Y-121444560D01*
X103994683Y-121488838D01*
X103778559Y-121627910D01*
X103633569Y-121840110D01*
X103582560Y-122092000D01*
X103582560Y-123692000D01*
X103626838Y-123927317D01*
X103765910Y-124143441D01*
X103978110Y-124288431D01*
X104127074Y-124318597D01*
X103979352Y-124417302D01*
X103859281Y-124597000D01*
X102981868Y-124597000D01*
X101947000Y-123562132D01*
X101947000Y-118919868D01*
X104251868Y-116615000D01*
X105537118Y-116615000D01*
X105657189Y-116794698D01*
X106122736Y-117105767D01*
X106671887Y-117215000D01*
X106728113Y-117215000D01*
X107277264Y-117105767D01*
X107742811Y-116794698D01*
X108053880Y-116329151D01*
X108163113Y-115780000D01*
X108053880Y-115230849D01*
X107742811Y-114765302D01*
X107360725Y-114510000D01*
X107742811Y-114254698D01*
X108053880Y-113789151D01*
X108163113Y-113240000D01*
X108053880Y-112690849D01*
X107742811Y-112225302D01*
X107338297Y-111955014D01*
X107555134Y-111852389D01*
X107931041Y-111437423D01*
X108091904Y-111049039D01*
X107969915Y-110827000D01*
X106827000Y-110827000D01*
X106827000Y-110847000D01*
X106573000Y-110847000D01*
X106573000Y-110827000D01*
X105430085Y-110827000D01*
X105308096Y-111049039D01*
X105468959Y-111437423D01*
X105844866Y-111852389D01*
X106061703Y-111955014D01*
X105657189Y-112225302D01*
X105537118Y-112405000D01*
X105267868Y-112405000D01*
X104233000Y-111370132D01*
X104233000Y-107489868D01*
X105521868Y-106201000D01*
X106954000Y-106201000D01*
X107273541Y-106137439D01*
X107544434Y-105956434D01*
X113481733Y-100019135D01*
X113506365Y-100056000D01*
G36*
X194699000Y-97244132D02*
X194699000Y-107219000D01*
X190183694Y-107219000D01*
X190276371Y-107126485D01*
X190464785Y-106672734D01*
X190465214Y-106181421D01*
X190277592Y-105727343D01*
X190065000Y-105514379D01*
X190065000Y-104518391D01*
X190225457Y-104358213D01*
X190969392Y-104358213D01*
X191038857Y-104600397D01*
X191562302Y-104787144D01*
X192117368Y-104759362D01*
X192501143Y-104600397D01*
X192570608Y-104358213D01*
X191770000Y-103557605D01*
X190969392Y-104358213D01*
X190225457Y-104358213D01*
X190413629Y-104170370D01*
X190493395Y-103978273D01*
X190547603Y-104109143D01*
X190789787Y-104178608D01*
X191590395Y-103378000D01*
X191949605Y-103378000D01*
X192750213Y-104178608D01*
X192992397Y-104109143D01*
X193179144Y-103585698D01*
X193151362Y-103030632D01*
X192992397Y-102646857D01*
X192750213Y-102577392D01*
X191949605Y-103378000D01*
X191590395Y-103378000D01*
X190789787Y-102577392D01*
X190547603Y-102646857D01*
X190497491Y-102787318D01*
X190415010Y-102587697D01*
X190225432Y-102397787D01*
X190969392Y-102397787D01*
X191770000Y-103198395D01*
X192570608Y-102397787D01*
X192501143Y-102155603D01*
X191977698Y-101968856D01*
X191422632Y-101996638D01*
X191038857Y-102155603D01*
X190969392Y-102397787D01*
X190225432Y-102397787D01*
X190065000Y-102237075D01*
X190065000Y-98806000D01*
X190001439Y-98486459D01*
X189820434Y-98215566D01*
X188550434Y-96945566D01*
X188504214Y-96914683D01*
X188279541Y-96764561D01*
X187960000Y-96701000D01*
X176530000Y-96701000D01*
X176210459Y-96764561D01*
X175985786Y-96914683D01*
X175939566Y-96945566D01*
X163388527Y-109496605D01*
X163386777Y-109494851D01*
X163230860Y-109430109D01*
X163384672Y-109366555D01*
X163785149Y-108966777D01*
X164002152Y-108444174D01*
X164002646Y-107878309D01*
X163786555Y-107355328D01*
X163386777Y-106954851D01*
X163246422Y-106896571D01*
X163326425Y-106863432D01*
X163399011Y-106618617D01*
X162580000Y-105799605D01*
X161760989Y-106618617D01*
X161833575Y-106863432D01*
X161919024Y-106894071D01*
X161775328Y-106953445D01*
X161374851Y-107353223D01*
X161157848Y-107875826D01*
X161157354Y-108441691D01*
X161373445Y-108964672D01*
X161773223Y-109365149D01*
X161929140Y-109429891D01*
X161775328Y-109493445D01*
X161553386Y-109715000D01*
X160702000Y-109715000D01*
X156393235Y-105406235D01*
X161145574Y-105406235D01*
X161172959Y-105971438D01*
X161336568Y-106366425D01*
X161581383Y-106439011D01*
X162400395Y-105620000D01*
X162759605Y-105620000D01*
X163578617Y-106439011D01*
X163823432Y-106366425D01*
X164014426Y-105833765D01*
X163987041Y-105268562D01*
X163823432Y-104873575D01*
X163578617Y-104800989D01*
X162759605Y-105620000D01*
X162400395Y-105620000D01*
X161581383Y-104800989D01*
X161336568Y-104873575D01*
X161145574Y-105406235D01*
X156393235Y-105406235D01*
X154348691Y-103361691D01*
X161157354Y-103361691D01*
X161373445Y-103884672D01*
X161773223Y-104285149D01*
X161913578Y-104343429D01*
X161833575Y-104376568D01*
X161760989Y-104621383D01*
X162580000Y-105440395D01*
X163399011Y-104621383D01*
X163326425Y-104376568D01*
X163240976Y-104345929D01*
X163384672Y-104286555D01*
X163785149Y-103886777D01*
X164002152Y-103364174D01*
X164002646Y-102798309D01*
X163786555Y-102275328D01*
X163386777Y-101874851D01*
X162864174Y-101657848D01*
X162298309Y-101657354D01*
X161775328Y-101873445D01*
X161374851Y-102273223D01*
X161157848Y-102795826D01*
X161157354Y-103361691D01*
X154348691Y-103361691D01*
X151419890Y-100432890D01*
X166198524Y-100432890D01*
X166368355Y-100842924D01*
X166758642Y-101271183D01*
X167283108Y-101517486D01*
X167513000Y-101396819D01*
X167513000Y-100203000D01*
X167767000Y-100203000D01*
X167767000Y-101396819D01*
X167996892Y-101517486D01*
X168521358Y-101271183D01*
X168911645Y-100842924D01*
X169081476Y-100432890D01*
X168960155Y-100203000D01*
X167767000Y-100203000D01*
X167513000Y-100203000D01*
X166319845Y-100203000D01*
X166198524Y-100432890D01*
X151419890Y-100432890D01*
X151084500Y-100097500D01*
X150764943Y-99883979D01*
X150388000Y-99809000D01*
X143784000Y-99809000D01*
X143407057Y-99883979D01*
X143087500Y-100097500D01*
X142360000Y-100825000D01*
X137322630Y-100825000D01*
X137313162Y-100774683D01*
X137174090Y-100558559D01*
X136961890Y-100413569D01*
X136710000Y-100362560D01*
X135110000Y-100362560D01*
X134874683Y-100406838D01*
X134658559Y-100545910D01*
X134570356Y-100675000D01*
X134356132Y-100675000D01*
X137250553Y-97780579D01*
X154212786Y-97780579D01*
X154400408Y-98234657D01*
X154747515Y-98582371D01*
X155201266Y-98770785D01*
X155692579Y-98771214D01*
X156146657Y-98583592D01*
X156359621Y-98371000D01*
X166142560Y-98371000D01*
X166142560Y-98386000D01*
X166186838Y-98621317D01*
X166325910Y-98837441D01*
X166538110Y-98982431D01*
X166646107Y-99004301D01*
X166368355Y-99309076D01*
X166198524Y-99719110D01*
X166319845Y-99949000D01*
X167513000Y-99949000D01*
X167513000Y-99929000D01*
X167767000Y-99929000D01*
X167767000Y-99949000D01*
X168960155Y-99949000D01*
X169081476Y-99719110D01*
X168911645Y-99309076D01*
X168635499Y-99006063D01*
X168725317Y-98989162D01*
X168941441Y-98850090D01*
X169086431Y-98637890D01*
X169137440Y-98386000D01*
X169137440Y-96686000D01*
X169093162Y-96450683D01*
X168954090Y-96234559D01*
X168741890Y-96089569D01*
X168490000Y-96038560D01*
X166790000Y-96038560D01*
X166554683Y-96082838D01*
X166338559Y-96221910D01*
X166193569Y-96434110D01*
X166142560Y-96686000D01*
X166142560Y-96701000D01*
X156359487Y-96701000D01*
X156148485Y-96489629D01*
X155694734Y-96301215D01*
X155203421Y-96300786D01*
X154749343Y-96488408D01*
X154401629Y-96835515D01*
X154213215Y-97289266D01*
X154212786Y-97780579D01*
X137250553Y-97780579D01*
X140678132Y-94353000D01*
X191807868Y-94353000D01*
X194699000Y-97244132D01*
X194699000Y-97244132D01*
G37*
X194699000Y-97244132D02*
X194699000Y-107219000D01*
X190183694Y-107219000D01*
X190276371Y-107126485D01*
X190464785Y-106672734D01*
X190465214Y-106181421D01*
X190277592Y-105727343D01*
X190065000Y-105514379D01*
X190065000Y-104518391D01*
X190225457Y-104358213D01*
X190969392Y-104358213D01*
X191038857Y-104600397D01*
X191562302Y-104787144D01*
X192117368Y-104759362D01*
X192501143Y-104600397D01*
X192570608Y-104358213D01*
X191770000Y-103557605D01*
X190969392Y-104358213D01*
X190225457Y-104358213D01*
X190413629Y-104170370D01*
X190493395Y-103978273D01*
X190547603Y-104109143D01*
X190789787Y-104178608D01*
X191590395Y-103378000D01*
X191949605Y-103378000D01*
X192750213Y-104178608D01*
X192992397Y-104109143D01*
X193179144Y-103585698D01*
X193151362Y-103030632D01*
X192992397Y-102646857D01*
X192750213Y-102577392D01*
X191949605Y-103378000D01*
X191590395Y-103378000D01*
X190789787Y-102577392D01*
X190547603Y-102646857D01*
X190497491Y-102787318D01*
X190415010Y-102587697D01*
X190225432Y-102397787D01*
X190969392Y-102397787D01*
X191770000Y-103198395D01*
X192570608Y-102397787D01*
X192501143Y-102155603D01*
X191977698Y-101968856D01*
X191422632Y-101996638D01*
X191038857Y-102155603D01*
X190969392Y-102397787D01*
X190225432Y-102397787D01*
X190065000Y-102237075D01*
X190065000Y-98806000D01*
X190001439Y-98486459D01*
X189820434Y-98215566D01*
X188550434Y-96945566D01*
X188504214Y-96914683D01*
X188279541Y-96764561D01*
X187960000Y-96701000D01*
X176530000Y-96701000D01*
X176210459Y-96764561D01*
X175985786Y-96914683D01*
X175939566Y-96945566D01*
X163388527Y-109496605D01*
X163386777Y-109494851D01*
X163230860Y-109430109D01*
X163384672Y-109366555D01*
X163785149Y-108966777D01*
X164002152Y-108444174D01*
X164002646Y-107878309D01*
X163786555Y-107355328D01*
X163386777Y-106954851D01*
X163246422Y-106896571D01*
X163326425Y-106863432D01*
X163399011Y-106618617D01*
X162580000Y-105799605D01*
X161760989Y-106618617D01*
X161833575Y-106863432D01*
X161919024Y-106894071D01*
X161775328Y-106953445D01*
X161374851Y-107353223D01*
X161157848Y-107875826D01*
X161157354Y-108441691D01*
X161373445Y-108964672D01*
X161773223Y-109365149D01*
X161929140Y-109429891D01*
X161775328Y-109493445D01*
X161553386Y-109715000D01*
X160702000Y-109715000D01*
X156393235Y-105406235D01*
X161145574Y-105406235D01*
X161172959Y-105971438D01*
X161336568Y-106366425D01*
X161581383Y-106439011D01*
X162400395Y-105620000D01*
X162759605Y-105620000D01*
X163578617Y-106439011D01*
X163823432Y-106366425D01*
X164014426Y-105833765D01*
X163987041Y-105268562D01*
X163823432Y-104873575D01*
X163578617Y-104800989D01*
X162759605Y-105620000D01*
X162400395Y-105620000D01*
X161581383Y-104800989D01*
X161336568Y-104873575D01*
X161145574Y-105406235D01*
X156393235Y-105406235D01*
X154348691Y-103361691D01*
X161157354Y-103361691D01*
X161373445Y-103884672D01*
X161773223Y-104285149D01*
X161913578Y-104343429D01*
X161833575Y-104376568D01*
X161760989Y-104621383D01*
X162580000Y-105440395D01*
X163399011Y-104621383D01*
X163326425Y-104376568D01*
X163240976Y-104345929D01*
X163384672Y-104286555D01*
X163785149Y-103886777D01*
X164002152Y-103364174D01*
X164002646Y-102798309D01*
X163786555Y-102275328D01*
X163386777Y-101874851D01*
X162864174Y-101657848D01*
X162298309Y-101657354D01*
X161775328Y-101873445D01*
X161374851Y-102273223D01*
X161157848Y-102795826D01*
X161157354Y-103361691D01*
X154348691Y-103361691D01*
X151419890Y-100432890D01*
X166198524Y-100432890D01*
X166368355Y-100842924D01*
X166758642Y-101271183D01*
X167283108Y-101517486D01*
X167513000Y-101396819D01*
X167513000Y-100203000D01*
X167767000Y-100203000D01*
X167767000Y-101396819D01*
X167996892Y-101517486D01*
X168521358Y-101271183D01*
X168911645Y-100842924D01*
X169081476Y-100432890D01*
X168960155Y-100203000D01*
X167767000Y-100203000D01*
X167513000Y-100203000D01*
X166319845Y-100203000D01*
X166198524Y-100432890D01*
X151419890Y-100432890D01*
X151084500Y-100097500D01*
X150764943Y-99883979D01*
X150388000Y-99809000D01*
X143784000Y-99809000D01*
X143407057Y-99883979D01*
X143087500Y-100097500D01*
X142360000Y-100825000D01*
X137322630Y-100825000D01*
X137313162Y-100774683D01*
X137174090Y-100558559D01*
X136961890Y-100413569D01*
X136710000Y-100362560D01*
X135110000Y-100362560D01*
X134874683Y-100406838D01*
X134658559Y-100545910D01*
X134570356Y-100675000D01*
X134356132Y-100675000D01*
X137250553Y-97780579D01*
X154212786Y-97780579D01*
X154400408Y-98234657D01*
X154747515Y-98582371D01*
X155201266Y-98770785D01*
X155692579Y-98771214D01*
X156146657Y-98583592D01*
X156359621Y-98371000D01*
X166142560Y-98371000D01*
X166142560Y-98386000D01*
X166186838Y-98621317D01*
X166325910Y-98837441D01*
X166538110Y-98982431D01*
X166646107Y-99004301D01*
X166368355Y-99309076D01*
X166198524Y-99719110D01*
X166319845Y-99949000D01*
X167513000Y-99949000D01*
X167513000Y-99929000D01*
X167767000Y-99929000D01*
X167767000Y-99949000D01*
X168960155Y-99949000D01*
X169081476Y-99719110D01*
X168911645Y-99309076D01*
X168635499Y-99006063D01*
X168725317Y-98989162D01*
X168941441Y-98850090D01*
X169086431Y-98637890D01*
X169137440Y-98386000D01*
X169137440Y-96686000D01*
X169093162Y-96450683D01*
X168954090Y-96234559D01*
X168741890Y-96089569D01*
X168490000Y-96038560D01*
X166790000Y-96038560D01*
X166554683Y-96082838D01*
X166338559Y-96221910D01*
X166193569Y-96434110D01*
X166142560Y-96686000D01*
X166142560Y-96701000D01*
X156359487Y-96701000D01*
X156148485Y-96489629D01*
X155694734Y-96301215D01*
X155203421Y-96300786D01*
X154749343Y-96488408D01*
X154401629Y-96835515D01*
X154213215Y-97289266D01*
X154212786Y-97780579D01*
X137250553Y-97780579D01*
X140678132Y-94353000D01*
X191807868Y-94353000D01*
X194699000Y-97244132D01*
M02*
