G04 #@! TF.FileFunction,Copper,L1,Top,Signal*
%FSLAX46Y46*%
G04 Gerber Fmt 4.6, Leading zero omitted, Abs format (unit mm)*
G04 Created by KiCad (PCBNEW 4.0.7-e2-6376~61~ubuntu18.04.1) date Tue May 28 20:38:26 2019*
%MOMM*%
%LPD*%
G01*
G04 APERTURE LIST*
%ADD10C,0.100000*%
%ADD11C,2.000000*%
%ADD12C,1.574800*%
%ADD13C,1.600000*%
%ADD14R,1.600000X1.600000*%
%ADD15R,1.800000X1.800000*%
%ADD16C,1.800000*%
%ADD17O,1.600000X1.600000*%
%ADD18C,1.700000*%
%ADD19R,2.400000X1.600000*%
%ADD20O,2.400000X1.600000*%
%ADD21R,1.700000X1.700000*%
%ADD22O,1.700000X1.700000*%
%ADD23R,2.000000X7.875000*%
%ADD24C,1.524000*%
%ADD25C,1.200000*%
%ADD26C,0.900000*%
%ADD27C,0.400000*%
%ADD28C,1.000000*%
%ADD29C,0.254000*%
G04 APERTURE END LIST*
D10*
D11*
X139700000Y-132080000D03*
X139700000Y-129540000D03*
X137160000Y-132080000D03*
X137160000Y-129540000D03*
D12*
X162580000Y-103080000D03*
X147340000Y-103080000D03*
X162580000Y-105620000D03*
X147340000Y-105620000D03*
X162580000Y-108160000D03*
X147340000Y-108160000D03*
X162580000Y-110700000D03*
X147340000Y-110700000D03*
X162580000Y-113240000D03*
X147340000Y-113240000D03*
X162580000Y-115780000D03*
X147340000Y-115780000D03*
X162580000Y-118320000D03*
X147340000Y-118320000D03*
X162580000Y-120860000D03*
X147340000Y-120860000D03*
X162580000Y-123400000D03*
X147340000Y-123400000D03*
X162580000Y-125940000D03*
X147340000Y-125940000D03*
X162580000Y-128480000D03*
X147340000Y-128480000D03*
X162580000Y-131020000D03*
X147340000Y-131020000D03*
X162580000Y-133560000D03*
X147340000Y-133560000D03*
X162580000Y-136100000D03*
X147340000Y-136100000D03*
X162580000Y-138640000D03*
X147340000Y-138640000D03*
D13*
X100350000Y-137878000D03*
X100350000Y-135378000D03*
X100350000Y-143720000D03*
X100350000Y-141220000D03*
D14*
X135910000Y-101810000D03*
D13*
X135910000Y-104310000D03*
X130830000Y-101810000D03*
X130830000Y-104310000D03*
D15*
X168529000Y-144145000D03*
D16*
X171069000Y-144145000D03*
D15*
X124226000Y-144228000D03*
D16*
X126766000Y-144228000D03*
D15*
X117368000Y-144228000D03*
D16*
X119908000Y-144228000D03*
D13*
X116860000Y-104350000D03*
D17*
X124480000Y-104350000D03*
D13*
X119400000Y-108160000D03*
D17*
X119400000Y-115780000D03*
D13*
X173736000Y-144145000D03*
D17*
X181356000Y-144145000D03*
D13*
X122956000Y-141180000D03*
D17*
X122956000Y-133560000D03*
D13*
X119908000Y-141180000D03*
D17*
X119908000Y-133560000D03*
D18*
X133220000Y-139220000D03*
X139720000Y-139220000D03*
X133220000Y-143720000D03*
X139720000Y-143720000D03*
D19*
X105430000Y-122892000D03*
D20*
X113050000Y-143212000D03*
X105430000Y-125432000D03*
X113050000Y-140672000D03*
X105430000Y-127972000D03*
X113050000Y-138132000D03*
X105430000Y-130512000D03*
X113050000Y-135592000D03*
X105430000Y-133052000D03*
X113050000Y-133052000D03*
X105430000Y-135592000D03*
X113050000Y-130512000D03*
X105430000Y-138132000D03*
X113050000Y-127972000D03*
X105430000Y-140672000D03*
X113050000Y-125432000D03*
X105430000Y-143212000D03*
X113050000Y-122892000D03*
D21*
X94000000Y-98000000D03*
D22*
X94000000Y-95460000D03*
X96540000Y-98000000D03*
X96540000Y-95460000D03*
X99080000Y-98000000D03*
X99080000Y-95460000D03*
X101620000Y-98000000D03*
X101620000Y-95460000D03*
X104160000Y-98000000D03*
X104160000Y-95460000D03*
X106700000Y-98000000D03*
X106700000Y-95460000D03*
X109240000Y-98000000D03*
X109240000Y-95460000D03*
X111780000Y-98000000D03*
X111780000Y-95460000D03*
X114320000Y-98000000D03*
X114320000Y-95460000D03*
X116860000Y-98000000D03*
X116860000Y-95460000D03*
X119400000Y-98000000D03*
X119400000Y-95460000D03*
X121940000Y-98000000D03*
X121940000Y-95460000D03*
X124480000Y-98000000D03*
X124480000Y-95460000D03*
X127020000Y-98000000D03*
X127020000Y-95460000D03*
X129560000Y-98000000D03*
X129560000Y-95460000D03*
X132100000Y-98000000D03*
X132100000Y-95460000D03*
D14*
X106700000Y-108160000D03*
D17*
X114320000Y-115780000D03*
X106700000Y-110700000D03*
X114320000Y-113240000D03*
X106700000Y-113240000D03*
X114320000Y-110700000D03*
X106700000Y-115780000D03*
X114320000Y-108160000D03*
D23*
X92730000Y-130162500D03*
X92730000Y-142037500D03*
D21*
X167640000Y-97536000D03*
D22*
X167640000Y-100076000D03*
D21*
X166624000Y-113284000D03*
D22*
X166624000Y-115824000D03*
X166624000Y-118364000D03*
X166624000Y-120904000D03*
D21*
X144272000Y-118364000D03*
D22*
X144272000Y-115824000D03*
X144272000Y-113284000D03*
D21*
X142240000Y-132080000D03*
D22*
X142240000Y-129540000D03*
X142240000Y-127000000D03*
D21*
X187198000Y-120142000D03*
D22*
X184658000Y-120142000D03*
X182118000Y-120142000D03*
X179578000Y-120142000D03*
D21*
X186690000Y-99822000D03*
D22*
X184150000Y-99822000D03*
X181610000Y-99822000D03*
X179070000Y-99822000D03*
D24*
X174498000Y-136398000D03*
X177038000Y-136398000D03*
X179578000Y-136398000D03*
X182118000Y-136398000D03*
X184658000Y-136398000D03*
X187198000Y-136398000D03*
X189738000Y-136398000D03*
X192278000Y-136398000D03*
X192278000Y-123698000D03*
X189738000Y-123698000D03*
X187198000Y-123698000D03*
X184658000Y-123698000D03*
X177038000Y-123698000D03*
X174498000Y-123698000D03*
X182118000Y-123698000D03*
X179578000Y-123698000D03*
X173990000Y-116078000D03*
X176530000Y-116078000D03*
X179070000Y-116078000D03*
X181610000Y-116078000D03*
X184150000Y-116078000D03*
X186690000Y-116078000D03*
X189230000Y-116078000D03*
X191770000Y-116078000D03*
X191770000Y-103378000D03*
X189230000Y-103378000D03*
X186690000Y-103378000D03*
X184150000Y-103378000D03*
X176530000Y-103378000D03*
X173990000Y-103378000D03*
X181610000Y-103378000D03*
X179070000Y-103378000D03*
D11*
X185420000Y-144780000D03*
X190500000Y-144780000D03*
X139700000Y-127000000D03*
X137160000Y-127000000D03*
D25*
X117602000Y-122174000D03*
X141986000Y-110998000D03*
X163068000Y-144272000D03*
X157734000Y-136906000D03*
X189230000Y-106426000D03*
X193040000Y-119380000D03*
X97028000Y-134620000D03*
X97282000Y-143764000D03*
X155448000Y-97536000D03*
D26*
X121666000Y-100609998D03*
D27*
X139700000Y-122174000D02*
X117602000Y-122174000D01*
X141986000Y-119888000D02*
X139700000Y-122174000D01*
X141986000Y-110998000D02*
X141986000Y-119888000D01*
X157734000Y-138938000D02*
X163068000Y-144272000D01*
X157734000Y-136906000D02*
X157734000Y-138938000D01*
X193548000Y-110744000D02*
X189230000Y-106426000D01*
X193548000Y-118872000D02*
X193548000Y-110744000D01*
X193040000Y-119380000D02*
X193548000Y-118872000D01*
X92730000Y-130162500D02*
X92730000Y-130322000D01*
X92730000Y-130322000D02*
X97028000Y-134620000D01*
X92730000Y-130258000D02*
X92730000Y-130162500D01*
X95555500Y-142037500D02*
X92730000Y-142037500D01*
X97282000Y-143764000D02*
X95555500Y-142037500D01*
X124480000Y-98000000D02*
X124480000Y-95460000D01*
X119400000Y-108160000D02*
X119400000Y-105366000D01*
X124480000Y-100286000D02*
X124480000Y-98000000D01*
X119400000Y-105366000D02*
X124480000Y-100286000D01*
X127020000Y-98000000D02*
X127020000Y-95460000D01*
X122702000Y-112478000D02*
X119400000Y-115780000D01*
X122702000Y-109938000D02*
X122702000Y-112478000D01*
X127020000Y-105620000D02*
X122702000Y-109938000D01*
X127020000Y-98000000D02*
X127020000Y-105620000D01*
X132100000Y-98000000D02*
X154984000Y-98000000D01*
X154984000Y-98000000D02*
X155448000Y-97536000D01*
D28*
X104160000Y-99334000D02*
X104160000Y-98000000D01*
X105410000Y-100584000D02*
X104160000Y-99334000D01*
X121640002Y-100584000D02*
X105410000Y-100584000D01*
X121666000Y-100609998D02*
X121640002Y-100584000D01*
D29*
G36*
X194253707Y-92973288D02*
X195316546Y-93683454D01*
X196026712Y-94746295D01*
X196290000Y-96069931D01*
X196290000Y-145930070D01*
X196255074Y-146105655D01*
X196195225Y-146195226D01*
X196105655Y-146255074D01*
X195930070Y-146290000D01*
X191127005Y-146290000D01*
X191424943Y-146166894D01*
X191885278Y-145707363D01*
X192134716Y-145106648D01*
X192135284Y-144456205D01*
X191886894Y-143855057D01*
X191427363Y-143394722D01*
X190826648Y-143145284D01*
X190176205Y-143144716D01*
X189575057Y-143393106D01*
X189114722Y-143852637D01*
X188865284Y-144453352D01*
X188864716Y-145103795D01*
X189113106Y-145704943D01*
X189572637Y-146165278D01*
X189873002Y-146290000D01*
X186075505Y-146290000D01*
X186294264Y-146199387D01*
X186392927Y-145932532D01*
X185420000Y-144959605D01*
X184447073Y-145932532D01*
X184545736Y-146199387D01*
X184789638Y-146290000D01*
X94283310Y-146290000D01*
X94326431Y-146226890D01*
X94377440Y-145975000D01*
X94377440Y-142872500D01*
X95209632Y-142872500D01*
X96047047Y-143709915D01*
X96046786Y-144008579D01*
X96234408Y-144462657D01*
X96581515Y-144810371D01*
X97035266Y-144998785D01*
X97526579Y-144999214D01*
X97980657Y-144811592D01*
X98328371Y-144464485D01*
X98516785Y-144010734D01*
X98516790Y-144004187D01*
X98914752Y-144004187D01*
X99132757Y-144531800D01*
X99536077Y-144935824D01*
X100063309Y-145154750D01*
X100634187Y-145155248D01*
X101161800Y-144937243D01*
X101565824Y-144533923D01*
X101784750Y-144006691D01*
X101785138Y-143561039D01*
X103638096Y-143561039D01*
X103655633Y-143643819D01*
X103925500Y-144136896D01*
X104363517Y-144489166D01*
X104903000Y-144647000D01*
X105303000Y-144647000D01*
X105303000Y-143339000D01*
X105557000Y-143339000D01*
X105557000Y-144647000D01*
X105957000Y-144647000D01*
X106496483Y-144489166D01*
X106934500Y-144136896D01*
X107204367Y-143643819D01*
X107221904Y-143561039D01*
X107099915Y-143339000D01*
X105557000Y-143339000D01*
X105303000Y-143339000D01*
X103760085Y-143339000D01*
X103638096Y-143561039D01*
X101785138Y-143561039D01*
X101785248Y-143435813D01*
X101567243Y-142908200D01*
X101163923Y-142504176D01*
X101097456Y-142476577D01*
X101104005Y-142473864D01*
X101178139Y-142227745D01*
X100350000Y-141399605D01*
X99521861Y-142227745D01*
X99595995Y-142473864D01*
X99602483Y-142476196D01*
X99538200Y-142502757D01*
X99134176Y-142906077D01*
X98915250Y-143433309D01*
X98914752Y-144004187D01*
X98516790Y-144004187D01*
X98517214Y-143519421D01*
X98329592Y-143065343D01*
X97982485Y-142717629D01*
X97528734Y-142529215D01*
X97227820Y-142528952D01*
X96145934Y-141447066D01*
X96130535Y-141436777D01*
X95875041Y-141266061D01*
X95555500Y-141202500D01*
X94377440Y-141202500D01*
X94377440Y-141003223D01*
X98903035Y-141003223D01*
X98930222Y-141573454D01*
X99096136Y-141974005D01*
X99342255Y-142048139D01*
X100170395Y-141220000D01*
X100529605Y-141220000D01*
X101357745Y-142048139D01*
X101603864Y-141974005D01*
X101796965Y-141436777D01*
X101769778Y-140866546D01*
X101603864Y-140465995D01*
X101357745Y-140391861D01*
X100529605Y-141220000D01*
X100170395Y-141220000D01*
X99342255Y-140391861D01*
X99096136Y-140465995D01*
X98903035Y-141003223D01*
X94377440Y-141003223D01*
X94377440Y-140212255D01*
X99521861Y-140212255D01*
X100350000Y-141040395D01*
X101178139Y-140212255D01*
X101104005Y-139966136D01*
X100566777Y-139773035D01*
X99996546Y-139800222D01*
X99595995Y-139966136D01*
X99521861Y-140212255D01*
X94377440Y-140212255D01*
X94377440Y-138162187D01*
X98914752Y-138162187D01*
X99132757Y-138689800D01*
X99536077Y-139093824D01*
X100063309Y-139312750D01*
X100634187Y-139313248D01*
X101161800Y-139095243D01*
X101565824Y-138691923D01*
X101784750Y-138164691D01*
X101785248Y-137593813D01*
X101567243Y-137066200D01*
X101163923Y-136662176D01*
X101097456Y-136634577D01*
X101104005Y-136631864D01*
X101178139Y-136385745D01*
X100350000Y-135557605D01*
X99521861Y-136385745D01*
X99595995Y-136631864D01*
X99602483Y-136634196D01*
X99538200Y-136660757D01*
X99134176Y-137064077D01*
X98915250Y-137591309D01*
X98914752Y-138162187D01*
X94377440Y-138162187D01*
X94377440Y-138100000D01*
X94333162Y-137864683D01*
X94194090Y-137648559D01*
X93981890Y-137503569D01*
X93730000Y-137452560D01*
X91730000Y-137452560D01*
X91494683Y-137496838D01*
X91278559Y-137635910D01*
X91133569Y-137848110D01*
X91082560Y-138100000D01*
X91082560Y-145975000D01*
X91126838Y-146210317D01*
X91178113Y-146290000D01*
X88069930Y-146290000D01*
X87894345Y-146255074D01*
X87804774Y-146195225D01*
X87744926Y-146105655D01*
X87710000Y-145930070D01*
X87710000Y-126225000D01*
X91082560Y-126225000D01*
X91082560Y-134100000D01*
X91126838Y-134335317D01*
X91265910Y-134551441D01*
X91478110Y-134696431D01*
X91730000Y-134747440D01*
X93730000Y-134747440D01*
X93965317Y-134703162D01*
X94181441Y-134564090D01*
X94326431Y-134351890D01*
X94377440Y-134100000D01*
X94377440Y-133150308D01*
X95793047Y-134565915D01*
X95792786Y-134864579D01*
X95980408Y-135318657D01*
X96327515Y-135666371D01*
X96781266Y-135854785D01*
X97272579Y-135855214D01*
X97726657Y-135667592D01*
X98074371Y-135320485D01*
X98140502Y-135161223D01*
X98903035Y-135161223D01*
X98930222Y-135731454D01*
X99096136Y-136132005D01*
X99342255Y-136206139D01*
X100170395Y-135378000D01*
X100529605Y-135378000D01*
X101357745Y-136206139D01*
X101603864Y-136132005D01*
X101796965Y-135594777D01*
X101769778Y-135024546D01*
X101603864Y-134623995D01*
X101357745Y-134549861D01*
X100529605Y-135378000D01*
X100170395Y-135378000D01*
X99342255Y-134549861D01*
X99096136Y-134623995D01*
X98903035Y-135161223D01*
X98140502Y-135161223D01*
X98262785Y-134866734D01*
X98263214Y-134375421D01*
X98261080Y-134370255D01*
X99521861Y-134370255D01*
X100350000Y-135198395D01*
X101178139Y-134370255D01*
X101104005Y-134124136D01*
X100566777Y-133931035D01*
X99996546Y-133958222D01*
X99595995Y-134124136D01*
X99521861Y-134370255D01*
X98261080Y-134370255D01*
X98075592Y-133921343D01*
X97728485Y-133573629D01*
X97274734Y-133385215D01*
X96973820Y-133384952D01*
X94377440Y-130788572D01*
X94377440Y-126225000D01*
X94333162Y-125989683D01*
X94194090Y-125773559D01*
X93981890Y-125628569D01*
X93730000Y-125577560D01*
X91730000Y-125577560D01*
X91494683Y-125621838D01*
X91278559Y-125760910D01*
X91133569Y-125973110D01*
X91082560Y-126225000D01*
X87710000Y-126225000D01*
X87710000Y-125432000D01*
X103559050Y-125432000D01*
X103668283Y-125981151D01*
X103979352Y-126446698D01*
X104361438Y-126702000D01*
X103979352Y-126957302D01*
X103668283Y-127422849D01*
X103559050Y-127972000D01*
X103668283Y-128521151D01*
X103979352Y-128986698D01*
X104361438Y-129242000D01*
X103979352Y-129497302D01*
X103668283Y-129962849D01*
X103559050Y-130512000D01*
X103668283Y-131061151D01*
X103979352Y-131526698D01*
X104361438Y-131782000D01*
X103979352Y-132037302D01*
X103668283Y-132502849D01*
X103559050Y-133052000D01*
X103668283Y-133601151D01*
X103979352Y-134066698D01*
X104361438Y-134322000D01*
X103979352Y-134577302D01*
X103668283Y-135042849D01*
X103559050Y-135592000D01*
X103668283Y-136141151D01*
X103979352Y-136606698D01*
X104361438Y-136862000D01*
X103979352Y-137117302D01*
X103668283Y-137582849D01*
X103559050Y-138132000D01*
X103668283Y-138681151D01*
X103979352Y-139146698D01*
X104361438Y-139402000D01*
X103979352Y-139657302D01*
X103668283Y-140122849D01*
X103559050Y-140672000D01*
X103668283Y-141221151D01*
X103979352Y-141686698D01*
X104357707Y-141939507D01*
X103925500Y-142287104D01*
X103655633Y-142780181D01*
X103638096Y-142862961D01*
X103760085Y-143085000D01*
X105303000Y-143085000D01*
X105303000Y-143065000D01*
X105557000Y-143065000D01*
X105557000Y-143085000D01*
X107099915Y-143085000D01*
X107221904Y-142862961D01*
X107204367Y-142780181D01*
X106934500Y-142287104D01*
X106502293Y-141939507D01*
X106880648Y-141686698D01*
X107191717Y-141221151D01*
X107300950Y-140672000D01*
X107191717Y-140122849D01*
X106880648Y-139657302D01*
X106498562Y-139402000D01*
X106880648Y-139146698D01*
X107191717Y-138681151D01*
X107300950Y-138132000D01*
X107191717Y-137582849D01*
X106880648Y-137117302D01*
X106498562Y-136862000D01*
X106880648Y-136606698D01*
X107191717Y-136141151D01*
X107300950Y-135592000D01*
X107191717Y-135042849D01*
X106880648Y-134577302D01*
X106498562Y-134322000D01*
X106880648Y-134066698D01*
X107191717Y-133601151D01*
X107300950Y-133052000D01*
X107191717Y-132502849D01*
X106880648Y-132037302D01*
X106498562Y-131782000D01*
X106880648Y-131526698D01*
X107191717Y-131061151D01*
X107300950Y-130512000D01*
X107191717Y-129962849D01*
X106880648Y-129497302D01*
X106498562Y-129242000D01*
X106880648Y-128986698D01*
X107191717Y-128521151D01*
X107300950Y-127972000D01*
X107191717Y-127422849D01*
X106880648Y-126957302D01*
X106498562Y-126702000D01*
X106880648Y-126446698D01*
X107191717Y-125981151D01*
X107300950Y-125432000D01*
X107191717Y-124882849D01*
X106880648Y-124417302D01*
X106734650Y-124319749D01*
X106865317Y-124295162D01*
X107081441Y-124156090D01*
X107226431Y-123943890D01*
X107277440Y-123692000D01*
X107277440Y-122892000D01*
X111179050Y-122892000D01*
X111288283Y-123441151D01*
X111599352Y-123906698D01*
X111981438Y-124162000D01*
X111599352Y-124417302D01*
X111288283Y-124882849D01*
X111179050Y-125432000D01*
X111288283Y-125981151D01*
X111599352Y-126446698D01*
X111981438Y-126702000D01*
X111599352Y-126957302D01*
X111288283Y-127422849D01*
X111179050Y-127972000D01*
X111288283Y-128521151D01*
X111599352Y-128986698D01*
X111981438Y-129242000D01*
X111599352Y-129497302D01*
X111288283Y-129962849D01*
X111179050Y-130512000D01*
X111288283Y-131061151D01*
X111599352Y-131526698D01*
X111981438Y-131782000D01*
X111599352Y-132037302D01*
X111288283Y-132502849D01*
X111179050Y-133052000D01*
X111288283Y-133601151D01*
X111599352Y-134066698D01*
X111981438Y-134322000D01*
X111599352Y-134577302D01*
X111288283Y-135042849D01*
X111179050Y-135592000D01*
X111288283Y-136141151D01*
X111599352Y-136606698D01*
X111981438Y-136862000D01*
X111599352Y-137117302D01*
X111288283Y-137582849D01*
X111179050Y-138132000D01*
X111288283Y-138681151D01*
X111599352Y-139146698D01*
X111981438Y-139402000D01*
X111599352Y-139657302D01*
X111288283Y-140122849D01*
X111179050Y-140672000D01*
X111288283Y-141221151D01*
X111599352Y-141686698D01*
X111981438Y-141942000D01*
X111599352Y-142197302D01*
X111288283Y-142662849D01*
X111179050Y-143212000D01*
X111288283Y-143761151D01*
X111599352Y-144226698D01*
X112064899Y-144537767D01*
X112614050Y-144647000D01*
X113485950Y-144647000D01*
X114035101Y-144537767D01*
X114500648Y-144226698D01*
X114811717Y-143761151D01*
X114897876Y-143328000D01*
X115820560Y-143328000D01*
X115820560Y-145128000D01*
X115864838Y-145363317D01*
X116003910Y-145579441D01*
X116216110Y-145724431D01*
X116468000Y-145775440D01*
X118268000Y-145775440D01*
X118503317Y-145731162D01*
X118719441Y-145592090D01*
X118864431Y-145379890D01*
X118868567Y-145359466D01*
X119037357Y-145528551D01*
X119601330Y-145762733D01*
X120211991Y-145763265D01*
X120776371Y-145530068D01*
X121208551Y-145098643D01*
X121442733Y-144534670D01*
X121443265Y-143924009D01*
X121210068Y-143359629D01*
X121178495Y-143328000D01*
X122678560Y-143328000D01*
X122678560Y-145128000D01*
X122722838Y-145363317D01*
X122861910Y-145579441D01*
X123074110Y-145724431D01*
X123326000Y-145775440D01*
X125126000Y-145775440D01*
X125361317Y-145731162D01*
X125577441Y-145592090D01*
X125722431Y-145379890D01*
X125726567Y-145359466D01*
X125895357Y-145528551D01*
X126459330Y-145762733D01*
X127069991Y-145763265D01*
X127634371Y-145530068D01*
X128066551Y-145098643D01*
X128300733Y-144534670D01*
X128301186Y-144014089D01*
X131734743Y-144014089D01*
X131960344Y-144560086D01*
X132377717Y-144978188D01*
X132923319Y-145204742D01*
X133514089Y-145205257D01*
X134060086Y-144979656D01*
X134478188Y-144562283D01*
X134704742Y-144016681D01*
X134704744Y-144014089D01*
X138234743Y-144014089D01*
X138460344Y-144560086D01*
X138877717Y-144978188D01*
X139423319Y-145204742D01*
X140014089Y-145205257D01*
X140560086Y-144979656D01*
X140978188Y-144562283D01*
X141204742Y-144016681D01*
X141205257Y-143425911D01*
X140979656Y-142879914D01*
X140562283Y-142461812D01*
X140016681Y-142235258D01*
X139425911Y-142234743D01*
X138879914Y-142460344D01*
X138461812Y-142877717D01*
X138235258Y-143423319D01*
X138234743Y-144014089D01*
X134704744Y-144014089D01*
X134705257Y-143425911D01*
X134479656Y-142879914D01*
X134062283Y-142461812D01*
X133516681Y-142235258D01*
X132925911Y-142234743D01*
X132379914Y-142460344D01*
X131961812Y-142877717D01*
X131735258Y-143423319D01*
X131734743Y-144014089D01*
X128301186Y-144014089D01*
X128301265Y-143924009D01*
X128068068Y-143359629D01*
X127636643Y-142927449D01*
X127072670Y-142693267D01*
X126462009Y-142692735D01*
X125897629Y-142925932D01*
X125729387Y-143093880D01*
X125729162Y-143092683D01*
X125590090Y-142876559D01*
X125377890Y-142731569D01*
X125126000Y-142680560D01*
X123326000Y-142680560D01*
X123090683Y-142724838D01*
X122874559Y-142863910D01*
X122729569Y-143076110D01*
X122678560Y-143328000D01*
X121178495Y-143328000D01*
X120778643Y-142927449D01*
X120214670Y-142693267D01*
X119604009Y-142692735D01*
X119039629Y-142925932D01*
X118871387Y-143093880D01*
X118871162Y-143092683D01*
X118732090Y-142876559D01*
X118519890Y-142731569D01*
X118268000Y-142680560D01*
X116468000Y-142680560D01*
X116232683Y-142724838D01*
X116016559Y-142863910D01*
X115871569Y-143076110D01*
X115820560Y-143328000D01*
X114897876Y-143328000D01*
X114920950Y-143212000D01*
X114811717Y-142662849D01*
X114500648Y-142197302D01*
X114118562Y-141942000D01*
X114500648Y-141686698D01*
X114649325Y-141464187D01*
X118472752Y-141464187D01*
X118690757Y-141991800D01*
X119094077Y-142395824D01*
X119621309Y-142614750D01*
X120192187Y-142615248D01*
X120719800Y-142397243D01*
X121123824Y-141993923D01*
X121342750Y-141466691D01*
X121342752Y-141464187D01*
X121520752Y-141464187D01*
X121738757Y-141991800D01*
X122142077Y-142395824D01*
X122669309Y-142614750D01*
X123240187Y-142615248D01*
X123767800Y-142397243D01*
X124171824Y-141993923D01*
X124390750Y-141466691D01*
X124391248Y-140895813D01*
X124173243Y-140368200D01*
X124069183Y-140263958D01*
X132355647Y-140263958D01*
X132435920Y-140515259D01*
X132991279Y-140716718D01*
X133581458Y-140690315D01*
X134004080Y-140515259D01*
X134084353Y-140263958D01*
X133220000Y-139399605D01*
X132355647Y-140263958D01*
X124069183Y-140263958D01*
X123769923Y-139964176D01*
X123242691Y-139745250D01*
X122671813Y-139744752D01*
X122144200Y-139962757D01*
X121740176Y-140366077D01*
X121521250Y-140893309D01*
X121520752Y-141464187D01*
X121342752Y-141464187D01*
X121343248Y-140895813D01*
X121125243Y-140368200D01*
X120721923Y-139964176D01*
X120194691Y-139745250D01*
X119623813Y-139744752D01*
X119096200Y-139962757D01*
X118692176Y-140366077D01*
X118473250Y-140893309D01*
X118472752Y-141464187D01*
X114649325Y-141464187D01*
X114811717Y-141221151D01*
X114920950Y-140672000D01*
X114811717Y-140122849D01*
X114500648Y-139657302D01*
X114118562Y-139402000D01*
X114500648Y-139146698D01*
X114604495Y-138991279D01*
X131723282Y-138991279D01*
X131749685Y-139581458D01*
X131924741Y-140004080D01*
X132176042Y-140084353D01*
X133040395Y-139220000D01*
X133399605Y-139220000D01*
X134263958Y-140084353D01*
X134515259Y-140004080D01*
X134693005Y-139514089D01*
X138234743Y-139514089D01*
X138460344Y-140060086D01*
X138877717Y-140478188D01*
X139423319Y-140704742D01*
X140014089Y-140705257D01*
X140560086Y-140479656D01*
X140978188Y-140062283D01*
X141204742Y-139516681D01*
X141205257Y-138925911D01*
X140979656Y-138379914D01*
X140562283Y-137961812D01*
X140016681Y-137735258D01*
X139425911Y-137734743D01*
X138879914Y-137960344D01*
X138461812Y-138377717D01*
X138235258Y-138923319D01*
X138234743Y-139514089D01*
X134693005Y-139514089D01*
X134716718Y-139448721D01*
X134690315Y-138858542D01*
X134515259Y-138435920D01*
X134263958Y-138355647D01*
X133399605Y-139220000D01*
X133040395Y-139220000D01*
X132176042Y-138355647D01*
X131924741Y-138435920D01*
X131723282Y-138991279D01*
X114604495Y-138991279D01*
X114811717Y-138681151D01*
X114912189Y-138176042D01*
X132355647Y-138176042D01*
X133220000Y-139040395D01*
X134084353Y-138176042D01*
X134004080Y-137924741D01*
X133448721Y-137723282D01*
X132858542Y-137749685D01*
X132435920Y-137924741D01*
X132355647Y-138176042D01*
X114912189Y-138176042D01*
X114920950Y-138132000D01*
X114811717Y-137582849D01*
X114500648Y-137117302D01*
X114118562Y-136862000D01*
X114500648Y-136606698D01*
X114811717Y-136141151D01*
X114920950Y-135592000D01*
X114811717Y-135042849D01*
X114500648Y-134577302D01*
X114118562Y-134322000D01*
X114500648Y-134066698D01*
X114811717Y-133601151D01*
X114825494Y-133531887D01*
X118473000Y-133531887D01*
X118473000Y-133588113D01*
X118582233Y-134137264D01*
X118893302Y-134602811D01*
X119358849Y-134913880D01*
X119908000Y-135023113D01*
X120457151Y-134913880D01*
X120922698Y-134602811D01*
X121233767Y-134137264D01*
X121343000Y-133588113D01*
X121343000Y-133531887D01*
X121521000Y-133531887D01*
X121521000Y-133588113D01*
X121630233Y-134137264D01*
X121941302Y-134602811D01*
X122406849Y-134913880D01*
X122956000Y-135023113D01*
X123505151Y-134913880D01*
X123970698Y-134602811D01*
X124281767Y-134137264D01*
X124391000Y-133588113D01*
X124391000Y-133531887D01*
X124331455Y-133232532D01*
X136187073Y-133232532D01*
X136285736Y-133499387D01*
X136895461Y-133725908D01*
X137545460Y-133701856D01*
X138034264Y-133499387D01*
X138132927Y-133232532D01*
X137160000Y-132259605D01*
X136187073Y-133232532D01*
X124331455Y-133232532D01*
X124281767Y-132982736D01*
X123970698Y-132517189D01*
X123505151Y-132206120D01*
X122956000Y-132096887D01*
X122406849Y-132206120D01*
X121941302Y-132517189D01*
X121630233Y-132982736D01*
X121521000Y-133531887D01*
X121343000Y-133531887D01*
X121233767Y-132982736D01*
X120922698Y-132517189D01*
X120457151Y-132206120D01*
X119908000Y-132096887D01*
X119358849Y-132206120D01*
X118893302Y-132517189D01*
X118582233Y-132982736D01*
X118473000Y-133531887D01*
X114825494Y-133531887D01*
X114920950Y-133052000D01*
X114811717Y-132502849D01*
X114500648Y-132037302D01*
X114168640Y-131815461D01*
X135514092Y-131815461D01*
X135538144Y-132465460D01*
X135740613Y-132954264D01*
X136007468Y-133052927D01*
X136980395Y-132080000D01*
X136007468Y-131107073D01*
X135740613Y-131205736D01*
X135514092Y-131815461D01*
X114168640Y-131815461D01*
X114118562Y-131782000D01*
X114500648Y-131526698D01*
X114811717Y-131061151D01*
X114885039Y-130692532D01*
X136187073Y-130692532D01*
X136230504Y-130810000D01*
X136187073Y-130927468D01*
X137160000Y-131900395D01*
X138132927Y-130927468D01*
X138089496Y-130810000D01*
X138132927Y-130692532D01*
X137160000Y-129719605D01*
X136187073Y-130692532D01*
X114885039Y-130692532D01*
X114920950Y-130512000D01*
X114811717Y-129962849D01*
X114500648Y-129497302D01*
X114168640Y-129275461D01*
X135514092Y-129275461D01*
X135538144Y-129925460D01*
X135740613Y-130414264D01*
X136007468Y-130512927D01*
X136980395Y-129540000D01*
X136007468Y-128567073D01*
X135740613Y-128665736D01*
X135514092Y-129275461D01*
X114168640Y-129275461D01*
X114118562Y-129242000D01*
X114500648Y-128986698D01*
X114811717Y-128521151D01*
X114885039Y-128152532D01*
X136187073Y-128152532D01*
X136230504Y-128270000D01*
X136187073Y-128387468D01*
X137160000Y-129360395D01*
X138132927Y-128387468D01*
X138089496Y-128270000D01*
X138132927Y-128152532D01*
X137160000Y-127179605D01*
X136187073Y-128152532D01*
X114885039Y-128152532D01*
X114920950Y-127972000D01*
X114811717Y-127422849D01*
X114500648Y-126957302D01*
X114168640Y-126735461D01*
X135514092Y-126735461D01*
X135538144Y-127385460D01*
X135740613Y-127874264D01*
X136007468Y-127972927D01*
X136980395Y-127000000D01*
X137339605Y-127000000D01*
X138312532Y-127972927D01*
X138347938Y-127959836D01*
X138657759Y-128270199D01*
X138347438Y-128579978D01*
X138312532Y-128567073D01*
X137339605Y-129540000D01*
X138312532Y-130512927D01*
X138347938Y-130499836D01*
X138657759Y-130810199D01*
X138347438Y-131119978D01*
X138312532Y-131107073D01*
X137339605Y-132080000D01*
X138312532Y-133052927D01*
X138347938Y-133039836D01*
X138772637Y-133465278D01*
X139373352Y-133714716D01*
X140023795Y-133715284D01*
X140624943Y-133466894D01*
X140841677Y-133250539D01*
X140925910Y-133381441D01*
X141138110Y-133526431D01*
X141390000Y-133577440D01*
X143090000Y-133577440D01*
X143325317Y-133533162D01*
X143541441Y-133394090D01*
X143686431Y-133181890D01*
X143737440Y-132930000D01*
X143737440Y-131230000D01*
X143693162Y-130994683D01*
X143554090Y-130778559D01*
X143341890Y-130633569D01*
X143274459Y-130619914D01*
X143319147Y-130590054D01*
X143641054Y-130108285D01*
X143754093Y-129540000D01*
X143641054Y-128971715D01*
X143319147Y-128489946D01*
X142989974Y-128270000D01*
X143319147Y-128050054D01*
X143641054Y-127568285D01*
X143754093Y-127000000D01*
X143641054Y-126431715D01*
X143319147Y-125949946D01*
X142837378Y-125628039D01*
X142269093Y-125515000D01*
X142210907Y-125515000D01*
X141642622Y-125628039D01*
X141160853Y-125949946D01*
X141081121Y-126069274D01*
X140627363Y-125614722D01*
X140026648Y-125365284D01*
X139376205Y-125364716D01*
X138775057Y-125613106D01*
X138347438Y-126039978D01*
X138312532Y-126027073D01*
X137339605Y-127000000D01*
X136980395Y-127000000D01*
X136007468Y-126027073D01*
X135740613Y-126125736D01*
X135514092Y-126735461D01*
X114168640Y-126735461D01*
X114118562Y-126702000D01*
X114500648Y-126446698D01*
X114811717Y-125981151D01*
X114838308Y-125847468D01*
X136187073Y-125847468D01*
X137160000Y-126820395D01*
X138132927Y-125847468D01*
X138034264Y-125580613D01*
X137424539Y-125354092D01*
X136774540Y-125378144D01*
X136285736Y-125580613D01*
X136187073Y-125847468D01*
X114838308Y-125847468D01*
X114920950Y-125432000D01*
X114811717Y-124882849D01*
X114500648Y-124417302D01*
X114118562Y-124162000D01*
X114500648Y-123906698D01*
X114811717Y-123441151D01*
X114920950Y-122892000D01*
X114826781Y-122418579D01*
X116366786Y-122418579D01*
X116554408Y-122872657D01*
X116901515Y-123220371D01*
X117355266Y-123408785D01*
X117846579Y-123409214D01*
X118300657Y-123221592D01*
X118513621Y-123009000D01*
X139700000Y-123009000D01*
X140019541Y-122945439D01*
X140290434Y-122764434D01*
X142576434Y-120478434D01*
X142757439Y-120207541D01*
X142821000Y-119888000D01*
X142821000Y-119452677D01*
X142957910Y-119665441D01*
X143170110Y-119810431D01*
X143422000Y-119861440D01*
X145122000Y-119861440D01*
X145357317Y-119817162D01*
X145573441Y-119678090D01*
X145718431Y-119465890D01*
X145769440Y-119214000D01*
X145769440Y-117514000D01*
X145725162Y-117278683D01*
X145586090Y-117062559D01*
X145373890Y-116917569D01*
X145306459Y-116903914D01*
X145351147Y-116874054D01*
X145673054Y-116392285D01*
X145786093Y-115824000D01*
X145673054Y-115255715D01*
X145351147Y-114773946D01*
X145021974Y-114554000D01*
X145351147Y-114334054D01*
X145673054Y-113852285D01*
X145738813Y-113521691D01*
X145917354Y-113521691D01*
X146133445Y-114044672D01*
X146533223Y-114445149D01*
X146689140Y-114509891D01*
X146535328Y-114573445D01*
X146134851Y-114973223D01*
X145917848Y-115495826D01*
X145917354Y-116061691D01*
X146133445Y-116584672D01*
X146533223Y-116985149D01*
X146689140Y-117049891D01*
X146535328Y-117113445D01*
X146134851Y-117513223D01*
X145917848Y-118035826D01*
X145917354Y-118601691D01*
X146133445Y-119124672D01*
X146533223Y-119525149D01*
X146689140Y-119589891D01*
X146535328Y-119653445D01*
X146134851Y-120053223D01*
X145917848Y-120575826D01*
X145917354Y-121141691D01*
X146133445Y-121664672D01*
X146533223Y-122065149D01*
X146689140Y-122129891D01*
X146535328Y-122193445D01*
X146134851Y-122593223D01*
X145917848Y-123115826D01*
X145917354Y-123681691D01*
X146133445Y-124204672D01*
X146533223Y-124605149D01*
X146689140Y-124669891D01*
X146535328Y-124733445D01*
X146134851Y-125133223D01*
X145917848Y-125655826D01*
X145917354Y-126221691D01*
X146133445Y-126744672D01*
X146533223Y-127145149D01*
X146689140Y-127209891D01*
X146535328Y-127273445D01*
X146134851Y-127673223D01*
X145917848Y-128195826D01*
X145917354Y-128761691D01*
X146133445Y-129284672D01*
X146533223Y-129685149D01*
X146689140Y-129749891D01*
X146535328Y-129813445D01*
X146134851Y-130213223D01*
X145917848Y-130735826D01*
X145917354Y-131301691D01*
X146133445Y-131824672D01*
X146533223Y-132225149D01*
X146689140Y-132289891D01*
X146535328Y-132353445D01*
X146134851Y-132753223D01*
X145917848Y-133275826D01*
X145917354Y-133841691D01*
X146133445Y-134364672D01*
X146533223Y-134765149D01*
X146689140Y-134829891D01*
X146535328Y-134893445D01*
X146134851Y-135293223D01*
X145917848Y-135815826D01*
X145917354Y-136381691D01*
X146133445Y-136904672D01*
X146533223Y-137305149D01*
X146689140Y-137369891D01*
X146535328Y-137433445D01*
X146134851Y-137833223D01*
X145917848Y-138355826D01*
X145917354Y-138921691D01*
X146133445Y-139444672D01*
X146533223Y-139845149D01*
X147055826Y-140062152D01*
X147621691Y-140062646D01*
X148144672Y-139846555D01*
X148545149Y-139446777D01*
X148762152Y-138924174D01*
X148762646Y-138358309D01*
X148546555Y-137835328D01*
X148146777Y-137434851D01*
X147990860Y-137370109D01*
X148144672Y-137306555D01*
X148300920Y-137150579D01*
X156498786Y-137150579D01*
X156686408Y-137604657D01*
X156899000Y-137817621D01*
X156899000Y-138938000D01*
X156962561Y-139257541D01*
X157096348Y-139457767D01*
X157143566Y-139528434D01*
X161833047Y-144217915D01*
X161832786Y-144516579D01*
X162020408Y-144970657D01*
X162367515Y-145318371D01*
X162821266Y-145506785D01*
X163312579Y-145507214D01*
X163766657Y-145319592D01*
X164114371Y-144972485D01*
X164302785Y-144518734D01*
X164303214Y-144027421D01*
X164115592Y-143573343D01*
X163787823Y-143245000D01*
X166981560Y-143245000D01*
X166981560Y-145045000D01*
X167025838Y-145280317D01*
X167164910Y-145496441D01*
X167377110Y-145641431D01*
X167629000Y-145692440D01*
X169429000Y-145692440D01*
X169664317Y-145648162D01*
X169880441Y-145509090D01*
X170025431Y-145296890D01*
X170029567Y-145276466D01*
X170198357Y-145445551D01*
X170762330Y-145679733D01*
X171372991Y-145680265D01*
X171937371Y-145447068D01*
X172369551Y-145015643D01*
X172456525Y-144806187D01*
X172518757Y-144956800D01*
X172922077Y-145360824D01*
X173449309Y-145579750D01*
X174020187Y-145580248D01*
X174547800Y-145362243D01*
X174951824Y-144958923D01*
X175144860Y-144494039D01*
X179964096Y-144494039D01*
X180124959Y-144882423D01*
X180500866Y-145297389D01*
X181006959Y-145536914D01*
X181229000Y-145415629D01*
X181229000Y-144272000D01*
X181483000Y-144272000D01*
X181483000Y-145415629D01*
X181705041Y-145536914D01*
X182211134Y-145297389D01*
X182587041Y-144882423D01*
X182739031Y-144515461D01*
X183774092Y-144515461D01*
X183798144Y-145165460D01*
X184000613Y-145654264D01*
X184267468Y-145752927D01*
X185240395Y-144780000D01*
X185599605Y-144780000D01*
X186572532Y-145752927D01*
X186839387Y-145654264D01*
X187065908Y-145044539D01*
X187041856Y-144394540D01*
X186839387Y-143905736D01*
X186572532Y-143807073D01*
X185599605Y-144780000D01*
X185240395Y-144780000D01*
X184267468Y-143807073D01*
X184000613Y-143905736D01*
X183774092Y-144515461D01*
X182739031Y-144515461D01*
X182747904Y-144494039D01*
X182625915Y-144272000D01*
X181483000Y-144272000D01*
X181229000Y-144272000D01*
X180086085Y-144272000D01*
X179964096Y-144494039D01*
X175144860Y-144494039D01*
X175170750Y-144431691D01*
X175171248Y-143860813D01*
X175144452Y-143795961D01*
X179964096Y-143795961D01*
X180086085Y-144018000D01*
X181229000Y-144018000D01*
X181229000Y-142874371D01*
X181483000Y-142874371D01*
X181483000Y-144018000D01*
X182625915Y-144018000D01*
X182747904Y-143795961D01*
X182678117Y-143627468D01*
X184447073Y-143627468D01*
X185420000Y-144600395D01*
X186392927Y-143627468D01*
X186294264Y-143360613D01*
X185684539Y-143134092D01*
X185034540Y-143158144D01*
X184545736Y-143360613D01*
X184447073Y-143627468D01*
X182678117Y-143627468D01*
X182587041Y-143407577D01*
X182211134Y-142992611D01*
X181705041Y-142753086D01*
X181483000Y-142874371D01*
X181229000Y-142874371D01*
X181006959Y-142753086D01*
X180500866Y-142992611D01*
X180124959Y-143407577D01*
X179964096Y-143795961D01*
X175144452Y-143795961D01*
X174953243Y-143333200D01*
X174549923Y-142929176D01*
X174022691Y-142710250D01*
X173451813Y-142709752D01*
X172924200Y-142927757D01*
X172520176Y-143331077D01*
X172456714Y-143483909D01*
X172371068Y-143276629D01*
X171939643Y-142844449D01*
X171375670Y-142610267D01*
X170765009Y-142609735D01*
X170200629Y-142842932D01*
X170032387Y-143010880D01*
X170032162Y-143009683D01*
X169893090Y-142793559D01*
X169680890Y-142648569D01*
X169429000Y-142597560D01*
X167629000Y-142597560D01*
X167393683Y-142641838D01*
X167177559Y-142780910D01*
X167032569Y-142993110D01*
X166981560Y-143245000D01*
X163787823Y-143245000D01*
X163768485Y-143225629D01*
X163314734Y-143037215D01*
X163013820Y-143036952D01*
X158569000Y-138592132D01*
X158569000Y-137817487D01*
X158780371Y-137606485D01*
X158968785Y-137152734D01*
X158969214Y-136661421D01*
X158781592Y-136207343D01*
X158434485Y-135859629D01*
X157980734Y-135671215D01*
X157489421Y-135670786D01*
X157035343Y-135858408D01*
X156687629Y-136205515D01*
X156499215Y-136659266D01*
X156498786Y-137150579D01*
X148300920Y-137150579D01*
X148545149Y-136906777D01*
X148762152Y-136384174D01*
X148762646Y-135818309D01*
X148546555Y-135295328D01*
X148146777Y-134894851D01*
X147990860Y-134830109D01*
X148144672Y-134766555D01*
X148545149Y-134366777D01*
X148762152Y-133844174D01*
X148762646Y-133278309D01*
X148546555Y-132755328D01*
X148146777Y-132354851D01*
X147990860Y-132290109D01*
X148144672Y-132226555D01*
X148545149Y-131826777D01*
X148762152Y-131304174D01*
X148762646Y-130738309D01*
X148546555Y-130215328D01*
X148146777Y-129814851D01*
X147990860Y-129750109D01*
X148144672Y-129686555D01*
X148545149Y-129286777D01*
X148762152Y-128764174D01*
X148762646Y-128198309D01*
X148546555Y-127675328D01*
X148146777Y-127274851D01*
X147990860Y-127210109D01*
X148144672Y-127146555D01*
X148545149Y-126746777D01*
X148762152Y-126224174D01*
X148762646Y-125658309D01*
X148546555Y-125135328D01*
X148146777Y-124734851D01*
X147990860Y-124670109D01*
X148144672Y-124606555D01*
X148545149Y-124206777D01*
X148762152Y-123684174D01*
X148762646Y-123118309D01*
X148546555Y-122595328D01*
X148146777Y-122194851D01*
X147990860Y-122130109D01*
X148144672Y-122066555D01*
X148545149Y-121666777D01*
X148762152Y-121144174D01*
X148762646Y-120578309D01*
X148546555Y-120055328D01*
X148146777Y-119654851D01*
X147990860Y-119590109D01*
X148144672Y-119526555D01*
X148545149Y-119126777D01*
X148762152Y-118604174D01*
X148762646Y-118038309D01*
X148546555Y-117515328D01*
X148146777Y-117114851D01*
X147990860Y-117050109D01*
X148144672Y-116986555D01*
X148545149Y-116586777D01*
X148762152Y-116064174D01*
X148762646Y-115498309D01*
X148546555Y-114975328D01*
X148146777Y-114574851D01*
X147990860Y-114510109D01*
X148144672Y-114446555D01*
X148545149Y-114046777D01*
X148762152Y-113524174D01*
X148762646Y-112958309D01*
X148546555Y-112435328D01*
X148146777Y-112034851D01*
X148006422Y-111976571D01*
X148086425Y-111943432D01*
X148159011Y-111698617D01*
X147340000Y-110879605D01*
X146520989Y-111698617D01*
X146593575Y-111943432D01*
X146679024Y-111974071D01*
X146535328Y-112033445D01*
X146134851Y-112433223D01*
X145917848Y-112955826D01*
X145917354Y-113521691D01*
X145738813Y-113521691D01*
X145786093Y-113284000D01*
X145673054Y-112715715D01*
X145351147Y-112233946D01*
X144869378Y-111912039D01*
X144301093Y-111799000D01*
X144242907Y-111799000D01*
X143674622Y-111912039D01*
X143192853Y-112233946D01*
X142870946Y-112715715D01*
X142821000Y-112966810D01*
X142821000Y-111909487D01*
X143032371Y-111698485D01*
X143220785Y-111244734D01*
X143221214Y-110753421D01*
X143110815Y-110486235D01*
X145905574Y-110486235D01*
X145932959Y-111051438D01*
X146096568Y-111446425D01*
X146341383Y-111519011D01*
X147160395Y-110700000D01*
X147519605Y-110700000D01*
X148338617Y-111519011D01*
X148583432Y-111446425D01*
X148774426Y-110913765D01*
X148747041Y-110348562D01*
X148583432Y-109953575D01*
X148338617Y-109880989D01*
X147519605Y-110700000D01*
X147160395Y-110700000D01*
X146341383Y-109880989D01*
X146096568Y-109953575D01*
X145905574Y-110486235D01*
X143110815Y-110486235D01*
X143033592Y-110299343D01*
X142686485Y-109951629D01*
X142232734Y-109763215D01*
X141741421Y-109762786D01*
X141287343Y-109950408D01*
X140939629Y-110297515D01*
X140751215Y-110751266D01*
X140750786Y-111242579D01*
X140938408Y-111696657D01*
X141151000Y-111909621D01*
X141151000Y-119542132D01*
X139354132Y-121339000D01*
X118513487Y-121339000D01*
X118302485Y-121127629D01*
X117848734Y-120939215D01*
X117357421Y-120938786D01*
X116903343Y-121126408D01*
X116555629Y-121473515D01*
X116367215Y-121927266D01*
X116366786Y-122418579D01*
X114826781Y-122418579D01*
X114811717Y-122342849D01*
X114500648Y-121877302D01*
X114035101Y-121566233D01*
X113485950Y-121457000D01*
X112614050Y-121457000D01*
X112064899Y-121566233D01*
X111599352Y-121877302D01*
X111288283Y-122342849D01*
X111179050Y-122892000D01*
X107277440Y-122892000D01*
X107277440Y-122092000D01*
X107233162Y-121856683D01*
X107094090Y-121640559D01*
X106881890Y-121495569D01*
X106630000Y-121444560D01*
X104230000Y-121444560D01*
X103994683Y-121488838D01*
X103778559Y-121627910D01*
X103633569Y-121840110D01*
X103582560Y-122092000D01*
X103582560Y-123692000D01*
X103626838Y-123927317D01*
X103765910Y-124143441D01*
X103978110Y-124288431D01*
X104127074Y-124318597D01*
X103979352Y-124417302D01*
X103668283Y-124882849D01*
X103559050Y-125432000D01*
X87710000Y-125432000D01*
X87710000Y-113240000D01*
X105236887Y-113240000D01*
X105346120Y-113789151D01*
X105657189Y-114254698D01*
X106039275Y-114510000D01*
X105657189Y-114765302D01*
X105346120Y-115230849D01*
X105236887Y-115780000D01*
X105346120Y-116329151D01*
X105657189Y-116794698D01*
X106122736Y-117105767D01*
X106671887Y-117215000D01*
X106728113Y-117215000D01*
X107277264Y-117105767D01*
X107742811Y-116794698D01*
X108053880Y-116329151D01*
X108163113Y-115780000D01*
X108053880Y-115230849D01*
X107742811Y-114765302D01*
X107360725Y-114510000D01*
X107742811Y-114254698D01*
X108053880Y-113789151D01*
X108163113Y-113240000D01*
X108053880Y-112690849D01*
X107742811Y-112225302D01*
X107338297Y-111955014D01*
X107555134Y-111852389D01*
X107931041Y-111437423D01*
X108091904Y-111049039D01*
X107969915Y-110827000D01*
X106827000Y-110827000D01*
X106827000Y-110847000D01*
X106573000Y-110847000D01*
X106573000Y-110827000D01*
X105430085Y-110827000D01*
X105308096Y-111049039D01*
X105468959Y-111437423D01*
X105844866Y-111852389D01*
X106061703Y-111955014D01*
X105657189Y-112225302D01*
X105346120Y-112690849D01*
X105236887Y-113240000D01*
X87710000Y-113240000D01*
X87710000Y-107360000D01*
X105252560Y-107360000D01*
X105252560Y-108960000D01*
X105296838Y-109195317D01*
X105435910Y-109411441D01*
X105648110Y-109556431D01*
X105807616Y-109588732D01*
X105468959Y-109962577D01*
X105308096Y-110350961D01*
X105430085Y-110573000D01*
X106573000Y-110573000D01*
X106573000Y-110553000D01*
X106827000Y-110553000D01*
X106827000Y-110573000D01*
X107969915Y-110573000D01*
X108091904Y-110350961D01*
X107931041Y-109962577D01*
X107593410Y-109589864D01*
X107735317Y-109563162D01*
X107951441Y-109424090D01*
X108096431Y-109211890D01*
X108147440Y-108960000D01*
X108147440Y-108160000D01*
X112856887Y-108160000D01*
X112966120Y-108709151D01*
X113277189Y-109174698D01*
X113659275Y-109430000D01*
X113277189Y-109685302D01*
X112966120Y-110150849D01*
X112856887Y-110700000D01*
X112966120Y-111249151D01*
X113277189Y-111714698D01*
X113659275Y-111970000D01*
X113277189Y-112225302D01*
X112966120Y-112690849D01*
X112856887Y-113240000D01*
X112966120Y-113789151D01*
X113277189Y-114254698D01*
X113659275Y-114510000D01*
X113277189Y-114765302D01*
X112966120Y-115230849D01*
X112856887Y-115780000D01*
X112966120Y-116329151D01*
X113277189Y-116794698D01*
X113742736Y-117105767D01*
X114291887Y-117215000D01*
X114348113Y-117215000D01*
X114897264Y-117105767D01*
X115362811Y-116794698D01*
X115673880Y-116329151D01*
X115783113Y-115780000D01*
X115673880Y-115230849D01*
X115362811Y-114765302D01*
X114980725Y-114510000D01*
X115362811Y-114254698D01*
X115673880Y-113789151D01*
X115783113Y-113240000D01*
X115673880Y-112690849D01*
X115362811Y-112225302D01*
X114980725Y-111970000D01*
X115362811Y-111714698D01*
X115673880Y-111249151D01*
X115783113Y-110700000D01*
X115673880Y-110150849D01*
X115362811Y-109685302D01*
X114980725Y-109430000D01*
X115362811Y-109174698D01*
X115673880Y-108709151D01*
X115783113Y-108160000D01*
X115673880Y-107610849D01*
X115362811Y-107145302D01*
X114897264Y-106834233D01*
X114348113Y-106725000D01*
X114291887Y-106725000D01*
X113742736Y-106834233D01*
X113277189Y-107145302D01*
X112966120Y-107610849D01*
X112856887Y-108160000D01*
X108147440Y-108160000D01*
X108147440Y-107360000D01*
X108103162Y-107124683D01*
X107964090Y-106908559D01*
X107751890Y-106763569D01*
X107500000Y-106712560D01*
X105900000Y-106712560D01*
X105664683Y-106756838D01*
X105448559Y-106895910D01*
X105303569Y-107108110D01*
X105252560Y-107360000D01*
X87710000Y-107360000D01*
X87710000Y-104634187D01*
X115424752Y-104634187D01*
X115642757Y-105161800D01*
X116046077Y-105565824D01*
X116573309Y-105784750D01*
X117144187Y-105785248D01*
X117671800Y-105567243D01*
X118075824Y-105163923D01*
X118294750Y-104636691D01*
X118295248Y-104065813D01*
X118077243Y-103538200D01*
X117673923Y-103134176D01*
X117146691Y-102915250D01*
X116575813Y-102914752D01*
X116048200Y-103132757D01*
X115644176Y-103536077D01*
X115425250Y-104063309D01*
X115424752Y-104634187D01*
X87710000Y-104634187D01*
X87710000Y-97150000D01*
X92502560Y-97150000D01*
X92502560Y-98850000D01*
X92546838Y-99085317D01*
X92685910Y-99301441D01*
X92898110Y-99446431D01*
X93150000Y-99497440D01*
X94850000Y-99497440D01*
X95085317Y-99453162D01*
X95301441Y-99314090D01*
X95446431Y-99101890D01*
X95460086Y-99034459D01*
X95489946Y-99079147D01*
X95971715Y-99401054D01*
X96540000Y-99514093D01*
X97108285Y-99401054D01*
X97590054Y-99079147D01*
X97810000Y-98749974D01*
X98029946Y-99079147D01*
X98511715Y-99401054D01*
X99080000Y-99514093D01*
X99648285Y-99401054D01*
X100130054Y-99079147D01*
X100350000Y-98749974D01*
X100569946Y-99079147D01*
X101051715Y-99401054D01*
X101620000Y-99514093D01*
X102188285Y-99401054D01*
X102670054Y-99079147D01*
X102890000Y-98749974D01*
X103025000Y-98952016D01*
X103025000Y-99334000D01*
X103111397Y-99768346D01*
X103243773Y-99966460D01*
X103357434Y-100136566D01*
X104607434Y-101386566D01*
X104975654Y-101632603D01*
X105410000Y-101719000D01*
X121535300Y-101719000D01*
X121666000Y-101744998D01*
X121883372Y-101701760D01*
X118809566Y-104775566D01*
X118628561Y-105046459D01*
X118565000Y-105366000D01*
X118565000Y-106965917D01*
X118184176Y-107346077D01*
X117965250Y-107873309D01*
X117964752Y-108444187D01*
X118182757Y-108971800D01*
X118586077Y-109375824D01*
X119113309Y-109594750D01*
X119684187Y-109595248D01*
X120211800Y-109377243D01*
X120615824Y-108973923D01*
X120834750Y-108446691D01*
X120835248Y-107875813D01*
X120617243Y-107348200D01*
X120235000Y-106965290D01*
X120235000Y-105711868D01*
X121247829Y-104699039D01*
X123088096Y-104699039D01*
X123248959Y-105087423D01*
X123624866Y-105502389D01*
X124130959Y-105741914D01*
X124353000Y-105620629D01*
X124353000Y-104477000D01*
X124607000Y-104477000D01*
X124607000Y-105620629D01*
X124829041Y-105741914D01*
X125335134Y-105502389D01*
X125711041Y-105087423D01*
X125871904Y-104699039D01*
X125749915Y-104477000D01*
X124607000Y-104477000D01*
X124353000Y-104477000D01*
X123210085Y-104477000D01*
X123088096Y-104699039D01*
X121247829Y-104699039D01*
X121945907Y-104000961D01*
X123088096Y-104000961D01*
X123210085Y-104223000D01*
X124353000Y-104223000D01*
X124353000Y-103079371D01*
X124607000Y-103079371D01*
X124607000Y-104223000D01*
X125749915Y-104223000D01*
X125871904Y-104000961D01*
X125711041Y-103612577D01*
X125335134Y-103197611D01*
X124829041Y-102958086D01*
X124607000Y-103079371D01*
X124353000Y-103079371D01*
X124130959Y-102958086D01*
X123624866Y-103197611D01*
X123248959Y-103612577D01*
X123088096Y-104000961D01*
X121945907Y-104000961D01*
X125070434Y-100876434D01*
X125138422Y-100774683D01*
X125251439Y-100605541D01*
X125315000Y-100286000D01*
X125315000Y-99222841D01*
X125530054Y-99079147D01*
X125750000Y-98749974D01*
X125969946Y-99079147D01*
X126185000Y-99222841D01*
X126185000Y-105274132D01*
X122111566Y-109347566D01*
X121930561Y-109618459D01*
X121867000Y-109938000D01*
X121867000Y-112132132D01*
X119635418Y-114363714D01*
X119400000Y-114316887D01*
X118850849Y-114426120D01*
X118385302Y-114737189D01*
X118074233Y-115202736D01*
X117965000Y-115751887D01*
X117965000Y-115808113D01*
X118074233Y-116357264D01*
X118385302Y-116822811D01*
X118850849Y-117133880D01*
X119400000Y-117243113D01*
X119949151Y-117133880D01*
X120414698Y-116822811D01*
X120725767Y-116357264D01*
X120835000Y-115808113D01*
X120835000Y-115751887D01*
X120797501Y-115563367D01*
X123292434Y-113068434D01*
X123367676Y-112955826D01*
X123473439Y-112797541D01*
X123537000Y-112478000D01*
X123537000Y-110283868D01*
X127610434Y-106210434D01*
X127780151Y-105956434D01*
X127791439Y-105939541D01*
X127855000Y-105620000D01*
X127855000Y-105317745D01*
X130001861Y-105317745D01*
X130075995Y-105563864D01*
X130613223Y-105756965D01*
X131183454Y-105729778D01*
X131584005Y-105563864D01*
X131658139Y-105317745D01*
X135081861Y-105317745D01*
X135155995Y-105563864D01*
X135693223Y-105756965D01*
X136263454Y-105729778D01*
X136664005Y-105563864D01*
X136738139Y-105317745D01*
X135910000Y-104489605D01*
X135081861Y-105317745D01*
X131658139Y-105317745D01*
X130830000Y-104489605D01*
X130001861Y-105317745D01*
X127855000Y-105317745D01*
X127855000Y-104093223D01*
X129383035Y-104093223D01*
X129410222Y-104663454D01*
X129576136Y-105064005D01*
X129822255Y-105138139D01*
X130650395Y-104310000D01*
X131009605Y-104310000D01*
X131837745Y-105138139D01*
X132083864Y-105064005D01*
X132276965Y-104526777D01*
X132256295Y-104093223D01*
X134463035Y-104093223D01*
X134490222Y-104663454D01*
X134656136Y-105064005D01*
X134902255Y-105138139D01*
X135730395Y-104310000D01*
X136089605Y-104310000D01*
X136917745Y-105138139D01*
X137163864Y-105064005D01*
X137356965Y-104526777D01*
X137329778Y-103956546D01*
X137163864Y-103555995D01*
X136917745Y-103481861D01*
X136089605Y-104310000D01*
X135730395Y-104310000D01*
X134902255Y-103481861D01*
X134656136Y-103555995D01*
X134463035Y-104093223D01*
X132256295Y-104093223D01*
X132249778Y-103956546D01*
X132083864Y-103555995D01*
X131837745Y-103481861D01*
X131009605Y-104310000D01*
X130650395Y-104310000D01*
X129822255Y-103481861D01*
X129576136Y-103555995D01*
X129383035Y-104093223D01*
X127855000Y-104093223D01*
X127855000Y-102094187D01*
X129394752Y-102094187D01*
X129612757Y-102621800D01*
X130016077Y-103025824D01*
X130082544Y-103053423D01*
X130075995Y-103056136D01*
X130001861Y-103302255D01*
X130830000Y-104130395D01*
X131658139Y-103302255D01*
X131584005Y-103056136D01*
X131577517Y-103053804D01*
X131641800Y-103027243D01*
X132045824Y-102623923D01*
X132264750Y-102096691D01*
X132265248Y-101525813D01*
X132052119Y-101010000D01*
X134462560Y-101010000D01*
X134462560Y-102610000D01*
X134506838Y-102845317D01*
X134645910Y-103061441D01*
X134858110Y-103206431D01*
X135096201Y-103254646D01*
X135081861Y-103302255D01*
X135910000Y-104130395D01*
X136678703Y-103361691D01*
X145917354Y-103361691D01*
X146133445Y-103884672D01*
X146533223Y-104285149D01*
X146689140Y-104349891D01*
X146535328Y-104413445D01*
X146134851Y-104813223D01*
X145917848Y-105335826D01*
X145917354Y-105901691D01*
X146133445Y-106424672D01*
X146533223Y-106825149D01*
X146689140Y-106889891D01*
X146535328Y-106953445D01*
X146134851Y-107353223D01*
X145917848Y-107875826D01*
X145917354Y-108441691D01*
X146133445Y-108964672D01*
X146533223Y-109365149D01*
X146673578Y-109423429D01*
X146593575Y-109456568D01*
X146520989Y-109701383D01*
X147340000Y-110520395D01*
X148159011Y-109701383D01*
X148086425Y-109456568D01*
X148000976Y-109425929D01*
X148144672Y-109366555D01*
X148545149Y-108966777D01*
X148762152Y-108444174D01*
X148762154Y-108441691D01*
X161157354Y-108441691D01*
X161373445Y-108964672D01*
X161773223Y-109365149D01*
X161929140Y-109429891D01*
X161775328Y-109493445D01*
X161374851Y-109893223D01*
X161157848Y-110415826D01*
X161157354Y-110981691D01*
X161373445Y-111504672D01*
X161773223Y-111905149D01*
X161929140Y-111969891D01*
X161775328Y-112033445D01*
X161374851Y-112433223D01*
X161157848Y-112955826D01*
X161157354Y-113521691D01*
X161373445Y-114044672D01*
X161773223Y-114445149D01*
X161929140Y-114509891D01*
X161775328Y-114573445D01*
X161374851Y-114973223D01*
X161157848Y-115495826D01*
X161157354Y-116061691D01*
X161373445Y-116584672D01*
X161773223Y-116985149D01*
X161929140Y-117049891D01*
X161775328Y-117113445D01*
X161374851Y-117513223D01*
X161157848Y-118035826D01*
X161157354Y-118601691D01*
X161373445Y-119124672D01*
X161773223Y-119525149D01*
X161929140Y-119589891D01*
X161775328Y-119653445D01*
X161374851Y-120053223D01*
X161157848Y-120575826D01*
X161157354Y-121141691D01*
X161373445Y-121664672D01*
X161773223Y-122065149D01*
X161929140Y-122129891D01*
X161775328Y-122193445D01*
X161374851Y-122593223D01*
X161157848Y-123115826D01*
X161157354Y-123681691D01*
X161373445Y-124204672D01*
X161773223Y-124605149D01*
X161929140Y-124669891D01*
X161775328Y-124733445D01*
X161374851Y-125133223D01*
X161157848Y-125655826D01*
X161157354Y-126221691D01*
X161373445Y-126744672D01*
X161773223Y-127145149D01*
X161929140Y-127209891D01*
X161775328Y-127273445D01*
X161374851Y-127673223D01*
X161157848Y-128195826D01*
X161157354Y-128761691D01*
X161373445Y-129284672D01*
X161773223Y-129685149D01*
X161929140Y-129749891D01*
X161775328Y-129813445D01*
X161374851Y-130213223D01*
X161157848Y-130735826D01*
X161157354Y-131301691D01*
X161373445Y-131824672D01*
X161773223Y-132225149D01*
X161929140Y-132289891D01*
X161775328Y-132353445D01*
X161374851Y-132753223D01*
X161157848Y-133275826D01*
X161157354Y-133841691D01*
X161373445Y-134364672D01*
X161773223Y-134765149D01*
X161929140Y-134829891D01*
X161775328Y-134893445D01*
X161374851Y-135293223D01*
X161157848Y-135815826D01*
X161157354Y-136381691D01*
X161373445Y-136904672D01*
X161773223Y-137305149D01*
X161929140Y-137369891D01*
X161775328Y-137433445D01*
X161374851Y-137833223D01*
X161157848Y-138355826D01*
X161157354Y-138921691D01*
X161373445Y-139444672D01*
X161773223Y-139845149D01*
X162295826Y-140062152D01*
X162861691Y-140062646D01*
X163384672Y-139846555D01*
X163785149Y-139446777D01*
X164002152Y-138924174D01*
X164002646Y-138358309D01*
X163786555Y-137835328D01*
X163386777Y-137434851D01*
X163230860Y-137370109D01*
X163384672Y-137306555D01*
X163785149Y-136906777D01*
X163881531Y-136674661D01*
X173100758Y-136674661D01*
X173312990Y-137188303D01*
X173705630Y-137581629D01*
X174218900Y-137794757D01*
X174774661Y-137795242D01*
X175288303Y-137583010D01*
X175681629Y-137190370D01*
X175767949Y-136982488D01*
X175852990Y-137188303D01*
X176245630Y-137581629D01*
X176758900Y-137794757D01*
X177314661Y-137795242D01*
X177828303Y-137583010D01*
X178221629Y-137190370D01*
X178307949Y-136982488D01*
X178392990Y-137188303D01*
X178785630Y-137581629D01*
X179298900Y-137794757D01*
X179854661Y-137795242D01*
X180368303Y-137583010D01*
X180761629Y-137190370D01*
X180847949Y-136982488D01*
X180932990Y-137188303D01*
X181325630Y-137581629D01*
X181838900Y-137794757D01*
X182394661Y-137795242D01*
X182908303Y-137583010D01*
X183301629Y-137190370D01*
X183387949Y-136982488D01*
X183472990Y-137188303D01*
X183865630Y-137581629D01*
X184378900Y-137794757D01*
X184934661Y-137795242D01*
X185448303Y-137583010D01*
X185841629Y-137190370D01*
X185927949Y-136982488D01*
X186012990Y-137188303D01*
X186405630Y-137581629D01*
X186918900Y-137794757D01*
X187474661Y-137795242D01*
X187988303Y-137583010D01*
X188381629Y-137190370D01*
X188467949Y-136982488D01*
X188552990Y-137188303D01*
X188945630Y-137581629D01*
X189458900Y-137794757D01*
X190014661Y-137795242D01*
X190528303Y-137583010D01*
X190921629Y-137190370D01*
X191007949Y-136982488D01*
X191092990Y-137188303D01*
X191485630Y-137581629D01*
X191998900Y-137794757D01*
X192554661Y-137795242D01*
X193068303Y-137583010D01*
X193461629Y-137190370D01*
X193674757Y-136677100D01*
X193675242Y-136121339D01*
X193463010Y-135607697D01*
X193070370Y-135214371D01*
X192557100Y-135001243D01*
X192001339Y-135000758D01*
X191487697Y-135212990D01*
X191094371Y-135605630D01*
X191008051Y-135813512D01*
X190923010Y-135607697D01*
X190530370Y-135214371D01*
X190017100Y-135001243D01*
X189461339Y-135000758D01*
X188947697Y-135212990D01*
X188554371Y-135605630D01*
X188468051Y-135813512D01*
X188383010Y-135607697D01*
X187990370Y-135214371D01*
X187477100Y-135001243D01*
X186921339Y-135000758D01*
X186407697Y-135212990D01*
X186014371Y-135605630D01*
X185928051Y-135813512D01*
X185843010Y-135607697D01*
X185450370Y-135214371D01*
X184937100Y-135001243D01*
X184381339Y-135000758D01*
X183867697Y-135212990D01*
X183474371Y-135605630D01*
X183388051Y-135813512D01*
X183303010Y-135607697D01*
X182910370Y-135214371D01*
X182397100Y-135001243D01*
X181841339Y-135000758D01*
X181327697Y-135212990D01*
X180934371Y-135605630D01*
X180848051Y-135813512D01*
X180763010Y-135607697D01*
X180370370Y-135214371D01*
X179857100Y-135001243D01*
X179301339Y-135000758D01*
X178787697Y-135212990D01*
X178394371Y-135605630D01*
X178308051Y-135813512D01*
X178223010Y-135607697D01*
X177830370Y-135214371D01*
X177317100Y-135001243D01*
X176761339Y-135000758D01*
X176247697Y-135212990D01*
X175854371Y-135605630D01*
X175768051Y-135813512D01*
X175683010Y-135607697D01*
X175290370Y-135214371D01*
X174777100Y-135001243D01*
X174221339Y-135000758D01*
X173707697Y-135212990D01*
X173314371Y-135605630D01*
X173101243Y-136118900D01*
X173100758Y-136674661D01*
X163881531Y-136674661D01*
X164002152Y-136384174D01*
X164002646Y-135818309D01*
X163786555Y-135295328D01*
X163386777Y-134894851D01*
X163230860Y-134830109D01*
X163384672Y-134766555D01*
X163785149Y-134366777D01*
X164002152Y-133844174D01*
X164002646Y-133278309D01*
X163786555Y-132755328D01*
X163386777Y-132354851D01*
X163230860Y-132290109D01*
X163384672Y-132226555D01*
X163785149Y-131826777D01*
X164002152Y-131304174D01*
X164002646Y-130738309D01*
X163786555Y-130215328D01*
X163386777Y-129814851D01*
X163230860Y-129750109D01*
X163384672Y-129686555D01*
X163785149Y-129286777D01*
X164002152Y-128764174D01*
X164002646Y-128198309D01*
X163786555Y-127675328D01*
X163386777Y-127274851D01*
X163230860Y-127210109D01*
X163384672Y-127146555D01*
X163785149Y-126746777D01*
X164002152Y-126224174D01*
X164002646Y-125658309D01*
X163786555Y-125135328D01*
X163386777Y-124734851D01*
X163230860Y-124670109D01*
X163384672Y-124606555D01*
X163785149Y-124206777D01*
X163881531Y-123974661D01*
X173100758Y-123974661D01*
X173312990Y-124488303D01*
X173705630Y-124881629D01*
X174218900Y-125094757D01*
X174774661Y-125095242D01*
X175288303Y-124883010D01*
X175493457Y-124678213D01*
X176237392Y-124678213D01*
X176306857Y-124920397D01*
X176830302Y-125107144D01*
X177385368Y-125079362D01*
X177769143Y-124920397D01*
X177838608Y-124678213D01*
X177038000Y-123877605D01*
X176237392Y-124678213D01*
X175493457Y-124678213D01*
X175681629Y-124490370D01*
X175761395Y-124298273D01*
X175815603Y-124429143D01*
X176057787Y-124498608D01*
X176858395Y-123698000D01*
X177217605Y-123698000D01*
X178018213Y-124498608D01*
X178260397Y-124429143D01*
X178310509Y-124288682D01*
X178392990Y-124488303D01*
X178785630Y-124881629D01*
X179298900Y-125094757D01*
X179854661Y-125095242D01*
X180368303Y-124883010D01*
X180761629Y-124490370D01*
X180847949Y-124282488D01*
X180932990Y-124488303D01*
X181325630Y-124881629D01*
X181838900Y-125094757D01*
X182394661Y-125095242D01*
X182908303Y-124883010D01*
X183301629Y-124490370D01*
X183387949Y-124282488D01*
X183472990Y-124488303D01*
X183865630Y-124881629D01*
X184378900Y-125094757D01*
X184934661Y-125095242D01*
X185448303Y-124883010D01*
X185841629Y-124490370D01*
X185927949Y-124282488D01*
X186012990Y-124488303D01*
X186405630Y-124881629D01*
X186918900Y-125094757D01*
X187474661Y-125095242D01*
X187988303Y-124883010D01*
X188381629Y-124490370D01*
X188467949Y-124282488D01*
X188552990Y-124488303D01*
X188945630Y-124881629D01*
X189458900Y-125094757D01*
X190014661Y-125095242D01*
X190528303Y-124883010D01*
X190733457Y-124678213D01*
X191477392Y-124678213D01*
X191546857Y-124920397D01*
X192070302Y-125107144D01*
X192625368Y-125079362D01*
X193009143Y-124920397D01*
X193078608Y-124678213D01*
X192278000Y-123877605D01*
X191477392Y-124678213D01*
X190733457Y-124678213D01*
X190921629Y-124490370D01*
X191001395Y-124298273D01*
X191055603Y-124429143D01*
X191297787Y-124498608D01*
X192098395Y-123698000D01*
X192457605Y-123698000D01*
X193258213Y-124498608D01*
X193500397Y-124429143D01*
X193687144Y-123905698D01*
X193659362Y-123350632D01*
X193500397Y-122966857D01*
X193258213Y-122897392D01*
X192457605Y-123698000D01*
X192098395Y-123698000D01*
X191297787Y-122897392D01*
X191055603Y-122966857D01*
X191005491Y-123107318D01*
X190923010Y-122907697D01*
X190733432Y-122717787D01*
X191477392Y-122717787D01*
X192278000Y-123518395D01*
X193078608Y-122717787D01*
X193009143Y-122475603D01*
X192485698Y-122288856D01*
X191930632Y-122316638D01*
X191546857Y-122475603D01*
X191477392Y-122717787D01*
X190733432Y-122717787D01*
X190530370Y-122514371D01*
X190017100Y-122301243D01*
X189461339Y-122300758D01*
X188947697Y-122512990D01*
X188554371Y-122905630D01*
X188468051Y-123113512D01*
X188383010Y-122907697D01*
X187990370Y-122514371D01*
X187477100Y-122301243D01*
X186921339Y-122300758D01*
X186407697Y-122512990D01*
X186014371Y-122905630D01*
X185928051Y-123113512D01*
X185843010Y-122907697D01*
X185450370Y-122514371D01*
X184937100Y-122301243D01*
X184381339Y-122300758D01*
X183867697Y-122512990D01*
X183474371Y-122905630D01*
X183388051Y-123113512D01*
X183303010Y-122907697D01*
X182910370Y-122514371D01*
X182397100Y-122301243D01*
X181841339Y-122300758D01*
X181327697Y-122512990D01*
X180934371Y-122905630D01*
X180848051Y-123113512D01*
X180763010Y-122907697D01*
X180370370Y-122514371D01*
X179857100Y-122301243D01*
X179301339Y-122300758D01*
X178787697Y-122512990D01*
X178394371Y-122905630D01*
X178314605Y-123097727D01*
X178260397Y-122966857D01*
X178018213Y-122897392D01*
X177217605Y-123698000D01*
X176858395Y-123698000D01*
X176057787Y-122897392D01*
X175815603Y-122966857D01*
X175765491Y-123107318D01*
X175683010Y-122907697D01*
X175493432Y-122717787D01*
X176237392Y-122717787D01*
X177038000Y-123518395D01*
X177838608Y-122717787D01*
X177769143Y-122475603D01*
X177245698Y-122288856D01*
X176690632Y-122316638D01*
X176306857Y-122475603D01*
X176237392Y-122717787D01*
X175493432Y-122717787D01*
X175290370Y-122514371D01*
X174777100Y-122301243D01*
X174221339Y-122300758D01*
X173707697Y-122512990D01*
X173314371Y-122905630D01*
X173101243Y-123418900D01*
X173100758Y-123974661D01*
X163881531Y-123974661D01*
X164002152Y-123684174D01*
X164002646Y-123118309D01*
X163786555Y-122595328D01*
X163386777Y-122194851D01*
X163230860Y-122130109D01*
X163384672Y-122066555D01*
X163785149Y-121666777D01*
X164002152Y-121144174D01*
X164002646Y-120578309D01*
X163786555Y-120055328D01*
X163386777Y-119654851D01*
X163230860Y-119590109D01*
X163384672Y-119526555D01*
X163785149Y-119126777D01*
X164002152Y-118604174D01*
X164002646Y-118038309D01*
X163786555Y-117515328D01*
X163386777Y-117114851D01*
X163230860Y-117050109D01*
X163384672Y-116986555D01*
X163785149Y-116586777D01*
X164002152Y-116064174D01*
X164002361Y-115824000D01*
X165109907Y-115824000D01*
X165222946Y-116392285D01*
X165544853Y-116874054D01*
X165874026Y-117094000D01*
X165544853Y-117313946D01*
X165222946Y-117795715D01*
X165109907Y-118364000D01*
X165222946Y-118932285D01*
X165544853Y-119414054D01*
X165874026Y-119634000D01*
X165544853Y-119853946D01*
X165222946Y-120335715D01*
X165109907Y-120904000D01*
X165222946Y-121472285D01*
X165544853Y-121954054D01*
X166026622Y-122275961D01*
X166594907Y-122389000D01*
X166653093Y-122389000D01*
X167221378Y-122275961D01*
X167703147Y-121954054D01*
X168025054Y-121472285D01*
X168138093Y-120904000D01*
X168025054Y-120335715D01*
X167876179Y-120112907D01*
X178093000Y-120112907D01*
X178093000Y-120171093D01*
X178206039Y-120739378D01*
X178527946Y-121221147D01*
X179009715Y-121543054D01*
X179578000Y-121656093D01*
X180146285Y-121543054D01*
X180628054Y-121221147D01*
X180848000Y-120891974D01*
X181067946Y-121221147D01*
X181549715Y-121543054D01*
X182118000Y-121656093D01*
X182686285Y-121543054D01*
X183168054Y-121221147D01*
X183388000Y-120891974D01*
X183607946Y-121221147D01*
X184089715Y-121543054D01*
X184658000Y-121656093D01*
X185226285Y-121543054D01*
X185708054Y-121221147D01*
X185735850Y-121179548D01*
X185744838Y-121227317D01*
X185883910Y-121443441D01*
X186096110Y-121588431D01*
X186348000Y-121639440D01*
X188048000Y-121639440D01*
X188283317Y-121595162D01*
X188499441Y-121456090D01*
X188644431Y-121243890D01*
X188695440Y-120992000D01*
X188695440Y-119292000D01*
X188651162Y-119056683D01*
X188512090Y-118840559D01*
X188299890Y-118695569D01*
X188048000Y-118644560D01*
X186348000Y-118644560D01*
X186112683Y-118688838D01*
X185896559Y-118827910D01*
X185751569Y-119040110D01*
X185737914Y-119107541D01*
X185708054Y-119062853D01*
X185226285Y-118740946D01*
X184658000Y-118627907D01*
X184089715Y-118740946D01*
X183607946Y-119062853D01*
X183388000Y-119392026D01*
X183168054Y-119062853D01*
X182686285Y-118740946D01*
X182118000Y-118627907D01*
X181549715Y-118740946D01*
X181067946Y-119062853D01*
X180848000Y-119392026D01*
X180628054Y-119062853D01*
X180146285Y-118740946D01*
X179578000Y-118627907D01*
X179009715Y-118740946D01*
X178527946Y-119062853D01*
X178206039Y-119544622D01*
X178093000Y-120112907D01*
X167876179Y-120112907D01*
X167703147Y-119853946D01*
X167373974Y-119634000D01*
X167703147Y-119414054D01*
X168025054Y-118932285D01*
X168138093Y-118364000D01*
X168025054Y-117795715D01*
X167703147Y-117313946D01*
X167373974Y-117094000D01*
X167703147Y-116874054D01*
X168025054Y-116392285D01*
X168032537Y-116354661D01*
X172592758Y-116354661D01*
X172804990Y-116868303D01*
X173197630Y-117261629D01*
X173710900Y-117474757D01*
X174266661Y-117475242D01*
X174780303Y-117263010D01*
X175173629Y-116870370D01*
X175259949Y-116662488D01*
X175344990Y-116868303D01*
X175737630Y-117261629D01*
X176250900Y-117474757D01*
X176806661Y-117475242D01*
X177320303Y-117263010D01*
X177713629Y-116870370D01*
X177799949Y-116662488D01*
X177884990Y-116868303D01*
X178277630Y-117261629D01*
X178790900Y-117474757D01*
X179346661Y-117475242D01*
X179860303Y-117263010D01*
X180253629Y-116870370D01*
X180339949Y-116662488D01*
X180424990Y-116868303D01*
X180817630Y-117261629D01*
X181330900Y-117474757D01*
X181886661Y-117475242D01*
X182400303Y-117263010D01*
X182793629Y-116870370D01*
X182879949Y-116662488D01*
X182964990Y-116868303D01*
X183357630Y-117261629D01*
X183870900Y-117474757D01*
X184426661Y-117475242D01*
X184940303Y-117263010D01*
X185333629Y-116870370D01*
X185419949Y-116662488D01*
X185504990Y-116868303D01*
X185897630Y-117261629D01*
X186410900Y-117474757D01*
X186966661Y-117475242D01*
X187480303Y-117263010D01*
X187873629Y-116870370D01*
X187959949Y-116662488D01*
X188044990Y-116868303D01*
X188437630Y-117261629D01*
X188950900Y-117474757D01*
X189506661Y-117475242D01*
X190020303Y-117263010D01*
X190413629Y-116870370D01*
X190499949Y-116662488D01*
X190584990Y-116868303D01*
X190977630Y-117261629D01*
X191490900Y-117474757D01*
X192046661Y-117475242D01*
X192560303Y-117263010D01*
X192713000Y-117110579D01*
X192713000Y-118178842D01*
X192341343Y-118332408D01*
X191993629Y-118679515D01*
X191805215Y-119133266D01*
X191804786Y-119624579D01*
X191992408Y-120078657D01*
X192339515Y-120426371D01*
X192793266Y-120614785D01*
X193284579Y-120615214D01*
X193738657Y-120427592D01*
X194086371Y-120080485D01*
X194274785Y-119626734D01*
X194275107Y-119257888D01*
X194304432Y-119214000D01*
X194319439Y-119191541D01*
X194383000Y-118872000D01*
X194383000Y-110744000D01*
X194319439Y-110424459D01*
X194138434Y-110153566D01*
X190464953Y-106480085D01*
X190465214Y-106181421D01*
X190277592Y-105727343D01*
X189930485Y-105379629D01*
X189476734Y-105191215D01*
X188985421Y-105190786D01*
X188531343Y-105378408D01*
X188183629Y-105725515D01*
X187995215Y-106179266D01*
X187994786Y-106670579D01*
X188182408Y-107124657D01*
X188529515Y-107472371D01*
X188983266Y-107660785D01*
X189284180Y-107661048D01*
X192713000Y-111089868D01*
X192713000Y-115045264D01*
X192562370Y-114894371D01*
X192049100Y-114681243D01*
X191493339Y-114680758D01*
X190979697Y-114892990D01*
X190586371Y-115285630D01*
X190500051Y-115493512D01*
X190415010Y-115287697D01*
X190022370Y-114894371D01*
X189509100Y-114681243D01*
X188953339Y-114680758D01*
X188439697Y-114892990D01*
X188046371Y-115285630D01*
X187960051Y-115493512D01*
X187875010Y-115287697D01*
X187482370Y-114894371D01*
X186969100Y-114681243D01*
X186413339Y-114680758D01*
X185899697Y-114892990D01*
X185506371Y-115285630D01*
X185420051Y-115493512D01*
X185335010Y-115287697D01*
X184942370Y-114894371D01*
X184429100Y-114681243D01*
X183873339Y-114680758D01*
X183359697Y-114892990D01*
X182966371Y-115285630D01*
X182880051Y-115493512D01*
X182795010Y-115287697D01*
X182402370Y-114894371D01*
X181889100Y-114681243D01*
X181333339Y-114680758D01*
X180819697Y-114892990D01*
X180426371Y-115285630D01*
X180340051Y-115493512D01*
X180255010Y-115287697D01*
X179862370Y-114894371D01*
X179349100Y-114681243D01*
X178793339Y-114680758D01*
X178279697Y-114892990D01*
X177886371Y-115285630D01*
X177800051Y-115493512D01*
X177715010Y-115287697D01*
X177322370Y-114894371D01*
X176809100Y-114681243D01*
X176253339Y-114680758D01*
X175739697Y-114892990D01*
X175346371Y-115285630D01*
X175260051Y-115493512D01*
X175175010Y-115287697D01*
X174782370Y-114894371D01*
X174269100Y-114681243D01*
X173713339Y-114680758D01*
X173199697Y-114892990D01*
X172806371Y-115285630D01*
X172593243Y-115798900D01*
X172592758Y-116354661D01*
X168032537Y-116354661D01*
X168138093Y-115824000D01*
X168025054Y-115255715D01*
X167703147Y-114773946D01*
X167661548Y-114746150D01*
X167709317Y-114737162D01*
X167925441Y-114598090D01*
X168070431Y-114385890D01*
X168121440Y-114134000D01*
X168121440Y-112434000D01*
X168077162Y-112198683D01*
X167938090Y-111982559D01*
X167725890Y-111837569D01*
X167474000Y-111786560D01*
X165774000Y-111786560D01*
X165538683Y-111830838D01*
X165322559Y-111969910D01*
X165177569Y-112182110D01*
X165126560Y-112434000D01*
X165126560Y-114134000D01*
X165170838Y-114369317D01*
X165309910Y-114585441D01*
X165522110Y-114730431D01*
X165589541Y-114744086D01*
X165544853Y-114773946D01*
X165222946Y-115255715D01*
X165109907Y-115824000D01*
X164002361Y-115824000D01*
X164002646Y-115498309D01*
X163786555Y-114975328D01*
X163386777Y-114574851D01*
X163230860Y-114510109D01*
X163384672Y-114446555D01*
X163785149Y-114046777D01*
X164002152Y-113524174D01*
X164002646Y-112958309D01*
X163786555Y-112435328D01*
X163386777Y-112034851D01*
X163230860Y-111970109D01*
X163384672Y-111906555D01*
X163785149Y-111506777D01*
X164002152Y-110984174D01*
X164002646Y-110418309D01*
X163786555Y-109895328D01*
X163386777Y-109494851D01*
X163230860Y-109430109D01*
X163384672Y-109366555D01*
X163785149Y-108966777D01*
X164002152Y-108444174D01*
X164002646Y-107878309D01*
X163786555Y-107355328D01*
X163386777Y-106954851D01*
X163246422Y-106896571D01*
X163326425Y-106863432D01*
X163399011Y-106618617D01*
X162580000Y-105799605D01*
X161760989Y-106618617D01*
X161833575Y-106863432D01*
X161919024Y-106894071D01*
X161775328Y-106953445D01*
X161374851Y-107353223D01*
X161157848Y-107875826D01*
X161157354Y-108441691D01*
X148762154Y-108441691D01*
X148762646Y-107878309D01*
X148546555Y-107355328D01*
X148146777Y-106954851D01*
X147990860Y-106890109D01*
X148144672Y-106826555D01*
X148545149Y-106426777D01*
X148762152Y-105904174D01*
X148762586Y-105406235D01*
X161145574Y-105406235D01*
X161172959Y-105971438D01*
X161336568Y-106366425D01*
X161581383Y-106439011D01*
X162400395Y-105620000D01*
X162759605Y-105620000D01*
X163578617Y-106439011D01*
X163823432Y-106366425D01*
X164014426Y-105833765D01*
X163987041Y-105268562D01*
X163823432Y-104873575D01*
X163578617Y-104800989D01*
X162759605Y-105620000D01*
X162400395Y-105620000D01*
X161581383Y-104800989D01*
X161336568Y-104873575D01*
X161145574Y-105406235D01*
X148762586Y-105406235D01*
X148762646Y-105338309D01*
X148546555Y-104815328D01*
X148146777Y-104414851D01*
X147990860Y-104350109D01*
X148144672Y-104286555D01*
X148545149Y-103886777D01*
X148762152Y-103364174D01*
X148762154Y-103361691D01*
X161157354Y-103361691D01*
X161373445Y-103884672D01*
X161773223Y-104285149D01*
X161913578Y-104343429D01*
X161833575Y-104376568D01*
X161760989Y-104621383D01*
X162580000Y-105440395D01*
X163399011Y-104621383D01*
X163326425Y-104376568D01*
X163240976Y-104345929D01*
X163384672Y-104286555D01*
X163785149Y-103886777D01*
X163881531Y-103654661D01*
X172592758Y-103654661D01*
X172804990Y-104168303D01*
X173197630Y-104561629D01*
X173710900Y-104774757D01*
X174266661Y-104775242D01*
X174780303Y-104563010D01*
X174985457Y-104358213D01*
X175729392Y-104358213D01*
X175798857Y-104600397D01*
X176322302Y-104787144D01*
X176877368Y-104759362D01*
X177261143Y-104600397D01*
X177330608Y-104358213D01*
X176530000Y-103557605D01*
X175729392Y-104358213D01*
X174985457Y-104358213D01*
X175173629Y-104170370D01*
X175253395Y-103978273D01*
X175307603Y-104109143D01*
X175549787Y-104178608D01*
X176350395Y-103378000D01*
X176709605Y-103378000D01*
X177510213Y-104178608D01*
X177752397Y-104109143D01*
X177802509Y-103968682D01*
X177884990Y-104168303D01*
X178277630Y-104561629D01*
X178790900Y-104774757D01*
X179346661Y-104775242D01*
X179860303Y-104563010D01*
X180253629Y-104170370D01*
X180339949Y-103962488D01*
X180424990Y-104168303D01*
X180817630Y-104561629D01*
X181330900Y-104774757D01*
X181886661Y-104775242D01*
X182400303Y-104563010D01*
X182793629Y-104170370D01*
X182879949Y-103962488D01*
X182964990Y-104168303D01*
X183357630Y-104561629D01*
X183870900Y-104774757D01*
X184426661Y-104775242D01*
X184940303Y-104563010D01*
X185333629Y-104170370D01*
X185419949Y-103962488D01*
X185504990Y-104168303D01*
X185897630Y-104561629D01*
X186410900Y-104774757D01*
X186966661Y-104775242D01*
X187480303Y-104563010D01*
X187873629Y-104170370D01*
X187959949Y-103962488D01*
X188044990Y-104168303D01*
X188437630Y-104561629D01*
X188950900Y-104774757D01*
X189506661Y-104775242D01*
X190020303Y-104563010D01*
X190225457Y-104358213D01*
X190969392Y-104358213D01*
X191038857Y-104600397D01*
X191562302Y-104787144D01*
X192117368Y-104759362D01*
X192501143Y-104600397D01*
X192570608Y-104358213D01*
X191770000Y-103557605D01*
X190969392Y-104358213D01*
X190225457Y-104358213D01*
X190413629Y-104170370D01*
X190493395Y-103978273D01*
X190547603Y-104109143D01*
X190789787Y-104178608D01*
X191590395Y-103378000D01*
X191949605Y-103378000D01*
X192750213Y-104178608D01*
X192992397Y-104109143D01*
X193179144Y-103585698D01*
X193151362Y-103030632D01*
X192992397Y-102646857D01*
X192750213Y-102577392D01*
X191949605Y-103378000D01*
X191590395Y-103378000D01*
X190789787Y-102577392D01*
X190547603Y-102646857D01*
X190497491Y-102787318D01*
X190415010Y-102587697D01*
X190225432Y-102397787D01*
X190969392Y-102397787D01*
X191770000Y-103198395D01*
X192570608Y-102397787D01*
X192501143Y-102155603D01*
X191977698Y-101968856D01*
X191422632Y-101996638D01*
X191038857Y-102155603D01*
X190969392Y-102397787D01*
X190225432Y-102397787D01*
X190022370Y-102194371D01*
X189509100Y-101981243D01*
X188953339Y-101980758D01*
X188439697Y-102192990D01*
X188046371Y-102585630D01*
X187960051Y-102793512D01*
X187875010Y-102587697D01*
X187482370Y-102194371D01*
X186969100Y-101981243D01*
X186413339Y-101980758D01*
X185899697Y-102192990D01*
X185506371Y-102585630D01*
X185420051Y-102793512D01*
X185335010Y-102587697D01*
X184942370Y-102194371D01*
X184429100Y-101981243D01*
X183873339Y-101980758D01*
X183359697Y-102192990D01*
X182966371Y-102585630D01*
X182880051Y-102793512D01*
X182795010Y-102587697D01*
X182402370Y-102194371D01*
X181889100Y-101981243D01*
X181333339Y-101980758D01*
X180819697Y-102192990D01*
X180426371Y-102585630D01*
X180340051Y-102793512D01*
X180255010Y-102587697D01*
X179862370Y-102194371D01*
X179349100Y-101981243D01*
X178793339Y-101980758D01*
X178279697Y-102192990D01*
X177886371Y-102585630D01*
X177806605Y-102777727D01*
X177752397Y-102646857D01*
X177510213Y-102577392D01*
X176709605Y-103378000D01*
X176350395Y-103378000D01*
X175549787Y-102577392D01*
X175307603Y-102646857D01*
X175257491Y-102787318D01*
X175175010Y-102587697D01*
X174985432Y-102397787D01*
X175729392Y-102397787D01*
X176530000Y-103198395D01*
X177330608Y-102397787D01*
X177261143Y-102155603D01*
X176737698Y-101968856D01*
X176182632Y-101996638D01*
X175798857Y-102155603D01*
X175729392Y-102397787D01*
X174985432Y-102397787D01*
X174782370Y-102194371D01*
X174269100Y-101981243D01*
X173713339Y-101980758D01*
X173199697Y-102192990D01*
X172806371Y-102585630D01*
X172593243Y-103098900D01*
X172592758Y-103654661D01*
X163881531Y-103654661D01*
X164002152Y-103364174D01*
X164002646Y-102798309D01*
X163786555Y-102275328D01*
X163386777Y-101874851D01*
X162864174Y-101657848D01*
X162298309Y-101657354D01*
X161775328Y-101873445D01*
X161374851Y-102273223D01*
X161157848Y-102795826D01*
X161157354Y-103361691D01*
X148762154Y-103361691D01*
X148762646Y-102798309D01*
X148546555Y-102275328D01*
X148146777Y-101874851D01*
X147624174Y-101657848D01*
X147058309Y-101657354D01*
X146535328Y-101873445D01*
X146134851Y-102273223D01*
X145917848Y-102795826D01*
X145917354Y-103361691D01*
X136678703Y-103361691D01*
X136738139Y-103302255D01*
X136723855Y-103254833D01*
X136945317Y-103213162D01*
X137161441Y-103074090D01*
X137306431Y-102861890D01*
X137357440Y-102610000D01*
X137357440Y-101010000D01*
X137313162Y-100774683D01*
X137174090Y-100558559D01*
X136990168Y-100432890D01*
X166198524Y-100432890D01*
X166368355Y-100842924D01*
X166758642Y-101271183D01*
X167283108Y-101517486D01*
X167513000Y-101396819D01*
X167513000Y-100203000D01*
X167767000Y-100203000D01*
X167767000Y-101396819D01*
X167996892Y-101517486D01*
X168521358Y-101271183D01*
X168911645Y-100842924D01*
X169081476Y-100432890D01*
X168960155Y-100203000D01*
X167767000Y-100203000D01*
X167513000Y-100203000D01*
X166319845Y-100203000D01*
X166198524Y-100432890D01*
X136990168Y-100432890D01*
X136961890Y-100413569D01*
X136710000Y-100362560D01*
X135110000Y-100362560D01*
X134874683Y-100406838D01*
X134658559Y-100545910D01*
X134513569Y-100758110D01*
X134462560Y-101010000D01*
X132052119Y-101010000D01*
X132047243Y-100998200D01*
X131643923Y-100594176D01*
X131116691Y-100375250D01*
X130545813Y-100374752D01*
X130018200Y-100592757D01*
X129614176Y-100996077D01*
X129395250Y-101523309D01*
X129394752Y-102094187D01*
X127855000Y-102094187D01*
X127855000Y-99222841D01*
X128070054Y-99079147D01*
X128290000Y-98749974D01*
X128509946Y-99079147D01*
X128991715Y-99401054D01*
X129560000Y-99514093D01*
X130128285Y-99401054D01*
X130610054Y-99079147D01*
X130830000Y-98749974D01*
X131049946Y-99079147D01*
X131531715Y-99401054D01*
X132100000Y-99514093D01*
X132668285Y-99401054D01*
X133150054Y-99079147D01*
X133313187Y-98835000D01*
X154984000Y-98835000D01*
X155303541Y-98771439D01*
X155304385Y-98770875D01*
X155692579Y-98771214D01*
X156146657Y-98583592D01*
X156494371Y-98236485D01*
X156682785Y-97782734D01*
X156683214Y-97291421D01*
X156495592Y-96837343D01*
X156344514Y-96686000D01*
X166142560Y-96686000D01*
X166142560Y-98386000D01*
X166186838Y-98621317D01*
X166325910Y-98837441D01*
X166538110Y-98982431D01*
X166646107Y-99004301D01*
X166368355Y-99309076D01*
X166198524Y-99719110D01*
X166319845Y-99949000D01*
X167513000Y-99949000D01*
X167513000Y-99929000D01*
X167767000Y-99929000D01*
X167767000Y-99949000D01*
X168960155Y-99949000D01*
X169042530Y-99792907D01*
X177585000Y-99792907D01*
X177585000Y-99851093D01*
X177698039Y-100419378D01*
X178019946Y-100901147D01*
X178501715Y-101223054D01*
X179070000Y-101336093D01*
X179638285Y-101223054D01*
X180120054Y-100901147D01*
X180340000Y-100571974D01*
X180559946Y-100901147D01*
X181041715Y-101223054D01*
X181610000Y-101336093D01*
X182178285Y-101223054D01*
X182660054Y-100901147D01*
X182880000Y-100571974D01*
X183099946Y-100901147D01*
X183581715Y-101223054D01*
X184150000Y-101336093D01*
X184718285Y-101223054D01*
X185200054Y-100901147D01*
X185227850Y-100859548D01*
X185236838Y-100907317D01*
X185375910Y-101123441D01*
X185588110Y-101268431D01*
X185840000Y-101319440D01*
X187540000Y-101319440D01*
X187775317Y-101275162D01*
X187991441Y-101136090D01*
X188136431Y-100923890D01*
X188187440Y-100672000D01*
X188187440Y-98972000D01*
X188143162Y-98736683D01*
X188004090Y-98520559D01*
X187791890Y-98375569D01*
X187540000Y-98324560D01*
X185840000Y-98324560D01*
X185604683Y-98368838D01*
X185388559Y-98507910D01*
X185243569Y-98720110D01*
X185229914Y-98787541D01*
X185200054Y-98742853D01*
X184718285Y-98420946D01*
X184150000Y-98307907D01*
X183581715Y-98420946D01*
X183099946Y-98742853D01*
X182880000Y-99072026D01*
X182660054Y-98742853D01*
X182178285Y-98420946D01*
X181610000Y-98307907D01*
X181041715Y-98420946D01*
X180559946Y-98742853D01*
X180340000Y-99072026D01*
X180120054Y-98742853D01*
X179638285Y-98420946D01*
X179070000Y-98307907D01*
X178501715Y-98420946D01*
X178019946Y-98742853D01*
X177698039Y-99224622D01*
X177585000Y-99792907D01*
X169042530Y-99792907D01*
X169081476Y-99719110D01*
X168911645Y-99309076D01*
X168635499Y-99006063D01*
X168725317Y-98989162D01*
X168941441Y-98850090D01*
X169086431Y-98637890D01*
X169137440Y-98386000D01*
X169137440Y-96686000D01*
X169093162Y-96450683D01*
X168954090Y-96234559D01*
X168741890Y-96089569D01*
X168490000Y-96038560D01*
X166790000Y-96038560D01*
X166554683Y-96082838D01*
X166338559Y-96221910D01*
X166193569Y-96434110D01*
X166142560Y-96686000D01*
X156344514Y-96686000D01*
X156148485Y-96489629D01*
X155694734Y-96301215D01*
X155203421Y-96300786D01*
X154749343Y-96488408D01*
X154401629Y-96835515D01*
X154264815Y-97165000D01*
X133313187Y-97165000D01*
X133150054Y-96920853D01*
X132864422Y-96730000D01*
X133150054Y-96539147D01*
X133471961Y-96057378D01*
X133585000Y-95489093D01*
X133585000Y-95430907D01*
X133471961Y-94862622D01*
X133150054Y-94380853D01*
X132668285Y-94058946D01*
X132100000Y-93945907D01*
X131531715Y-94058946D01*
X131049946Y-94380853D01*
X130830000Y-94710026D01*
X130610054Y-94380853D01*
X130128285Y-94058946D01*
X129560000Y-93945907D01*
X128991715Y-94058946D01*
X128509946Y-94380853D01*
X128290000Y-94710026D01*
X128070054Y-94380853D01*
X127588285Y-94058946D01*
X127020000Y-93945907D01*
X126451715Y-94058946D01*
X125969946Y-94380853D01*
X125750000Y-94710026D01*
X125530054Y-94380853D01*
X125048285Y-94058946D01*
X124480000Y-93945907D01*
X123911715Y-94058946D01*
X123429946Y-94380853D01*
X123202298Y-94721553D01*
X123135183Y-94578642D01*
X122706924Y-94188355D01*
X122296890Y-94018524D01*
X122067000Y-94139845D01*
X122067000Y-95333000D01*
X122087000Y-95333000D01*
X122087000Y-95587000D01*
X122067000Y-95587000D01*
X122067000Y-97873000D01*
X122087000Y-97873000D01*
X122087000Y-98127000D01*
X122067000Y-98127000D01*
X122067000Y-99320155D01*
X122296890Y-99441476D01*
X122706924Y-99271645D01*
X123135183Y-98881358D01*
X123202298Y-98738447D01*
X123429946Y-99079147D01*
X123645000Y-99222841D01*
X123645000Y-99940132D01*
X122757762Y-100827370D01*
X122801000Y-100609998D01*
X122714603Y-100175653D01*
X122468566Y-99807432D01*
X122442568Y-99781434D01*
X122422979Y-99768345D01*
X122074348Y-99535397D01*
X121640002Y-99449000D01*
X119727244Y-99449000D01*
X119968285Y-99401054D01*
X120450054Y-99079147D01*
X120677702Y-98738447D01*
X120744817Y-98881358D01*
X121173076Y-99271645D01*
X121583110Y-99441476D01*
X121813000Y-99320155D01*
X121813000Y-98127000D01*
X121793000Y-98127000D01*
X121793000Y-97873000D01*
X121813000Y-97873000D01*
X121813000Y-95587000D01*
X121793000Y-95587000D01*
X121793000Y-95333000D01*
X121813000Y-95333000D01*
X121813000Y-94139845D01*
X121583110Y-94018524D01*
X121173076Y-94188355D01*
X120744817Y-94578642D01*
X120677702Y-94721553D01*
X120450054Y-94380853D01*
X119968285Y-94058946D01*
X119400000Y-93945907D01*
X118831715Y-94058946D01*
X118349946Y-94380853D01*
X118121409Y-94722883D01*
X117890711Y-94390915D01*
X117453265Y-94098655D01*
X117233000Y-94187282D01*
X117233000Y-95087000D01*
X117253000Y-95087000D01*
X117253000Y-95833000D01*
X117233000Y-95833000D01*
X117233000Y-97627000D01*
X117253000Y-97627000D01*
X117253000Y-98373000D01*
X117233000Y-98373000D01*
X117233000Y-98393000D01*
X116487000Y-98393000D01*
X116487000Y-98373000D01*
X116467000Y-98373000D01*
X116467000Y-97627000D01*
X116487000Y-97627000D01*
X116487000Y-95833000D01*
X116467000Y-95833000D01*
X116467000Y-95087000D01*
X116487000Y-95087000D01*
X116487000Y-94187282D01*
X116266735Y-94098655D01*
X115829289Y-94390915D01*
X115598591Y-94722883D01*
X115370054Y-94380853D01*
X114888285Y-94058946D01*
X114320000Y-93945907D01*
X113751715Y-94058946D01*
X113269946Y-94380853D01*
X113050000Y-94710026D01*
X112830054Y-94380853D01*
X112348285Y-94058946D01*
X111780000Y-93945907D01*
X111211715Y-94058946D01*
X110729946Y-94380853D01*
X110510000Y-94710026D01*
X110290054Y-94380853D01*
X109808285Y-94058946D01*
X109240000Y-93945907D01*
X108671715Y-94058946D01*
X108189946Y-94380853D01*
X107962298Y-94721553D01*
X107895183Y-94578642D01*
X107466924Y-94188355D01*
X107056890Y-94018524D01*
X106827000Y-94139845D01*
X106827000Y-95333000D01*
X106847000Y-95333000D01*
X106847000Y-95587000D01*
X106827000Y-95587000D01*
X106827000Y-97873000D01*
X106847000Y-97873000D01*
X106847000Y-98127000D01*
X106827000Y-98127000D01*
X106827000Y-98147000D01*
X106573000Y-98147000D01*
X106573000Y-98127000D01*
X106553000Y-98127000D01*
X106553000Y-97873000D01*
X106573000Y-97873000D01*
X106573000Y-95587000D01*
X106553000Y-95587000D01*
X106553000Y-95333000D01*
X106573000Y-95333000D01*
X106573000Y-94139845D01*
X106343110Y-94018524D01*
X105933076Y-94188355D01*
X105504817Y-94578642D01*
X105437702Y-94721553D01*
X105210054Y-94380853D01*
X104728285Y-94058946D01*
X104160000Y-93945907D01*
X103591715Y-94058946D01*
X103109946Y-94380853D01*
X102890000Y-94710026D01*
X102670054Y-94380853D01*
X102188285Y-94058946D01*
X101620000Y-93945907D01*
X101051715Y-94058946D01*
X100569946Y-94380853D01*
X100350000Y-94710026D01*
X100130054Y-94380853D01*
X99648285Y-94058946D01*
X99080000Y-93945907D01*
X98511715Y-94058946D01*
X98029946Y-94380853D01*
X97810000Y-94710026D01*
X97590054Y-94380853D01*
X97108285Y-94058946D01*
X96540000Y-93945907D01*
X95971715Y-94058946D01*
X95489946Y-94380853D01*
X95270000Y-94710026D01*
X95050054Y-94380853D01*
X94568285Y-94058946D01*
X94000000Y-93945907D01*
X93431715Y-94058946D01*
X92949946Y-94380853D01*
X92628039Y-94862622D01*
X92515000Y-95430907D01*
X92515000Y-95489093D01*
X92628039Y-96057378D01*
X92949946Y-96539147D01*
X92951179Y-96539971D01*
X92914683Y-96546838D01*
X92698559Y-96685910D01*
X92553569Y-96898110D01*
X92502560Y-97150000D01*
X87710000Y-97150000D01*
X87710000Y-96069931D01*
X87973288Y-94746293D01*
X88683454Y-93683454D01*
X89746295Y-92973288D01*
X90766303Y-92770395D01*
X91497954Y-93502046D01*
X91728295Y-93655954D01*
X92000000Y-93710001D01*
X92000005Y-93710000D01*
X136000000Y-93710000D01*
X136271705Y-93655954D01*
X136502046Y-93502046D01*
X137294092Y-92710000D01*
X192930069Y-92710000D01*
X194253707Y-92973288D01*
X194253707Y-92973288D01*
G37*
X194253707Y-92973288D02*
X195316546Y-93683454D01*
X196026712Y-94746295D01*
X196290000Y-96069931D01*
X196290000Y-145930070D01*
X196255074Y-146105655D01*
X196195225Y-146195226D01*
X196105655Y-146255074D01*
X195930070Y-146290000D01*
X191127005Y-146290000D01*
X191424943Y-146166894D01*
X191885278Y-145707363D01*
X192134716Y-145106648D01*
X192135284Y-144456205D01*
X191886894Y-143855057D01*
X191427363Y-143394722D01*
X190826648Y-143145284D01*
X190176205Y-143144716D01*
X189575057Y-143393106D01*
X189114722Y-143852637D01*
X188865284Y-144453352D01*
X188864716Y-145103795D01*
X189113106Y-145704943D01*
X189572637Y-146165278D01*
X189873002Y-146290000D01*
X186075505Y-146290000D01*
X186294264Y-146199387D01*
X186392927Y-145932532D01*
X185420000Y-144959605D01*
X184447073Y-145932532D01*
X184545736Y-146199387D01*
X184789638Y-146290000D01*
X94283310Y-146290000D01*
X94326431Y-146226890D01*
X94377440Y-145975000D01*
X94377440Y-142872500D01*
X95209632Y-142872500D01*
X96047047Y-143709915D01*
X96046786Y-144008579D01*
X96234408Y-144462657D01*
X96581515Y-144810371D01*
X97035266Y-144998785D01*
X97526579Y-144999214D01*
X97980657Y-144811592D01*
X98328371Y-144464485D01*
X98516785Y-144010734D01*
X98516790Y-144004187D01*
X98914752Y-144004187D01*
X99132757Y-144531800D01*
X99536077Y-144935824D01*
X100063309Y-145154750D01*
X100634187Y-145155248D01*
X101161800Y-144937243D01*
X101565824Y-144533923D01*
X101784750Y-144006691D01*
X101785138Y-143561039D01*
X103638096Y-143561039D01*
X103655633Y-143643819D01*
X103925500Y-144136896D01*
X104363517Y-144489166D01*
X104903000Y-144647000D01*
X105303000Y-144647000D01*
X105303000Y-143339000D01*
X105557000Y-143339000D01*
X105557000Y-144647000D01*
X105957000Y-144647000D01*
X106496483Y-144489166D01*
X106934500Y-144136896D01*
X107204367Y-143643819D01*
X107221904Y-143561039D01*
X107099915Y-143339000D01*
X105557000Y-143339000D01*
X105303000Y-143339000D01*
X103760085Y-143339000D01*
X103638096Y-143561039D01*
X101785138Y-143561039D01*
X101785248Y-143435813D01*
X101567243Y-142908200D01*
X101163923Y-142504176D01*
X101097456Y-142476577D01*
X101104005Y-142473864D01*
X101178139Y-142227745D01*
X100350000Y-141399605D01*
X99521861Y-142227745D01*
X99595995Y-142473864D01*
X99602483Y-142476196D01*
X99538200Y-142502757D01*
X99134176Y-142906077D01*
X98915250Y-143433309D01*
X98914752Y-144004187D01*
X98516790Y-144004187D01*
X98517214Y-143519421D01*
X98329592Y-143065343D01*
X97982485Y-142717629D01*
X97528734Y-142529215D01*
X97227820Y-142528952D01*
X96145934Y-141447066D01*
X96130535Y-141436777D01*
X95875041Y-141266061D01*
X95555500Y-141202500D01*
X94377440Y-141202500D01*
X94377440Y-141003223D01*
X98903035Y-141003223D01*
X98930222Y-141573454D01*
X99096136Y-141974005D01*
X99342255Y-142048139D01*
X100170395Y-141220000D01*
X100529605Y-141220000D01*
X101357745Y-142048139D01*
X101603864Y-141974005D01*
X101796965Y-141436777D01*
X101769778Y-140866546D01*
X101603864Y-140465995D01*
X101357745Y-140391861D01*
X100529605Y-141220000D01*
X100170395Y-141220000D01*
X99342255Y-140391861D01*
X99096136Y-140465995D01*
X98903035Y-141003223D01*
X94377440Y-141003223D01*
X94377440Y-140212255D01*
X99521861Y-140212255D01*
X100350000Y-141040395D01*
X101178139Y-140212255D01*
X101104005Y-139966136D01*
X100566777Y-139773035D01*
X99996546Y-139800222D01*
X99595995Y-139966136D01*
X99521861Y-140212255D01*
X94377440Y-140212255D01*
X94377440Y-138162187D01*
X98914752Y-138162187D01*
X99132757Y-138689800D01*
X99536077Y-139093824D01*
X100063309Y-139312750D01*
X100634187Y-139313248D01*
X101161800Y-139095243D01*
X101565824Y-138691923D01*
X101784750Y-138164691D01*
X101785248Y-137593813D01*
X101567243Y-137066200D01*
X101163923Y-136662176D01*
X101097456Y-136634577D01*
X101104005Y-136631864D01*
X101178139Y-136385745D01*
X100350000Y-135557605D01*
X99521861Y-136385745D01*
X99595995Y-136631864D01*
X99602483Y-136634196D01*
X99538200Y-136660757D01*
X99134176Y-137064077D01*
X98915250Y-137591309D01*
X98914752Y-138162187D01*
X94377440Y-138162187D01*
X94377440Y-138100000D01*
X94333162Y-137864683D01*
X94194090Y-137648559D01*
X93981890Y-137503569D01*
X93730000Y-137452560D01*
X91730000Y-137452560D01*
X91494683Y-137496838D01*
X91278559Y-137635910D01*
X91133569Y-137848110D01*
X91082560Y-138100000D01*
X91082560Y-145975000D01*
X91126838Y-146210317D01*
X91178113Y-146290000D01*
X88069930Y-146290000D01*
X87894345Y-146255074D01*
X87804774Y-146195225D01*
X87744926Y-146105655D01*
X87710000Y-145930070D01*
X87710000Y-126225000D01*
X91082560Y-126225000D01*
X91082560Y-134100000D01*
X91126838Y-134335317D01*
X91265910Y-134551441D01*
X91478110Y-134696431D01*
X91730000Y-134747440D01*
X93730000Y-134747440D01*
X93965317Y-134703162D01*
X94181441Y-134564090D01*
X94326431Y-134351890D01*
X94377440Y-134100000D01*
X94377440Y-133150308D01*
X95793047Y-134565915D01*
X95792786Y-134864579D01*
X95980408Y-135318657D01*
X96327515Y-135666371D01*
X96781266Y-135854785D01*
X97272579Y-135855214D01*
X97726657Y-135667592D01*
X98074371Y-135320485D01*
X98140502Y-135161223D01*
X98903035Y-135161223D01*
X98930222Y-135731454D01*
X99096136Y-136132005D01*
X99342255Y-136206139D01*
X100170395Y-135378000D01*
X100529605Y-135378000D01*
X101357745Y-136206139D01*
X101603864Y-136132005D01*
X101796965Y-135594777D01*
X101769778Y-135024546D01*
X101603864Y-134623995D01*
X101357745Y-134549861D01*
X100529605Y-135378000D01*
X100170395Y-135378000D01*
X99342255Y-134549861D01*
X99096136Y-134623995D01*
X98903035Y-135161223D01*
X98140502Y-135161223D01*
X98262785Y-134866734D01*
X98263214Y-134375421D01*
X98261080Y-134370255D01*
X99521861Y-134370255D01*
X100350000Y-135198395D01*
X101178139Y-134370255D01*
X101104005Y-134124136D01*
X100566777Y-133931035D01*
X99996546Y-133958222D01*
X99595995Y-134124136D01*
X99521861Y-134370255D01*
X98261080Y-134370255D01*
X98075592Y-133921343D01*
X97728485Y-133573629D01*
X97274734Y-133385215D01*
X96973820Y-133384952D01*
X94377440Y-130788572D01*
X94377440Y-126225000D01*
X94333162Y-125989683D01*
X94194090Y-125773559D01*
X93981890Y-125628569D01*
X93730000Y-125577560D01*
X91730000Y-125577560D01*
X91494683Y-125621838D01*
X91278559Y-125760910D01*
X91133569Y-125973110D01*
X91082560Y-126225000D01*
X87710000Y-126225000D01*
X87710000Y-125432000D01*
X103559050Y-125432000D01*
X103668283Y-125981151D01*
X103979352Y-126446698D01*
X104361438Y-126702000D01*
X103979352Y-126957302D01*
X103668283Y-127422849D01*
X103559050Y-127972000D01*
X103668283Y-128521151D01*
X103979352Y-128986698D01*
X104361438Y-129242000D01*
X103979352Y-129497302D01*
X103668283Y-129962849D01*
X103559050Y-130512000D01*
X103668283Y-131061151D01*
X103979352Y-131526698D01*
X104361438Y-131782000D01*
X103979352Y-132037302D01*
X103668283Y-132502849D01*
X103559050Y-133052000D01*
X103668283Y-133601151D01*
X103979352Y-134066698D01*
X104361438Y-134322000D01*
X103979352Y-134577302D01*
X103668283Y-135042849D01*
X103559050Y-135592000D01*
X103668283Y-136141151D01*
X103979352Y-136606698D01*
X104361438Y-136862000D01*
X103979352Y-137117302D01*
X103668283Y-137582849D01*
X103559050Y-138132000D01*
X103668283Y-138681151D01*
X103979352Y-139146698D01*
X104361438Y-139402000D01*
X103979352Y-139657302D01*
X103668283Y-140122849D01*
X103559050Y-140672000D01*
X103668283Y-141221151D01*
X103979352Y-141686698D01*
X104357707Y-141939507D01*
X103925500Y-142287104D01*
X103655633Y-142780181D01*
X103638096Y-142862961D01*
X103760085Y-143085000D01*
X105303000Y-143085000D01*
X105303000Y-143065000D01*
X105557000Y-143065000D01*
X105557000Y-143085000D01*
X107099915Y-143085000D01*
X107221904Y-142862961D01*
X107204367Y-142780181D01*
X106934500Y-142287104D01*
X106502293Y-141939507D01*
X106880648Y-141686698D01*
X107191717Y-141221151D01*
X107300950Y-140672000D01*
X107191717Y-140122849D01*
X106880648Y-139657302D01*
X106498562Y-139402000D01*
X106880648Y-139146698D01*
X107191717Y-138681151D01*
X107300950Y-138132000D01*
X107191717Y-137582849D01*
X106880648Y-137117302D01*
X106498562Y-136862000D01*
X106880648Y-136606698D01*
X107191717Y-136141151D01*
X107300950Y-135592000D01*
X107191717Y-135042849D01*
X106880648Y-134577302D01*
X106498562Y-134322000D01*
X106880648Y-134066698D01*
X107191717Y-133601151D01*
X107300950Y-133052000D01*
X107191717Y-132502849D01*
X106880648Y-132037302D01*
X106498562Y-131782000D01*
X106880648Y-131526698D01*
X107191717Y-131061151D01*
X107300950Y-130512000D01*
X107191717Y-129962849D01*
X106880648Y-129497302D01*
X106498562Y-129242000D01*
X106880648Y-128986698D01*
X107191717Y-128521151D01*
X107300950Y-127972000D01*
X107191717Y-127422849D01*
X106880648Y-126957302D01*
X106498562Y-126702000D01*
X106880648Y-126446698D01*
X107191717Y-125981151D01*
X107300950Y-125432000D01*
X107191717Y-124882849D01*
X106880648Y-124417302D01*
X106734650Y-124319749D01*
X106865317Y-124295162D01*
X107081441Y-124156090D01*
X107226431Y-123943890D01*
X107277440Y-123692000D01*
X107277440Y-122892000D01*
X111179050Y-122892000D01*
X111288283Y-123441151D01*
X111599352Y-123906698D01*
X111981438Y-124162000D01*
X111599352Y-124417302D01*
X111288283Y-124882849D01*
X111179050Y-125432000D01*
X111288283Y-125981151D01*
X111599352Y-126446698D01*
X111981438Y-126702000D01*
X111599352Y-126957302D01*
X111288283Y-127422849D01*
X111179050Y-127972000D01*
X111288283Y-128521151D01*
X111599352Y-128986698D01*
X111981438Y-129242000D01*
X111599352Y-129497302D01*
X111288283Y-129962849D01*
X111179050Y-130512000D01*
X111288283Y-131061151D01*
X111599352Y-131526698D01*
X111981438Y-131782000D01*
X111599352Y-132037302D01*
X111288283Y-132502849D01*
X111179050Y-133052000D01*
X111288283Y-133601151D01*
X111599352Y-134066698D01*
X111981438Y-134322000D01*
X111599352Y-134577302D01*
X111288283Y-135042849D01*
X111179050Y-135592000D01*
X111288283Y-136141151D01*
X111599352Y-136606698D01*
X111981438Y-136862000D01*
X111599352Y-137117302D01*
X111288283Y-137582849D01*
X111179050Y-138132000D01*
X111288283Y-138681151D01*
X111599352Y-139146698D01*
X111981438Y-139402000D01*
X111599352Y-139657302D01*
X111288283Y-140122849D01*
X111179050Y-140672000D01*
X111288283Y-141221151D01*
X111599352Y-141686698D01*
X111981438Y-141942000D01*
X111599352Y-142197302D01*
X111288283Y-142662849D01*
X111179050Y-143212000D01*
X111288283Y-143761151D01*
X111599352Y-144226698D01*
X112064899Y-144537767D01*
X112614050Y-144647000D01*
X113485950Y-144647000D01*
X114035101Y-144537767D01*
X114500648Y-144226698D01*
X114811717Y-143761151D01*
X114897876Y-143328000D01*
X115820560Y-143328000D01*
X115820560Y-145128000D01*
X115864838Y-145363317D01*
X116003910Y-145579441D01*
X116216110Y-145724431D01*
X116468000Y-145775440D01*
X118268000Y-145775440D01*
X118503317Y-145731162D01*
X118719441Y-145592090D01*
X118864431Y-145379890D01*
X118868567Y-145359466D01*
X119037357Y-145528551D01*
X119601330Y-145762733D01*
X120211991Y-145763265D01*
X120776371Y-145530068D01*
X121208551Y-145098643D01*
X121442733Y-144534670D01*
X121443265Y-143924009D01*
X121210068Y-143359629D01*
X121178495Y-143328000D01*
X122678560Y-143328000D01*
X122678560Y-145128000D01*
X122722838Y-145363317D01*
X122861910Y-145579441D01*
X123074110Y-145724431D01*
X123326000Y-145775440D01*
X125126000Y-145775440D01*
X125361317Y-145731162D01*
X125577441Y-145592090D01*
X125722431Y-145379890D01*
X125726567Y-145359466D01*
X125895357Y-145528551D01*
X126459330Y-145762733D01*
X127069991Y-145763265D01*
X127634371Y-145530068D01*
X128066551Y-145098643D01*
X128300733Y-144534670D01*
X128301186Y-144014089D01*
X131734743Y-144014089D01*
X131960344Y-144560086D01*
X132377717Y-144978188D01*
X132923319Y-145204742D01*
X133514089Y-145205257D01*
X134060086Y-144979656D01*
X134478188Y-144562283D01*
X134704742Y-144016681D01*
X134704744Y-144014089D01*
X138234743Y-144014089D01*
X138460344Y-144560086D01*
X138877717Y-144978188D01*
X139423319Y-145204742D01*
X140014089Y-145205257D01*
X140560086Y-144979656D01*
X140978188Y-144562283D01*
X141204742Y-144016681D01*
X141205257Y-143425911D01*
X140979656Y-142879914D01*
X140562283Y-142461812D01*
X140016681Y-142235258D01*
X139425911Y-142234743D01*
X138879914Y-142460344D01*
X138461812Y-142877717D01*
X138235258Y-143423319D01*
X138234743Y-144014089D01*
X134704744Y-144014089D01*
X134705257Y-143425911D01*
X134479656Y-142879914D01*
X134062283Y-142461812D01*
X133516681Y-142235258D01*
X132925911Y-142234743D01*
X132379914Y-142460344D01*
X131961812Y-142877717D01*
X131735258Y-143423319D01*
X131734743Y-144014089D01*
X128301186Y-144014089D01*
X128301265Y-143924009D01*
X128068068Y-143359629D01*
X127636643Y-142927449D01*
X127072670Y-142693267D01*
X126462009Y-142692735D01*
X125897629Y-142925932D01*
X125729387Y-143093880D01*
X125729162Y-143092683D01*
X125590090Y-142876559D01*
X125377890Y-142731569D01*
X125126000Y-142680560D01*
X123326000Y-142680560D01*
X123090683Y-142724838D01*
X122874559Y-142863910D01*
X122729569Y-143076110D01*
X122678560Y-143328000D01*
X121178495Y-143328000D01*
X120778643Y-142927449D01*
X120214670Y-142693267D01*
X119604009Y-142692735D01*
X119039629Y-142925932D01*
X118871387Y-143093880D01*
X118871162Y-143092683D01*
X118732090Y-142876559D01*
X118519890Y-142731569D01*
X118268000Y-142680560D01*
X116468000Y-142680560D01*
X116232683Y-142724838D01*
X116016559Y-142863910D01*
X115871569Y-143076110D01*
X115820560Y-143328000D01*
X114897876Y-143328000D01*
X114920950Y-143212000D01*
X114811717Y-142662849D01*
X114500648Y-142197302D01*
X114118562Y-141942000D01*
X114500648Y-141686698D01*
X114649325Y-141464187D01*
X118472752Y-141464187D01*
X118690757Y-141991800D01*
X119094077Y-142395824D01*
X119621309Y-142614750D01*
X120192187Y-142615248D01*
X120719800Y-142397243D01*
X121123824Y-141993923D01*
X121342750Y-141466691D01*
X121342752Y-141464187D01*
X121520752Y-141464187D01*
X121738757Y-141991800D01*
X122142077Y-142395824D01*
X122669309Y-142614750D01*
X123240187Y-142615248D01*
X123767800Y-142397243D01*
X124171824Y-141993923D01*
X124390750Y-141466691D01*
X124391248Y-140895813D01*
X124173243Y-140368200D01*
X124069183Y-140263958D01*
X132355647Y-140263958D01*
X132435920Y-140515259D01*
X132991279Y-140716718D01*
X133581458Y-140690315D01*
X134004080Y-140515259D01*
X134084353Y-140263958D01*
X133220000Y-139399605D01*
X132355647Y-140263958D01*
X124069183Y-140263958D01*
X123769923Y-139964176D01*
X123242691Y-139745250D01*
X122671813Y-139744752D01*
X122144200Y-139962757D01*
X121740176Y-140366077D01*
X121521250Y-140893309D01*
X121520752Y-141464187D01*
X121342752Y-141464187D01*
X121343248Y-140895813D01*
X121125243Y-140368200D01*
X120721923Y-139964176D01*
X120194691Y-139745250D01*
X119623813Y-139744752D01*
X119096200Y-139962757D01*
X118692176Y-140366077D01*
X118473250Y-140893309D01*
X118472752Y-141464187D01*
X114649325Y-141464187D01*
X114811717Y-141221151D01*
X114920950Y-140672000D01*
X114811717Y-140122849D01*
X114500648Y-139657302D01*
X114118562Y-139402000D01*
X114500648Y-139146698D01*
X114604495Y-138991279D01*
X131723282Y-138991279D01*
X131749685Y-139581458D01*
X131924741Y-140004080D01*
X132176042Y-140084353D01*
X133040395Y-139220000D01*
X133399605Y-139220000D01*
X134263958Y-140084353D01*
X134515259Y-140004080D01*
X134693005Y-139514089D01*
X138234743Y-139514089D01*
X138460344Y-140060086D01*
X138877717Y-140478188D01*
X139423319Y-140704742D01*
X140014089Y-140705257D01*
X140560086Y-140479656D01*
X140978188Y-140062283D01*
X141204742Y-139516681D01*
X141205257Y-138925911D01*
X140979656Y-138379914D01*
X140562283Y-137961812D01*
X140016681Y-137735258D01*
X139425911Y-137734743D01*
X138879914Y-137960344D01*
X138461812Y-138377717D01*
X138235258Y-138923319D01*
X138234743Y-139514089D01*
X134693005Y-139514089D01*
X134716718Y-139448721D01*
X134690315Y-138858542D01*
X134515259Y-138435920D01*
X134263958Y-138355647D01*
X133399605Y-139220000D01*
X133040395Y-139220000D01*
X132176042Y-138355647D01*
X131924741Y-138435920D01*
X131723282Y-138991279D01*
X114604495Y-138991279D01*
X114811717Y-138681151D01*
X114912189Y-138176042D01*
X132355647Y-138176042D01*
X133220000Y-139040395D01*
X134084353Y-138176042D01*
X134004080Y-137924741D01*
X133448721Y-137723282D01*
X132858542Y-137749685D01*
X132435920Y-137924741D01*
X132355647Y-138176042D01*
X114912189Y-138176042D01*
X114920950Y-138132000D01*
X114811717Y-137582849D01*
X114500648Y-137117302D01*
X114118562Y-136862000D01*
X114500648Y-136606698D01*
X114811717Y-136141151D01*
X114920950Y-135592000D01*
X114811717Y-135042849D01*
X114500648Y-134577302D01*
X114118562Y-134322000D01*
X114500648Y-134066698D01*
X114811717Y-133601151D01*
X114825494Y-133531887D01*
X118473000Y-133531887D01*
X118473000Y-133588113D01*
X118582233Y-134137264D01*
X118893302Y-134602811D01*
X119358849Y-134913880D01*
X119908000Y-135023113D01*
X120457151Y-134913880D01*
X120922698Y-134602811D01*
X121233767Y-134137264D01*
X121343000Y-133588113D01*
X121343000Y-133531887D01*
X121521000Y-133531887D01*
X121521000Y-133588113D01*
X121630233Y-134137264D01*
X121941302Y-134602811D01*
X122406849Y-134913880D01*
X122956000Y-135023113D01*
X123505151Y-134913880D01*
X123970698Y-134602811D01*
X124281767Y-134137264D01*
X124391000Y-133588113D01*
X124391000Y-133531887D01*
X124331455Y-133232532D01*
X136187073Y-133232532D01*
X136285736Y-133499387D01*
X136895461Y-133725908D01*
X137545460Y-133701856D01*
X138034264Y-133499387D01*
X138132927Y-133232532D01*
X137160000Y-132259605D01*
X136187073Y-133232532D01*
X124331455Y-133232532D01*
X124281767Y-132982736D01*
X123970698Y-132517189D01*
X123505151Y-132206120D01*
X122956000Y-132096887D01*
X122406849Y-132206120D01*
X121941302Y-132517189D01*
X121630233Y-132982736D01*
X121521000Y-133531887D01*
X121343000Y-133531887D01*
X121233767Y-132982736D01*
X120922698Y-132517189D01*
X120457151Y-132206120D01*
X119908000Y-132096887D01*
X119358849Y-132206120D01*
X118893302Y-132517189D01*
X118582233Y-132982736D01*
X118473000Y-133531887D01*
X114825494Y-133531887D01*
X114920950Y-133052000D01*
X114811717Y-132502849D01*
X114500648Y-132037302D01*
X114168640Y-131815461D01*
X135514092Y-131815461D01*
X135538144Y-132465460D01*
X135740613Y-132954264D01*
X136007468Y-133052927D01*
X136980395Y-132080000D01*
X136007468Y-131107073D01*
X135740613Y-131205736D01*
X135514092Y-131815461D01*
X114168640Y-131815461D01*
X114118562Y-131782000D01*
X114500648Y-131526698D01*
X114811717Y-131061151D01*
X114885039Y-130692532D01*
X136187073Y-130692532D01*
X136230504Y-130810000D01*
X136187073Y-130927468D01*
X137160000Y-131900395D01*
X138132927Y-130927468D01*
X138089496Y-130810000D01*
X138132927Y-130692532D01*
X137160000Y-129719605D01*
X136187073Y-130692532D01*
X114885039Y-130692532D01*
X114920950Y-130512000D01*
X114811717Y-129962849D01*
X114500648Y-129497302D01*
X114168640Y-129275461D01*
X135514092Y-129275461D01*
X135538144Y-129925460D01*
X135740613Y-130414264D01*
X136007468Y-130512927D01*
X136980395Y-129540000D01*
X136007468Y-128567073D01*
X135740613Y-128665736D01*
X135514092Y-129275461D01*
X114168640Y-129275461D01*
X114118562Y-129242000D01*
X114500648Y-128986698D01*
X114811717Y-128521151D01*
X114885039Y-128152532D01*
X136187073Y-128152532D01*
X136230504Y-128270000D01*
X136187073Y-128387468D01*
X137160000Y-129360395D01*
X138132927Y-128387468D01*
X138089496Y-128270000D01*
X138132927Y-128152532D01*
X137160000Y-127179605D01*
X136187073Y-128152532D01*
X114885039Y-128152532D01*
X114920950Y-127972000D01*
X114811717Y-127422849D01*
X114500648Y-126957302D01*
X114168640Y-126735461D01*
X135514092Y-126735461D01*
X135538144Y-127385460D01*
X135740613Y-127874264D01*
X136007468Y-127972927D01*
X136980395Y-127000000D01*
X137339605Y-127000000D01*
X138312532Y-127972927D01*
X138347938Y-127959836D01*
X138657759Y-128270199D01*
X138347438Y-128579978D01*
X138312532Y-128567073D01*
X137339605Y-129540000D01*
X138312532Y-130512927D01*
X138347938Y-130499836D01*
X138657759Y-130810199D01*
X138347438Y-131119978D01*
X138312532Y-131107073D01*
X137339605Y-132080000D01*
X138312532Y-133052927D01*
X138347938Y-133039836D01*
X138772637Y-133465278D01*
X139373352Y-133714716D01*
X140023795Y-133715284D01*
X140624943Y-133466894D01*
X140841677Y-133250539D01*
X140925910Y-133381441D01*
X141138110Y-133526431D01*
X141390000Y-133577440D01*
X143090000Y-133577440D01*
X143325317Y-133533162D01*
X143541441Y-133394090D01*
X143686431Y-133181890D01*
X143737440Y-132930000D01*
X143737440Y-131230000D01*
X143693162Y-130994683D01*
X143554090Y-130778559D01*
X143341890Y-130633569D01*
X143274459Y-130619914D01*
X143319147Y-130590054D01*
X143641054Y-130108285D01*
X143754093Y-129540000D01*
X143641054Y-128971715D01*
X143319147Y-128489946D01*
X142989974Y-128270000D01*
X143319147Y-128050054D01*
X143641054Y-127568285D01*
X143754093Y-127000000D01*
X143641054Y-126431715D01*
X143319147Y-125949946D01*
X142837378Y-125628039D01*
X142269093Y-125515000D01*
X142210907Y-125515000D01*
X141642622Y-125628039D01*
X141160853Y-125949946D01*
X141081121Y-126069274D01*
X140627363Y-125614722D01*
X140026648Y-125365284D01*
X139376205Y-125364716D01*
X138775057Y-125613106D01*
X138347438Y-126039978D01*
X138312532Y-126027073D01*
X137339605Y-127000000D01*
X136980395Y-127000000D01*
X136007468Y-126027073D01*
X135740613Y-126125736D01*
X135514092Y-126735461D01*
X114168640Y-126735461D01*
X114118562Y-126702000D01*
X114500648Y-126446698D01*
X114811717Y-125981151D01*
X114838308Y-125847468D01*
X136187073Y-125847468D01*
X137160000Y-126820395D01*
X138132927Y-125847468D01*
X138034264Y-125580613D01*
X137424539Y-125354092D01*
X136774540Y-125378144D01*
X136285736Y-125580613D01*
X136187073Y-125847468D01*
X114838308Y-125847468D01*
X114920950Y-125432000D01*
X114811717Y-124882849D01*
X114500648Y-124417302D01*
X114118562Y-124162000D01*
X114500648Y-123906698D01*
X114811717Y-123441151D01*
X114920950Y-122892000D01*
X114826781Y-122418579D01*
X116366786Y-122418579D01*
X116554408Y-122872657D01*
X116901515Y-123220371D01*
X117355266Y-123408785D01*
X117846579Y-123409214D01*
X118300657Y-123221592D01*
X118513621Y-123009000D01*
X139700000Y-123009000D01*
X140019541Y-122945439D01*
X140290434Y-122764434D01*
X142576434Y-120478434D01*
X142757439Y-120207541D01*
X142821000Y-119888000D01*
X142821000Y-119452677D01*
X142957910Y-119665441D01*
X143170110Y-119810431D01*
X143422000Y-119861440D01*
X145122000Y-119861440D01*
X145357317Y-119817162D01*
X145573441Y-119678090D01*
X145718431Y-119465890D01*
X145769440Y-119214000D01*
X145769440Y-117514000D01*
X145725162Y-117278683D01*
X145586090Y-117062559D01*
X145373890Y-116917569D01*
X145306459Y-116903914D01*
X145351147Y-116874054D01*
X145673054Y-116392285D01*
X145786093Y-115824000D01*
X145673054Y-115255715D01*
X145351147Y-114773946D01*
X145021974Y-114554000D01*
X145351147Y-114334054D01*
X145673054Y-113852285D01*
X145738813Y-113521691D01*
X145917354Y-113521691D01*
X146133445Y-114044672D01*
X146533223Y-114445149D01*
X146689140Y-114509891D01*
X146535328Y-114573445D01*
X146134851Y-114973223D01*
X145917848Y-115495826D01*
X145917354Y-116061691D01*
X146133445Y-116584672D01*
X146533223Y-116985149D01*
X146689140Y-117049891D01*
X146535328Y-117113445D01*
X146134851Y-117513223D01*
X145917848Y-118035826D01*
X145917354Y-118601691D01*
X146133445Y-119124672D01*
X146533223Y-119525149D01*
X146689140Y-119589891D01*
X146535328Y-119653445D01*
X146134851Y-120053223D01*
X145917848Y-120575826D01*
X145917354Y-121141691D01*
X146133445Y-121664672D01*
X146533223Y-122065149D01*
X146689140Y-122129891D01*
X146535328Y-122193445D01*
X146134851Y-122593223D01*
X145917848Y-123115826D01*
X145917354Y-123681691D01*
X146133445Y-124204672D01*
X146533223Y-124605149D01*
X146689140Y-124669891D01*
X146535328Y-124733445D01*
X146134851Y-125133223D01*
X145917848Y-125655826D01*
X145917354Y-126221691D01*
X146133445Y-126744672D01*
X146533223Y-127145149D01*
X146689140Y-127209891D01*
X146535328Y-127273445D01*
X146134851Y-127673223D01*
X145917848Y-128195826D01*
X145917354Y-128761691D01*
X146133445Y-129284672D01*
X146533223Y-129685149D01*
X146689140Y-129749891D01*
X146535328Y-129813445D01*
X146134851Y-130213223D01*
X145917848Y-130735826D01*
X145917354Y-131301691D01*
X146133445Y-131824672D01*
X146533223Y-132225149D01*
X146689140Y-132289891D01*
X146535328Y-132353445D01*
X146134851Y-132753223D01*
X145917848Y-133275826D01*
X145917354Y-133841691D01*
X146133445Y-134364672D01*
X146533223Y-134765149D01*
X146689140Y-134829891D01*
X146535328Y-134893445D01*
X146134851Y-135293223D01*
X145917848Y-135815826D01*
X145917354Y-136381691D01*
X146133445Y-136904672D01*
X146533223Y-137305149D01*
X146689140Y-137369891D01*
X146535328Y-137433445D01*
X146134851Y-137833223D01*
X145917848Y-138355826D01*
X145917354Y-138921691D01*
X146133445Y-139444672D01*
X146533223Y-139845149D01*
X147055826Y-140062152D01*
X147621691Y-140062646D01*
X148144672Y-139846555D01*
X148545149Y-139446777D01*
X148762152Y-138924174D01*
X148762646Y-138358309D01*
X148546555Y-137835328D01*
X148146777Y-137434851D01*
X147990860Y-137370109D01*
X148144672Y-137306555D01*
X148300920Y-137150579D01*
X156498786Y-137150579D01*
X156686408Y-137604657D01*
X156899000Y-137817621D01*
X156899000Y-138938000D01*
X156962561Y-139257541D01*
X157096348Y-139457767D01*
X157143566Y-139528434D01*
X161833047Y-144217915D01*
X161832786Y-144516579D01*
X162020408Y-144970657D01*
X162367515Y-145318371D01*
X162821266Y-145506785D01*
X163312579Y-145507214D01*
X163766657Y-145319592D01*
X164114371Y-144972485D01*
X164302785Y-144518734D01*
X164303214Y-144027421D01*
X164115592Y-143573343D01*
X163787823Y-143245000D01*
X166981560Y-143245000D01*
X166981560Y-145045000D01*
X167025838Y-145280317D01*
X167164910Y-145496441D01*
X167377110Y-145641431D01*
X167629000Y-145692440D01*
X169429000Y-145692440D01*
X169664317Y-145648162D01*
X169880441Y-145509090D01*
X170025431Y-145296890D01*
X170029567Y-145276466D01*
X170198357Y-145445551D01*
X170762330Y-145679733D01*
X171372991Y-145680265D01*
X171937371Y-145447068D01*
X172369551Y-145015643D01*
X172456525Y-144806187D01*
X172518757Y-144956800D01*
X172922077Y-145360824D01*
X173449309Y-145579750D01*
X174020187Y-145580248D01*
X174547800Y-145362243D01*
X174951824Y-144958923D01*
X175144860Y-144494039D01*
X179964096Y-144494039D01*
X180124959Y-144882423D01*
X180500866Y-145297389D01*
X181006959Y-145536914D01*
X181229000Y-145415629D01*
X181229000Y-144272000D01*
X181483000Y-144272000D01*
X181483000Y-145415629D01*
X181705041Y-145536914D01*
X182211134Y-145297389D01*
X182587041Y-144882423D01*
X182739031Y-144515461D01*
X183774092Y-144515461D01*
X183798144Y-145165460D01*
X184000613Y-145654264D01*
X184267468Y-145752927D01*
X185240395Y-144780000D01*
X185599605Y-144780000D01*
X186572532Y-145752927D01*
X186839387Y-145654264D01*
X187065908Y-145044539D01*
X187041856Y-144394540D01*
X186839387Y-143905736D01*
X186572532Y-143807073D01*
X185599605Y-144780000D01*
X185240395Y-144780000D01*
X184267468Y-143807073D01*
X184000613Y-143905736D01*
X183774092Y-144515461D01*
X182739031Y-144515461D01*
X182747904Y-144494039D01*
X182625915Y-144272000D01*
X181483000Y-144272000D01*
X181229000Y-144272000D01*
X180086085Y-144272000D01*
X179964096Y-144494039D01*
X175144860Y-144494039D01*
X175170750Y-144431691D01*
X175171248Y-143860813D01*
X175144452Y-143795961D01*
X179964096Y-143795961D01*
X180086085Y-144018000D01*
X181229000Y-144018000D01*
X181229000Y-142874371D01*
X181483000Y-142874371D01*
X181483000Y-144018000D01*
X182625915Y-144018000D01*
X182747904Y-143795961D01*
X182678117Y-143627468D01*
X184447073Y-143627468D01*
X185420000Y-144600395D01*
X186392927Y-143627468D01*
X186294264Y-143360613D01*
X185684539Y-143134092D01*
X185034540Y-143158144D01*
X184545736Y-143360613D01*
X184447073Y-143627468D01*
X182678117Y-143627468D01*
X182587041Y-143407577D01*
X182211134Y-142992611D01*
X181705041Y-142753086D01*
X181483000Y-142874371D01*
X181229000Y-142874371D01*
X181006959Y-142753086D01*
X180500866Y-142992611D01*
X180124959Y-143407577D01*
X179964096Y-143795961D01*
X175144452Y-143795961D01*
X174953243Y-143333200D01*
X174549923Y-142929176D01*
X174022691Y-142710250D01*
X173451813Y-142709752D01*
X172924200Y-142927757D01*
X172520176Y-143331077D01*
X172456714Y-143483909D01*
X172371068Y-143276629D01*
X171939643Y-142844449D01*
X171375670Y-142610267D01*
X170765009Y-142609735D01*
X170200629Y-142842932D01*
X170032387Y-143010880D01*
X170032162Y-143009683D01*
X169893090Y-142793559D01*
X169680890Y-142648569D01*
X169429000Y-142597560D01*
X167629000Y-142597560D01*
X167393683Y-142641838D01*
X167177559Y-142780910D01*
X167032569Y-142993110D01*
X166981560Y-143245000D01*
X163787823Y-143245000D01*
X163768485Y-143225629D01*
X163314734Y-143037215D01*
X163013820Y-143036952D01*
X158569000Y-138592132D01*
X158569000Y-137817487D01*
X158780371Y-137606485D01*
X158968785Y-137152734D01*
X158969214Y-136661421D01*
X158781592Y-136207343D01*
X158434485Y-135859629D01*
X157980734Y-135671215D01*
X157489421Y-135670786D01*
X157035343Y-135858408D01*
X156687629Y-136205515D01*
X156499215Y-136659266D01*
X156498786Y-137150579D01*
X148300920Y-137150579D01*
X148545149Y-136906777D01*
X148762152Y-136384174D01*
X148762646Y-135818309D01*
X148546555Y-135295328D01*
X148146777Y-134894851D01*
X147990860Y-134830109D01*
X148144672Y-134766555D01*
X148545149Y-134366777D01*
X148762152Y-133844174D01*
X148762646Y-133278309D01*
X148546555Y-132755328D01*
X148146777Y-132354851D01*
X147990860Y-132290109D01*
X148144672Y-132226555D01*
X148545149Y-131826777D01*
X148762152Y-131304174D01*
X148762646Y-130738309D01*
X148546555Y-130215328D01*
X148146777Y-129814851D01*
X147990860Y-129750109D01*
X148144672Y-129686555D01*
X148545149Y-129286777D01*
X148762152Y-128764174D01*
X148762646Y-128198309D01*
X148546555Y-127675328D01*
X148146777Y-127274851D01*
X147990860Y-127210109D01*
X148144672Y-127146555D01*
X148545149Y-126746777D01*
X148762152Y-126224174D01*
X148762646Y-125658309D01*
X148546555Y-125135328D01*
X148146777Y-124734851D01*
X147990860Y-124670109D01*
X148144672Y-124606555D01*
X148545149Y-124206777D01*
X148762152Y-123684174D01*
X148762646Y-123118309D01*
X148546555Y-122595328D01*
X148146777Y-122194851D01*
X147990860Y-122130109D01*
X148144672Y-122066555D01*
X148545149Y-121666777D01*
X148762152Y-121144174D01*
X148762646Y-120578309D01*
X148546555Y-120055328D01*
X148146777Y-119654851D01*
X147990860Y-119590109D01*
X148144672Y-119526555D01*
X148545149Y-119126777D01*
X148762152Y-118604174D01*
X148762646Y-118038309D01*
X148546555Y-117515328D01*
X148146777Y-117114851D01*
X147990860Y-117050109D01*
X148144672Y-116986555D01*
X148545149Y-116586777D01*
X148762152Y-116064174D01*
X148762646Y-115498309D01*
X148546555Y-114975328D01*
X148146777Y-114574851D01*
X147990860Y-114510109D01*
X148144672Y-114446555D01*
X148545149Y-114046777D01*
X148762152Y-113524174D01*
X148762646Y-112958309D01*
X148546555Y-112435328D01*
X148146777Y-112034851D01*
X148006422Y-111976571D01*
X148086425Y-111943432D01*
X148159011Y-111698617D01*
X147340000Y-110879605D01*
X146520989Y-111698617D01*
X146593575Y-111943432D01*
X146679024Y-111974071D01*
X146535328Y-112033445D01*
X146134851Y-112433223D01*
X145917848Y-112955826D01*
X145917354Y-113521691D01*
X145738813Y-113521691D01*
X145786093Y-113284000D01*
X145673054Y-112715715D01*
X145351147Y-112233946D01*
X144869378Y-111912039D01*
X144301093Y-111799000D01*
X144242907Y-111799000D01*
X143674622Y-111912039D01*
X143192853Y-112233946D01*
X142870946Y-112715715D01*
X142821000Y-112966810D01*
X142821000Y-111909487D01*
X143032371Y-111698485D01*
X143220785Y-111244734D01*
X143221214Y-110753421D01*
X143110815Y-110486235D01*
X145905574Y-110486235D01*
X145932959Y-111051438D01*
X146096568Y-111446425D01*
X146341383Y-111519011D01*
X147160395Y-110700000D01*
X147519605Y-110700000D01*
X148338617Y-111519011D01*
X148583432Y-111446425D01*
X148774426Y-110913765D01*
X148747041Y-110348562D01*
X148583432Y-109953575D01*
X148338617Y-109880989D01*
X147519605Y-110700000D01*
X147160395Y-110700000D01*
X146341383Y-109880989D01*
X146096568Y-109953575D01*
X145905574Y-110486235D01*
X143110815Y-110486235D01*
X143033592Y-110299343D01*
X142686485Y-109951629D01*
X142232734Y-109763215D01*
X141741421Y-109762786D01*
X141287343Y-109950408D01*
X140939629Y-110297515D01*
X140751215Y-110751266D01*
X140750786Y-111242579D01*
X140938408Y-111696657D01*
X141151000Y-111909621D01*
X141151000Y-119542132D01*
X139354132Y-121339000D01*
X118513487Y-121339000D01*
X118302485Y-121127629D01*
X117848734Y-120939215D01*
X117357421Y-120938786D01*
X116903343Y-121126408D01*
X116555629Y-121473515D01*
X116367215Y-121927266D01*
X116366786Y-122418579D01*
X114826781Y-122418579D01*
X114811717Y-122342849D01*
X114500648Y-121877302D01*
X114035101Y-121566233D01*
X113485950Y-121457000D01*
X112614050Y-121457000D01*
X112064899Y-121566233D01*
X111599352Y-121877302D01*
X111288283Y-122342849D01*
X111179050Y-122892000D01*
X107277440Y-122892000D01*
X107277440Y-122092000D01*
X107233162Y-121856683D01*
X107094090Y-121640559D01*
X106881890Y-121495569D01*
X106630000Y-121444560D01*
X104230000Y-121444560D01*
X103994683Y-121488838D01*
X103778559Y-121627910D01*
X103633569Y-121840110D01*
X103582560Y-122092000D01*
X103582560Y-123692000D01*
X103626838Y-123927317D01*
X103765910Y-124143441D01*
X103978110Y-124288431D01*
X104127074Y-124318597D01*
X103979352Y-124417302D01*
X103668283Y-124882849D01*
X103559050Y-125432000D01*
X87710000Y-125432000D01*
X87710000Y-113240000D01*
X105236887Y-113240000D01*
X105346120Y-113789151D01*
X105657189Y-114254698D01*
X106039275Y-114510000D01*
X105657189Y-114765302D01*
X105346120Y-115230849D01*
X105236887Y-115780000D01*
X105346120Y-116329151D01*
X105657189Y-116794698D01*
X106122736Y-117105767D01*
X106671887Y-117215000D01*
X106728113Y-117215000D01*
X107277264Y-117105767D01*
X107742811Y-116794698D01*
X108053880Y-116329151D01*
X108163113Y-115780000D01*
X108053880Y-115230849D01*
X107742811Y-114765302D01*
X107360725Y-114510000D01*
X107742811Y-114254698D01*
X108053880Y-113789151D01*
X108163113Y-113240000D01*
X108053880Y-112690849D01*
X107742811Y-112225302D01*
X107338297Y-111955014D01*
X107555134Y-111852389D01*
X107931041Y-111437423D01*
X108091904Y-111049039D01*
X107969915Y-110827000D01*
X106827000Y-110827000D01*
X106827000Y-110847000D01*
X106573000Y-110847000D01*
X106573000Y-110827000D01*
X105430085Y-110827000D01*
X105308096Y-111049039D01*
X105468959Y-111437423D01*
X105844866Y-111852389D01*
X106061703Y-111955014D01*
X105657189Y-112225302D01*
X105346120Y-112690849D01*
X105236887Y-113240000D01*
X87710000Y-113240000D01*
X87710000Y-107360000D01*
X105252560Y-107360000D01*
X105252560Y-108960000D01*
X105296838Y-109195317D01*
X105435910Y-109411441D01*
X105648110Y-109556431D01*
X105807616Y-109588732D01*
X105468959Y-109962577D01*
X105308096Y-110350961D01*
X105430085Y-110573000D01*
X106573000Y-110573000D01*
X106573000Y-110553000D01*
X106827000Y-110553000D01*
X106827000Y-110573000D01*
X107969915Y-110573000D01*
X108091904Y-110350961D01*
X107931041Y-109962577D01*
X107593410Y-109589864D01*
X107735317Y-109563162D01*
X107951441Y-109424090D01*
X108096431Y-109211890D01*
X108147440Y-108960000D01*
X108147440Y-108160000D01*
X112856887Y-108160000D01*
X112966120Y-108709151D01*
X113277189Y-109174698D01*
X113659275Y-109430000D01*
X113277189Y-109685302D01*
X112966120Y-110150849D01*
X112856887Y-110700000D01*
X112966120Y-111249151D01*
X113277189Y-111714698D01*
X113659275Y-111970000D01*
X113277189Y-112225302D01*
X112966120Y-112690849D01*
X112856887Y-113240000D01*
X112966120Y-113789151D01*
X113277189Y-114254698D01*
X113659275Y-114510000D01*
X113277189Y-114765302D01*
X112966120Y-115230849D01*
X112856887Y-115780000D01*
X112966120Y-116329151D01*
X113277189Y-116794698D01*
X113742736Y-117105767D01*
X114291887Y-117215000D01*
X114348113Y-117215000D01*
X114897264Y-117105767D01*
X115362811Y-116794698D01*
X115673880Y-116329151D01*
X115783113Y-115780000D01*
X115673880Y-115230849D01*
X115362811Y-114765302D01*
X114980725Y-114510000D01*
X115362811Y-114254698D01*
X115673880Y-113789151D01*
X115783113Y-113240000D01*
X115673880Y-112690849D01*
X115362811Y-112225302D01*
X114980725Y-111970000D01*
X115362811Y-111714698D01*
X115673880Y-111249151D01*
X115783113Y-110700000D01*
X115673880Y-110150849D01*
X115362811Y-109685302D01*
X114980725Y-109430000D01*
X115362811Y-109174698D01*
X115673880Y-108709151D01*
X115783113Y-108160000D01*
X115673880Y-107610849D01*
X115362811Y-107145302D01*
X114897264Y-106834233D01*
X114348113Y-106725000D01*
X114291887Y-106725000D01*
X113742736Y-106834233D01*
X113277189Y-107145302D01*
X112966120Y-107610849D01*
X112856887Y-108160000D01*
X108147440Y-108160000D01*
X108147440Y-107360000D01*
X108103162Y-107124683D01*
X107964090Y-106908559D01*
X107751890Y-106763569D01*
X107500000Y-106712560D01*
X105900000Y-106712560D01*
X105664683Y-106756838D01*
X105448559Y-106895910D01*
X105303569Y-107108110D01*
X105252560Y-107360000D01*
X87710000Y-107360000D01*
X87710000Y-104634187D01*
X115424752Y-104634187D01*
X115642757Y-105161800D01*
X116046077Y-105565824D01*
X116573309Y-105784750D01*
X117144187Y-105785248D01*
X117671800Y-105567243D01*
X118075824Y-105163923D01*
X118294750Y-104636691D01*
X118295248Y-104065813D01*
X118077243Y-103538200D01*
X117673923Y-103134176D01*
X117146691Y-102915250D01*
X116575813Y-102914752D01*
X116048200Y-103132757D01*
X115644176Y-103536077D01*
X115425250Y-104063309D01*
X115424752Y-104634187D01*
X87710000Y-104634187D01*
X87710000Y-97150000D01*
X92502560Y-97150000D01*
X92502560Y-98850000D01*
X92546838Y-99085317D01*
X92685910Y-99301441D01*
X92898110Y-99446431D01*
X93150000Y-99497440D01*
X94850000Y-99497440D01*
X95085317Y-99453162D01*
X95301441Y-99314090D01*
X95446431Y-99101890D01*
X95460086Y-99034459D01*
X95489946Y-99079147D01*
X95971715Y-99401054D01*
X96540000Y-99514093D01*
X97108285Y-99401054D01*
X97590054Y-99079147D01*
X97810000Y-98749974D01*
X98029946Y-99079147D01*
X98511715Y-99401054D01*
X99080000Y-99514093D01*
X99648285Y-99401054D01*
X100130054Y-99079147D01*
X100350000Y-98749974D01*
X100569946Y-99079147D01*
X101051715Y-99401054D01*
X101620000Y-99514093D01*
X102188285Y-99401054D01*
X102670054Y-99079147D01*
X102890000Y-98749974D01*
X103025000Y-98952016D01*
X103025000Y-99334000D01*
X103111397Y-99768346D01*
X103243773Y-99966460D01*
X103357434Y-100136566D01*
X104607434Y-101386566D01*
X104975654Y-101632603D01*
X105410000Y-101719000D01*
X121535300Y-101719000D01*
X121666000Y-101744998D01*
X121883372Y-101701760D01*
X118809566Y-104775566D01*
X118628561Y-105046459D01*
X118565000Y-105366000D01*
X118565000Y-106965917D01*
X118184176Y-107346077D01*
X117965250Y-107873309D01*
X117964752Y-108444187D01*
X118182757Y-108971800D01*
X118586077Y-109375824D01*
X119113309Y-109594750D01*
X119684187Y-109595248D01*
X120211800Y-109377243D01*
X120615824Y-108973923D01*
X120834750Y-108446691D01*
X120835248Y-107875813D01*
X120617243Y-107348200D01*
X120235000Y-106965290D01*
X120235000Y-105711868D01*
X121247829Y-104699039D01*
X123088096Y-104699039D01*
X123248959Y-105087423D01*
X123624866Y-105502389D01*
X124130959Y-105741914D01*
X124353000Y-105620629D01*
X124353000Y-104477000D01*
X124607000Y-104477000D01*
X124607000Y-105620629D01*
X124829041Y-105741914D01*
X125335134Y-105502389D01*
X125711041Y-105087423D01*
X125871904Y-104699039D01*
X125749915Y-104477000D01*
X124607000Y-104477000D01*
X124353000Y-104477000D01*
X123210085Y-104477000D01*
X123088096Y-104699039D01*
X121247829Y-104699039D01*
X121945907Y-104000961D01*
X123088096Y-104000961D01*
X123210085Y-104223000D01*
X124353000Y-104223000D01*
X124353000Y-103079371D01*
X124607000Y-103079371D01*
X124607000Y-104223000D01*
X125749915Y-104223000D01*
X125871904Y-104000961D01*
X125711041Y-103612577D01*
X125335134Y-103197611D01*
X124829041Y-102958086D01*
X124607000Y-103079371D01*
X124353000Y-103079371D01*
X124130959Y-102958086D01*
X123624866Y-103197611D01*
X123248959Y-103612577D01*
X123088096Y-104000961D01*
X121945907Y-104000961D01*
X125070434Y-100876434D01*
X125138422Y-100774683D01*
X125251439Y-100605541D01*
X125315000Y-100286000D01*
X125315000Y-99222841D01*
X125530054Y-99079147D01*
X125750000Y-98749974D01*
X125969946Y-99079147D01*
X126185000Y-99222841D01*
X126185000Y-105274132D01*
X122111566Y-109347566D01*
X121930561Y-109618459D01*
X121867000Y-109938000D01*
X121867000Y-112132132D01*
X119635418Y-114363714D01*
X119400000Y-114316887D01*
X118850849Y-114426120D01*
X118385302Y-114737189D01*
X118074233Y-115202736D01*
X117965000Y-115751887D01*
X117965000Y-115808113D01*
X118074233Y-116357264D01*
X118385302Y-116822811D01*
X118850849Y-117133880D01*
X119400000Y-117243113D01*
X119949151Y-117133880D01*
X120414698Y-116822811D01*
X120725767Y-116357264D01*
X120835000Y-115808113D01*
X120835000Y-115751887D01*
X120797501Y-115563367D01*
X123292434Y-113068434D01*
X123367676Y-112955826D01*
X123473439Y-112797541D01*
X123537000Y-112478000D01*
X123537000Y-110283868D01*
X127610434Y-106210434D01*
X127780151Y-105956434D01*
X127791439Y-105939541D01*
X127855000Y-105620000D01*
X127855000Y-105317745D01*
X130001861Y-105317745D01*
X130075995Y-105563864D01*
X130613223Y-105756965D01*
X131183454Y-105729778D01*
X131584005Y-105563864D01*
X131658139Y-105317745D01*
X135081861Y-105317745D01*
X135155995Y-105563864D01*
X135693223Y-105756965D01*
X136263454Y-105729778D01*
X136664005Y-105563864D01*
X136738139Y-105317745D01*
X135910000Y-104489605D01*
X135081861Y-105317745D01*
X131658139Y-105317745D01*
X130830000Y-104489605D01*
X130001861Y-105317745D01*
X127855000Y-105317745D01*
X127855000Y-104093223D01*
X129383035Y-104093223D01*
X129410222Y-104663454D01*
X129576136Y-105064005D01*
X129822255Y-105138139D01*
X130650395Y-104310000D01*
X131009605Y-104310000D01*
X131837745Y-105138139D01*
X132083864Y-105064005D01*
X132276965Y-104526777D01*
X132256295Y-104093223D01*
X134463035Y-104093223D01*
X134490222Y-104663454D01*
X134656136Y-105064005D01*
X134902255Y-105138139D01*
X135730395Y-104310000D01*
X136089605Y-104310000D01*
X136917745Y-105138139D01*
X137163864Y-105064005D01*
X137356965Y-104526777D01*
X137329778Y-103956546D01*
X137163864Y-103555995D01*
X136917745Y-103481861D01*
X136089605Y-104310000D01*
X135730395Y-104310000D01*
X134902255Y-103481861D01*
X134656136Y-103555995D01*
X134463035Y-104093223D01*
X132256295Y-104093223D01*
X132249778Y-103956546D01*
X132083864Y-103555995D01*
X131837745Y-103481861D01*
X131009605Y-104310000D01*
X130650395Y-104310000D01*
X129822255Y-103481861D01*
X129576136Y-103555995D01*
X129383035Y-104093223D01*
X127855000Y-104093223D01*
X127855000Y-102094187D01*
X129394752Y-102094187D01*
X129612757Y-102621800D01*
X130016077Y-103025824D01*
X130082544Y-103053423D01*
X130075995Y-103056136D01*
X130001861Y-103302255D01*
X130830000Y-104130395D01*
X131658139Y-103302255D01*
X131584005Y-103056136D01*
X131577517Y-103053804D01*
X131641800Y-103027243D01*
X132045824Y-102623923D01*
X132264750Y-102096691D01*
X132265248Y-101525813D01*
X132052119Y-101010000D01*
X134462560Y-101010000D01*
X134462560Y-102610000D01*
X134506838Y-102845317D01*
X134645910Y-103061441D01*
X134858110Y-103206431D01*
X135096201Y-103254646D01*
X135081861Y-103302255D01*
X135910000Y-104130395D01*
X136678703Y-103361691D01*
X145917354Y-103361691D01*
X146133445Y-103884672D01*
X146533223Y-104285149D01*
X146689140Y-104349891D01*
X146535328Y-104413445D01*
X146134851Y-104813223D01*
X145917848Y-105335826D01*
X145917354Y-105901691D01*
X146133445Y-106424672D01*
X146533223Y-106825149D01*
X146689140Y-106889891D01*
X146535328Y-106953445D01*
X146134851Y-107353223D01*
X145917848Y-107875826D01*
X145917354Y-108441691D01*
X146133445Y-108964672D01*
X146533223Y-109365149D01*
X146673578Y-109423429D01*
X146593575Y-109456568D01*
X146520989Y-109701383D01*
X147340000Y-110520395D01*
X148159011Y-109701383D01*
X148086425Y-109456568D01*
X148000976Y-109425929D01*
X148144672Y-109366555D01*
X148545149Y-108966777D01*
X148762152Y-108444174D01*
X148762154Y-108441691D01*
X161157354Y-108441691D01*
X161373445Y-108964672D01*
X161773223Y-109365149D01*
X161929140Y-109429891D01*
X161775328Y-109493445D01*
X161374851Y-109893223D01*
X161157848Y-110415826D01*
X161157354Y-110981691D01*
X161373445Y-111504672D01*
X161773223Y-111905149D01*
X161929140Y-111969891D01*
X161775328Y-112033445D01*
X161374851Y-112433223D01*
X161157848Y-112955826D01*
X161157354Y-113521691D01*
X161373445Y-114044672D01*
X161773223Y-114445149D01*
X161929140Y-114509891D01*
X161775328Y-114573445D01*
X161374851Y-114973223D01*
X161157848Y-115495826D01*
X161157354Y-116061691D01*
X161373445Y-116584672D01*
X161773223Y-116985149D01*
X161929140Y-117049891D01*
X161775328Y-117113445D01*
X161374851Y-117513223D01*
X161157848Y-118035826D01*
X161157354Y-118601691D01*
X161373445Y-119124672D01*
X161773223Y-119525149D01*
X161929140Y-119589891D01*
X161775328Y-119653445D01*
X161374851Y-120053223D01*
X161157848Y-120575826D01*
X161157354Y-121141691D01*
X161373445Y-121664672D01*
X161773223Y-122065149D01*
X161929140Y-122129891D01*
X161775328Y-122193445D01*
X161374851Y-122593223D01*
X161157848Y-123115826D01*
X161157354Y-123681691D01*
X161373445Y-124204672D01*
X161773223Y-124605149D01*
X161929140Y-124669891D01*
X161775328Y-124733445D01*
X161374851Y-125133223D01*
X161157848Y-125655826D01*
X161157354Y-126221691D01*
X161373445Y-126744672D01*
X161773223Y-127145149D01*
X161929140Y-127209891D01*
X161775328Y-127273445D01*
X161374851Y-127673223D01*
X161157848Y-128195826D01*
X161157354Y-128761691D01*
X161373445Y-129284672D01*
X161773223Y-129685149D01*
X161929140Y-129749891D01*
X161775328Y-129813445D01*
X161374851Y-130213223D01*
X161157848Y-130735826D01*
X161157354Y-131301691D01*
X161373445Y-131824672D01*
X161773223Y-132225149D01*
X161929140Y-132289891D01*
X161775328Y-132353445D01*
X161374851Y-132753223D01*
X161157848Y-133275826D01*
X161157354Y-133841691D01*
X161373445Y-134364672D01*
X161773223Y-134765149D01*
X161929140Y-134829891D01*
X161775328Y-134893445D01*
X161374851Y-135293223D01*
X161157848Y-135815826D01*
X161157354Y-136381691D01*
X161373445Y-136904672D01*
X161773223Y-137305149D01*
X161929140Y-137369891D01*
X161775328Y-137433445D01*
X161374851Y-137833223D01*
X161157848Y-138355826D01*
X161157354Y-138921691D01*
X161373445Y-139444672D01*
X161773223Y-139845149D01*
X162295826Y-140062152D01*
X162861691Y-140062646D01*
X163384672Y-139846555D01*
X163785149Y-139446777D01*
X164002152Y-138924174D01*
X164002646Y-138358309D01*
X163786555Y-137835328D01*
X163386777Y-137434851D01*
X163230860Y-137370109D01*
X163384672Y-137306555D01*
X163785149Y-136906777D01*
X163881531Y-136674661D01*
X173100758Y-136674661D01*
X173312990Y-137188303D01*
X173705630Y-137581629D01*
X174218900Y-137794757D01*
X174774661Y-137795242D01*
X175288303Y-137583010D01*
X175681629Y-137190370D01*
X175767949Y-136982488D01*
X175852990Y-137188303D01*
X176245630Y-137581629D01*
X176758900Y-137794757D01*
X177314661Y-137795242D01*
X177828303Y-137583010D01*
X178221629Y-137190370D01*
X178307949Y-136982488D01*
X178392990Y-137188303D01*
X178785630Y-137581629D01*
X179298900Y-137794757D01*
X179854661Y-137795242D01*
X180368303Y-137583010D01*
X180761629Y-137190370D01*
X180847949Y-136982488D01*
X180932990Y-137188303D01*
X181325630Y-137581629D01*
X181838900Y-137794757D01*
X182394661Y-137795242D01*
X182908303Y-137583010D01*
X183301629Y-137190370D01*
X183387949Y-136982488D01*
X183472990Y-137188303D01*
X183865630Y-137581629D01*
X184378900Y-137794757D01*
X184934661Y-137795242D01*
X185448303Y-137583010D01*
X185841629Y-137190370D01*
X185927949Y-136982488D01*
X186012990Y-137188303D01*
X186405630Y-137581629D01*
X186918900Y-137794757D01*
X187474661Y-137795242D01*
X187988303Y-137583010D01*
X188381629Y-137190370D01*
X188467949Y-136982488D01*
X188552990Y-137188303D01*
X188945630Y-137581629D01*
X189458900Y-137794757D01*
X190014661Y-137795242D01*
X190528303Y-137583010D01*
X190921629Y-137190370D01*
X191007949Y-136982488D01*
X191092990Y-137188303D01*
X191485630Y-137581629D01*
X191998900Y-137794757D01*
X192554661Y-137795242D01*
X193068303Y-137583010D01*
X193461629Y-137190370D01*
X193674757Y-136677100D01*
X193675242Y-136121339D01*
X193463010Y-135607697D01*
X193070370Y-135214371D01*
X192557100Y-135001243D01*
X192001339Y-135000758D01*
X191487697Y-135212990D01*
X191094371Y-135605630D01*
X191008051Y-135813512D01*
X190923010Y-135607697D01*
X190530370Y-135214371D01*
X190017100Y-135001243D01*
X189461339Y-135000758D01*
X188947697Y-135212990D01*
X188554371Y-135605630D01*
X188468051Y-135813512D01*
X188383010Y-135607697D01*
X187990370Y-135214371D01*
X187477100Y-135001243D01*
X186921339Y-135000758D01*
X186407697Y-135212990D01*
X186014371Y-135605630D01*
X185928051Y-135813512D01*
X185843010Y-135607697D01*
X185450370Y-135214371D01*
X184937100Y-135001243D01*
X184381339Y-135000758D01*
X183867697Y-135212990D01*
X183474371Y-135605630D01*
X183388051Y-135813512D01*
X183303010Y-135607697D01*
X182910370Y-135214371D01*
X182397100Y-135001243D01*
X181841339Y-135000758D01*
X181327697Y-135212990D01*
X180934371Y-135605630D01*
X180848051Y-135813512D01*
X180763010Y-135607697D01*
X180370370Y-135214371D01*
X179857100Y-135001243D01*
X179301339Y-135000758D01*
X178787697Y-135212990D01*
X178394371Y-135605630D01*
X178308051Y-135813512D01*
X178223010Y-135607697D01*
X177830370Y-135214371D01*
X177317100Y-135001243D01*
X176761339Y-135000758D01*
X176247697Y-135212990D01*
X175854371Y-135605630D01*
X175768051Y-135813512D01*
X175683010Y-135607697D01*
X175290370Y-135214371D01*
X174777100Y-135001243D01*
X174221339Y-135000758D01*
X173707697Y-135212990D01*
X173314371Y-135605630D01*
X173101243Y-136118900D01*
X173100758Y-136674661D01*
X163881531Y-136674661D01*
X164002152Y-136384174D01*
X164002646Y-135818309D01*
X163786555Y-135295328D01*
X163386777Y-134894851D01*
X163230860Y-134830109D01*
X163384672Y-134766555D01*
X163785149Y-134366777D01*
X164002152Y-133844174D01*
X164002646Y-133278309D01*
X163786555Y-132755328D01*
X163386777Y-132354851D01*
X163230860Y-132290109D01*
X163384672Y-132226555D01*
X163785149Y-131826777D01*
X164002152Y-131304174D01*
X164002646Y-130738309D01*
X163786555Y-130215328D01*
X163386777Y-129814851D01*
X163230860Y-129750109D01*
X163384672Y-129686555D01*
X163785149Y-129286777D01*
X164002152Y-128764174D01*
X164002646Y-128198309D01*
X163786555Y-127675328D01*
X163386777Y-127274851D01*
X163230860Y-127210109D01*
X163384672Y-127146555D01*
X163785149Y-126746777D01*
X164002152Y-126224174D01*
X164002646Y-125658309D01*
X163786555Y-125135328D01*
X163386777Y-124734851D01*
X163230860Y-124670109D01*
X163384672Y-124606555D01*
X163785149Y-124206777D01*
X163881531Y-123974661D01*
X173100758Y-123974661D01*
X173312990Y-124488303D01*
X173705630Y-124881629D01*
X174218900Y-125094757D01*
X174774661Y-125095242D01*
X175288303Y-124883010D01*
X175493457Y-124678213D01*
X176237392Y-124678213D01*
X176306857Y-124920397D01*
X176830302Y-125107144D01*
X177385368Y-125079362D01*
X177769143Y-124920397D01*
X177838608Y-124678213D01*
X177038000Y-123877605D01*
X176237392Y-124678213D01*
X175493457Y-124678213D01*
X175681629Y-124490370D01*
X175761395Y-124298273D01*
X175815603Y-124429143D01*
X176057787Y-124498608D01*
X176858395Y-123698000D01*
X177217605Y-123698000D01*
X178018213Y-124498608D01*
X178260397Y-124429143D01*
X178310509Y-124288682D01*
X178392990Y-124488303D01*
X178785630Y-124881629D01*
X179298900Y-125094757D01*
X179854661Y-125095242D01*
X180368303Y-124883010D01*
X180761629Y-124490370D01*
X180847949Y-124282488D01*
X180932990Y-124488303D01*
X181325630Y-124881629D01*
X181838900Y-125094757D01*
X182394661Y-125095242D01*
X182908303Y-124883010D01*
X183301629Y-124490370D01*
X183387949Y-124282488D01*
X183472990Y-124488303D01*
X183865630Y-124881629D01*
X184378900Y-125094757D01*
X184934661Y-125095242D01*
X185448303Y-124883010D01*
X185841629Y-124490370D01*
X185927949Y-124282488D01*
X186012990Y-124488303D01*
X186405630Y-124881629D01*
X186918900Y-125094757D01*
X187474661Y-125095242D01*
X187988303Y-124883010D01*
X188381629Y-124490370D01*
X188467949Y-124282488D01*
X188552990Y-124488303D01*
X188945630Y-124881629D01*
X189458900Y-125094757D01*
X190014661Y-125095242D01*
X190528303Y-124883010D01*
X190733457Y-124678213D01*
X191477392Y-124678213D01*
X191546857Y-124920397D01*
X192070302Y-125107144D01*
X192625368Y-125079362D01*
X193009143Y-124920397D01*
X193078608Y-124678213D01*
X192278000Y-123877605D01*
X191477392Y-124678213D01*
X190733457Y-124678213D01*
X190921629Y-124490370D01*
X191001395Y-124298273D01*
X191055603Y-124429143D01*
X191297787Y-124498608D01*
X192098395Y-123698000D01*
X192457605Y-123698000D01*
X193258213Y-124498608D01*
X193500397Y-124429143D01*
X193687144Y-123905698D01*
X193659362Y-123350632D01*
X193500397Y-122966857D01*
X193258213Y-122897392D01*
X192457605Y-123698000D01*
X192098395Y-123698000D01*
X191297787Y-122897392D01*
X191055603Y-122966857D01*
X191005491Y-123107318D01*
X190923010Y-122907697D01*
X190733432Y-122717787D01*
X191477392Y-122717787D01*
X192278000Y-123518395D01*
X193078608Y-122717787D01*
X193009143Y-122475603D01*
X192485698Y-122288856D01*
X191930632Y-122316638D01*
X191546857Y-122475603D01*
X191477392Y-122717787D01*
X190733432Y-122717787D01*
X190530370Y-122514371D01*
X190017100Y-122301243D01*
X189461339Y-122300758D01*
X188947697Y-122512990D01*
X188554371Y-122905630D01*
X188468051Y-123113512D01*
X188383010Y-122907697D01*
X187990370Y-122514371D01*
X187477100Y-122301243D01*
X186921339Y-122300758D01*
X186407697Y-122512990D01*
X186014371Y-122905630D01*
X185928051Y-123113512D01*
X185843010Y-122907697D01*
X185450370Y-122514371D01*
X184937100Y-122301243D01*
X184381339Y-122300758D01*
X183867697Y-122512990D01*
X183474371Y-122905630D01*
X183388051Y-123113512D01*
X183303010Y-122907697D01*
X182910370Y-122514371D01*
X182397100Y-122301243D01*
X181841339Y-122300758D01*
X181327697Y-122512990D01*
X180934371Y-122905630D01*
X180848051Y-123113512D01*
X180763010Y-122907697D01*
X180370370Y-122514371D01*
X179857100Y-122301243D01*
X179301339Y-122300758D01*
X178787697Y-122512990D01*
X178394371Y-122905630D01*
X178314605Y-123097727D01*
X178260397Y-122966857D01*
X178018213Y-122897392D01*
X177217605Y-123698000D01*
X176858395Y-123698000D01*
X176057787Y-122897392D01*
X175815603Y-122966857D01*
X175765491Y-123107318D01*
X175683010Y-122907697D01*
X175493432Y-122717787D01*
X176237392Y-122717787D01*
X177038000Y-123518395D01*
X177838608Y-122717787D01*
X177769143Y-122475603D01*
X177245698Y-122288856D01*
X176690632Y-122316638D01*
X176306857Y-122475603D01*
X176237392Y-122717787D01*
X175493432Y-122717787D01*
X175290370Y-122514371D01*
X174777100Y-122301243D01*
X174221339Y-122300758D01*
X173707697Y-122512990D01*
X173314371Y-122905630D01*
X173101243Y-123418900D01*
X173100758Y-123974661D01*
X163881531Y-123974661D01*
X164002152Y-123684174D01*
X164002646Y-123118309D01*
X163786555Y-122595328D01*
X163386777Y-122194851D01*
X163230860Y-122130109D01*
X163384672Y-122066555D01*
X163785149Y-121666777D01*
X164002152Y-121144174D01*
X164002646Y-120578309D01*
X163786555Y-120055328D01*
X163386777Y-119654851D01*
X163230860Y-119590109D01*
X163384672Y-119526555D01*
X163785149Y-119126777D01*
X164002152Y-118604174D01*
X164002646Y-118038309D01*
X163786555Y-117515328D01*
X163386777Y-117114851D01*
X163230860Y-117050109D01*
X163384672Y-116986555D01*
X163785149Y-116586777D01*
X164002152Y-116064174D01*
X164002361Y-115824000D01*
X165109907Y-115824000D01*
X165222946Y-116392285D01*
X165544853Y-116874054D01*
X165874026Y-117094000D01*
X165544853Y-117313946D01*
X165222946Y-117795715D01*
X165109907Y-118364000D01*
X165222946Y-118932285D01*
X165544853Y-119414054D01*
X165874026Y-119634000D01*
X165544853Y-119853946D01*
X165222946Y-120335715D01*
X165109907Y-120904000D01*
X165222946Y-121472285D01*
X165544853Y-121954054D01*
X166026622Y-122275961D01*
X166594907Y-122389000D01*
X166653093Y-122389000D01*
X167221378Y-122275961D01*
X167703147Y-121954054D01*
X168025054Y-121472285D01*
X168138093Y-120904000D01*
X168025054Y-120335715D01*
X167876179Y-120112907D01*
X178093000Y-120112907D01*
X178093000Y-120171093D01*
X178206039Y-120739378D01*
X178527946Y-121221147D01*
X179009715Y-121543054D01*
X179578000Y-121656093D01*
X180146285Y-121543054D01*
X180628054Y-121221147D01*
X180848000Y-120891974D01*
X181067946Y-121221147D01*
X181549715Y-121543054D01*
X182118000Y-121656093D01*
X182686285Y-121543054D01*
X183168054Y-121221147D01*
X183388000Y-120891974D01*
X183607946Y-121221147D01*
X184089715Y-121543054D01*
X184658000Y-121656093D01*
X185226285Y-121543054D01*
X185708054Y-121221147D01*
X185735850Y-121179548D01*
X185744838Y-121227317D01*
X185883910Y-121443441D01*
X186096110Y-121588431D01*
X186348000Y-121639440D01*
X188048000Y-121639440D01*
X188283317Y-121595162D01*
X188499441Y-121456090D01*
X188644431Y-121243890D01*
X188695440Y-120992000D01*
X188695440Y-119292000D01*
X188651162Y-119056683D01*
X188512090Y-118840559D01*
X188299890Y-118695569D01*
X188048000Y-118644560D01*
X186348000Y-118644560D01*
X186112683Y-118688838D01*
X185896559Y-118827910D01*
X185751569Y-119040110D01*
X185737914Y-119107541D01*
X185708054Y-119062853D01*
X185226285Y-118740946D01*
X184658000Y-118627907D01*
X184089715Y-118740946D01*
X183607946Y-119062853D01*
X183388000Y-119392026D01*
X183168054Y-119062853D01*
X182686285Y-118740946D01*
X182118000Y-118627907D01*
X181549715Y-118740946D01*
X181067946Y-119062853D01*
X180848000Y-119392026D01*
X180628054Y-119062853D01*
X180146285Y-118740946D01*
X179578000Y-118627907D01*
X179009715Y-118740946D01*
X178527946Y-119062853D01*
X178206039Y-119544622D01*
X178093000Y-120112907D01*
X167876179Y-120112907D01*
X167703147Y-119853946D01*
X167373974Y-119634000D01*
X167703147Y-119414054D01*
X168025054Y-118932285D01*
X168138093Y-118364000D01*
X168025054Y-117795715D01*
X167703147Y-117313946D01*
X167373974Y-117094000D01*
X167703147Y-116874054D01*
X168025054Y-116392285D01*
X168032537Y-116354661D01*
X172592758Y-116354661D01*
X172804990Y-116868303D01*
X173197630Y-117261629D01*
X173710900Y-117474757D01*
X174266661Y-117475242D01*
X174780303Y-117263010D01*
X175173629Y-116870370D01*
X175259949Y-116662488D01*
X175344990Y-116868303D01*
X175737630Y-117261629D01*
X176250900Y-117474757D01*
X176806661Y-117475242D01*
X177320303Y-117263010D01*
X177713629Y-116870370D01*
X177799949Y-116662488D01*
X177884990Y-116868303D01*
X178277630Y-117261629D01*
X178790900Y-117474757D01*
X179346661Y-117475242D01*
X179860303Y-117263010D01*
X180253629Y-116870370D01*
X180339949Y-116662488D01*
X180424990Y-116868303D01*
X180817630Y-117261629D01*
X181330900Y-117474757D01*
X181886661Y-117475242D01*
X182400303Y-117263010D01*
X182793629Y-116870370D01*
X182879949Y-116662488D01*
X182964990Y-116868303D01*
X183357630Y-117261629D01*
X183870900Y-117474757D01*
X184426661Y-117475242D01*
X184940303Y-117263010D01*
X185333629Y-116870370D01*
X185419949Y-116662488D01*
X185504990Y-116868303D01*
X185897630Y-117261629D01*
X186410900Y-117474757D01*
X186966661Y-117475242D01*
X187480303Y-117263010D01*
X187873629Y-116870370D01*
X187959949Y-116662488D01*
X188044990Y-116868303D01*
X188437630Y-117261629D01*
X188950900Y-117474757D01*
X189506661Y-117475242D01*
X190020303Y-117263010D01*
X190413629Y-116870370D01*
X190499949Y-116662488D01*
X190584990Y-116868303D01*
X190977630Y-117261629D01*
X191490900Y-117474757D01*
X192046661Y-117475242D01*
X192560303Y-117263010D01*
X192713000Y-117110579D01*
X192713000Y-118178842D01*
X192341343Y-118332408D01*
X191993629Y-118679515D01*
X191805215Y-119133266D01*
X191804786Y-119624579D01*
X191992408Y-120078657D01*
X192339515Y-120426371D01*
X192793266Y-120614785D01*
X193284579Y-120615214D01*
X193738657Y-120427592D01*
X194086371Y-120080485D01*
X194274785Y-119626734D01*
X194275107Y-119257888D01*
X194304432Y-119214000D01*
X194319439Y-119191541D01*
X194383000Y-118872000D01*
X194383000Y-110744000D01*
X194319439Y-110424459D01*
X194138434Y-110153566D01*
X190464953Y-106480085D01*
X190465214Y-106181421D01*
X190277592Y-105727343D01*
X189930485Y-105379629D01*
X189476734Y-105191215D01*
X188985421Y-105190786D01*
X188531343Y-105378408D01*
X188183629Y-105725515D01*
X187995215Y-106179266D01*
X187994786Y-106670579D01*
X188182408Y-107124657D01*
X188529515Y-107472371D01*
X188983266Y-107660785D01*
X189284180Y-107661048D01*
X192713000Y-111089868D01*
X192713000Y-115045264D01*
X192562370Y-114894371D01*
X192049100Y-114681243D01*
X191493339Y-114680758D01*
X190979697Y-114892990D01*
X190586371Y-115285630D01*
X190500051Y-115493512D01*
X190415010Y-115287697D01*
X190022370Y-114894371D01*
X189509100Y-114681243D01*
X188953339Y-114680758D01*
X188439697Y-114892990D01*
X188046371Y-115285630D01*
X187960051Y-115493512D01*
X187875010Y-115287697D01*
X187482370Y-114894371D01*
X186969100Y-114681243D01*
X186413339Y-114680758D01*
X185899697Y-114892990D01*
X185506371Y-115285630D01*
X185420051Y-115493512D01*
X185335010Y-115287697D01*
X184942370Y-114894371D01*
X184429100Y-114681243D01*
X183873339Y-114680758D01*
X183359697Y-114892990D01*
X182966371Y-115285630D01*
X182880051Y-115493512D01*
X182795010Y-115287697D01*
X182402370Y-114894371D01*
X181889100Y-114681243D01*
X181333339Y-114680758D01*
X180819697Y-114892990D01*
X180426371Y-115285630D01*
X180340051Y-115493512D01*
X180255010Y-115287697D01*
X179862370Y-114894371D01*
X179349100Y-114681243D01*
X178793339Y-114680758D01*
X178279697Y-114892990D01*
X177886371Y-115285630D01*
X177800051Y-115493512D01*
X177715010Y-115287697D01*
X177322370Y-114894371D01*
X176809100Y-114681243D01*
X176253339Y-114680758D01*
X175739697Y-114892990D01*
X175346371Y-115285630D01*
X175260051Y-115493512D01*
X175175010Y-115287697D01*
X174782370Y-114894371D01*
X174269100Y-114681243D01*
X173713339Y-114680758D01*
X173199697Y-114892990D01*
X172806371Y-115285630D01*
X172593243Y-115798900D01*
X172592758Y-116354661D01*
X168032537Y-116354661D01*
X168138093Y-115824000D01*
X168025054Y-115255715D01*
X167703147Y-114773946D01*
X167661548Y-114746150D01*
X167709317Y-114737162D01*
X167925441Y-114598090D01*
X168070431Y-114385890D01*
X168121440Y-114134000D01*
X168121440Y-112434000D01*
X168077162Y-112198683D01*
X167938090Y-111982559D01*
X167725890Y-111837569D01*
X167474000Y-111786560D01*
X165774000Y-111786560D01*
X165538683Y-111830838D01*
X165322559Y-111969910D01*
X165177569Y-112182110D01*
X165126560Y-112434000D01*
X165126560Y-114134000D01*
X165170838Y-114369317D01*
X165309910Y-114585441D01*
X165522110Y-114730431D01*
X165589541Y-114744086D01*
X165544853Y-114773946D01*
X165222946Y-115255715D01*
X165109907Y-115824000D01*
X164002361Y-115824000D01*
X164002646Y-115498309D01*
X163786555Y-114975328D01*
X163386777Y-114574851D01*
X163230860Y-114510109D01*
X163384672Y-114446555D01*
X163785149Y-114046777D01*
X164002152Y-113524174D01*
X164002646Y-112958309D01*
X163786555Y-112435328D01*
X163386777Y-112034851D01*
X163230860Y-111970109D01*
X163384672Y-111906555D01*
X163785149Y-111506777D01*
X164002152Y-110984174D01*
X164002646Y-110418309D01*
X163786555Y-109895328D01*
X163386777Y-109494851D01*
X163230860Y-109430109D01*
X163384672Y-109366555D01*
X163785149Y-108966777D01*
X164002152Y-108444174D01*
X164002646Y-107878309D01*
X163786555Y-107355328D01*
X163386777Y-106954851D01*
X163246422Y-106896571D01*
X163326425Y-106863432D01*
X163399011Y-106618617D01*
X162580000Y-105799605D01*
X161760989Y-106618617D01*
X161833575Y-106863432D01*
X161919024Y-106894071D01*
X161775328Y-106953445D01*
X161374851Y-107353223D01*
X161157848Y-107875826D01*
X161157354Y-108441691D01*
X148762154Y-108441691D01*
X148762646Y-107878309D01*
X148546555Y-107355328D01*
X148146777Y-106954851D01*
X147990860Y-106890109D01*
X148144672Y-106826555D01*
X148545149Y-106426777D01*
X148762152Y-105904174D01*
X148762586Y-105406235D01*
X161145574Y-105406235D01*
X161172959Y-105971438D01*
X161336568Y-106366425D01*
X161581383Y-106439011D01*
X162400395Y-105620000D01*
X162759605Y-105620000D01*
X163578617Y-106439011D01*
X163823432Y-106366425D01*
X164014426Y-105833765D01*
X163987041Y-105268562D01*
X163823432Y-104873575D01*
X163578617Y-104800989D01*
X162759605Y-105620000D01*
X162400395Y-105620000D01*
X161581383Y-104800989D01*
X161336568Y-104873575D01*
X161145574Y-105406235D01*
X148762586Y-105406235D01*
X148762646Y-105338309D01*
X148546555Y-104815328D01*
X148146777Y-104414851D01*
X147990860Y-104350109D01*
X148144672Y-104286555D01*
X148545149Y-103886777D01*
X148762152Y-103364174D01*
X148762154Y-103361691D01*
X161157354Y-103361691D01*
X161373445Y-103884672D01*
X161773223Y-104285149D01*
X161913578Y-104343429D01*
X161833575Y-104376568D01*
X161760989Y-104621383D01*
X162580000Y-105440395D01*
X163399011Y-104621383D01*
X163326425Y-104376568D01*
X163240976Y-104345929D01*
X163384672Y-104286555D01*
X163785149Y-103886777D01*
X163881531Y-103654661D01*
X172592758Y-103654661D01*
X172804990Y-104168303D01*
X173197630Y-104561629D01*
X173710900Y-104774757D01*
X174266661Y-104775242D01*
X174780303Y-104563010D01*
X174985457Y-104358213D01*
X175729392Y-104358213D01*
X175798857Y-104600397D01*
X176322302Y-104787144D01*
X176877368Y-104759362D01*
X177261143Y-104600397D01*
X177330608Y-104358213D01*
X176530000Y-103557605D01*
X175729392Y-104358213D01*
X174985457Y-104358213D01*
X175173629Y-104170370D01*
X175253395Y-103978273D01*
X175307603Y-104109143D01*
X175549787Y-104178608D01*
X176350395Y-103378000D01*
X176709605Y-103378000D01*
X177510213Y-104178608D01*
X177752397Y-104109143D01*
X177802509Y-103968682D01*
X177884990Y-104168303D01*
X178277630Y-104561629D01*
X178790900Y-104774757D01*
X179346661Y-104775242D01*
X179860303Y-104563010D01*
X180253629Y-104170370D01*
X180339949Y-103962488D01*
X180424990Y-104168303D01*
X180817630Y-104561629D01*
X181330900Y-104774757D01*
X181886661Y-104775242D01*
X182400303Y-104563010D01*
X182793629Y-104170370D01*
X182879949Y-103962488D01*
X182964990Y-104168303D01*
X183357630Y-104561629D01*
X183870900Y-104774757D01*
X184426661Y-104775242D01*
X184940303Y-104563010D01*
X185333629Y-104170370D01*
X185419949Y-103962488D01*
X185504990Y-104168303D01*
X185897630Y-104561629D01*
X186410900Y-104774757D01*
X186966661Y-104775242D01*
X187480303Y-104563010D01*
X187873629Y-104170370D01*
X187959949Y-103962488D01*
X188044990Y-104168303D01*
X188437630Y-104561629D01*
X188950900Y-104774757D01*
X189506661Y-104775242D01*
X190020303Y-104563010D01*
X190225457Y-104358213D01*
X190969392Y-104358213D01*
X191038857Y-104600397D01*
X191562302Y-104787144D01*
X192117368Y-104759362D01*
X192501143Y-104600397D01*
X192570608Y-104358213D01*
X191770000Y-103557605D01*
X190969392Y-104358213D01*
X190225457Y-104358213D01*
X190413629Y-104170370D01*
X190493395Y-103978273D01*
X190547603Y-104109143D01*
X190789787Y-104178608D01*
X191590395Y-103378000D01*
X191949605Y-103378000D01*
X192750213Y-104178608D01*
X192992397Y-104109143D01*
X193179144Y-103585698D01*
X193151362Y-103030632D01*
X192992397Y-102646857D01*
X192750213Y-102577392D01*
X191949605Y-103378000D01*
X191590395Y-103378000D01*
X190789787Y-102577392D01*
X190547603Y-102646857D01*
X190497491Y-102787318D01*
X190415010Y-102587697D01*
X190225432Y-102397787D01*
X190969392Y-102397787D01*
X191770000Y-103198395D01*
X192570608Y-102397787D01*
X192501143Y-102155603D01*
X191977698Y-101968856D01*
X191422632Y-101996638D01*
X191038857Y-102155603D01*
X190969392Y-102397787D01*
X190225432Y-102397787D01*
X190022370Y-102194371D01*
X189509100Y-101981243D01*
X188953339Y-101980758D01*
X188439697Y-102192990D01*
X188046371Y-102585630D01*
X187960051Y-102793512D01*
X187875010Y-102587697D01*
X187482370Y-102194371D01*
X186969100Y-101981243D01*
X186413339Y-101980758D01*
X185899697Y-102192990D01*
X185506371Y-102585630D01*
X185420051Y-102793512D01*
X185335010Y-102587697D01*
X184942370Y-102194371D01*
X184429100Y-101981243D01*
X183873339Y-101980758D01*
X183359697Y-102192990D01*
X182966371Y-102585630D01*
X182880051Y-102793512D01*
X182795010Y-102587697D01*
X182402370Y-102194371D01*
X181889100Y-101981243D01*
X181333339Y-101980758D01*
X180819697Y-102192990D01*
X180426371Y-102585630D01*
X180340051Y-102793512D01*
X180255010Y-102587697D01*
X179862370Y-102194371D01*
X179349100Y-101981243D01*
X178793339Y-101980758D01*
X178279697Y-102192990D01*
X177886371Y-102585630D01*
X177806605Y-102777727D01*
X177752397Y-102646857D01*
X177510213Y-102577392D01*
X176709605Y-103378000D01*
X176350395Y-103378000D01*
X175549787Y-102577392D01*
X175307603Y-102646857D01*
X175257491Y-102787318D01*
X175175010Y-102587697D01*
X174985432Y-102397787D01*
X175729392Y-102397787D01*
X176530000Y-103198395D01*
X177330608Y-102397787D01*
X177261143Y-102155603D01*
X176737698Y-101968856D01*
X176182632Y-101996638D01*
X175798857Y-102155603D01*
X175729392Y-102397787D01*
X174985432Y-102397787D01*
X174782370Y-102194371D01*
X174269100Y-101981243D01*
X173713339Y-101980758D01*
X173199697Y-102192990D01*
X172806371Y-102585630D01*
X172593243Y-103098900D01*
X172592758Y-103654661D01*
X163881531Y-103654661D01*
X164002152Y-103364174D01*
X164002646Y-102798309D01*
X163786555Y-102275328D01*
X163386777Y-101874851D01*
X162864174Y-101657848D01*
X162298309Y-101657354D01*
X161775328Y-101873445D01*
X161374851Y-102273223D01*
X161157848Y-102795826D01*
X161157354Y-103361691D01*
X148762154Y-103361691D01*
X148762646Y-102798309D01*
X148546555Y-102275328D01*
X148146777Y-101874851D01*
X147624174Y-101657848D01*
X147058309Y-101657354D01*
X146535328Y-101873445D01*
X146134851Y-102273223D01*
X145917848Y-102795826D01*
X145917354Y-103361691D01*
X136678703Y-103361691D01*
X136738139Y-103302255D01*
X136723855Y-103254833D01*
X136945317Y-103213162D01*
X137161441Y-103074090D01*
X137306431Y-102861890D01*
X137357440Y-102610000D01*
X137357440Y-101010000D01*
X137313162Y-100774683D01*
X137174090Y-100558559D01*
X136990168Y-100432890D01*
X166198524Y-100432890D01*
X166368355Y-100842924D01*
X166758642Y-101271183D01*
X167283108Y-101517486D01*
X167513000Y-101396819D01*
X167513000Y-100203000D01*
X167767000Y-100203000D01*
X167767000Y-101396819D01*
X167996892Y-101517486D01*
X168521358Y-101271183D01*
X168911645Y-100842924D01*
X169081476Y-100432890D01*
X168960155Y-100203000D01*
X167767000Y-100203000D01*
X167513000Y-100203000D01*
X166319845Y-100203000D01*
X166198524Y-100432890D01*
X136990168Y-100432890D01*
X136961890Y-100413569D01*
X136710000Y-100362560D01*
X135110000Y-100362560D01*
X134874683Y-100406838D01*
X134658559Y-100545910D01*
X134513569Y-100758110D01*
X134462560Y-101010000D01*
X132052119Y-101010000D01*
X132047243Y-100998200D01*
X131643923Y-100594176D01*
X131116691Y-100375250D01*
X130545813Y-100374752D01*
X130018200Y-100592757D01*
X129614176Y-100996077D01*
X129395250Y-101523309D01*
X129394752Y-102094187D01*
X127855000Y-102094187D01*
X127855000Y-99222841D01*
X128070054Y-99079147D01*
X128290000Y-98749974D01*
X128509946Y-99079147D01*
X128991715Y-99401054D01*
X129560000Y-99514093D01*
X130128285Y-99401054D01*
X130610054Y-99079147D01*
X130830000Y-98749974D01*
X131049946Y-99079147D01*
X131531715Y-99401054D01*
X132100000Y-99514093D01*
X132668285Y-99401054D01*
X133150054Y-99079147D01*
X133313187Y-98835000D01*
X154984000Y-98835000D01*
X155303541Y-98771439D01*
X155304385Y-98770875D01*
X155692579Y-98771214D01*
X156146657Y-98583592D01*
X156494371Y-98236485D01*
X156682785Y-97782734D01*
X156683214Y-97291421D01*
X156495592Y-96837343D01*
X156344514Y-96686000D01*
X166142560Y-96686000D01*
X166142560Y-98386000D01*
X166186838Y-98621317D01*
X166325910Y-98837441D01*
X166538110Y-98982431D01*
X166646107Y-99004301D01*
X166368355Y-99309076D01*
X166198524Y-99719110D01*
X166319845Y-99949000D01*
X167513000Y-99949000D01*
X167513000Y-99929000D01*
X167767000Y-99929000D01*
X167767000Y-99949000D01*
X168960155Y-99949000D01*
X169042530Y-99792907D01*
X177585000Y-99792907D01*
X177585000Y-99851093D01*
X177698039Y-100419378D01*
X178019946Y-100901147D01*
X178501715Y-101223054D01*
X179070000Y-101336093D01*
X179638285Y-101223054D01*
X180120054Y-100901147D01*
X180340000Y-100571974D01*
X180559946Y-100901147D01*
X181041715Y-101223054D01*
X181610000Y-101336093D01*
X182178285Y-101223054D01*
X182660054Y-100901147D01*
X182880000Y-100571974D01*
X183099946Y-100901147D01*
X183581715Y-101223054D01*
X184150000Y-101336093D01*
X184718285Y-101223054D01*
X185200054Y-100901147D01*
X185227850Y-100859548D01*
X185236838Y-100907317D01*
X185375910Y-101123441D01*
X185588110Y-101268431D01*
X185840000Y-101319440D01*
X187540000Y-101319440D01*
X187775317Y-101275162D01*
X187991441Y-101136090D01*
X188136431Y-100923890D01*
X188187440Y-100672000D01*
X188187440Y-98972000D01*
X188143162Y-98736683D01*
X188004090Y-98520559D01*
X187791890Y-98375569D01*
X187540000Y-98324560D01*
X185840000Y-98324560D01*
X185604683Y-98368838D01*
X185388559Y-98507910D01*
X185243569Y-98720110D01*
X185229914Y-98787541D01*
X185200054Y-98742853D01*
X184718285Y-98420946D01*
X184150000Y-98307907D01*
X183581715Y-98420946D01*
X183099946Y-98742853D01*
X182880000Y-99072026D01*
X182660054Y-98742853D01*
X182178285Y-98420946D01*
X181610000Y-98307907D01*
X181041715Y-98420946D01*
X180559946Y-98742853D01*
X180340000Y-99072026D01*
X180120054Y-98742853D01*
X179638285Y-98420946D01*
X179070000Y-98307907D01*
X178501715Y-98420946D01*
X178019946Y-98742853D01*
X177698039Y-99224622D01*
X177585000Y-99792907D01*
X169042530Y-99792907D01*
X169081476Y-99719110D01*
X168911645Y-99309076D01*
X168635499Y-99006063D01*
X168725317Y-98989162D01*
X168941441Y-98850090D01*
X169086431Y-98637890D01*
X169137440Y-98386000D01*
X169137440Y-96686000D01*
X169093162Y-96450683D01*
X168954090Y-96234559D01*
X168741890Y-96089569D01*
X168490000Y-96038560D01*
X166790000Y-96038560D01*
X166554683Y-96082838D01*
X166338559Y-96221910D01*
X166193569Y-96434110D01*
X166142560Y-96686000D01*
X156344514Y-96686000D01*
X156148485Y-96489629D01*
X155694734Y-96301215D01*
X155203421Y-96300786D01*
X154749343Y-96488408D01*
X154401629Y-96835515D01*
X154264815Y-97165000D01*
X133313187Y-97165000D01*
X133150054Y-96920853D01*
X132864422Y-96730000D01*
X133150054Y-96539147D01*
X133471961Y-96057378D01*
X133585000Y-95489093D01*
X133585000Y-95430907D01*
X133471961Y-94862622D01*
X133150054Y-94380853D01*
X132668285Y-94058946D01*
X132100000Y-93945907D01*
X131531715Y-94058946D01*
X131049946Y-94380853D01*
X130830000Y-94710026D01*
X130610054Y-94380853D01*
X130128285Y-94058946D01*
X129560000Y-93945907D01*
X128991715Y-94058946D01*
X128509946Y-94380853D01*
X128290000Y-94710026D01*
X128070054Y-94380853D01*
X127588285Y-94058946D01*
X127020000Y-93945907D01*
X126451715Y-94058946D01*
X125969946Y-94380853D01*
X125750000Y-94710026D01*
X125530054Y-94380853D01*
X125048285Y-94058946D01*
X124480000Y-93945907D01*
X123911715Y-94058946D01*
X123429946Y-94380853D01*
X123202298Y-94721553D01*
X123135183Y-94578642D01*
X122706924Y-94188355D01*
X122296890Y-94018524D01*
X122067000Y-94139845D01*
X122067000Y-95333000D01*
X122087000Y-95333000D01*
X122087000Y-95587000D01*
X122067000Y-95587000D01*
X122067000Y-97873000D01*
X122087000Y-97873000D01*
X122087000Y-98127000D01*
X122067000Y-98127000D01*
X122067000Y-99320155D01*
X122296890Y-99441476D01*
X122706924Y-99271645D01*
X123135183Y-98881358D01*
X123202298Y-98738447D01*
X123429946Y-99079147D01*
X123645000Y-99222841D01*
X123645000Y-99940132D01*
X122757762Y-100827370D01*
X122801000Y-100609998D01*
X122714603Y-100175653D01*
X122468566Y-99807432D01*
X122442568Y-99781434D01*
X122422979Y-99768345D01*
X122074348Y-99535397D01*
X121640002Y-99449000D01*
X119727244Y-99449000D01*
X119968285Y-99401054D01*
X120450054Y-99079147D01*
X120677702Y-98738447D01*
X120744817Y-98881358D01*
X121173076Y-99271645D01*
X121583110Y-99441476D01*
X121813000Y-99320155D01*
X121813000Y-98127000D01*
X121793000Y-98127000D01*
X121793000Y-97873000D01*
X121813000Y-97873000D01*
X121813000Y-95587000D01*
X121793000Y-95587000D01*
X121793000Y-95333000D01*
X121813000Y-95333000D01*
X121813000Y-94139845D01*
X121583110Y-94018524D01*
X121173076Y-94188355D01*
X120744817Y-94578642D01*
X120677702Y-94721553D01*
X120450054Y-94380853D01*
X119968285Y-94058946D01*
X119400000Y-93945907D01*
X118831715Y-94058946D01*
X118349946Y-94380853D01*
X118121409Y-94722883D01*
X117890711Y-94390915D01*
X117453265Y-94098655D01*
X117233000Y-94187282D01*
X117233000Y-95087000D01*
X117253000Y-95087000D01*
X117253000Y-95833000D01*
X117233000Y-95833000D01*
X117233000Y-97627000D01*
X117253000Y-97627000D01*
X117253000Y-98373000D01*
X117233000Y-98373000D01*
X117233000Y-98393000D01*
X116487000Y-98393000D01*
X116487000Y-98373000D01*
X116467000Y-98373000D01*
X116467000Y-97627000D01*
X116487000Y-97627000D01*
X116487000Y-95833000D01*
X116467000Y-95833000D01*
X116467000Y-95087000D01*
X116487000Y-95087000D01*
X116487000Y-94187282D01*
X116266735Y-94098655D01*
X115829289Y-94390915D01*
X115598591Y-94722883D01*
X115370054Y-94380853D01*
X114888285Y-94058946D01*
X114320000Y-93945907D01*
X113751715Y-94058946D01*
X113269946Y-94380853D01*
X113050000Y-94710026D01*
X112830054Y-94380853D01*
X112348285Y-94058946D01*
X111780000Y-93945907D01*
X111211715Y-94058946D01*
X110729946Y-94380853D01*
X110510000Y-94710026D01*
X110290054Y-94380853D01*
X109808285Y-94058946D01*
X109240000Y-93945907D01*
X108671715Y-94058946D01*
X108189946Y-94380853D01*
X107962298Y-94721553D01*
X107895183Y-94578642D01*
X107466924Y-94188355D01*
X107056890Y-94018524D01*
X106827000Y-94139845D01*
X106827000Y-95333000D01*
X106847000Y-95333000D01*
X106847000Y-95587000D01*
X106827000Y-95587000D01*
X106827000Y-97873000D01*
X106847000Y-97873000D01*
X106847000Y-98127000D01*
X106827000Y-98127000D01*
X106827000Y-98147000D01*
X106573000Y-98147000D01*
X106573000Y-98127000D01*
X106553000Y-98127000D01*
X106553000Y-97873000D01*
X106573000Y-97873000D01*
X106573000Y-95587000D01*
X106553000Y-95587000D01*
X106553000Y-95333000D01*
X106573000Y-95333000D01*
X106573000Y-94139845D01*
X106343110Y-94018524D01*
X105933076Y-94188355D01*
X105504817Y-94578642D01*
X105437702Y-94721553D01*
X105210054Y-94380853D01*
X104728285Y-94058946D01*
X104160000Y-93945907D01*
X103591715Y-94058946D01*
X103109946Y-94380853D01*
X102890000Y-94710026D01*
X102670054Y-94380853D01*
X102188285Y-94058946D01*
X101620000Y-93945907D01*
X101051715Y-94058946D01*
X100569946Y-94380853D01*
X100350000Y-94710026D01*
X100130054Y-94380853D01*
X99648285Y-94058946D01*
X99080000Y-93945907D01*
X98511715Y-94058946D01*
X98029946Y-94380853D01*
X97810000Y-94710026D01*
X97590054Y-94380853D01*
X97108285Y-94058946D01*
X96540000Y-93945907D01*
X95971715Y-94058946D01*
X95489946Y-94380853D01*
X95270000Y-94710026D01*
X95050054Y-94380853D01*
X94568285Y-94058946D01*
X94000000Y-93945907D01*
X93431715Y-94058946D01*
X92949946Y-94380853D01*
X92628039Y-94862622D01*
X92515000Y-95430907D01*
X92515000Y-95489093D01*
X92628039Y-96057378D01*
X92949946Y-96539147D01*
X92951179Y-96539971D01*
X92914683Y-96546838D01*
X92698559Y-96685910D01*
X92553569Y-96898110D01*
X92502560Y-97150000D01*
X87710000Y-97150000D01*
X87710000Y-96069931D01*
X87973288Y-94746293D01*
X88683454Y-93683454D01*
X89746295Y-92973288D01*
X90766303Y-92770395D01*
X91497954Y-93502046D01*
X91728295Y-93655954D01*
X92000000Y-93710001D01*
X92000005Y-93710000D01*
X136000000Y-93710000D01*
X136271705Y-93655954D01*
X136502046Y-93502046D01*
X137294092Y-92710000D01*
X192930069Y-92710000D01*
X194253707Y-92973288D01*
M02*
